<svg width="127" height="145" xmlns="http://www.w3.org/2000/svg" overflow="hidden">
    <defs>
        <clipPath id="clip0">
            <rect x="1587" y="1236" width="127" height="145"/>
        </clipPath>
    </defs>
    <g clip-path="url(#clip0)" transform="translate(-1587 -1236)">
        <path
            d="M1709.27 1340.35C1650.5 1340.35 1650.5 1340.35 1650.5 1340.35 1650.5 1240.07 1650.5 1240.07 1650.5 1240.07 1650.5 1238.03 1648.47 1236 1645.77 1236 1643.74 1236 1641.72 1238.03 1641.72 1240.07 1641.72 1340.35 1641.72 1340.35 1641.72 1340.35 1591.73 1340.35 1591.73 1340.35 1591.73 1340.35 1589.7 1340.35 1588.35 1341.02 1587.68 1342.38 1587 1343.73 1587 1345.09 1587.68 1346.44 1601.19 1378.29 1601.19 1378.29 1601.19 1378.29 1601.86 1380.32 1603.21 1381 1605.24 1381 1695.76 1381 1695.76 1381 1695.76 1381 1697.79 1381 1699.14 1380.32 1699.81 1378.29 1713.32 1346.44 1713.32 1346.44 1713.32 1346.44 1714 1345.09 1714 1343.73 1713.32 1342.38 1712.65 1341.02 1710.62 1340.35 1709.27 1340.35ZM1693.06 1372.19C1607.94 1372.19 1607.94 1372.19 1607.94 1372.19 1598.48 1349.15 1598.48 1349.15 1598.48 1349.15 1702.52 1349.15 1702.52 1349.15 1702.52 1349.15L1693.06 1372.19Z"
            fill-rule="evenodd"/>
        <path
            d="M1628.33 1283.67C1601.67 1328.33 1601.67 1328.33 1601.67 1328.33 1601 1329.67 1601 1331.67 1601.67 1333 1602.33 1334.33 1603.67 1335 1605.67 1335 1632.33 1335 1632.33 1335 1632.33 1335 1635 1335 1637 1333 1637 1330.33 1637 1285.67 1637 1285.67 1637 1285.67 1637 1283.67 1635.67 1282.33 1633.67 1281.67 1631.67 1281 1629.67 1281.67 1628.33 1283.67ZM1627.67 1326.33C1613.67 1326.33 1613.67 1326.33 1613.67 1326.33 1627.67 1302.33 1627.67 1302.33 1627.67 1302.33L1627.67 1326.33Z"
            fill-rule="evenodd"/>
        <path
            d="M1655 1240.04C1655 1330.29 1655 1330.29 1655 1330.29 1655 1332.98 1657.06 1335 1659.12 1335 1659.81 1335 1701 1334.33 1701 1285.16 1701 1236 1659.81 1236 1659.12 1236 1657.06 1236 1655 1238.02 1655 1240.04ZM1663.93 1245.43C1672.85 1246.78 1691.39 1254.18 1691.39 1285.16 1691.39 1316.14 1672.85 1323.55 1663.93 1325.57L1663.93 1245.43Z"
            fill-rule="evenodd"/>
    </g>
</svg>
