<svg width="120" height="120" xmlns="http://www.w3.org/2000/svg" xmlns:xlink="http://www.w3.org/1999/xlink" overflow="hidden"><defs><clipPath id="clip0"><rect x="2398" y="1090" width="120" height="120"/></clipPath></defs><g clip-path="url(#clip0)" transform="translate(-2398 -1090)"><path d="M2471.64 1163.64C2460.73 1163.64 2460.73 1163.64 2460.73 1163.64 2460.73 1174.55 2460.73 1174.55 2460.73 1174.55 2471.64 1174.55 2471.64 1174.55 2471.64 1174.55L2471.64 1163.64ZM2471.64 1144.55C2460.73 1144.55 2460.73 1144.55 2460.73 1144.55 2460.73 1155.45 2460.73 1155.45 2460.73 1155.45 2471.64 1155.45 2471.64 1155.45 2471.64 1155.45L2471.64 1144.55ZM2471.64 1182.73C2460.73 1182.73 2460.73 1182.73 2460.73 1182.73 2460.73 1193.64 2460.73 1193.64 2460.73 1193.64 2471.64 1193.64 2471.64 1193.64 2471.64 1193.64L2471.64 1182.73ZM2488 1144.55C2477.09 1144.55 2477.09 1144.55 2477.09 1144.55 2477.09 1155.45 2477.09 1155.45 2477.09 1155.45 2488 1155.45 2488 1155.45 2488 1155.45L2488 1144.55ZM2504.36 1144.55C2493.45 1144.55 2493.45 1144.55 2493.45 1144.55 2493.45 1155.45 2493.45 1155.45 2493.45 1155.45 2504.36 1155.45 2504.36 1155.45 2504.36 1155.45L2504.36 1144.55ZM2488 1163.64C2477.09 1163.64 2477.09 1163.64 2477.09 1163.64 2477.09 1174.55 2477.09 1174.55 2477.09 1174.55 2488 1174.55 2488 1174.55 2488 1174.55L2488 1163.64ZM2504.36 1163.64C2493.45 1163.64 2493.45 1163.64 2493.45 1163.64 2493.45 1174.55 2493.45 1174.55 2493.45 1174.55 2504.36 1174.55 2504.36 1174.55 2504.36 1174.55L2504.36 1163.64ZM2455.27 1163.64C2444.36 1163.64 2444.36 1163.64 2444.36 1163.64 2444.36 1174.55 2444.36 1174.55 2444.36 1174.55 2455.27 1174.55 2455.27 1174.55 2455.27 1174.55L2455.27 1163.64ZM2455.27 1144.55C2444.36 1144.55 2444.36 1144.55 2444.36 1144.55 2444.36 1155.45 2444.36 1155.45 2444.36 1155.45 2455.27 1155.45 2455.27 1155.45 2455.27 1155.45L2455.27 1144.55ZM2455.27 1182.73C2444.36 1182.73 2444.36 1182.73 2444.36 1182.73 2444.36 1193.64 2444.36 1193.64 2444.36 1193.64 2455.27 1193.64 2455.27 1193.64 2455.27 1193.64L2455.27 1182.73ZM2422.55 1163.64C2411.64 1163.64 2411.64 1163.64 2411.64 1163.64 2411.64 1174.55 2411.64 1174.55 2411.64 1174.55 2422.55 1174.55 2422.55 1174.55 2422.55 1174.55L2422.55 1163.64ZM2422.55 1144.55C2411.64 1144.55 2411.64 1144.55 2411.64 1144.55 2411.64 1155.45 2411.64 1155.45 2411.64 1155.45 2422.55 1155.45 2422.55 1155.45 2422.55 1155.45L2422.55 1144.55ZM2507.09 1100.91C2496.18 1100.91 2496.18 1100.91 2496.18 1100.91 2496.18 1092.73 2496.18 1092.73 2496.18 1092.73 2496.18 1091.36 2494.82 1090 2493.45 1090 2492.09 1090 2490.73 1091.36 2490.73 1092.73 2490.73 1100.91 2490.73 1100.91 2490.73 1100.91 2425.27 1100.91 2425.27 1100.91 2425.27 1100.91 2425.27 1092.73 2425.27 1092.73 2425.27 1092.73 2425.27 1091.36 2423.91 1090 2422.55 1090 2421.18 1090 2419.82 1091.36 2419.82 1092.73 2419.82 1100.91 2419.82 1100.91 2419.82 1100.91 2408.91 1100.91 2408.91 1100.91 2408.91 1100.91 2402.77 1100.91 2398 1105.68 2398 1111.82 2398 1199.09 2398 1199.09 2398 1199.09 2398 1205.23 2402.77 1210 2408.91 1210 2507.09 1210 2507.09 1210 2507.09 1210 2513.23 1210 2518 1205.23 2518 1199.09 2518 1111.82 2518 1111.82 2518 1111.82 2518 1105.68 2513.23 1100.91 2507.09 1100.91M2512.55 1199.09C2512.55 1201.82 2509.82 1204.55 2507.09 1204.55 2408.91 1204.55 2408.91 1204.55 2408.91 1204.55 2406.18 1204.55 2403.45 1201.82 2403.45 1199.09 2403.45 1133.64 2403.45 1133.64 2403.45 1133.64 2512.55 1133.64 2512.55 1133.64 2512.55 1133.64L2512.55 1199.09ZM2512.55 1128.18C2403.45 1128.18 2403.45 1128.18 2403.45 1128.18 2403.45 1111.82 2403.45 1111.82 2403.45 1111.82 2403.45 1109.09 2406.18 1106.36 2408.91 1106.36 2419.82 1106.36 2419.82 1106.36 2419.82 1106.36 2419.82 1114.55 2419.82 1114.55 2419.82 1114.55 2419.82 1115.91 2421.18 1117.27 2422.55 1117.27 2423.91 1117.27 2425.27 1115.91 2425.27 1114.55 2425.27 1106.36 2425.27 1106.36 2425.27 1106.36 2490.73 1106.36 2490.73 1106.36 2490.73 1106.36 2490.73 1114.55 2490.73 1114.55 2490.73 1114.55 2490.73 1115.91 2492.09 1117.27 2493.45 1117.27 2494.82 1117.27 2496.18 1115.91 2496.18 1114.55 2496.18 1106.36 2496.18 1106.36 2496.18 1106.36 2507.09 1106.36 2507.09 1106.36 2507.09 1106.36 2509.82 1106.36 2512.55 1109.09 2512.55 1111.82L2512.55 1128.18ZM2422.55 1182.73C2411.64 1182.73 2411.64 1182.73 2411.64 1182.73 2411.64 1193.64 2411.64 1193.64 2411.64 1193.64 2422.55 1193.64 2422.55 1193.64 2422.55 1193.64L2422.55 1182.73ZM2438.91 1144.55C2428 1144.55 2428 1144.55 2428 1144.55 2428 1155.45 2428 1155.45 2428 1155.45 2438.91 1155.45 2438.91 1155.45 2438.91 1155.45L2438.91 1144.55ZM2438.91 1182.73C2428 1182.73 2428 1182.73 2428 1182.73 2428 1193.64 2428 1193.64 2428 1193.64 2438.91 1193.64 2438.91 1193.64 2438.91 1193.64L2438.91 1182.73ZM2438.91 1163.64C2428 1163.64 2428 1163.64 2428 1163.64 2428 1174.55 2428 1174.55 2428 1174.55 2438.91 1174.55 2438.91 1174.55 2438.91 1174.55L2438.91 1163.64Z" fill="#789d" fill-rule="evenodd"/></g></svg>
