<svg width="100" height="106" xmlns="http://www.w3.org/2000/svg" xmlns:xlink="http://www.w3.org/1999/xlink" overflow="hidden"><defs><clipPath id="clip0"><rect x="540" y="665" width="100" height="106"/></clipPath></defs><g clip-path="url(#clip0)" transform="translate(-540 -665)"><path d="M620.465 704C609.302 704 600 713.178 600 724.192 600 729.699 602.791 735.206 606.511 738.877 606.511 771 606.511 771 606.511 771 620.465 757.233 620.465 757.233 620.465 757.233 633.488 771 633.488 771 633.488 771 633.488 738.877 633.488 738.877 633.488 738.877 637.209 735.206 640 729.699 640 724.192 640 713.178 631.628 704 620.465 704ZM620.465 737.959C613.023 737.959 606.511 731.534 606.511 724.192 606.511 716.849 613.023 710.425 620.465 710.425 627.907 710.425 633.488 716.849 633.488 724.192 633.488 731.534 627.907 737.959 620.465 737.959Z" fill="#272829" fill-rule="evenodd"/><path d="M584.94 757.174 553.828 757.174 553.828 677.674 591.278 677.674 610.868 697.837 627 697.837 627 694.957 597.04 665 540 665 540 771 598.192 771 584.94 758.326 584.94 757.174Z" fill="#272829" fill-rule="evenodd"/><rect x="560" y="698" width="34.0001" height="5.99982" fill="#272829"/><rect x="560" y="710" width="34.0001" height="8.00024" fill="#272829"/><rect x="560" y="724" width="34.0001" height="6.00018" fill="#272829"/></g></svg>