<svg width="121" height="121" xmlns="http://www.w3.org/2000/svg" xmlns:xlink="http://www.w3.org/1999/xlink" overflow="hidden"><defs><clipPath id="clip0"><rect x="783" y="400" width="121" height="121"/></clipPath></defs><g clip-path="url(#clip0)" transform="translate(-783 -400)"><path d="M884.75 457.75C883.375 457.75 882 459.125 882 460.5 882 461.875 883.375 463.25 884.75 463.25 886.125 463.25 887.5 461.875 887.5 460.5 887.5 459.125 886.125 457.75 884.75 457.75M824.25 493.5C822.875 492.813 821.5 493.5 820.813 494.875 819.438 496.25 820.125 497.625 821.5 498.313 822.875 499.688 824.25 499 824.938 497.625 826.313 496.25 825.625 494.875 824.25 493.5M806.375 479.063C805 479.75 804.313 481.125 805.688 482.5 806.375 483.875 807.75 484.563 809.125 483.188 810.5 482.5 811.188 481.125 810.5 479.75 809.125 478.375 807.75 477.688 806.375 479.063M821.5 422.688C820.125 423.375 819.438 424.75 820.813 426.125 821.5 427.5 822.875 428.188 824.25 427.5 825.625 426.125 826.313 424.75 824.938 423.375 824.25 422 822.875 421.313 821.5 422.688M802.25 457.75C800.875 457.75 799.5 459.125 799.5 460.5 799.5 461.875 800.875 463.25 802.25 463.25 803.625 463.25 805 461.875 805 460.5 805 459.125 803.625 457.75 802.25 457.75M862.75 427.5C864.125 428.188 865.5 427.5 866.188 426.125 867.563 424.75 866.875 423.375 865.5 422.688 864.125 421.313 862.75 422 862.063 423.375 860.688 424.75 861.375 426.125 862.75 427.5M809.125 437.813C807.75 436.438 806.375 437.125 805.688 438.5 804.313 439.875 805 441.25 806.375 441.938 807.75 443.313 809.125 442.625 810.5 441.25 811.188 439.875 810.5 438.5 809.125 437.813M880.625 479.063C879.25 477.688 877.875 478.375 877.188 479.75 875.813 481.125 876.5 482.5 877.875 483.188 879.25 484.563 880.625 483.875 881.313 482.5 882.688 481.125 882 479.75 880.625 479.063M843.5 499C842.125 499 840.75 500.375 840.75 501.75 840.75 503.125 842.125 504.5 843.5 504.5 844.875 504.5 846.25 503.125 846.25 501.75 846.25 500.375 844.875 499 843.5 499M877.875 437.813C876.5 438.5 875.813 439.875 877.188 441.25 877.875 442.625 879.25 443.313 880.625 441.938 882 441.25 882.688 439.875 881.313 438.5 880.625 437.125 879.25 436.438 877.875 437.813M868.25 457.75C853.813 457.75 853.813 457.75 853.813 457.75 853.125 453.625 850.375 450.875 846.25 450.188 846.25 419.25 846.25 419.25 846.25 419.25 846.25 417.875 844.875 416.5 843.5 416.5 842.125 416.5 840.75 417.875 840.75 419.25 840.75 450.188 840.75 450.188 840.75 450.188 835.938 450.875 832.5 455.688 832.5 460.5 832.5 466.688 837.313 471.5 843.5 471.5 848.313 471.5 853.125 468.063 853.813 463.25 868.25 463.25 868.25 463.25 868.25 463.25 869.625 463.25 871 461.875 871 460.5 871 459.125 869.625 457.75 868.25 457.75M843.5 466C840.75 466 838 463.25 838 460.5 838 457.75 840.75 455 843.5 455 846.25 455 849 457.75 849 460.5 849 463.25 846.25 466 843.5 466M862.75 493.5C861.375 494.875 860.688 496.25 862.063 497.625 862.75 499 864.125 499.688 865.5 498.313 866.875 497.625 867.563 496.25 866.188 494.875 865.5 493.5 864.125 492.813 862.75 493.5M843.5 400C809.813 400 783 426.813 783 460.5 783 494.188 809.813 521 843.5 521 877.188 521 904 494.188 904 460.5 904 426.813 877.188 400 843.5 400M843.5 515.5C813.25 515.5 788.5 490.75 788.5 460.5 788.5 430.25 813.25 405.5 843.5 405.5 873.75 405.5 898.5 430.25 898.5 460.5 898.5 490.75 873.75 515.5 843.5 515.5" fill="#272829" fill-rule="evenodd"/></g></svg>