<svg width="98" height="121" xmlns="http://www.w3.org/2000/svg" xmlns:xlink="http://www.w3.org/1999/xlink" overflow="hidden"><defs><clipPath id="clip0"><rect x="2409" y="400" width="98" height="121"/></clipPath></defs><g clip-path="url(#clip0)" transform="translate(-2409 -400)"><path d="M2460.72 482.5C2428.06 482.5 2428.06 482.5 2428.06 482.5 2426.69 482.5 2425.33 483.875 2425.33 485.25 2425.33 486.625 2426.69 488 2428.06 488 2460.72 488 2460.72 488 2460.72 488 2462.08 488 2463.44 486.625 2463.44 485.25 2463.44 483.875 2462.08 482.5 2460.72 482.5M2449.83 499C2428.06 499 2428.06 499 2428.06 499 2426.69 499 2425.33 500.375 2425.33 501.75 2425.33 503.125 2426.69 504.5 2428.06 504.5 2449.83 504.5 2449.83 504.5 2449.83 504.5 2451.19 504.5 2452.56 503.125 2452.56 501.75 2452.56 500.375 2451.19 499 2449.83 499M2428.06 455C2438.94 455 2438.94 455 2438.94 455 2440.31 455 2441.67 453.625 2441.67 452.25 2441.67 450.875 2440.31 449.5 2438.94 449.5 2428.06 449.5 2428.06 449.5 2428.06 449.5 2426.69 449.5 2425.33 450.875 2425.33 452.25 2425.33 453.625 2426.69 455 2428.06 455M2425.33 468.75C2425.33 470.125 2426.69 471.5 2428.06 471.5 2460.72 471.5 2460.72 471.5 2460.72 471.5 2462.08 471.5 2463.44 470.125 2463.44 468.75 2463.44 467.375 2462.08 466 2460.72 466 2428.06 466 2428.06 466 2428.06 466 2426.69 466 2425.33 467.375 2425.33 468.75M2487.94 400C2447.11 400 2447.11 400 2447.11 400 2440.99 400 2436.22 404.813 2436.22 411 2436.22 419.25 2436.22 419.25 2436.22 419.25 2436.22 420.625 2437.58 422 2438.94 422 2440.31 422 2441.67 420.625 2441.67 419.25 2441.67 411 2441.67 411 2441.67 411 2441.67 408.25 2444.39 405.5 2447.11 405.5 2479.78 405.5 2479.78 405.5 2479.78 405.5 2479.78 422 2479.78 422 2479.78 422 2479.78 424.75 2482.5 427.5 2485.22 427.5 2501.56 427.5 2501.56 427.5 2501.56 427.5 2501.56 482.5 2501.56 482.5 2501.56 482.5 2501.56 485.25 2498.83 488 2496.11 488 2487.94 488 2487.94 488 2487.94 488 2486.58 488 2485.22 489.375 2485.22 490.75 2485.22 492.125 2486.58 493.5 2487.94 493.5 2496.11 493.5 2496.11 493.5 2496.11 493.5 2502.24 493.5 2507 488.688 2507 482.5 2507 422 2507 422 2507 422L2487.94 400ZM2485.22 422C2485.22 406.188 2485.22 406.188 2485.22 406.188 2499.51 422 2499.51 422 2499.51 422L2485.22 422ZM2419.89 427.5C2413.76 427.5 2409 432.313 2409 438.5 2409 510 2409 510 2409 510 2409 516.188 2413.76 521 2419.89 521 2468.89 521 2468.89 521 2468.89 521 2475.01 521 2479.78 516.188 2479.78 510 2479.78 449.5 2479.78 449.5 2479.78 449.5 2460.72 427.5 2460.72 427.5 2460.72 427.5L2419.89 427.5ZM2474.33 510C2474.33 512.75 2471.61 515.5 2468.89 515.5 2419.89 515.5 2419.89 515.5 2419.89 515.5 2417.17 515.5 2414.44 512.75 2414.44 510 2414.44 438.5 2414.44 438.5 2414.44 438.5 2414.44 435.75 2417.17 433 2419.89 433 2452.56 433 2452.56 433 2452.56 433 2452.56 449.5 2452.56 449.5 2452.56 449.5 2452.56 452.25 2455.28 455 2458 455 2474.33 455 2474.33 455 2474.33 455L2474.33 510ZM2458 449.5C2458 433.688 2458 433.688 2458 433.688 2472.29 449.5 2472.29 449.5 2472.29 449.5L2458 449.5Z" fill="#6c757d" fill-rule="evenodd"/></g></svg>
