<svg width="114" height="86" xmlns="http://www.w3.org/2000/svg" xmlns:xlink="http://www.w3.org/1999/xlink" overflow="hidden"><defs><clipPath id="clip0"><rect x="532" y="719" width="114" height="86"/></clipPath></defs><g clip-path="url(#clip0)" transform="translate(-532 -719)"><path d="M532 722.739C532 801.795 532 801.795 532 801.795 532 803.398 533.591 805 535.712 805 642.288 805 642.288 805 642.288 805 644.409 805 646 803.398 646 801.795 646 737.162 646 737.162 646 737.162 646 735.025 644.409 733.422 642.288 733.422 586.614 733.422 586.614 733.422 586.614 733.422 573.358 720.068 573.358 720.068 573.358 720.068 572.828 719.534 571.767 719 571.237 719 535.712 719 535.712 719 535.712 719 533.591 719 532 720.603 532 722.739ZM538.893 726.478C569.647 726.478 569.647 726.478 569.647 726.478 582.902 739.832 582.902 739.832 582.902 739.832 583.433 740.367 584.493 740.901 585.554 740.901 638.577 740.901 638.577 740.901 638.577 740.901 638.577 798.056 638.577 798.056 638.577 798.056 538.893 798.056 538.893 798.056 538.893 798.056L538.893 726.478Z" fill="#272829" fill-rule="evenodd"/></g></svg>