<svg width="121" height="121" xmlns="http://www.w3.org/2000/svg" xmlns:xlink="http://www.w3.org/1999/xlink" overflow="hidden"><defs><clipPath id="clip0"><rect x="552" y="400" width="121" height="121"/></clipPath></defs><g clip-path="url(#clip0)" transform="translate(-552 -400)"><path d="M672.313 458.438C651 437.125 651 437.125 651 437.125 651 408.25 651 408.25 651 408.25 651 406.875 649.625 405.5 648.25 405.5 631.75 405.5 631.75 405.5 631.75 405.5 630.375 405.5 629 406.875 629 408.25 629 415.125 629 415.125 629 415.125 614.563 400.688 614.563 400.688 614.563 400.688 613.875 400 613.188 400 612.5 400 611.813 400 611.125 400 610.438 400.688 552.688 458.438 552.688 458.438 552.688 458.438 552 459.125 552 459.813 552 460.5 552 461.875 553.375 463.25 554.75 463.25 555.438 463.25 556.125 463.25 556.813 462.563 568.5 450.875 568.5 450.875 568.5 450.875 568.5 518.25 568.5 518.25 568.5 518.25 568.5 519.625 569.875 521 571.25 521 653.75 521 653.75 521 653.75 521 655.125 521 656.5 519.625 656.5 518.25 656.5 450.875 656.5 450.875 656.5 450.875 668.188 462.563 668.188 462.563 668.188 462.563 668.875 463.25 669.563 463.25 670.25 463.25 671.625 463.25 673 461.875 673 460.5 673 459.813 673 459.125 672.313 458.438M634.5 411C645.5 411 645.5 411 645.5 411 645.5 431.625 645.5 431.625 645.5 431.625 634.5 420.625 634.5 420.625 634.5 420.625L634.5 411ZM596 515.5C574 515.5 574 515.5 574 515.5 574 510 574 510 574 510 596 510 596 510 596 510L596 515.5ZM623.5 515.5C601.5 515.5 601.5 515.5 601.5 515.5 601.5 471.5 601.5 471.5 601.5 471.5 623.5 471.5 623.5 471.5 623.5 471.5L623.5 515.5ZM651 515.5C629 515.5 629 515.5 629 515.5 629 510 629 510 629 510 651 510 651 510 651 510L651 515.5ZM651 504.5C629 504.5 629 504.5 629 504.5 629 468.75 629 468.75 629 468.75 629 467.375 627.625 466 626.25 466 598.75 466 598.75 466 598.75 466 597.375 466 596 467.375 596 468.75 596 504.5 596 504.5 596 504.5 574 504.5 574 504.5 574 504.5 574 445.375 574 445.375 574 445.375 612.5 406.875 612.5 406.875 612.5 406.875 651 445.375 651 445.375 651 445.375L651 504.5ZM615.25 499C616.625 499 618 497.625 618 496.25 618 494.875 616.625 493.5 615.25 493.5 613.875 493.5 612.5 494.875 612.5 496.25 612.5 497.625 613.875 499 615.25 499" fill="#272829" fill-rule="evenodd"/></g></svg>