<svg width="120" height="99" xmlns="http://www.w3.org/2000/svg" xmlns:xlink="http://www.w3.org/1999/xlink" overflow="hidden"><defs><clipPath id="clip0"><rect x="1014" y="1101" width="120" height="99"/></clipPath></defs><g clip-path="url(#clip0)" transform="translate(-1014 -1101)"><path d="M1026.95 1175.25C1031.05 1173.88 1037.18 1169.75 1037.18 1160.12 1037.18 1151.88 1034.45 1148.44 1033.09 1146.38 1033.09 1145.69 1033.09 1145.69 1033.09 1145.69 1032.41 1145.69 1032.41 1145.69 1032.41 1145.69 1032.41 1145.69 1032.41 1144.31 1033.09 1140.88 1033.09 1139.5 1033.09 1138.12 1032.41 1137.44 1031.73 1134.69 1029.68 1130.56 1031.05 1127.12 1033.09 1120.94 1034.45 1120.25 1037.18 1119.56 1037.18 1119.56 1037.18 1118.88 1037.86 1118.88 1038.55 1118.19 1041.27 1117.5 1044 1117.5 1045.36 1117.5 1046.73 1117.5 1047.41 1118.19 1047.41 1117.5 1048.09 1116.12 1048.09 1115.44 1048.77 1114.75 1048.77 1114.06 1049.45 1113.38 1047.41 1112 1046.05 1112 1044 1112 1039.91 1112 1036.5 1113.38 1034.45 1114.06 1030.36 1116.12 1028.32 1118.19 1025.59 1125.06 1023.55 1130.56 1026.27 1136.75 1027.64 1139.5 1026.27 1146.38 1028.32 1149.12 1028.32 1149.12 1029.68 1151.19 1031.73 1153.25 1031.73 1160.12 1031.73 1168.38 1025.59 1169.75 1025.59 1169.75 1020.82 1171.81 1014 1175.25 1014 1186.25 1014 1186.25 1014 1189 1016.73 1189 1029 1189 1029 1189 1029 1189 1029.68 1186.94 1030.36 1184.88 1031.73 1183.5 1019.45 1183.5 1019.45 1183.5 1019.45 1183.5 1020.14 1178 1023.55 1176.62 1026.95 1175.25M1122.41 1169.75C1122.41 1169.75 1116.27 1168.38 1116.27 1160.12 1116.27 1153.25 1118.32 1151.19 1119.68 1149.12 1119.68 1149.12 1121.73 1146.38 1120.36 1139.5 1121.73 1136.75 1124.45 1130.56 1122.41 1125.06 1119.68 1118.19 1117.64 1116.12 1113.55 1114.06 1111.5 1113.38 1108.09 1112 1104 1112 1101.95 1112 1100.59 1112 1098.55 1113.38 1099.23 1114.75 1099.91 1116.81 1099.91 1118.19 1100.59 1118.19 1100.59 1118.19 1100.59 1118.19 1101.27 1117.5 1102.64 1117.5 1104 1117.5 1106.73 1117.5 1109.45 1118.19 1110.14 1118.88 1110.82 1118.88 1110.82 1119.56 1110.82 1119.56 1113.55 1120.25 1114.91 1120.94 1116.95 1127.12 1118.32 1130.56 1116.27 1134.69 1115.59 1137.44 1114.91 1138.12 1114.91 1139.5 1114.91 1140.88 1115.59 1144.31 1115.59 1145.69 1115.59 1145.69 1115.59 1145.69 1115.59 1145.69 1114.91 1145.69 1114.91 1146.38 1114.91 1146.38 1114.91 1146.38 1113.55 1148.44 1110.82 1151.88 1110.82 1160.12 1110.82 1169.75 1116.95 1173.88 1121.05 1175.25 1124.45 1176.62 1127.86 1178 1128.55 1183.5 1116.27 1183.5 1116.27 1183.5 1116.27 1183.5 1117.64 1184.88 1118.32 1186.94 1119 1189 1131.27 1189 1131.27 1189 1131.27 1189 1134 1189 1134 1186.25 1134 1186.25 1134 1175.25 1127.18 1171.81 1122.41 1169.75M1095.82 1175.94C1095.82 1175.94 1086.27 1173.19 1086.27 1162.88 1086.27 1153.94 1089.68 1151.19 1091.73 1148.44 1091.73 1148.44 1094.45 1145.69 1092.41 1136.75 1095.82 1131.94 1097.18 1123.69 1093.09 1114.06 1090.36 1107.88 1088.32 1104.44 1084.91 1103.06 1082.86 1101.69 1080.14 1101 1077.41 1101 1072.64 1101 1067.86 1103.06 1065.82 1103.75 1060.36 1106.5 1056.95 1108.56 1053.55 1117.5 1050.14 1124.38 1053.55 1132.62 1055.59 1136.75 1053.55 1145.69 1056.27 1148.44 1056.27 1148.44 1058.32 1151.19 1061.73 1153.94 1061.73 1162.88 1061.73 1173.19 1052.18 1175.94 1052.18 1175.94 1046.05 1178 1033.09 1182.12 1033.09 1197.25 1033.09 1197.25 1033.09 1200 1035.82 1200 1112.18 1200 1112.18 1200 1112.18 1200 1114.91 1200 1114.91 1197.25 1114.91 1197.25 1114.91 1182.12 1101.95 1178 1095.82 1175.94M1038.55 1194.5C1039.91 1186.94 1046.73 1183.5 1053.55 1181.44 1053.55 1181.44 1053.55 1181.44 1053.55 1181.44 1059 1180.06 1067.18 1174.56 1067.18 1162.88 1067.18 1153.25 1063.77 1149.12 1061.73 1146.38 1061.05 1145.69 1060.36 1145 1061.05 1145.69 1060.36 1145 1059.68 1142.94 1061.05 1138.12 1061.73 1135.38 1060.36 1134 1060.36 1134 1059 1130.56 1056.27 1124.38 1058.32 1119.56 1061.05 1112.69 1063.77 1111.31 1067.86 1109.25 1068.55 1108.56 1068.55 1108.56 1068.55 1108.56 1069.91 1107.88 1073.32 1106.5 1077.41 1106.5 1079.45 1106.5 1080.82 1107.19 1082.18 1107.88 1084.23 1108.56 1085.59 1110.62 1087.64 1116.12 1092.41 1125.75 1089.68 1131.94 1088.32 1133.31 1086.95 1134.69 1086.95 1136.75 1086.95 1138.12 1088.32 1142.94 1087.64 1145 1087.64 1145 1087.64 1145 1086.95 1145.69 1086.27 1146.38 1084.23 1149.12 1080.82 1153.25 1080.82 1162.88 1080.82 1174.56 1089 1180.06 1094.45 1181.44 1094.45 1181.44 1094.45 1181.44 1094.45 1181.44 1101.27 1183.5 1108.09 1186.94 1109.45 1194.5L1038.55 1194.5Z" fill="#789d" fill-rule="evenodd"/></g></svg>
