<svg width="121" height="121" xmlns="http://www.w3.org/2000/svg" xmlns:xlink="http://www.w3.org/1999/xlink" overflow="hidden"><defs><clipPath id="clip0"><rect x="782" y="394" width="121" height="121"/></clipPath></defs><g clip-path="url(#clip0)" transform="translate(-782 -394)"><path d="M817.75 410.5C807.438 410.5 798.5 419.437 798.5 429.75 798.5 440.75 807.438 449 817.75 449 828.063 449 837 440.75 837 429.75 837 419.437 828.063 410.5 817.75 410.5M817.75 443.5C810.188 443.5 804 437.312 804 429.75 804 422.187 810.188 416 817.75 416 825.313 416 831.5 422.187 831.5 429.75 831.5 437.312 825.313 443.5 817.75 443.5M870.688 454.5C870.688 454.5 871.375 454.5 872.063 454.5 872.75 454.5 873.438 454.5 874.125 453.812 874.813 451.75 876.188 450.375 877.563 449 878.25 448.312 878.25 446.25 876.875 445.562 875.5 444.187 874.125 444.187 873.438 445.562 872.063 447.625 870.688 449 869.313 450.375 868.625 451.75 869.313 453.812 870.688 454.5M820.5 495.75C820.5 494.375 819.125 493 817.75 493 816.375 493 815 494.375 815 495.75 815 495.75 815 497.812 815.688 499.187 816.375 500.562 817.063 501.25 818.438 501.25 818.438 501.25 819.125 501.25 819.125 501.25 820.5 500.562 821.188 499.187 820.5 497.812 820.5 496.437 820.5 495.75 820.5 495.75M848 509.5C845.938 509.5 844.563 509.5 842.5 508.812 841.125 508.812 839.75 509.5 839.75 511.562 839.063 512.937 840.438 514.312 841.813 514.312 843.875 514.312 845.938 515 848 515 848 515 848 515 848 515 849.375 515 850.75 513.625 850.75 512.25 850.75 510.875 849.375 509.5 848 509.5M832.188 506.75C830.125 506.062 828.75 505.375 827.375 504.687 826 503.312 823.938 504 823.25 505.375 822.563 506.75 823.25 508.125 824.625 508.812 826 510.187 828.063 510.875 830.125 511.562 830.125 511.562 830.813 512.25 830.813 512.25 832.188 512.25 832.875 511.562 833.563 510.187 834.25 508.812 833.563 506.75 832.188 506.75M864.5 508.812C863.125 508.812 861.063 509.5 859 509.5 857.625 509.5 856.25 510.875 856.25 512.25 856.938 513.625 857.625 515 859 515 859 515 859.688 515 859.688 515 861.75 515 863.125 514.312 865.188 514.312 866.563 514.312 867.938 512.937 867.938 510.875 867.25 509.5 865.875 508.812 864.5 508.812M886.5 433.875C885.125 434.562 883.063 435.937 881.688 437.312 880.313 438 880.313 440.062 881 441.437 881.688 442.125 882.375 442.125 883.75 442.125 883.75 442.125 884.438 442.125 885.125 441.437 886.5 440.75 887.875 439.375 889.938 438 890.625 437.312 891.313 435.937 889.938 434.562 889.25 433.187 887.875 433.187 886.5 433.875M886.5 488.875C885.125 488.875 884.438 490.25 884.438 491.625 885.125 493 885.125 493.687 885.125 494.375 885.125 495.062 885.125 495.75 884.438 496.437 884.438 497.812 885.125 499.187 887.188 499.875 887.188 499.875 887.188 499.875 887.188 499.875 888.563 499.875 889.938 498.5 889.938 497.125 890.625 496.437 890.625 495.75 890.625 494.375 890.625 493 890.625 491.625 889.938 490.937 889.938 488.875 888.563 488.187 886.5 488.875M902.313 427C901.625 425.625 900.25 425.625 898.875 426.312 898.875 426.312 898.188 426.312 896.125 427.687 894.75 428.375 894.75 429.75 895.438 431.125 896.125 431.812 896.813 432.5 897.5 432.5 898.188 432.5 898.875 432.5 898.875 431.812 900.25 431.125 901.625 431.125 901.625 431.125 903 430.437 903 428.375 902.313 427M884.438 479.25C883.063 477.875 881.688 476.5 880.313 475.125 879.625 473.75 877.563 473.75 876.875 475.125 875.5 475.812 875.5 477.875 876.875 478.562 877.563 479.937 878.938 481.312 880.313 482.687 881 483.375 881.688 484.062 882.375 484.062 883.063 484.062 883.75 483.375 883.75 483.375 885.125 482 885.125 480.625 884.438 479.25M873.438 466.875C872.75 465.5 872.063 464.125 872.063 462.75 871.375 461.375 870 460 868.625 460 867.25 460.687 865.875 462.062 866.563 463.437 866.563 465.5 867.25 467.562 868.625 469.625 868.625 470.312 870 471 870.688 471 871.375 471 872.063 471 872.063 471 873.438 470.312 874.125 468.25 873.438 466.875M879.625 504C878.25 504.687 876.875 505.375 874.813 506.062 873.438 506.75 872.75 508.125 873.438 509.5 874.125 510.875 874.813 511.562 876.188 511.562 876.188 511.562 876.875 511.562 876.875 511.562 878.938 510.187 881 509.5 882.375 508.125 883.75 507.437 884.438 505.375 883.063 504.687 882.375 503.312 881 502.625 879.625 504M817.75 394C797.813 394 782 409.812 782 429.75 782 459.312 817.75 487.5 817.75 487.5 817.75 487.5 853.5 459.312 853.5 429.75 853.5 409.812 837.688 394 817.75 394M817.75 479.937C814.313 477.187 809.5 472.375 804 466.187 796.438 457.25 787.5 443.5 787.5 429.75 787.5 413.25 801.25 399.5 817.75 399.5 834.25 399.5 848 413.25 848 429.75 848 451.062 826 472.375 817.75 479.937" fill="#272829" fill-rule="evenodd"/></g></svg>