<?xml version="1.0" encoding="UTF-8"?>
<svg fill="#55738f" width="700pt" height="700pt" version="1.1" viewBox="0 0 700 700" xmlns="http://www.w3.org/2000/svg">
 <path d="m350 280h-70c-6.1094-0.21094-11.664-3.5938-14.66-8.9219-2.9922-5.3281-2.9922-11.828 0-17.156 2.9961-5.3281 8.5508-8.7109 14.66-8.9219h52.5v-87.5c0.21094-6.1094 3.5938-11.664 8.9219-14.66 5.3281-2.9922 11.828-2.9922 17.156 0 5.3281 2.9961 8.7109 8.5508 8.9219 14.66v105c0 4.6406-1.8438 9.0938-5.125 12.375s-7.7344 5.125-12.375 5.125zm-17.125 129.95c-0.375-147.45 209.62-147.45 209.21-15.539 0.41016 148.09-208.88 148.09-209.21 15.539zm104.56 25.105c-5.5586 0.15625-9.9727 4.7266-9.9336 10.285 0.035156 5.5586 4.5117 10.07 10.066 10.152 5.5586-0.15625 9.9727-4.7266 9.9336-10.285-0.035156-5.5586-4.5117-10.07-10.066-10.152zm8.4102-78.988c-2.75-5.6758-11.934-4.8984-15.688-0.89062-5.0156 5.3594-2.7734 16.137-2.3594 22.594l2.1875 32.746-0.003906-0.003907c0.18359 3.2461 0.875 6.4375 2.0508 9.4688 1.0078 1.9297 3.0156 3.1328 5.1953 3.1133 2.1758-0.023438 4.1602-1.2656 5.1289-3.2148 1.2461-2.9258 1.9414-6.0547 2.0508-9.2305l2.9414-33.703c1.332-6.9688 0.8125-14.168-1.5078-20.875zm-147.8 57.113c-30.492-8.3594-57.902-25.395-78.895-49.035-20.996-23.645-34.672-52.875-39.371-84.141h30.227c6.1094-0.21094 11.664-3.5938 14.66-8.9219 2.9922-5.3281 2.9922-11.828 0-17.156-2.9961-5.3281-8.5508-8.7109-14.66-8.9219h-33.426c0-82.949 52.043-165.76 155.93-174.16v34.758c0.21094 6.1094 3.5938 11.664 8.9219 14.656 5.3281 2.9961 11.828 2.9961 17.156 0 5.3281-2.9922 8.7109-8.5469 8.9219-14.656v-34.777c107.11 8.2109 158.64 91.16 157.48 174.24l-0.27344-0.058594h-35c-5.4688-0.003906-10.609 2.625-13.801 7.0664s-4.0469 10.152-2.3008 15.332c10.984 2.8984 21.57 7.1289 31.527 12.602h16.137c-0.58594 3.0039-1.5508 5.9141-2.2852 8.8828 11.125 8.0039 21.02 17.586 29.375 28.449 40.469-122.47-25.578-282.33-198.36-282.33-264.45 0-278.83 374.23-43.727 415.82-4.4805-12.105-7.25-24.773-8.2344-37.641z"/>
</svg>
