<svg width="99" height="120" xmlns="http://www.w3.org/2000/svg" xmlns:xlink="http://www.w3.org/1999/xlink" overflow="hidden"><defs><clipPath id="clip0"><rect x="794" y="1321" width="99" height="120"/></clipPath></defs><g clip-path="url(#clip0)" transform="translate(-794 -1321)"><path d="M843.5 1424.64C844.875 1424.64 846.25 1423.27 846.25 1421.91 846.25 1356.45 846.25 1356.45 846.25 1356.45 846.25 1355.09 844.875 1353.73 843.5 1353.73 842.125 1353.73 840.75 1355.09 840.75 1356.45 840.75 1421.91 840.75 1421.91 840.75 1421.91 840.75 1423.27 842.125 1424.64 843.5 1424.64M860 1424.64C861.375 1424.64 862.75 1423.27 862.75 1421.91 866.875 1356.45 866.875 1356.45 866.875 1356.45 866.875 1355.09 865.5 1353.73 864.125 1353.73 862.75 1353.73 861.375 1355.09 861.375 1356.45 857.25 1421.91 857.25 1421.91 857.25 1421.91 857.25 1423.27 858.625 1424.64 860 1424.64M890.25 1337.36C862.75 1337.36 862.75 1337.36 862.75 1337.36 862.75 1326.45 862.75 1326.45 862.75 1326.45 862.75 1323.73 860 1321 857.25 1321 829.75 1321 829.75 1321 829.75 1321 827 1321 824.25 1323.73 824.25 1326.45 824.25 1337.36 824.25 1337.36 824.25 1337.36 796.75 1337.36 796.75 1337.36 796.75 1337.36 795.375 1337.36 794 1338.73 794 1340.09 794 1341.45 795.375 1342.82 796.75 1342.82 802.25 1342.82 802.25 1342.82 802.25 1342.82 807.75 1430.09 807.75 1430.09 807.75 1430.09 808.438 1436.23 812.563 1441 818.75 1441 868.25 1441 868.25 1441 868.25 1441 874.438 1441 877.875 1436.23 879.25 1430.09 884.75 1342.82 884.75 1342.82 884.75 1342.82 890.25 1342.82 890.25 1342.82 890.25 1342.82 891.625 1342.82 893 1341.45 893 1340.09 893 1338.73 891.625 1337.36 890.25 1337.36M829.75 1326.45C857.25 1326.45 857.25 1326.45 857.25 1326.45 857.25 1337.36 857.25 1337.36 857.25 1337.36 829.75 1337.36 829.75 1337.36 829.75 1337.36L829.75 1326.45ZM873.75 1430.09C873.063 1432.82 871 1435.55 868.25 1435.55 818.75 1435.55 818.75 1435.55 818.75 1435.55 816 1435.55 813.938 1432.82 813.25 1430.09 807.75 1342.82 807.75 1342.82 807.75 1342.82 879.25 1342.82 879.25 1342.82 879.25 1342.82L873.75 1430.09ZM827 1424.64C828.375 1424.64 829.75 1423.27 829.75 1421.91 825.625 1356.45 825.625 1356.45 825.625 1356.45 825.625 1355.09 824.25 1353.73 822.875 1353.73 821.5 1353.73 820.125 1355.09 820.125 1356.45 824.25 1421.91 824.25 1421.91 824.25 1421.91 824.25 1423.27 825.625 1424.64 827 1424.64" fill="#272829" fill-rule="evenodd"/></g></svg>