<svg width="147" height="145" xmlns="http://www.w3.org/2000/svg" xmlns:xlink="http://www.w3.org/1999/xlink" overflow="hidden"><defs><clipPath id="clip0"><rect x="227" y="1461" width="147" height="145"/></clipPath></defs><g clip-path="url(#clip0)" transform="translate(-227 -1461)"><path d="M300.158 1461C237.256 1461 227 1518.59 227 1519.27 227 1520.63 227 1521.98 227.684 1522.66 229.051 1524.01 230.418 1524.69 231.786 1524.69 295.372 1524.69 295.372 1524.69 295.372 1524.69 295.372 1592.45 295.372 1592.45 295.372 1592.45 295.372 1599.9 301.526 1606 309.73 1606 317.251 1606 323.405 1599.9 323.405 1592.45 323.405 1590.42 321.353 1588.38 318.619 1588.38 315.884 1588.38 313.832 1590.42 313.832 1592.45 313.832 1595.16 311.781 1597.19 309.73 1597.19 306.995 1597.19 304.944 1595.16 304.944 1592.45 304.944 1524.69 304.944 1524.69 304.944 1524.69 369.214 1524.69 369.214 1524.69 369.214 1524.69 369.214 1524.69 369.214 1524.69 369.214 1524.69 371.949 1524.69 374 1522.66 374 1519.95 374 1519.27 373.316 1518.59 373.316 1518.59 371.949 1511.82 358.958 1461 300.158 1461ZM237.256 1515.21C241.358 1502.33 255.716 1469.81 300.158 1469.81 345.284 1469.81 359.642 1502.33 363.06 1515.21L237.256 1515.21Z" fill-rule="evenodd"/></g></svg>