<svg width="251" height="201" viewBox="0 0 251 201" fill="none" xmlns="http://www.w3.org/2000/svg">
<path d="M85.9863 74.6413H46.5312V56.0438C46.5312 46.1758 54.5361 38.1709 64.4042 38.1709H85.9863V74.6413V74.6413Z" fill="#789"/>
<path d="M63.3828 38.1719C63.3828 38.1719 76.4424 39 81.0832 51.9389C81.9975 54.4749 82.4116 57.1489 82.4116 59.8402V144.737C82.4116 144.737 81.5145 165.56 103.131 167.147H153.679V58.8914C153.679 58.8914 154.352 44.0548 138.722 39.3105C136.41 38.6032 133.977 38.2754 131.562 38.2926L63.3828 38.1719Z" fill="white"/>
<path d="M153.939 167.394H103.098C98.1121 167.032 93.9199 165.617 90.6075 163.167C87.9508 161.218 85.8806 158.613 84.4141 155.438C81.9471 150.038 82.1369 144.759 82.1369 144.708V59.8285C82.1369 57.0854 81.6883 54.4459 80.8257 52.0134C78.4622 45.4059 73.8388 42.0763 70.3711 40.4201C66.6102 38.6432 63.3841 38.4189 63.3496 38.4189L63.3669 37.9014L131.563 38.0049C131.581 38.0049 131.581 38.0049 131.598 38.0049C134.117 38.0049 136.532 38.3499 138.792 39.04C146.952 41.5243 150.644 46.7861 152.283 50.7712C154.077 55.0842 153.922 58.7416 153.922 58.8969L153.939 167.394ZM103.132 166.876H153.422V58.8796C153.422 58.8279 153.56 55.1532 151.817 50.9438C150.213 47.0794 146.624 41.9556 138.654 39.5403C136.446 38.8675 134.065 38.5224 131.598 38.5224C131.581 38.5224 131.581 38.5224 131.563 38.5224L66.3514 38.4189C67.5418 38.7295 69.0255 39.1953 70.5954 39.9543C74.1493 41.645 78.8936 45.0609 81.3261 51.8409C82.2232 54.3424 82.6717 57.0164 82.6717 59.8285V144.725C82.6717 144.794 82.4819 149.952 84.9144 155.249C88.1578 162.322 94.2995 166.238 103.132 166.876Z" fill="#789"/>
<path d="M120.567 135.423V151.916C120.567 155.797 119.29 159.593 116.823 162.595C115.15 164.63 112.82 166.476 109.629 167.149H156.312C156.795 167.149 157.279 167.115 157.762 167.046C160.884 166.614 170.925 164.337 173.599 153.123C173.944 151.709 174.082 150.242 174.082 148.776V135.423H120.567V135.423Z" fill="white"/>
<path d="M156.318 167.394H107.133L109.565 166.877C112.274 166.307 114.655 164.806 116.604 162.426C118.985 159.527 120.296 155.801 120.296 151.902V135.15H174.346V148.762C174.346 150.315 174.174 151.798 173.846 153.161C171.137 164.548 160.872 166.842 157.802 167.273C157.318 167.36 156.818 167.394 156.318 167.394ZM111.429 166.877H156.301C156.784 166.877 157.267 166.842 157.715 166.773C160.717 166.359 170.706 164.116 173.328 153.058C173.639 151.712 173.811 150.28 173.811 148.762V135.668H120.796V151.902C120.796 155.904 119.451 159.769 117.001 162.753C115.414 164.72 113.533 166.1 111.429 166.877Z" fill="#789"/>
<path d="M98.0625 70.9074L92.6626 65.5076C92.214 65.059 92.214 64.3344 92.6626 63.8859C93.1111 63.4373 93.8357 63.4373 94.2842 63.8859L98.0969 67.6985L105.17 60.9013C105.636 60.47 106.361 60.47 106.792 60.9358C107.223 61.4016 107.223 62.1262 106.757 62.5575L98.0625 70.9074Z" fill="white"/>
<path d="M98.0646 71.2719L92.4922 65.6823C92.2334 65.4236 92.0781 65.0613 92.0781 64.6817C92.0781 64.3022 92.2334 63.9572 92.4922 63.6811C92.7509 63.4223 93.1133 63.2671 93.4928 63.2671C93.8724 63.2671 94.2174 63.4223 94.4934 63.6811L98.1163 67.3213L105 60.7138C105.552 60.179 106.449 60.1962 106.984 60.7483C107.519 61.3004 107.501 62.1975 106.949 62.7323L98.0646 71.2719ZM93.4755 63.8019C93.234 63.8019 93.0097 63.8881 92.8545 64.0607C92.6819 64.2332 92.5957 64.4574 92.5957 64.6817C92.5957 64.9232 92.6819 65.1475 92.8545 65.32L98.0817 70.5473L106.587 62.37C106.949 62.0249 106.949 61.4729 106.604 61.1106C106.259 60.7483 105.707 60.7483 105.345 61.0933L98.099 68.0631L94.1138 64.0779C93.9413 63.9054 93.7171 63.8019 93.4755 63.8019Z" fill="#789"/>
<path d="M98.0625 90.9259L92.6626 85.5261C92.214 85.0776 92.214 84.353 92.6626 83.9044C93.1111 83.4559 93.8357 83.4559 94.2842 83.9044L98.0969 87.7171L105.17 80.9199C105.636 80.4886 106.361 80.4886 106.792 80.9544C107.223 81.4202 107.223 82.1448 106.757 82.576L98.0625 90.9259Z" fill="white"/>
<path d="M98.0646 91.2866L92.4922 85.697C92.2334 85.4382 92.0781 85.0759 92.0781 84.6964C92.0781 84.3168 92.2334 83.9718 92.4922 83.6958C92.7509 83.437 93.1133 83.2817 93.4928 83.2817C93.8724 83.2817 94.2174 83.437 94.4934 83.6958L98.1163 87.3359L105 80.7284C105.552 80.1936 106.449 80.2109 106.984 80.763C107.519 81.315 107.501 82.2121 106.949 82.7469L98.0646 91.2866ZM93.4755 83.8165C93.234 83.8165 93.0097 83.9028 92.8545 84.0753C92.6819 84.2478 92.5957 84.4721 92.5957 84.6964C92.5957 84.9379 92.6819 85.1622 92.8545 85.3347L98.0817 90.562L106.587 82.3846C106.949 82.0396 106.949 81.4875 106.604 81.1252C106.259 80.763 105.707 80.763 105.345 81.108L98.099 88.0777L94.1138 84.0926C93.9413 83.9028 93.7171 83.8165 93.4755 83.8165Z" fill="#789"/>
<path d="M98.0625 110.956L92.6626 105.556C92.214 105.108 92.214 104.383 92.6626 103.935C93.1111 103.486 93.8357 103.486 94.2842 103.935L98.0969 107.747L105.17 100.95C105.636 100.519 106.361 100.519 106.792 100.985C107.223 101.45 107.223 102.175 106.757 102.606L98.0625 110.956Z" fill="white"/>
<path d="M98.0646 111.312L92.4922 105.723C92.2334 105.464 92.0781 105.102 92.0781 104.722C92.0781 104.343 92.2334 103.998 92.4922 103.722C92.7509 103.463 93.1133 103.307 93.4928 103.307C93.8724 103.307 94.2174 103.463 94.4934 103.722L98.1163 107.362L105 100.754C105.276 100.495 105.621 100.357 106 100.357C106.38 100.357 106.725 100.513 106.984 100.789C107.519 101.341 107.501 102.238 106.949 102.773L98.0646 111.312ZM93.4755 103.825C93.234 103.825 93.0097 103.911 92.8545 104.084C92.6819 104.256 92.5957 104.481 92.5957 104.705C92.5957 104.946 92.6819 105.171 92.8545 105.343L98.0817 110.571L106.587 102.393C106.949 102.048 106.949 101.496 106.604 101.134C106.432 100.961 106.225 100.858 105.983 100.858C105.759 100.858 105.517 100.944 105.345 101.099L98.099 108.069L94.1138 104.084C93.9413 103.929 93.7171 103.825 93.4755 103.825Z" fill="#789"/>
<path d="M98.0625 130.981L92.6626 125.581C92.214 125.132 92.214 124.408 92.6626 123.959C93.1111 123.511 93.8357 123.511 94.2842 123.959L98.0969 127.772L105.17 120.975C105.636 120.543 106.361 120.543 106.792 121.009C107.223 121.475 107.223 122.199 106.757 122.631L98.0625 130.981Z" fill="white"/>
<path d="M98.0646 131.341L92.4922 125.752C92.2334 125.493 92.0781 125.131 92.0781 124.751C92.0781 124.372 92.2334 124.026 92.4922 123.75C92.7509 123.492 93.1133 123.336 93.4928 123.336C93.8724 123.336 94.2174 123.492 94.4934 123.75L98.1163 127.391L105 120.783C105.552 120.248 106.449 120.266 106.984 120.818C107.519 121.37 107.501 122.267 106.949 122.802L98.0646 131.341ZM93.4755 123.871C93.234 123.871 93.0097 123.957 92.8545 124.13C92.6819 124.302 92.5957 124.527 92.5957 124.751C92.5957 124.975 92.6819 125.217 92.8545 125.389L98.0817 130.617L106.587 122.439C106.949 122.094 106.949 121.542 106.604 121.18C106.259 120.818 105.707 120.818 105.345 121.163L98.099 128.132L94.1138 124.147C93.9413 123.975 93.7171 123.871 93.4755 123.871Z" fill="#789"/>
<path d="M130.622 61.8633H116.01V64.037H130.622V61.8633Z" fill="white"/>
<path d="M130.888 64.3094H115.758V61.6182H130.888V64.3094ZM116.275 63.7919H130.37V62.1357H116.275V63.7919Z" fill="#789"/>
<path d="M144.853 67.2275H116.008V69.4013H144.853V67.2275Z" fill="white"/>
<path d="M145.111 69.661H115.748V66.9697H145.111V69.661ZM116.266 69.1435H144.593V67.4873H116.266V69.1435Z" fill="#789"/>
<path d="M130.62 82.2891H116.008V84.4628H130.62V82.2891Z" fill="white"/>
<path d="M130.878 84.7216H115.748V82.0303H130.878V84.7216ZM116.266 84.204H130.36V82.5478H116.266V84.204Z" fill="#789"/>
<path d="M144.855 87.6348H116.01V89.8085H144.855V87.6348Z" fill="white"/>
<path d="M145.121 90.0907H115.758V87.3994H145.121V90.0907ZM116.275 89.5731H144.603V87.917H116.275V89.5731Z" fill="#789"/>
<path d="M130.62 102.111H116.008V104.285H130.62V102.111Z" fill="white"/>
<path d="M130.878 104.563H115.748V101.872H130.878V104.563ZM116.266 104.046H130.36V102.39H116.266V104.046Z" fill="#789"/>
<path d="M144.855 107.464H116.01V109.638H144.855V107.464Z" fill="white"/>
<path d="M145.121 109.915H115.758V107.224H145.121V109.915ZM116.275 109.397H144.603V107.741H116.275V109.397Z" fill="#789"/>
<path d="M130.62 122.144H116.008V124.317H130.62V122.144Z" fill="white"/>
<path d="M130.878 124.576H115.748V121.885H130.878V124.576ZM116.266 124.059H130.36V122.402H116.266V124.059Z" fill="#789"/>
<path d="M144.855 127.492H116.01V129.666H144.855V127.492Z" fill="white"/>
<path d="M145.121 129.925H115.758V127.233H145.121V129.925ZM116.275 129.407H144.603V127.751H116.275V129.407Z" fill="#789"/>
<path d="M2.96505 105.148H64.0196C64.9852 105.148 65.7697 105.933 65.7697 106.899V123.917C65.7697 124.883 64.9852 125.668 64.0196 125.668H2.96505C1.99944 125.668 1.21484 124.883 1.21484 123.917V106.899C1.21484 105.933 1.99944 105.148 2.96505 105.148Z" fill="white"/>
<path d="M64.0206 125.972H2.96602C1.83948 125.972 0.914062 125.047 0.914062 123.92V106.902C0.914062 105.775 1.83948 104.85 2.96602 104.85H64.0206C65.1472 104.85 66.0725 105.775 66.0725 106.902V123.92C66.0725 125.047 65.1472 125.972 64.0206 125.972ZM2.96602 105.453C2.16135 105.453 1.51757 106.097 1.51757 106.902V123.92C1.51757 124.725 2.16135 125.369 2.96602 125.369H64.0206C64.8253 125.369 65.469 124.725 65.469 123.92V106.902C65.469 106.097 64.8253 105.453 64.0206 105.453H2.96602Z" fill="#789"/>
<path d="M17.0026 122.93C21.2022 122.93 24.6068 119.525 24.6068 115.326C24.6068 111.126 21.2022 107.722 17.0026 107.722C12.8029 107.722 9.39844 111.126 9.39844 115.326C9.39844 119.525 12.8029 122.93 17.0026 122.93Z" fill="white"/>
<path d="M17.0074 123.235C12.6622 123.235 9.10156 119.694 9.10156 115.329C9.10156 110.963 12.6421 107.423 17.0074 107.423C21.3728 107.423 24.9134 110.963 24.9134 115.329C24.9134 119.694 21.3527 123.235 17.0074 123.235ZM17.0074 108.026C12.9841 108.026 9.70507 111.305 9.70507 115.329C9.70507 119.352 12.9841 122.631 17.0074 122.631C21.0308 122.631 24.3099 119.352 24.3099 115.329C24.3099 111.305 21.0308 108.026 17.0074 108.026Z" fill="#789"/>
<path d="M46.7203 109.17H30.9688V110.819H46.7203V109.17Z" fill="white"/>
<path d="M47.0152 111.123H30.6602V108.87H47.0152V111.123ZM31.2637 110.52H46.4117V109.474H31.2637V110.52Z" fill="#789"/>
<path d="M53.0772 112.749H30.9688V114.399H53.0772V112.749Z" fill="white"/>
<path d="M53.3721 114.684H30.6602V112.431H53.3721V114.684ZM31.2637 114.08H52.7686V113.034H31.2637V114.08Z" fill="#789"/>
<path d="M33.5911 116.632L34.3758 118.241L36.1662 118.503L34.8787 119.77L35.1805 121.54L33.5911 120.716L31.9818 121.54L32.3037 119.77L30.9961 118.503L32.7865 118.241L33.5911 116.632Z" fill="white"/>
<path d="M35.5834 122.106L33.5917 121.06L31.6002 122.106L31.9824 119.873L30.373 118.304L32.606 117.982L33.6119 115.95L34.6177 117.982L36.8507 118.304L35.2414 119.873L35.5834 122.106ZM33.5917 120.376L34.7787 121L34.5574 119.672L35.523 118.726L34.1752 118.525L33.5717 117.318L32.9682 118.525L31.6203 118.726L32.5859 119.672L32.3647 121L33.5917 120.376Z" fill="#789"/>
<path d="M40.5848 116.636L41.3895 118.245L43.1798 118.507L41.8924 119.774L42.1941 121.544L40.5848 120.719L38.9956 121.544L39.2973 119.774L38.0098 118.507L39.8002 118.245L40.5848 116.636Z" fill="white"/>
<path d="M42.5931 122.108L40.6015 121.062L38.6099 122.108L38.9922 119.875L37.3828 118.306L39.6157 117.984L40.6215 115.952L41.6274 117.984L43.8604 118.306L42.251 119.875L42.5931 122.108ZM40.5814 120.378L41.7682 121.001L41.5469 119.674L42.5126 118.728L41.1647 118.527L40.5612 117.32L39.9577 118.527L38.6099 118.728L39.5755 119.674L39.3542 121.001L40.5814 120.378Z" fill="#789"/>
<path d="M47.7176 116.636L48.5223 118.245L50.2925 118.507L49.005 119.774L49.3068 121.544L47.7176 120.719L46.1284 121.544L46.4301 119.774L45.1426 118.507L46.9129 118.245L47.7176 116.636Z" fill="white"/>
<path d="M49.7141 122.108L47.7226 121.062L45.7311 122.108L46.1133 119.875L44.5039 118.306L46.7369 117.984L47.7427 115.952L48.7486 117.984L50.9815 118.306L49.3721 119.875L49.7141 122.108ZM47.7226 120.378L48.9095 121.001L48.6882 119.674L49.6538 118.728L48.306 118.527L47.7025 117.32L47.099 118.527L45.7511 118.728L46.7168 119.674L46.4955 121.001L47.7226 120.378Z" fill="#789"/>
<path d="M54.7064 116.632L55.491 118.241L57.2814 118.503L55.9939 119.77L56.2957 121.54L54.7064 120.716L53.097 121.54L53.3988 119.77L52.1113 118.503L53.9017 118.241L54.7064 116.632Z" fill="white"/>
<path d="M56.6986 122.106L54.707 121.06L52.7154 122.106L53.0976 119.873L51.4883 118.304L53.7213 117.982L54.7271 115.95L55.733 117.982L57.9659 118.304L56.3566 119.873L56.6986 122.106ZM54.707 120.376L55.8939 121L55.6726 119.672L56.6382 118.726L55.2904 118.525L54.6869 117.318L54.0834 118.525L52.7356 118.726L53.7011 119.672L53.4799 121L54.707 120.376Z" fill="#789"/>
<path d="M250.971 199.231H0.96875V199.96H250.971V199.231Z" fill="#789"/>
<path fill-rule="evenodd" clip-rule="evenodd" d="M141.209 54.5458L138.128 64.4037L137.752 65.6082L138.939 65.1796L148.024 61.8989L153.623 69.7677L154.355 70.7959L154.731 69.5914L156.836 62.8539L163.236 77.7495L169.567 68.8505L179.837 72.5617L173.256 57.2441C171.6 56.3782 167.325 54.3029 166.215 54.0256C165.13 53.7542 165.005 54.0596 164.48 55.3508C164.264 55.8822 163.98 56.5804 163.533 57.4741C162.316 59.9079 159.892 57.7523 158.561 56.569C158.215 56.262 157.944 56.0204 157.786 55.9414C157.099 55.5979 156.72 55.8704 154.715 57.3114C154.651 57.3577 154.585 57.4053 154.517 57.4541L156.227 61.435L153.999 68.5633L148.843 61.3163L148.4 60.6945L147.682 60.9537L139.315 63.9751L141.835 55.9139C141.574 55.5593 141.372 55.0774 141.209 54.5458Z" fill="#789"/>
<path d="M182.034 28.027C182.019 26.594 185.092 24.9004 184.854 23.5133C184.617 22.1109 181.145 21.5208 180.693 20.1951C180.241 18.8463 182.632 16.2791 181.973 15.03C181.314 13.7732 177.835 14.2943 176.992 13.1601C176.149 12.026 177.635 8.84568 176.624 7.84945C175.612 6.86088 172.463 8.4242 171.305 7.60422C170.156 6.79191 170.593 3.29743 169.313 2.66903C168.056 2.0483 165.55 4.50823 164.179 4.08675C162.845 3.67293 162.178 0.224431 160.753 0.00985727C159.328 -0.197053 157.703 2.92192 156.308 2.92959C154.875 2.94491 153.182 -0.128083 151.795 0.101817C150.392 0.339381 149.802 3.81087 148.476 4.26301C147.128 4.71514 144.56 2.32418 143.311 2.98323C142.054 3.64228 142.576 7.12143 141.441 7.9644C140.307 8.80736 137.119 7.32068 136.131 8.33224C135.142 9.3438 136.705 12.4934 135.885 13.6506C135.073 14.8001 131.579 14.3633 130.95 15.6431C130.33 16.8998 132.79 19.4058 132.368 20.7775C131.954 22.1109 128.498 22.7776 128.291 24.203C128.084 25.6284 131.196 27.253 131.211 28.6477C131.226 30.0808 128.153 31.7744 128.391 33.1614C128.628 34.5638 132.1 35.1539 132.552 36.4797C133.004 37.8284 130.613 40.3956 131.272 41.6447C131.931 42.9015 135.41 42.3881 136.253 43.5223C137.096 44.6564 135.61 47.8367 136.621 48.8329C137.633 49.8215 140.775 48.2582 141.94 49.0782C143.089 49.8905 142.652 53.385 143.932 54.0134C145.189 54.6341 147.695 52.1742 149.066 52.5956C150.4 53.0095 151.067 56.458 152.492 56.6725C153.917 56.8794 155.542 53.7605 156.937 53.7528C158.37 53.7375 160.071 56.8105 161.45 56.5729C162.853 56.3354 163.443 52.8639 164.769 52.4117C166.117 51.9519 168.685 54.3505 169.934 53.6915C171.19 53.0325 170.669 49.5533 171.811 48.7103C172.945 47.8674 176.126 49.3541 177.122 48.3425C178.11 47.3309 176.547 44.1813 177.367 43.0241C178.179 41.8746 181.674 42.3115 182.302 41.0317C182.923 39.7749 180.463 37.269 180.885 35.8972C181.298 34.5638 184.747 33.8971 184.954 32.4717C185.161 31.054 182.049 29.4217 182.034 28.027ZM178.938 31.5981C177.137 43.9208 165.688 52.45 153.366 50.6492C141.043 48.8483 132.514 37.3993 134.315 25.0766C136.115 12.754 147.564 4.22469 159.887 6.02557C172.21 7.81879 180.739 19.2755 178.938 31.5981Z" fill="#789"/>
<path d="M159.66 4.87254C146.719 2.97913 134.699 11.9424 132.805 24.8749C130.912 37.8162 139.875 49.8367 152.808 51.7301C165.749 53.6235 177.769 44.6602 179.663 31.7277C181.556 18.7865 172.593 6.75727 159.66 4.87254ZM152.677 13.8532H146.007V13.1671H152.677V13.8532ZM157.923 15.7727L156.23 14.548L154.536 15.7727L155.179 13.7837L153.485 12.5591H155.578L156.221 10.5701L156.864 12.5591H158.957L157.263 13.7837L157.923 15.7727ZM166.452 13.8532H159.782V13.1671H166.452V13.8532Z" fill="#789"/>
<rect x="142.371" y="10.3955" width="28.3019" height="10.3966" fill="#789"/>
<path d="M147.305 23.8428H151.55V34.573H147.305C147.118 34.573 146.938 34.486 146.805 34.3312C146.672 34.1764 146.598 33.9665 146.598 33.7476V24.6682C146.598 24.4493 146.672 24.2393 146.805 24.0845C146.938 23.9297 147.118 23.8428 147.305 23.8428V23.8428Z" fill="white"/>
<path d="M152.375 23.8419L156.502 15.5879C156.936 15.5879 157.365 15.6733 157.765 15.8392C158.166 16.0051 158.53 16.2483 158.837 16.5549C159.143 16.8615 159.386 17.2255 159.552 17.626C159.718 18.0266 159.804 18.4559 159.804 18.8895V21.3657H166.188C166.422 21.3657 166.653 21.4155 166.866 21.5117C167.08 21.608 167.27 21.7485 167.425 21.924C167.58 22.0995 167.696 22.3059 167.765 22.5295C167.834 22.7532 167.855 22.989 167.826 23.2213L166.588 33.1261C166.538 33.5253 166.344 33.8926 166.042 34.1589C165.74 34.4252 165.352 34.5721 164.95 34.5721H152.375" fill="white"/>
<path d="M197.657 181.894L196.289 189.96L195.444 194.909H187.779L188.041 190.504L188.544 182.014L197.657 181.894Z" fill="white"/>
<path d="M195.701 195.214H187.453L188.278 181.736L198.014 181.595L195.701 195.214ZM188.077 194.61H195.178L197.27 182.218L188.821 182.339L188.077 194.61Z" fill="#789"/>
<path d="M195.951 192.28C195.287 192.984 192.551 195.278 188.025 192.139C187.984 192.119 187.924 192.099 187.884 192.139L175.411 198.818C174.828 199.14 175.049 200.005 175.713 200.005H196.071C197.017 200.005 197.701 199.14 197.5 198.215L196.172 192.341C196.132 192.24 196.011 192.2 195.951 192.28Z" fill="#789"/>
<path d="M197.647 181.896L196.279 189.963L188.031 190.506L188.534 182.017L197.647 181.896Z" fill="#789"/>
<path d="M229.927 194.909H222.243L221.478 190.504L219.949 182.014L229.062 181.894L229.585 189.981L229.927 194.909Z" fill="white"/>
<path d="M230.254 195.214H222.006L219.592 181.736L229.328 181.595L230.254 195.214ZM222.509 194.61H229.61L228.785 182.218L220.336 182.339L222.509 194.61Z" fill="#789"/>
<path d="M229.644 192.275C228.98 192.98 226.244 195.273 221.718 192.135C221.678 192.114 221.617 192.094 221.577 192.135L209.105 198.813C208.521 199.135 208.742 200 209.406 200H229.765C230.71 200 231.394 199.135 231.193 198.21L229.865 192.336C229.845 192.235 229.724 192.195 229.644 192.275Z" fill="#789"/>
<path d="M229.566 189.983L221.459 190.506L219.93 182.017L229.043 181.896L229.566 189.983Z" fill="#789"/>
<path d="M229.923 98.1591C229.923 98.1591 230.828 103.892 229.702 114.051C228.535 124.633 226.745 136.623 226.745 136.623L231.251 188.524H218.497L210.732 138.232L207.131 96.0469L229.923 98.1591Z" fill="#789"/>
<path d="M227.22 89.9599L207.485 138.24L197.567 188.532H185.055L190.687 135.846L200.887 89.0547L227.22 89.9599Z" fill="white"/>
<path d="M197.801 188.836H184.705L190.378 135.788L200.638 88.7549L227.655 89.7004L207.759 138.343L197.801 188.836ZM185.369 188.233H197.298L207.176 138.162L207.196 138.142L226.769 90.2636L201.12 89.3785L190.982 135.909L185.369 188.233Z" fill="#789"/>
<path d="M195.536 68.1349L193.122 70.0058L192.699 70.3477L186.543 75.1557C183.848 77.2679 179.885 75.8195 179.181 72.46L173.025 46.4288L170.39 40.2932C170.269 39.9914 170.209 39.6696 170.249 39.3477C170.369 38.2614 170.772 38.201 170.772 38.201C170.852 37.0342 171.737 36.6923 171.737 36.6923C172.281 35.4048 173.105 35.1835 173.105 35.1835C173.709 33.715 175.037 34.399 175.037 34.399L174.876 32.4074C174.433 30.2549 175.6 29.752 175.6 29.752L177.793 34.4191L177.692 37.1952L179.643 39.408L178.316 44.5378L185.296 64.2926L189.843 59.3438L191.13 57.9558L195.536 68.1349Z" fill="white"/>
<path d="M183.703 76.4412C183.139 76.4412 182.556 76.3406 182.013 76.1394C180.403 75.556 179.237 74.2082 178.895 72.5184L172.759 46.5274L170.144 40.4119C170.003 40.0699 169.943 39.6877 169.983 39.3256C170.084 38.5008 170.325 38.1588 170.526 38.018C170.667 37.0725 171.29 36.63 171.552 36.4891C172.015 35.4833 172.638 35.1011 172.92 34.9603C173.141 34.4976 173.443 34.1958 173.845 34.0349C174.167 33.9142 174.489 33.9343 174.751 33.9745L174.63 32.4457C174.167 30.092 175.475 29.4885 175.535 29.4684L175.797 29.3477L178.15 34.3568L178.05 37.0725L180.021 39.3256L178.673 44.5158L185.453 63.7072L191.246 57.3905L195.914 68.2134L186.74 75.3951C185.855 76.0992 184.789 76.4412 183.703 76.4412ZM170.868 38.521C170.808 38.5612 170.627 38.8026 170.566 39.4061C170.526 39.6676 170.566 39.9492 170.687 40.1906L173.322 46.3866L179.478 72.4178C179.78 73.8863 180.806 75.0732 182.214 75.5963C183.622 76.1193 185.171 75.8578 186.358 74.9324L195.169 68.0525L191.045 58.5171L185.191 64.874L178.01 44.5761L179.337 39.5067L177.406 37.3139L177.507 34.4976L175.495 30.2328C175.254 30.4943 174.932 31.1179 175.193 32.3652V32.4054L175.414 34.92L174.932 34.6786C174.932 34.6786 174.469 34.4573 174.026 34.6183C173.765 34.7189 173.544 34.9603 173.403 35.3224L173.342 35.4632L173.202 35.5034C173.182 35.5034 172.498 35.7247 172.015 36.8512L171.974 36.9719L171.854 37.0122C171.834 37.0323 171.15 37.3139 171.069 38.2594L171.049 38.5008L170.868 38.521Z" fill="#789"/>
<path d="M209.268 46.2108L208.905 40.8194C208.905 40.8194 200.034 43.1128 204.238 26.3555C204.238 26.3555 209.911 20.4009 216.952 26.3555V38.5262L218.139 44.7422L209.268 46.2108Z" fill="white"/>
<path d="M208.995 46.5522L208.633 41.1609C207.868 41.2614 206.058 41.3419 204.629 39.9337C202.437 37.7611 202.215 33.1745 203.946 26.2744L203.966 26.1939L204.026 26.1336C204.086 26.0732 209.981 20.0583 217.162 26.1135L217.263 26.1939V38.4853L218.51 44.9831L208.995 46.5522ZM209.196 40.4367L209.558 45.8682L217.806 44.5003L216.659 38.5256V26.4957C213.863 24.1822 210.966 23.4782 208.069 24.4035C206.098 25.0272 204.79 26.2342 204.509 26.5158C202.457 34.7436 203.664 38.1232 205.052 39.5113C206.621 41.0603 208.814 40.5372 208.834 40.5372L209.196 40.4367Z" fill="#789"/>
<path d="M247.018 74.971L232.916 89.5557L231.991 90.481L232.454 94.6452L231.528 98.1254L230.14 99.7549L229.275 91.5271V86.6589L231.528 84.6874L238.69 71.5913L237.101 69.9418L234.144 66.884L238.308 57.248L242.331 62.4583L247.36 68.9963C248.728 70.8068 248.587 73.3415 247.018 74.971Z" fill="white"/>
<path d="M229.908 100.497L228.963 91.5447V86.5356L231.276 84.5038L238.297 71.6492L233.771 66.9418L238.217 56.6621L247.571 68.8127C249.039 70.7037 248.878 73.4396 247.209 75.1696L233.107 89.7543L232.282 90.5791L232.745 94.6628L231.779 98.2637L229.908 100.497ZM229.566 91.5246L230.351 99.0483L231.236 98.0022L232.121 94.6427L231.659 90.3779L232.685 89.352L246.786 74.7673C248.255 73.2585 248.376 70.8646 247.108 69.1949L238.378 57.849L234.495 66.8211L239.061 71.5486L231.779 84.886L229.587 86.7971V91.5246H229.566Z" fill="#789"/>
<path d="M242.318 62.4905L237.088 69.974L234.131 66.8961L238.295 57.2803L242.318 62.4905Z" fill="#789"/>
<path d="M195.511 68.1283L193.117 69.9992L189.838 59.3373L191.125 57.9492L195.511 68.1283Z" fill="#789"/>
<path d="M230.885 66.0003C230.825 67.6902 230.784 72.4176 230.824 77.9699C230.905 85.8758 231.146 95.4313 231.77 100.34C231.77 100.34 217.346 103.679 207.891 102.633C200.649 101.828 197.853 100.843 197.853 100.843L197.873 100.501L199.643 66.6642L195.56 69.6013L190.691 57.8329L197.773 49.4442C199.181 47.7745 201.031 46.5474 203.104 45.9036L206.684 44.7771L207.368 44.3144C207.771 44.0327 208.274 43.9322 208.756 43.9925C210.265 44.2138 213.987 44.5156 218.251 43.2482C218.875 43.0672 219.559 43.2079 220.062 43.6304L220.625 44.0931L227.384 46.306C229.879 47.1307 232.112 48.6395 233.782 50.6512L242.11 60.6694L234.707 69.2391L230.885 65.3365C230.905 65.4572 230.885 65.6584 230.885 66.0003Z" fill="white"/>
<path d="M211.952 103.134C210.523 103.134 209.155 103.074 207.868 102.933C200.666 102.129 197.87 101.163 197.749 101.123L197.528 101.042L197.548 100.479L199.278 67.2661L195.396 70.0623L190.326 57.771L197.508 49.2414C198.956 47.5315 200.847 46.2843 202.98 45.6003L206.52 44.4939L207.164 44.0714C207.627 43.7495 208.19 43.6288 208.753 43.7093C210.161 43.9105 213.863 44.2323 218.128 42.9851C218.852 42.7638 219.636 42.9448 220.22 43.4277L220.723 43.8501L227.442 46.0428C229.997 46.8877 232.27 48.4166 233.98 50.4887L242.469 60.708L234.684 69.7204L231.103 66.0591C231.043 67.7891 231.002 72.4965 231.063 77.9683C231.123 83.9631 231.304 94.8262 232.008 100.298L232.048 100.559L231.787 100.62C231.727 100.68 220.944 103.134 211.952 103.134ZM198.172 100.62C198.956 100.861 201.913 101.666 207.928 102.33C216.518 103.275 229.433 100.559 231.425 100.117C230.741 94.5244 230.56 83.8826 230.499 77.9884C230.459 72.4563 230.479 67.6886 230.56 65.9988C230.58 65.516 230.6 65.3952 230.6 65.3148L230.701 64.7314L234.704 68.8151L241.725 60.6879L233.557 50.8709C231.908 48.8793 229.735 47.4108 227.281 46.6061L220.461 44.3732L219.858 43.8702C219.435 43.5081 218.852 43.3874 218.329 43.5484C213.963 44.8359 210.141 44.4939 208.713 44.2927C208.29 44.2323 207.888 44.3329 207.546 44.5542L206.842 45.037L203.221 46.1636C201.189 46.7872 199.399 47.9942 198.031 49.6035L191.07 57.8514L195.717 69.0968L200.002 66.0189L198.172 100.62Z" fill="#789"/>
<path d="M221.529 26.4123C222.273 19.5927 218.491 20.4175 218.491 20.4175C214.709 15.0061 212.798 18.2248 212.798 18.2248C209.6 15.3883 208.614 18.1242 208.614 18.1242C205.476 16.8367 204.933 19.5927 204.933 19.5927C201.996 19.0495 202.177 21.8056 202.177 21.8056C201.07 21.9866 200.849 23.435 200.889 24.0184C201.151 27.7199 203.786 28.0016 205.254 27.8809L205.596 32.387C205.637 32.8095 206.039 33.0911 206.461 32.9704C206.703 32.8899 206.884 32.6888 206.924 32.4474C206.924 32.387 206.944 32.3468 206.944 32.3066C207.266 30.6972 209.881 29.4701 210.243 32.3066C210.243 32.3066 210.525 35.9678 208.594 36.0483C208.594 36.0483 210.666 40.4136 215.615 39.5084C216.439 39.3474 221.851 37.9996 221.428 28.5849C221.569 27.2975 221.529 26.4123 221.529 26.4123Z" fill="#789"/>
<path d="M171.045 38.235L170.678 38.3984L171.478 40.2L171.846 40.0366L171.045 38.235Z" fill="#789"/>
<path d="M172.045 36.6247L171.678 36.7881L172.478 38.5896L172.846 38.4262L172.045 36.6247Z" fill="#789"/>
<path d="M173.232 35.1878L172.855 35.3291L173.456 36.9301L173.833 36.7888L173.232 35.1878Z" fill="#789"/>
</svg>
