<?xml version="1.0" standalone="no"?>
<!DOCTYPE svg PUBLIC "-//W3C//DTD SVG 20010904//EN"
 "http://www.w3.org/TR/2001/REC-SVG-20010904/DTD/svg10.dtd">
<svg version="1.0" xmlns="http://www.w3.org/2000/svg"
 width="759.000000pt" height="439.000000pt" viewBox="0 0 759.000000 439.000000"
 preserveAspectRatio="xMidYMid meet">

<g transform="translate(0.000000,439.000000) scale(0.100000,-0.100000)"
fill="#000000" stroke="none">
<path d="M4422 4148 c-21 -10 -23 -16 -17 -47 4 -20 9 -109 12 -198 4 -155 3
-163 -17 -175 -11 -7 -20 -21 -20 -30 0 -10 -4 -18 -10 -18 -5 0 -10 -16 -10
-35 0 -19 -4 -35 -9 -35 -12 0 -20 -176 -27 -602 -3 -255 -8 -338 -17 -338 -7
0 -39 11 -72 25 -70 29 -160 33 -208 10 -62 -29 -103 -118 -85 -182 27 -100
137 -249 197 -268 12 -3 21 -10 21 -14 0 -4 23 -18 50 -31 38 -18 50 -29 50
-46 0 -13 -4 -26 -10 -29 -5 -3 -10 -19 -10 -36 0 -16 -4 -29 -10 -29 -5 0
-10 -6 -10 -14 0 -11 -10 -13 -37 -9 -33 4 -42 1 -68 -27 -78 -83 -154 -154
-191 -180 -75 -53 -127 -52 -139 3 -30 136 -47 221 -54 274 -5 34 -11 66 -14
71 -4 5 -7 55 -9 111 -2 81 -6 105 -20 120 -24 26 -69 34 -117 21 -39 -10 -41
-12 -41 -50 0 -25 5 -40 13 -40 8 0 7 -4 -3 -10 -10 -6 -11 -10 -2 -10 8 0 12
-23 12 -80 0 -47 4 -80 10 -80 6 0 10 -33 10 -80 0 -47 4 -80 10 -80 6 0 10
-9 10 -20 0 -11 -4 -20 -10 -20 -5 0 -10 -24 -10 -54 0 -30 -4 -58 -10 -61 -5
-3 -10 -24 -10 -46 0 -21 -4 -39 -10 -39 -5 0 -10 -9 -10 -21 0 -24 -22 -49
-44 -49 -9 0 -16 7 -16 15 0 8 -4 15 -10 15 -5 0 -10 9 -10 19 0 11 -4 23 -10
26 -5 3 -10 15 -10 26 0 10 -4 19 -10 19 -5 0 -10 9 -10 19 0 11 -4 23 -10 26
-5 3 -10 15 -10 26 0 10 -4 27 -9 37 -23 45 -36 115 -35 197 0 73 4 97 22 128
30 51 28 61 -15 80 -80 34 -120 28 -142 -20 -19 -41 -13 -266 9 -373 26 -126
26 -241 0 -294 -27 -58 -101 -136 -126 -136 -24 0 -74 45 -74 66 0 8 -3 14 -8
14 -29 0 -68 228 -43 253 7 7 11 71 11 178 0 92 5 180 10 195 8 19 8 29 0 34
-6 4 -10 11 -9 16 6 31 -28 54 -81 54 -61 0 -100 -39 -100 -101 0 -15 -4 -31
-10 -34 -6 -4 -10 -73 -10 -175 0 -102 4 -171 10 -175 13 -8 13 -138 1 -179
-5 -17 -15 -51 -22 -76 -7 -25 -16 -49 -21 -54 -4 -6 -8 -15 -8 -22 0 -7 -10
-35 -22 -63 -27 -60 -53 -68 -61 -18 -16 90 -19 103 -26 122 -5 11 -14 45 -20
75 -7 30 -17 75 -22 100 -6 25 -14 63 -19 85 -18 83 -32 291 -22 329 10 33 8
38 -15 53 -32 22 -100 32 -135 20 -24 -8 -45 -47 -34 -65 23 -38 29 -489 8
-662 -6 -52 -14 -117 -18 -145 -3 -27 -10 -54 -15 -59 -5 -6 -9 -22 -9 -37 0
-15 -4 -31 -10 -34 -5 -3 -10 -17 -10 -31 0 -13 -3 -24 -8 -24 -4 0 -13 -14
-21 -31 -7 -17 -19 -33 -27 -36 -22 -8 -44 23 -44 61 0 20 -4 36 -10 36 -6 0
-10 27 -10 60 0 33 4 60 10 60 6 0 10 132 10 375 0 293 -3 375 -12 375 -9 0
-8 4 2 10 10 6 11 10 3 10 -9 0 -13 18 -13 55 0 30 -4 55 -10 55 -6 0 -10 31
-10 72 0 39 -5 87 -12 105 -10 27 -10 38 0 53 7 11 12 26 12 33 0 7 36 31 80
52 44 21 80 42 80 46 0 4 9 11 21 14 14 5 19 14 17 28 -4 31 -72 35 -127 8
-94 -48 -90 -73 -95 525 -6 607 -13 824 -27 824 -5 0 -9 12 -9 26 0 43 -45 74
-109 74 -57 0 -75 -21 -67 -79 21 -148 36 -296 36 -366 0 -44 4 -129 9 -190
12 -141 24 -535 23 -735 -1 -136 -3 -156 -19 -169 -17 -13 -152 -79 -376 -184
-53 -26 -104 -44 -112 -41 -12 5 -15 35 -15 180 0 109 4 174 10 174 6 0 10 33
10 80 0 47 4 80 10 80 6 0 10 6 10 13 0 7 9 19 20 27 11 8 20 20 20 27 0 7 5
13 10 13 6 0 10 18 10 40 0 57 -29 85 -101 97 -25 5 -25 7 -21 61 2 32 8 65
13 74 5 9 9 37 9 62 0 25 5 46 10 46 6 0 10 25 10 55 0 30 5 55 10 55 6 0 10
25 10 55 0 30 5 55 10 55 6 0 10 20 10 44 0 25 4 48 10 51 5 3 10 24 10 46 0
21 5 39 10 39 6 0 10 14 10 30 0 17 5 30 10 30 20 0 9 48 -16 74 -22 21 -36
26 -79 26 -64 0 -95 -23 -95 -69 0 -17 -4 -31 -10 -31 -14 0 -13 -36 2 -59 9
-15 9 -25 0 -46 -7 -14 -12 -40 -12 -57 0 -17 -4 -47 -9 -67 -5 -20 -14 -67
-21 -106 -6 -38 -15 -92 -20 -120 -5 -27 -14 -78 -20 -112 -5 -35 -15 -89 -20
-120 -6 -32 -28 -161 -51 -288 -69 -394 -126 -642 -153 -663 -6 -5 -60 -31
-121 -57 -60 -26 -208 -97 -327 -158 -200 -102 -218 -114 -218 -138 0 -14 8
-33 18 -42 38 -35 78 -22 335 108 136 69 252 125 258 125 5 0 7 -12 4 -27 -11
-52 -27 -108 -36 -125 -5 -10 -9 -31 -9 -47 0 -17 -4 -32 -9 -35 -5 -3 -12
-22 -15 -41 -3 -19 -9 -51 -12 -70 -3 -19 -10 -38 -15 -41 -5 -3 -9 -20 -9
-39 0 -19 -5 -37 -10 -40 -6 -3 -10 -21 -10 -40 0 -19 -4 -37 -10 -40 -5 -3
-10 -24 -10 -46 0 -21 -4 -39 -10 -39 -5 0 -10 -18 -10 -39 0 -22 -5 -43 -10
-46 -6 -3 -10 -26 -10 -51 0 -24 -4 -44 -10 -44 -5 0 -10 -22 -10 -50 0 -27
-4 -50 -10 -50 -5 0 -10 -24 -10 -53 0 -29 -4 -57 -9 -62 -13 -13 -20 -134
-27 -456 l-6 -265 27 -12 c29 -13 85 -16 100 -4 22 16 34 62 39 152 4 52 11
176 16 275 15 268 27 369 60 510 11 44 35 145 54 225 18 80 50 214 70 298 37
152 73 314 83 363 4 21 17 32 66 53 47 20 63 23 69 14 4 -7 8 -67 8 -134 0
-66 4 -156 10 -200 5 -43 12 -119 15 -169 2 -49 10 -137 15 -195 6 -58 14
-131 16 -162 3 -32 10 -58 15 -58 5 0 9 -20 9 -44 0 -25 5 -48 10 -51 6 -3 10
-19 10 -36 0 -16 5 -29 10 -29 6 0 10 -9 10 -19 0 -11 5 -23 10 -26 6 -3 10
-15 10 -26 0 -10 5 -19 10 -19 6 0 10 -11 10 -25 0 -14 5 -25 10 -25 6 0 10
-9 10 -20 0 -11 5 -20 10 -20 6 0 10 -7 10 -15 0 -8 5 -15 10 -15 6 0 10 -7
10 -15 0 -8 5 -15 10 -15 6 0 10 -5 10 -10 0 -16 42 -55 78 -74 84 -43 152 7
231 169 24 50 47 98 52 107 5 10 9 27 9 37 0 11 5 23 10 26 6 3 10 17 10 30 0
13 5 27 10 30 6 3 10 17 10 31 0 19 5 24 26 24 23 0 54 -20 54 -35 0 -9 86
-92 108 -104 11 -6 41 -11 67 -11 39 0 51 5 90 41 63 58 89 112 122 249 15 66
33 120 38 120 6 -1 19 -15 30 -33 30 -48 80 -77 133 -77 48 0 122 34 122 57 0
7 5 13 10 13 6 0 10 9 10 20 0 11 5 20 10 20 6 0 10 7 10 15 0 8 5 15 10 15 6
0 10 9 10 20 0 11 5 20 10 20 6 0 10 12 10 26 0 36 25 60 45 42 38 -34 50 -42
96 -59 58 -22 137 -25 182 -5 48 20 127 101 127 131 0 8 5 15 10 15 6 0 10 11
10 25 0 28 23 34 49 11 38 -32 124 -46 164 -25 28 14 100 92 118 127 7 15 14
28 15 30 1 2 30 -7 65 -19 105 -35 217 -9 308 71 39 34 38 34 71 15 14 -8 39
-14 57 -15 39 0 103 29 103 47 0 7 4 13 9 13 5 0 11 8 14 18 3 9 12 28 20 42
20 33 32 66 47 120 33 121 24 110 95 110 35 0 70 3 78 6 14 5 27 -16 122 -191
11 -22 27 -56 35 -75 16 -41 67 -120 89 -137 17 -13 79 -17 105 -7 18 7 22 59
6 69 -5 3 -10 15 -10 26 0 10 -4 19 -10 19 -5 0 -10 11 -10 25 0 14 -4 25 -10
25 -5 0 -10 16 -10 35 0 19 -4 35 -10 35 -5 0 -10 18 -10 39 0 22 -4 43 -10
46 -5 3 -10 22 -10 41 0 19 -4 34 -10 34 -5 0 -10 14 -10 30 0 17 -4 30 -10
30 -18 0 -11 32 12 51 11 11 24 19 28 19 4 0 18 9 31 20 13 11 37 30 52 42 16
13 39 33 52 45 24 23 55 22 55 -1 0 -18 42 -62 77 -80 49 -25 103 -20 169 14
77 40 144 112 144 155 0 19 18 19 63 0 81 -33 161 -7 247 79 28 29 30 30 80
18 87 -20 178 -15 237 13 52 24 123 85 123 105 0 5 5 10 10 10 6 0 10 7 10 15
0 8 5 15 10 15 6 0 10 11 10 25 0 14 5 25 10 25 6 0 10 9 10 20 0 11 6 30 13
43 6 12 12 23 12 24 0 0 38 -12 85 -28 151 -51 260 -37 341 44 54 54 78 110
100 237 6 30 14 59 19 64 6 6 70 -52 165 -147 85 -86 160 -157 165 -157 6 0
10 -7 10 -15 0 -8 5 -15 10 -15 6 0 10 -8 10 -19 0 -12 14 -23 43 -35 71 -27
97 -17 97 37 0 43 -15 64 -104 153 -44 44 -97 100 -116 123 -19 24 -51 60 -70
81 -53 57 -70 79 -70 90 0 6 -4 10 -10 10 -5 0 -10 9 -10 20 0 11 -4 20 -8 20
-4 0 -15 12 -25 28 -24 39 -68 87 -94 100 -44 24 -135 8 -147 -25 -4 -8 -8
-67 -11 -131 -12 -265 -62 -392 -155 -392 -29 0 -110 42 -110 57 0 7 -4 13
-10 13 -5 0 -10 7 -10 15 0 8 -4 15 -10 15 -5 0 -10 7 -10 15 0 8 -4 15 -10
15 -5 0 -10 11 -10 25 0 14 -4 25 -10 25 -5 0 -10 16 -10 37 0 20 -3 33 -7 30
-3 -4 -11 0 -17 8 -6 8 -36 20 -67 27 -50 10 -60 9 -83 -5 -22 -15 -24 -21
-16 -43 6 -14 10 -73 10 -132 0 -147 -25 -226 -92 -288 -70 -66 -136 -82 -164
-39 -17 26 -17 104 2 282 l7 62 -34 20 c-34 21 -112 28 -135 13 -12 -7 -20
-76 -30 -249 -3 -51 -10 -93 -15 -93 -5 0 -9 -9 -9 -20 0 -11 -4 -20 -10 -20
-5 0 -10 -9 -10 -20 0 -11 -4 -20 -10 -20 -5 0 -10 -5 -10 -11 0 -17 -40 -49
-62 -49 -10 0 -18 7 -18 15 0 8 -4 15 -10 15 -5 0 -10 11 -10 25 0 14 -4 25
-10 25 -5 0 -10 16 -10 35 0 19 -5 35 -10 35 -7 0 -10 41 -9 115 1 109 0 117
-21 135 -24 20 -81 26 -129 13 -23 -6 -23 -8 -17 -82 3 -42 9 -100 12 -130 6
-55 -8 -178 -29 -241 -14 -45 -67 -117 -89 -123 -21 -6 -31 6 -48 60 -15 50
-10 93 21 159 50 110 64 224 31 264 -14 17 -29 22 -73 23 -59 1 -89 -15 -89
-47 0 -9 -4 -16 -10 -16 -5 0 -10 -13 -10 -29 0 -17 -4 -33 -10 -36 -5 -3 -10
-21 -10 -40 0 -19 -4 -37 -10 -40 -5 -3 -10 -33 -10 -66 0 -33 -4 -59 -10 -59
-5 0 -10 -9 -10 -20 0 -11 -4 -20 -10 -20 -5 0 -10 -4 -10 -10 0 -26 -134
-160 -160 -160 -24 0 -32 14 -42 70 -7 45 -21 123 -39 215 -5 28 -14 73 -18
100 -5 28 -14 79 -21 115 -60 348 -92 661 -89 880 1 96 2 219 1 272 -2 94 -3
97 -31 117 -37 27 -79 34 -109 19z m59 -1103 c6 -50 14 -115 19 -145 5 -30 13
-84 18 -120 18 -119 32 -194 56 -314 14 -66 23 -123 20 -128 -6 -9 -121 135
-133 167 -5 11 -11 164 -14 339 -6 280 -5 318 8 305 9 -8 19 -52 26 -104z
m-269 -436 c80 -41 88 -56 88 -163 0 -52 -4 -98 -10 -101 -5 -3 -10 -15 -10
-26 0 -23 -3 -23 -42 -3 -41 21 -91 73 -109 112 -7 18 -17 32 -21 32 -5 0 -8
8 -8 17 0 9 -5 31 -12 49 -9 27 -9 39 3 61 8 15 18 31 24 35 18 13 55 8 97
-13z m-2868 -276 c17 -106 1 -163 -46 -163 -21 0 -21 -3 -2 108 4 17 10 32 15
32 5 0 9 14 9 30 0 42 16 37 24 -7z m670 -19 c3 -30 4 -60 1 -65 -4 -5 -25 -9
-48 -9 -55 0 -61 -5 -87 -70 -20 -50 -22 -67 -17 -190 4 -94 15 -179 36 -280
45 -214 42 -308 -20 -539 -32 -118 -107 -339 -126 -372 -19 -33 -41 -38 -49
-11 -10 32 -21 57 -43 100 -11 24 -21 52 -21 63 0 10 -4 19 -10 19 -5 0 -10
11 -10 24 0 14 -4 28 -10 31 -5 3 -10 19 -10 35 0 16 -4 32 -10 35 -5 3 -10
22 -10 41 0 19 -4 34 -10 34 -5 0 -10 20 -10 45 0 25 -4 45 -10 45 -5 0 -10
25 -10 55 0 30 -4 55 -10 55 -6 0 -10 31 -10 74 0 41 -4 78 -10 81 -6 4 -10
58 -10 131 0 82 -4 124 -11 124 -7 0 -9 40 -5 128 8 184 15 242 31 242 8 0
118 52 246 115 127 63 235 115 239 115 4 0 10 -25 14 -56z m2450 24 c25 -26
65 -92 60 -100 -7 -11 -81 -10 -89 2 -6 10 5 110 12 110 2 0 10 -6 17 -12z
m-2394 -550 c-1 -109 -2 -121 -15 -104 -26 35 -30 107 -10 194 15 65 25 29 25
-90z"/>
<path d="M2552 2593 c-27 -5 -55 -44 -46 -66 12 -32 57 -51 121 -52 52 0 64 3
82 24 25 29 26 44 4 66 -31 32 -89 42 -161 28z"/>
</g>
</svg>
