<svg width="96" height="97" xmlns="http://www.w3.org/2000/svg" xmlns:xlink="http://www.w3.org/1999/xlink" overflow="hidden"><defs><clipPath id="clip0"><rect x="2175" y="960" width="96" height="97"/></clipPath></defs><g clip-path="url(#clip0)" transform="translate(-2175 -960)"><path d="M2241.22 987.737 2241.22 987.737C2238.9 985.386 2238.9 987.737 2236.73 987.737 2218.43 1022.37 2218.43 1022.37 2218.43 1022.37 2206.95 1013.12 2206.95 1013.12 2206.95 1013.12 2204.62 1010.77 2204.62 1010.77 2202.45 1013.12 2200.12 1013.12 2200.12 1015.32 2202.45 1015.32 2216.1 1029.11 2216.1 1029.11 2216.1 1029.11 2218.43 1031.61 2218.43 1031.61 2220.6 1029.11L2243.39 992.281C2243.39 989.931 2243.39 987.737 2241.22 987.737ZM2259.52 960 2259.52 960C2186.32 960 2186.32 960 2186.32 960 2179.5 960 2175 964.545 2175 971.596 2175 1045.4 2175 1045.4 2175 1045.4 2175 1052.3 2179.5 1056.84 2186.32 1056.84 2259.52 1056.84 2259.52 1056.84 2259.52 1056.84 2266.35 1056.84 2270.85 1052.3 2270.85 1045.4 2270.85 971.596 2270.85 971.596 2270.85 971.596 2270.85 964.545 2266.35 960 2259.52 960ZM2266.35 1045.4 2266.35 1045.4C2266.35 1047.6 2261.69 1052.3 2259.52 1052.3 2186.32 1052.3 2186.32 1052.3 2186.32 1052.3 2184.15 1052.3 2179.5 1047.6 2179.5 1045.4 2179.5 971.596 2179.5 971.596 2179.5 971.596 2179.5 969.246 2184.15 964.545 2186.32 964.545 2259.52 964.545 2259.52 964.545 2259.52 964.545 2261.69 964.545 2266.35 969.246 2266.35 971.596L2266.35 1045.4Z" fill="#272829" fill-rule="evenodd"/></g></svg>