<svg width="85" height="88" xmlns="http://www.w3.org/2000/svg" xmlns:xlink="http://www.w3.org/1999/xlink" overflow="hidden"><defs><clipPath id="clip0"><rect x="1365" y="804" width="85" height="88"/></clipPath></defs><g clip-path="url(#clip0)" transform="translate(-1365 -804)"><path d="M1445.32 804 1445.32 804C1371.86 804 1371.86 804 1371.86 804 1367.18 804 1365 808.706 1365 810.902 1365 884.784 1365 884.784 1365 884.784 1365 887.137 1367.18 891.843 1371.86 891.843 1445.32 891.843 1445.32 891.843 1445.32 891.843 1447.66 891.843 1449.84 887.137 1449.84 884.784 1449.84 810.902 1449.84 810.902 1449.84 810.902 1449.84 808.706 1447.66 804 1445.32 804ZM1445.32 882.588 1445.32 882.588C1445.32 882.588 1442.98 884.784 1440.64 884.784 1374.05 884.784 1374.05 884.784 1374.05 884.784 1371.86 884.784 1371.86 882.588 1371.86 882.588 1371.86 813.255 1371.86 813.255 1371.86 813.255 1371.86 813.255 1371.86 810.902 1374.05 810.902 1440.64 810.902 1440.64 810.902 1440.64 810.902 1442.98 810.902 1445.32 813.255 1445.32 813.255L1445.32 882.588Z" fill="#272829" fill-rule="evenodd"/></g></svg>