<svg width="99" height="97" xmlns="http://www.w3.org/2000/svg" xmlns:xlink="http://www.w3.org/1999/xlink" overflow="hidden"><defs><clipPath id="clip0"><rect x="2014" y="960" width="99" height="97"/></clipPath></defs><g clip-path="url(#clip0)" transform="translate(-2014 -960)"><path d="M2101.44 960 2101.44 960C2027.9 960 2027.9 960 2027.9 960 2020.87 960 2014 964.545 2014 971.596 2014 1045.4 2014 1045.4 2014 1045.4 2014 1052.3 2020.87 1056.84 2027.9 1056.84 2101.44 1056.84 2101.44 1056.84 2101.44 1056.84 2108.32 1056.84 2112.84 1052.3 2112.84 1045.4 2112.84 971.596 2112.84 971.596 2112.84 971.596 2112.84 964.545 2108.32 960 2101.44 960ZM2105.97 1045.4 2105.97 1045.4C2105.97 1047.6 2103.63 1052.3 2101.44 1052.3 2027.9 1052.3 2027.9 1052.3 2027.9 1052.3 2023.21 1052.3 2020.87 1047.6 2020.87 1045.4 2020.87 971.596 2020.87 971.596 2020.87 971.596 2020.87 969.246 2023.21 964.545 2027.9 964.545 2101.44 964.545 2101.44 964.545 2101.44 964.545 2103.63 964.545 2105.97 969.246 2105.97 971.596L2105.97 1045.4ZM2078.33 992.281 2078.33 992.281C2078.33 992.281 2076.15 992.281 2073.81 992.281 2064.59 1003.88 2064.59 1003.88 2064.59 1003.88 2053.19 992.281 2053.19 992.281 2053.19 992.281 2050.85 992.281 2050.85 992.281 2048.51 992.281 2048.51 994.632 2048.51 996.982 2048.51 996.982 2060.06 1008.42 2060.06 1008.42 2060.06 1008.42 2048.51 1020.02 2048.51 1020.02 2048.51 1020.02 2048.51 1020.02 2048.51 1022.37 2048.51 1024.56 2050.85 1024.56 2050.85 1024.56 2053.19 1024.56 2064.59 1013.12 2064.59 1013.12 2064.59 1013.12 2073.81 1024.56 2073.81 1024.56 2073.81 1024.56 2076.15 1024.56 2078.33 1024.56 2078.33 1024.56 2080.68 1022.37 2080.68 1020.02 2078.33 1020.02 2069.28 1008.42 2069.28 1008.42 2069.28 1008.42 2078.33 996.982 2078.33 996.982 2078.33 996.982 2080.68 996.982 2080.68 994.632 2078.33 992.281Z" fill="#272829" fill-rule="evenodd"/></g></svg>