<svg width="335" height="200" viewBox="0 0 335 200" fill="none" xmlns="http://www.w3.org/2000/svg">
<g clip-path="url(#clip0_20_9564)">
<path d="M116.45 141L116.447 140.996C115.682 139.884 115.265 138.563 115.265 137.168V7.53669C115.265 3.85995 118.247 0.944223 121.857 0.944223H195.405L208.771 14.3105L208.774 14.313L219.048 24.6651V137.247C219.048 140.924 216.066 143.84 212.456 143.84H173.424H140.738H121.857C119.635 143.84 117.625 142.728 116.45 141Z" stroke="#789" stroke-width="1.88845"/>
<path d="M198.89 43.872H134.471C131.694 43.872 129.473 41.5713 129.473 38.874C129.473 36.0973 131.773 33.876 134.471 33.876H198.89C201.666 33.876 203.888 36.1767 203.888 38.874C203.888 41.6507 201.666 43.872 198.89 43.872Z" fill="#789"/>
<path d="M198.89 69.0995H134.471C131.694 69.0995 129.473 66.7989 129.473 64.1015C129.473 61.3249 131.773 59.1035 134.471 59.1035H198.89C201.666 59.1035 203.888 61.4042 203.888 64.1015C203.888 66.7989 201.666 69.0995 198.89 69.0995Z" fill="#789"/>
<path opacity="0.63" d="M198.89 94.248H134.471C131.694 94.248 129.473 91.9473 129.473 89.25C129.473 86.4733 131.773 84.252 134.471 84.252H198.89C201.666 84.252 203.888 86.5526 203.888 89.25C203.888 91.9473 201.666 94.248 198.89 94.248Z" fill="white"/>
<path d="M219.992 24.2761V27.2908H200.476C198.73 27.2908 197.064 26.7354 195.874 25.7041L195.795 25.6247C194.129 24.2761 193.098 22.2134 193.098 19.9127V0H195.874L219.992 24.2761Z" fill="#789"/>
<path d="M260.213 183.755L260.208 183.76C257.855 186.529 253.619 186.808 250.918 184.453L250.914 184.45L221.323 158.905L221.322 158.904L196.57 137.564L196.57 137.563L182.295 125.272C182.294 125.271 182.293 125.27 182.292 125.269C180.618 123.802 179.789 121.643 179.995 119.573C180.132 118.276 180.679 117.021 181.604 115.878L266.244 17.7532L266.249 17.7479C268.602 14.9795 272.838 14.6997 275.539 17.0548L275.543 17.0581L331.257 65.117L332.656 83.926L333.737 98.4506L260.213 183.755Z" stroke="#789" stroke-width="1.88845"/>
<path opacity="0.89" d="M305.91 99.8814L257.12 57.8346C255.057 56.0099 254.819 52.8366 256.564 50.7739C258.389 48.7112 261.562 48.4732 263.625 50.2185L312.415 92.2654C314.478 94.09 314.716 97.2634 312.97 99.326C311.146 101.468 307.972 101.706 305.91 99.8814Z" fill="#789"/>
<path opacity="0.89" d="M289.408 118.921L240.618 76.8746C238.555 75.0499 238.317 71.8766 240.062 69.8139C241.887 67.7512 245.06 67.5132 247.123 69.2586L295.913 111.305C297.976 113.13 298.214 116.303 296.468 118.366C294.723 120.508 291.55 120.746 289.408 118.921Z" fill="#789"/>
<path opacity="0.89" d="M272.986 138.041L224.196 95.9937C222.133 94.1691 221.895 90.9957 223.64 88.9331C225.465 86.8704 228.638 86.6324 230.701 88.3777L279.491 130.425C281.554 132.249 281.792 135.423 280.047 137.485C278.301 139.548 275.128 139.786 272.986 138.041Z" fill="#789"/>
<path d="M334.708 98.7704L332.724 101.071L317.968 88.2983C316.619 87.1877 315.826 85.6803 315.509 84.0143V83.8557C315.191 81.7137 315.667 79.4923 317.254 77.747L330.186 62.7529L332.248 64.5776L334.708 98.7704Z" fill="#789"/>
<path d="M74.4997 183.76L74.4955 183.755L0.970531 98.4504L2.05229 83.8467L2.05231 83.8464L3.45128 65.0381L59.1644 17.0586L59.1687 17.0548C61.8702 14.6997 66.1063 14.9795 68.4594 17.748L68.4639 17.7531L153.104 115.878C154.029 117.021 154.576 118.275 154.713 119.573C154.919 121.643 154.09 123.802 152.416 125.269C152.415 125.27 152.414 125.271 152.413 125.272L138.138 137.563L138.138 137.564L113.386 158.904L113.385 158.905L83.7939 184.45L83.7905 184.453C81.089 186.808 76.8529 186.529 74.4997 183.76Z" stroke="#789" stroke-width="1.88845"/>
<path opacity="0.89" d="M28.7988 99.8814L77.5889 57.8346C79.6516 56.0099 79.8896 52.8366 78.1443 50.7739C76.3196 48.7112 73.1462 48.4732 71.0836 50.2185L22.2934 92.2654C20.2307 94.09 19.9927 97.2634 21.7381 99.326C23.5627 101.468 26.7361 101.706 28.7988 99.8814Z" fill="#789"/>
<path opacity="0.89" d="M45.3007 118.921L94.0909 76.8746C96.1536 75.0499 96.3916 71.8766 94.6462 69.8139C92.8215 67.7512 89.6482 67.5132 87.5855 69.2586L38.7954 111.305C36.7327 113.13 36.4947 116.303 38.24 118.366C39.9854 120.508 43.1587 120.746 45.3007 118.921Z" fill="#789"/>
<path opacity="0.89" d="M61.7226 138.041L110.513 95.9937C112.575 94.1691 112.813 90.9957 111.068 88.9331C109.243 86.8704 106.07 86.6324 104.007 88.3777L55.2172 130.425C53.1546 132.249 52.9166 135.423 54.6619 137.485C56.4072 139.548 59.5806 139.786 61.7226 138.041Z" fill="#789"/>
<path d="M0 98.7704L1.98334 101.071L16.7394 88.2983C18.0881 87.1877 18.8814 85.6803 19.1987 84.0143V83.8557C19.5161 81.7137 19.0401 79.4923 17.4534 77.747L4.60135 62.7529L2.53868 64.5776L0 98.7704Z" fill="#789"/>
<g opacity="0.09">
<path opacity="0.09" d="M263.387 195.081H203.173C192.384 195.081 183.657 186.672 183.657 176.359V155.018H206.664C212.217 155.018 215.549 149.068 212.376 144.625L180.166 102.737C177.39 98.8496 171.36 98.8496 168.663 102.737L136.453 144.625C133.359 149.068 136.612 155.018 142.165 155.018H165.172V176.359C165.172 186.751 156.446 195.081 145.656 195.081H97.342C71.9552 192.305 52.2012 171.599 52.2012 146.45C52.2012 121.856 71.0826 101.468 95.5967 97.9769C96.2313 97.8976 96.9453 97.8183 97.58 97.7389C99.4047 97.5803 101.229 97.4216 103.133 97.4216C108.449 97.4216 113.526 98.2149 118.286 99.6429C121.856 100.674 125.585 98.4529 125.981 94.8829C127.647 80.8409 136.136 50.7734 176.517 50.7734C197.62 50.7734 215.708 64.4981 223.482 82.1102C223.72 82.7449 224.038 83.3795 224.276 84.0142C226.338 89.3296 227.449 95.1209 227.449 101.15C227.449 103.927 227.211 106.624 226.735 109.322C225.942 113.923 230.622 117.572 235.065 115.748C240.698 113.368 246.886 112.178 253.471 112.257C276.398 112.733 295.279 130.424 296.231 152.479C297.421 172.947 283.062 190.401 263.387 195.081Z" fill="#2FA2FA"/>
</g>
<path d="M282.948 171.814L282.947 171.819C281.321 177.626 278.378 182.895 274.501 187.315C271.33 190.872 267.459 193.815 263.198 195.984L263.194 195.986C260.677 197.283 258.007 198.28 255.259 198.975H200.953C191.719 198.975 184.285 191.468 184.285 182.308V163.18H204.205C209.952 163.18 213.428 156.71 210.225 151.951L210.213 151.933L210.2 151.916L196.158 132.956L196.158 132.956L181.097 112.583C178.262 108.402 171.998 108.402 169.162 112.583L140.059 151.917L140.047 151.932L140.037 151.948C136.744 156.795 140.238 163.18 146.054 163.18H165.657V182.308C165.657 191.541 158.149 198.975 148.989 198.975H105.41C86.6302 196.78 71.3464 183.112 66.8433 165.183C65.9889 161.686 65.5223 157.954 65.5223 154.144C65.5223 131.459 82.2229 112.732 103.977 109.463C104.293 109.423 104.59 109.384 104.883 109.345L104.885 109.344C105.179 109.305 105.469 109.267 105.776 109.228C107.408 109.073 109.04 108.996 110.671 108.996C115.335 108.996 119.841 109.695 124.114 111.015C127.93 112.223 131.849 109.702 132.315 105.702C133.059 99.3527 135.211 89.5789 141.284 81.2163C147.325 72.8975 157.296 65.9028 173.865 65.1231L173.879 65.1224L173.893 65.1214C174.881 65.0453 175.954 65.0448 177.073 65.0448C191.414 65.0448 204.24 72.4882 212.496 83.3933L212.498 83.3956C214.988 86.6634 217.086 90.2376 218.639 93.9604C218.759 94.2818 218.88 94.5826 218.996 94.8733L218.997 94.8757C219.116 95.1744 219.232 95.4626 219.347 95.7689L219.348 95.7735C221.208 100.656 222.142 105.936 222.142 111.542C222.142 114.101 221.91 116.589 221.52 119.088C220.695 124.063 225.592 128.192 230.363 126.134L230.367 126.132C235.323 123.964 240.818 122.803 246.544 122.958L246.551 122.958C266.834 123.345 283.409 139.606 284.341 159.816C284.496 164.006 284.029 168.03 282.948 171.814Z" fill="white" stroke="#789" stroke-width="1.88845"/>
<path d="M204.471 162.55H183.665L183.508 182.287C183.508 192.101 192.304 200 201.992 200H148.207C157.975 200 166.357 192.021 166.357 182.287C166.357 172.553 166.303 162.55 166.303 162.55H145.419C140.416 162.55 137.723 156.436 140.502 152.287L169.645 112.713C172.107 109.042 177.586 109.042 180.047 112.713L209.562 152.191C212.5 156.34 209.553 162.55 204.471 162.55Z" fill="#789"/>
<g opacity="0.13">
<path opacity="0.13" d="M213.169 82.8233C209.995 91.074 202.062 96.8654 192.701 96.8654C180.642 96.8654 170.805 87.1073 170.805 74.9693C170.805 71.0026 171.836 67.3533 173.661 64.1799C174.692 64.1006 175.803 64.1006 176.913 64.1006C191.669 64.1799 204.759 71.7959 213.169 82.8233Z" fill="white"/>
<path opacity="0.13" d="M111.623 188.257C111.623 192.383 110.75 196.349 109.164 199.919H105.276C86.0777 197.698 70.449 183.735 65.8477 165.409C70.6077 161.839 76.5577 159.697 82.9837 159.697C98.8504 159.697 111.623 172.47 111.623 188.257Z" fill="white"/>
<path opacity="0.13" d="M147.64 113.525C153.073 113.525 157.477 109.121 157.477 103.688C157.477 98.2549 153.073 93.8506 147.64 93.8506C142.207 93.8506 137.803 98.2549 137.803 103.688C137.803 109.121 142.207 113.525 147.64 113.525Z" fill="white"/>
<path opacity="0.13" d="M224.912 153.906C224.912 165.965 215.154 175.802 203.016 175.802C194.289 175.802 186.752 170.725 183.262 163.347V162.236H204.126C209.124 162.236 212.139 156.603 209.362 152.478L195.32 133.517C197.78 132.565 200.398 132.089 203.095 132.089C215.074 132.01 224.912 141.847 224.912 153.906Z" fill="white"/>
<path opacity="0.13" d="M246.649 153.827C253.747 153.827 259.501 148.073 259.501 140.975C259.501 133.877 253.747 128.123 246.649 128.123C239.551 128.123 233.797 133.877 233.797 140.975C233.797 148.073 239.551 153.827 246.649 153.827Z" fill="white"/>
<path opacity="0.13" d="M140.659 194.208C148.326 194.208 154.542 187.992 154.542 180.325C154.542 172.657 148.326 166.441 140.659 166.441C132.991 166.441 126.775 172.657 126.775 180.325C126.775 187.992 132.991 194.208 140.659 194.208Z" fill="white"/>
<path opacity="0.13" d="M283.856 172.074C279.731 164.616 271.797 159.539 262.674 159.539C249.346 159.539 238.557 170.328 238.557 183.656C238.557 189.924 240.937 195.636 244.824 199.92H255.296C258.231 199.206 260.929 198.175 263.547 196.826C263.229 196.826 262.991 196.826 262.674 196.826C255.375 196.826 249.505 190.876 249.505 183.656C249.505 176.358 255.375 170.487 262.674 170.487C269.973 170.487 275.843 176.437 275.843 183.656C275.843 185.164 275.605 186.592 275.129 187.94C279.255 183.418 282.269 178.024 283.856 172.074Z" fill="white"/>
<path opacity="0.13" d="M109.64 119.634C100.199 119.634 92.5039 127.329 92.5039 136.77C92.5039 146.211 100.199 153.906 109.64 153.906C119.081 153.906 126.776 146.211 126.776 136.77C126.697 127.25 119.081 119.634 109.64 119.634ZM109.64 146.131C104.483 146.131 100.279 141.927 100.279 136.77C100.279 131.613 104.483 127.408 109.64 127.408C114.797 127.408 119.001 131.613 119.001 136.77C119.001 141.927 114.797 146.131 109.64 146.131Z" fill="white"/>
</g>
<g opacity="0.02">
<path opacity="0.02" d="M213.327 82.9034C210.154 91.1541 202.22 96.9454 192.859 96.9454C180.8 96.9454 170.963 87.1874 170.963 75.0494C170.963 71.0827 171.994 67.4333 173.819 64.26C174.85 64.1807 175.961 64.1807 177.072 64.1807C191.828 64.1807 204.838 71.876 213.327 82.9034Z" fill="white"/>
<path opacity="0.02" d="M111.701 188.337C111.701 192.463 110.829 196.429 109.242 199.999H105.355C86.1559 197.778 70.5271 183.815 65.9258 165.489C70.6858 161.919 76.6358 159.777 83.0618 159.777C98.9286 159.777 111.701 172.55 111.701 188.337Z" fill="white"/>
<path opacity="0.02" d="M147.718 113.605C153.151 113.605 157.556 109.201 157.556 103.768C157.556 98.335 153.151 93.9307 147.718 93.9307C142.285 93.9307 137.881 98.335 137.881 103.768C137.881 109.201 142.285 113.605 147.718 113.605Z" fill="white"/>
<path opacity="0.02" d="M224.99 153.986C224.99 166.045 215.232 175.882 203.094 175.882C194.367 175.882 186.831 170.805 183.34 163.427V162.316H204.205C209.203 162.316 212.217 156.684 209.441 152.558L195.399 133.597C197.858 132.645 200.476 132.169 203.173 132.169C215.232 132.09 224.99 141.848 224.99 153.986Z" fill="white"/>
<path opacity="0.02" d="M246.807 153.907C253.905 153.907 259.659 148.153 259.659 141.055C259.659 133.957 253.905 128.203 246.807 128.203C239.709 128.203 233.955 133.957 233.955 141.055C233.955 148.153 239.709 153.907 246.807 153.907Z" fill="white"/>
<path opacity="0.02" d="M140.737 194.287C148.404 194.287 154.62 188.071 154.62 180.404C154.62 172.736 148.404 166.521 140.737 166.521C133.069 166.521 126.854 172.736 126.854 180.404C126.854 188.071 133.069 194.287 140.737 194.287Z" fill="white"/>
<path opacity="0.02" d="M284.014 172.154C279.889 164.696 271.956 159.619 262.832 159.619C249.504 159.619 238.715 170.409 238.715 183.737C238.715 190.004 241.095 195.716 244.982 200H255.454C258.39 199.286 261.087 198.255 263.705 196.906C263.388 196.906 263.15 196.906 262.832 196.906C255.534 196.906 249.663 190.956 249.663 183.737C249.663 176.438 255.534 170.567 262.832 170.567C270.131 170.567 276.002 176.517 276.002 183.737C276.002 185.244 275.764 186.672 275.288 188.021C279.334 183.499 282.348 178.104 284.014 172.154Z" fill="white"/>
<path opacity="0.02" d="M109.718 119.635C100.277 119.635 92.582 127.33 92.582 136.771C92.582 146.212 100.277 153.907 109.718 153.907C119.159 153.907 126.854 146.212 126.854 136.771C126.854 127.33 119.159 119.635 109.718 119.635ZM109.718 146.132C104.561 146.132 100.357 141.928 100.357 136.771C100.357 131.614 104.561 127.409 109.718 127.409C114.875 127.409 119.079 131.614 119.079 136.771C119.079 142.007 114.875 146.132 109.718 146.132Z" fill="white"/>
</g>
</g>
<defs>
<clipPath id="clip0_20_9564">
<rect width="334.708" height="200" fill="white"/>
</clipPath>
</defs>
</svg>
