<svg width="198" height="200" viewBox="0 0 198 200" fill="none" xmlns="http://www.w3.org/2000/svg">
<g clip-path="url(#clip0_20_7844)">
<path d="M99.0032 162.556C95.8521 162.554 92.7047 162.342 89.5819 161.921L89.6335 161.539C97.7456 162.626 105.985 162.289 113.981 160.543L114.064 160.925C109.117 162.009 104.068 162.556 99.0032 162.556V162.556ZM83.5246 160.832C81.1886 160.299 78.8811 159.648 76.6108 158.882L76.7398 158.516C78.9954 159.279 81.2894 159.925 83.6123 160.45L83.5246 160.832ZM120.013 159.336L119.894 158.964C123.79 157.736 127.568 156.163 131.183 154.264L131.364 154.61C127.726 156.516 123.928 158.097 120.013 159.336V159.336ZM70.8734 156.648C67.1143 154.988 63.5092 152.999 60.1002 150.704L60.3169 150.384C63.7063 152.667 67.2907 154.645 71.0281 156.297L70.8734 156.648ZM136.683 151.514L136.477 151.189C138.479 149.898 140.415 148.507 142.276 147.02L142.514 147.325C140.644 148.821 138.698 150.219 136.683 151.514V151.514ZM55.1625 147.046C48.7564 141.878 43.3152 135.618 39.0905 128.554L39.4207 128.353C43.6255 135.383 49.0404 141.613 55.4153 146.757L55.1625 147.046ZM147.162 143.274L146.894 142.996C152.823 137.349 157.705 130.697 161.315 123.348L161.661 123.518C158.03 130.909 153.118 137.598 147.152 143.274H147.162ZM36.1805 123.152C35.1355 120.996 34.2038 118.786 33.3892 116.532L33.7555 116.403C34.5655 118.642 35.4903 120.838 36.5262 122.982L36.1805 123.152ZM164.137 117.905L163.776 117.765C165.245 113.953 166.372 110.018 167.145 106.007L167.527 106.079C166.737 110.106 165.591 114.055 164.101 117.879L164.137 117.905ZM31.5473 110.63C30.5028 106.659 29.8121 102.603 29.4834 98.51L29.8704 98.4791C30.2016 102.55 30.8922 106.583 31.9342 110.532L31.5473 110.63ZM168.399 99.965L168.017 99.9238C168.257 97.5544 168.377 95.1746 168.379 92.7933V92.6488H168.745V92.7933C168.751 95.1882 168.636 97.5818 168.399 99.965V99.965ZM29.6331 92.3599H29.2461C29.2857 84.1253 30.7882 75.9633 33.6833 68.2544L34.0445 68.3937C31.1683 76.0587 29.6747 84.1731 29.6331 92.3599V92.3599ZM168.1 86.5347C167.378 78.3798 165.207 70.4193 161.687 63.0278L162.037 62.8575C165.574 70.2908 167.757 78.2944 168.487 86.4934L168.1 86.5347ZM36.454 62.7595L36.1031 62.5944C37.145 60.436 38.2954 58.3317 39.5497 56.2894L39.8799 56.4958C38.6295 58.5225 37.4859 60.6133 36.454 62.7595V62.7595ZM158.813 57.6258C156.745 54.108 154.371 50.7793 151.718 47.6781L152.012 47.4253C154.684 50.5448 157.077 53.8924 159.164 57.4297L158.813 57.6258ZM43.311 51.4343L43.0015 51.2073C45.4546 47.9119 48.191 44.8372 51.1793 42.0181L51.4476 42.3019C48.4737 45.0986 45.751 48.151 43.311 51.424V51.4343ZM147.534 43.2151C145.836 41.5589 144.036 39.9646 142.183 38.489L142.421 38.1897C144.297 39.6793 146.095 41.2654 147.807 42.9417L147.534 43.2151ZM56.0964 38.3032L55.8591 37.9988C62.3167 32.8942 69.6319 28.9806 77.4621 26.4414L77.5859 26.8078C69.7924 29.3286 62.5103 33.2178 56.0809 38.2929L56.0964 38.3032ZM137.225 34.8928C130.398 30.3731 122.821 27.1059 114.848 25.2444L114.936 24.8678C122.954 26.7388 130.576 30.0234 137.442 34.5677L137.225 34.8928ZM83.4678 25.167L83.3801 24.7904C85.7152 24.2563 88.0762 23.8429 90.4538 23.5521L90.5003 23.9391C88.1368 24.229 85.7897 24.6389 83.4678 25.167V25.167ZM108.817 24.1093C105.569 23.6533 102.293 23.424 99.0135 23.4231V23.4231C98.2241 23.4231 97.4244 23.4231 96.635 23.4644V23.0774C97.4347 23.0465 98.2345 23.031 99.0497 23.0361C102.343 23.037 105.633 23.268 108.894 23.7275L108.817 24.1093Z" fill="#263238"/>
<g opacity="0.4">
<path opacity="0.4" d="M99.0032 162.556C95.8521 162.554 92.7047 162.342 89.5819 161.921L89.6335 161.539C97.7456 162.626 105.985 162.289 113.981 160.543L114.064 160.925C109.117 162.009 104.068 162.556 99.0032 162.556V162.556ZM83.5246 160.832C81.1886 160.299 78.8811 159.648 76.6108 158.882L76.7398 158.516C78.9954 159.279 81.2894 159.925 83.6123 160.45L83.5246 160.832ZM120.013 159.336L119.894 158.964C123.79 157.736 127.568 156.163 131.183 154.264L131.364 154.61C127.726 156.516 123.928 158.097 120.013 159.336V159.336ZM70.8734 156.648C67.1143 154.988 63.5092 152.999 60.1002 150.704L60.3169 150.384C63.7063 152.667 67.2907 154.645 71.0281 156.297L70.8734 156.648ZM136.683 151.514L136.477 151.189C138.479 149.898 140.415 148.507 142.276 147.02L142.514 147.325C140.644 148.821 138.698 150.219 136.683 151.514V151.514ZM55.1625 147.046C48.7564 141.878 43.3152 135.618 39.0905 128.554L39.4207 128.353C43.6255 135.383 49.0404 141.613 55.4153 146.757L55.1625 147.046ZM147.162 143.274L146.894 142.996C152.823 137.349 157.705 130.697 161.315 123.348L161.661 123.518C158.03 130.909 153.118 137.598 147.152 143.274H147.162ZM36.1805 123.152C35.1355 120.996 34.2038 118.786 33.3892 116.532L33.7555 116.403C34.5655 118.642 35.4903 120.838 36.5262 122.982L36.1805 123.152ZM164.137 117.905L163.776 117.765C165.245 113.953 166.372 110.018 167.145 106.007L167.527 106.079C166.737 110.106 165.591 114.055 164.101 117.879L164.137 117.905ZM31.5473 110.63C30.5028 106.659 29.8121 102.603 29.4834 98.51L29.8704 98.4791C30.2016 102.55 30.8922 106.583 31.9342 110.532L31.5473 110.63ZM168.399 99.965L168.017 99.9238C168.257 97.5544 168.377 95.1746 168.379 92.7933V92.6488H168.745V92.7933C168.751 95.1882 168.636 97.5818 168.399 99.965V99.965ZM29.6331 92.3599H29.2461C29.2857 84.1253 30.7882 75.9633 33.6833 68.2544L34.0445 68.3937C31.1683 76.0587 29.6747 84.1731 29.6331 92.3599V92.3599ZM168.1 86.5347C167.378 78.3798 165.207 70.4193 161.687 63.0278L162.037 62.8575C165.574 70.2908 167.757 78.2944 168.487 86.4934L168.1 86.5347ZM36.454 62.7595L36.1031 62.5944C37.145 60.436 38.2954 58.3317 39.5497 56.2894L39.8799 56.4958C38.6295 58.5225 37.4859 60.6133 36.454 62.7595V62.7595ZM158.813 57.6258C156.745 54.108 154.371 50.7793 151.718 47.6781L152.012 47.4253C154.684 50.5448 157.077 53.8924 159.164 57.4297L158.813 57.6258ZM43.311 51.4343L43.0015 51.2073C45.4546 47.9119 48.191 44.8372 51.1793 42.0181L51.4476 42.3019C48.4737 45.0986 45.751 48.151 43.311 51.424V51.4343ZM147.534 43.2151C145.836 41.5589 144.036 39.9646 142.183 38.489L142.421 38.1897C144.297 39.6793 146.095 41.2654 147.807 42.9417L147.534 43.2151ZM56.0964 38.3032L55.8591 37.9988C62.3167 32.8942 69.6319 28.9806 77.4621 26.4414L77.5859 26.8078C69.7924 29.3286 62.5103 33.2178 56.0809 38.2929L56.0964 38.3032ZM137.225 34.8928C130.398 30.3731 122.821 27.1059 114.848 25.2444L114.936 24.8678C122.954 26.7388 130.576 30.0234 137.442 34.5677L137.225 34.8928ZM83.4678 25.167L83.3801 24.7904C85.7152 24.2563 88.0762 23.8429 90.4538 23.5521L90.5003 23.9391C88.1368 24.229 85.7897 24.6389 83.4678 25.167V25.167ZM108.817 24.1093C105.569 23.6533 102.293 23.424 99.0135 23.4231V23.4231C98.2241 23.4231 97.4244 23.4231 96.635 23.4644V23.0774C97.4347 23.0465 98.2345 23.031 99.0497 23.0361C102.343 23.037 105.633 23.268 108.894 23.7275L108.817 24.1093Z" fill="white"/>
</g>
<path d="M55.7716 42.6232L13.7207 47.043L17.5337 83.3212L59.5846 78.9014L55.7716 42.6232Z" fill="#263238"/>
<path opacity="0.6" d="M55.7716 42.6232L13.7207 47.043L17.5337 83.3212L59.5846 78.9014L55.7716 42.6232Z" fill="#789"/>
<path fill-rule="evenodd" clip-rule="evenodd" d="M33.3719 38.1128L27.5187 38.728C27.5187 38.7284 27.5187 38.7288 27.5188 38.7292L27.5189 38.73L27.519 38.7313C27.6286 39.7715 27.7381 40.8109 27.7561 40.9707C27.7804 41.1225 27.7735 41.2776 27.7358 41.4266C27.6981 41.5755 27.6304 41.7153 27.5368 41.8372C27.4433 41.9591 27.3258 42.0607 27.1917 42.1357C27.0575 42.2106 26.9095 42.2575 26.7566 42.2733C26.6038 42.2891 26.4493 42.2736 26.3026 42.2276C26.156 42.1817 26.0202 42.1063 25.9037 42.0061C25.7872 41.9059 25.6923 41.783 25.6249 41.6449C25.5575 41.5068 25.519 41.3564 25.5117 41.2029L25.2769 38.9636L19.4279 39.5784C19.5382 40.6199 19.6478 41.6621 19.6607 41.822C19.676 41.9691 19.6621 42.1177 19.6199 42.2593C19.5777 42.401 19.508 42.533 19.4149 42.6477C19.3217 42.7625 19.2068 42.8578 19.0768 42.9281C18.9468 42.9985 18.8042 43.0425 18.6572 43.0578C18.5101 43.073 18.3615 43.0591 18.2199 43.017C18.0782 42.9748 17.9462 42.9051 17.8315 42.8119C17.7167 42.7187 17.6215 42.6039 17.5511 42.4739C17.4808 42.3438 17.4367 42.2013 17.4215 42.0542L17.184 39.8142L13.0117 40.2527L13.7252 47.0414L55.7761 42.6217L55.0626 35.833L35.6109 37.8775C35.625 38.0117 35.6392 38.146 35.6531 38.2784L35.6532 38.2796C35.7475 39.1756 35.8326 39.9845 35.8461 40.1195C35.8617 40.2665 35.8481 40.4151 35.8063 40.557C35.7644 40.6988 35.695 40.8309 35.6021 40.9459C35.5091 41.0609 35.3944 41.1564 35.2646 41.2271C35.1347 41.2978 34.9922 41.3422 34.8451 41.3577C34.6981 41.3733 34.5494 41.3598 34.4076 41.3179C34.2658 41.2761 34.1337 41.2067 34.0187 41.1137C33.9037 41.0208 33.8082 40.9061 33.7375 40.7762C33.6668 40.6464 33.6224 40.5038 33.6069 40.3568L33.3719 38.1128Z" fill="#789"/>
<path d="M43.4726 34.7848C43.4274 34.4987 43.2741 34.2408 43.0443 34.0645C42.8145 33.8882 42.5257 33.8069 42.2377 33.8373C41.9496 33.8678 41.6843 34.0077 41.4964 34.2282C41.3086 34.4487 41.2125 34.7329 41.2282 35.0221C41.2695 35.4194 41.6616 39.1085 41.7029 39.5058C41.7185 39.6528 41.7629 39.7953 41.8335 39.9252C41.9042 40.0551 41.9997 40.1698 42.1147 40.2627C42.2297 40.3557 42.3619 40.4251 42.5037 40.4669C42.6455 40.5088 42.7942 40.5223 42.9412 40.5067C43.0882 40.4911 43.2307 40.4468 43.3606 40.3761C43.4905 40.3054 43.6052 40.2099 43.6981 40.0949C43.7911 39.9799 43.8605 39.8477 43.9023 39.7059C43.9442 39.5641 43.9577 39.4155 43.9421 39.2684C43.8854 38.9537 43.5036 35.1047 43.4726 34.7848Z" fill="#263238"/>
<path d="M51.5619 33.933C51.5463 33.786 51.502 33.6435 51.4313 33.5136C51.3606 33.3837 51.2651 33.269 51.1501 33.1761C51.0351 33.0831 50.9029 33.0137 50.7611 32.9719C50.6193 32.93 50.4707 32.9165 50.3236 32.9321C50.1766 32.9476 50.0341 32.992 49.9042 33.0627C49.7743 33.1334 49.6596 33.2289 49.5667 33.3439C49.4737 33.4589 49.4044 33.591 49.3625 33.7329C49.3206 33.8747 49.3071 34.0233 49.3227 34.1703L49.7922 38.654C49.8374 38.9401 49.9907 39.198 50.2205 39.3743C50.4503 39.5506 50.7391 39.6319 51.0271 39.6015C51.3152 39.571 51.5806 39.4311 51.7684 39.2106C51.9563 38.9901 52.0523 38.7059 52.0366 38.4167C52.0005 38.1019 51.6238 34.2529 51.5619 33.933Z" fill="#263238"/>
<g opacity="0.7">
<path opacity="0.7" d="M43.4726 34.7848C43.4274 34.4987 43.2741 34.2408 43.0443 34.0645C42.8145 33.8882 42.5257 33.8069 42.2377 33.8373C41.9496 33.8678 41.6843 34.0077 41.4964 34.2282C41.3086 34.4487 41.2125 34.7329 41.2282 35.0221C41.2695 35.4194 41.6616 39.1085 41.7029 39.5058C41.7185 39.6528 41.7629 39.7953 41.8335 39.9252C41.9042 40.0551 41.9997 40.1698 42.1147 40.2627C42.2297 40.3557 42.3619 40.4251 42.5037 40.4669C42.6455 40.5088 42.7942 40.5223 42.9412 40.5067C43.0882 40.4911 43.2307 40.4468 43.3606 40.3761C43.4905 40.3054 43.6052 40.2099 43.6981 40.0949C43.7911 39.9799 43.8605 39.8477 43.9023 39.7059C43.9442 39.5641 43.9577 39.4155 43.9421 39.2684C43.8854 38.9537 43.5036 35.1047 43.4726 34.7848Z" fill="white"/>
<path opacity="0.7" d="M51.5619 33.933C51.5463 33.786 51.502 33.6435 51.4313 33.5136C51.3606 33.3837 51.2651 33.269 51.1501 33.1761C51.0351 33.0831 50.9029 33.0137 50.7611 32.9719C50.6193 32.93 50.4707 32.9165 50.3236 32.9321C50.1766 32.9476 50.0341 32.992 49.9042 33.0627C49.7743 33.1334 49.6596 33.2289 49.5667 33.3439C49.4737 33.4589 49.4044 33.591 49.3625 33.7329C49.3206 33.8747 49.3071 34.0233 49.3227 34.1703L49.7922 38.654C49.8374 38.9401 49.9907 39.198 50.2205 39.3743C50.4503 39.5506 50.7391 39.6319 51.0271 39.6015C51.3152 39.571 51.5806 39.4311 51.7684 39.2106C51.9563 38.9901 52.0523 38.7059 52.0366 38.4167C52.0005 38.1019 51.6238 34.2529 51.5619 33.933Z" fill="white"/>
</g>
<path d="M60.7107 77.7534L18.6603 82.1752L13.7227 47.0438L55.773 42.6221L60.7107 77.7534Z" fill="#263238"/>
<path d="M60.7107 77.7534L18.6603 82.1752L13.7227 47.0438L55.773 42.6221L60.7107 77.7534Z" fill="white"/>
<path d="M47.2859 52.27L26.4723 54.4577L25.6055 48.2765L46.4191 46.0889L47.2859 52.27Z" fill="#263238"/>
<path opacity="0.6" d="M47.2859 52.27L26.4723 54.4577L25.6055 48.2765L46.4191 46.0889L47.2859 52.27Z" fill="#789"/>
<path d="M24.0879 62.8167L18.531 63.3998L17.752 57.8584L23.3139 57.2754L24.0879 62.8167Z" fill="white"/>
<path d="M31.9766 61.9854L26.4146 62.5684L25.6406 57.0323L31.1975 56.4492L31.9766 61.9854Z" fill="white"/>
<path d="M25.1406 70.2875L19.5786 70.8705L18.8047 65.3343L24.3615 64.7461L25.1406 70.2875Z" fill="#263238"/>
<path d="M26.1875 77.7582L20.6307 78.3412L19.8516 72.7998L25.4084 72.2168L26.1875 77.7582Z" fill="#263238"/>
<path d="M33.0286 69.4561L27.4666 70.0391L26.6875 64.503L32.2495 63.9199L33.0286 69.4561Z" fill="#263238"/>
<path opacity="0.2" d="M33.7141 60.8243L28.1521 61.4073L27.373 55.8711L32.935 55.2881L33.7141 60.8243Z" fill="white"/>
<path d="M40.9141 68.626L35.3572 69.2142L34.5781 63.6729L40.135 63.0898L40.9141 68.626Z" fill="#263238"/>
<path d="M48.802 67.8001L43.24 68.3832L42.4609 62.847L48.0229 62.2588L48.802 67.8001Z" fill="#263238"/>
<path d="M56.6855 66.9698L51.1287 67.5528L50.3496 62.0166L55.9064 61.4336L56.6855 66.9698Z" fill="#263238"/>
<path d="M34.0762 76.9278L28.5193 77.5108L27.7402 71.9746L33.2971 71.3916L34.0762 76.9278Z" fill="#263238"/>
<path d="M41.9661 76.1019L36.4041 76.6849L35.625 71.1436L41.187 70.5605L41.9661 76.1019Z" fill="#263238"/>
<path d="M49.8496 75.2718L44.2928 75.8549L43.5137 70.3187L49.0705 69.7305L49.8496 75.2718Z" fill="#263238"/>
<path d="M39.8645 61.1553L34.3025 61.7435L33.5234 56.2022L39.0854 55.6191L39.8645 61.1553Z" fill="#263238"/>
<path d="M47.75 60.3294L42.1932 60.9125L41.4141 55.3711L46.9709 54.7881L47.75 60.3294Z" fill="#263238"/>
<path d="M55.638 59.4991L50.076 60.0821L49.2969 54.5459L54.8589 53.9629L55.638 59.4991Z" fill="#263238"/>
<path opacity="0.2" d="M55.638 59.4991L50.076 60.0821L49.2969 54.5459L54.8589 53.9629L55.638 59.4991Z" fill="white"/>
<path d="M57.7376 74.4405L52.1756 75.0235L51.3965 69.4873L56.9585 68.9043L57.7376 74.4405Z" fill="white"/>
<path d="M67.919 27.6244L49.6035 32.0283L50.9159 37.4864L69.2314 33.0824L67.919 27.6244Z" fill="#263238"/>
<path opacity="0.6" d="M67.919 27.6244L49.6035 32.0283L50.9159 37.4864L69.2314 33.0824L67.919 27.6244Z" fill="white"/>
<path d="M55.2974 38.7214L50.4062 39.8975L51.5823 44.7886L56.4735 43.6125L55.2974 38.7214Z" fill="#263238"/>
<path d="M62.2349 37.0524L57.3438 38.2285L58.5198 43.1197L63.411 41.9436L62.2349 37.0524Z" fill="#263238"/>
<path d="M69.1705 35.3835L64.2793 36.5596L65.4554 41.4507L70.3465 40.2747L69.1705 35.3835Z" fill="#263238"/>
<path d="M76.106 33.7204L71.2148 34.8965L72.3909 39.7876L77.2821 38.6116L76.106 33.7204Z" fill="#263238"/>
<path d="M63.8169 43.6501L58.9258 44.8262L60.1018 49.7173L64.993 48.5413L63.8169 43.6501Z" fill="#263238"/>
<path d="M70.7583 41.986L65.8672 43.1621L67.0433 48.0533L71.9344 46.8772L70.7583 41.986Z" fill="#263238"/>
<path d="M77.6978 40.3122L72.8066 41.4883L73.9827 46.3794L78.8739 45.2034L77.6978 40.3122Z" fill="#263238"/>
<path opacity="0.2" d="M55.2974 38.7214L50.4062 39.8975L51.5823 44.7886L56.4735 43.6125L55.2974 38.7214Z" fill="white"/>
<path opacity="0.2" d="M62.2349 37.0524L57.3438 38.2285L58.5198 43.1197L63.411 41.9436L62.2349 37.0524Z" fill="white"/>
<path opacity="0.2" d="M69.1705 35.3835L64.2793 36.5596L65.4554 41.4507L70.3465 40.2747L69.1705 35.3835Z" fill="white"/>
<path opacity="0.2" d="M76.106 33.7204L71.2148 34.8965L72.3909 39.7876L77.2821 38.6116L76.106 33.7204Z" fill="white"/>
<path opacity="0.2" d="M63.8169 43.6501L58.9258 44.8262L60.1018 49.7173L64.993 48.5413L63.8169 43.6501Z" fill="white"/>
<path opacity="0.2" d="M70.7583 41.986L65.8672 43.1621L67.0433 48.0533L71.9344 46.8772L70.7583 41.986Z" fill="white"/>
<path opacity="0.2" d="M77.6978 40.3122L72.8066 41.4883L73.9827 46.3794L78.8739 45.2034L77.6978 40.3122Z" fill="white"/>
<path d="M72.3443 48.5827L67.4531 49.7588L68.6292 54.6499L73.5204 53.4739L72.3443 48.5827Z" fill="white"/>
<path d="M79.2837 46.9089L74.3926 48.085L75.5686 52.9761L80.4598 51.8L79.2837 46.9089Z" fill="white"/>
<path d="M72.1275 9.22406C72.2263 9.33843 72.2987 9.47308 72.3396 9.6185C72.3806 9.76392 72.3892 9.91656 72.3647 10.0656C72.3402 10.2147 72.2832 10.3566 72.1979 10.4813C72.1126 10.606 72.0009 10.7104 71.8708 10.7871C71.7406 10.8639 71.5952 10.9112 71.4448 10.9256C71.2944 10.94 71.1427 10.9212 71.0004 10.8705C70.8581 10.8199 70.7286 10.7386 70.6211 10.6324C70.5136 10.5262 70.4308 10.3977 70.3784 10.256L69.718 9.13635L65.1518 11.8142L65.8071 12.9338C65.8909 13.1606 65.8924 13.4096 65.8113 13.6374C65.7302 13.8652 65.5717 14.0573 65.3635 14.1802C65.1552 14.303 64.9104 14.3488 64.6718 14.3096C64.4332 14.2705 64.216 14.1487 64.058 13.9657L63.4027 12.8461L58.8468 15.5136C59.1822 16.0811 59.4505 16.5455 59.5073 16.6332C59.5911 16.86 59.5926 17.109 59.5115 17.3368C59.4304 17.5646 59.2719 17.7567 59.0637 17.8795C58.8554 18.0024 58.6106 18.0482 58.372 18.009C58.1334 17.9699 57.9162 17.8481 57.7582 17.6651L57.0978 16.5455L52.5316 19.2284L53.1713 20.3429C53.2701 20.4573 53.3425 20.5919 53.3835 20.7373C53.4244 20.8827 53.433 21.0354 53.4085 21.1845C53.384 21.3336 53.3271 21.4754 53.2417 21.6001C53.1564 21.7248 53.0447 21.8292 52.9146 21.906C52.7844 21.9827 52.639 22.03 52.4886 22.0444C52.3383 22.0588 52.1865 22.04 52.0442 21.9894C51.9019 21.9387 51.7724 21.8574 51.6649 21.7512C51.5575 21.645 51.4746 21.5165 51.4223 21.3748L50.767 20.25L46.2008 22.933L46.856 24.0526C46.9398 24.2794 46.9413 24.5284 46.8603 24.7562C46.7792 24.984 46.6207 25.1761 46.4124 25.299C46.2042 25.4218 45.9594 25.4677 45.7208 25.4285C45.4822 25.3893 45.265 25.2675 45.107 25.0845L44.4517 23.9649L41.5469 25.6675L59.0893 55.5929L91.9144 36.3375L74.3719 6.41211L71.4671 8.11476L72.1275 9.22406Z" fill="#263238"/>
<path d="M72.1275 9.22406C72.2263 9.33843 72.2987 9.47308 72.3396 9.6185C72.3806 9.76392 72.3892 9.91656 72.3647 10.0656C72.3402 10.2147 72.2832 10.3566 72.1979 10.4813C72.1126 10.606 72.0009 10.7104 71.8708 10.7871C71.7406 10.8639 71.5952 10.9112 71.4448 10.9256C71.2944 10.94 71.1427 10.9212 71.0004 10.8705C70.8581 10.8199 70.7286 10.7386 70.6211 10.6324C70.5136 10.5262 70.4308 10.3977 70.3784 10.256L69.718 9.13635L65.1518 11.8142L65.8071 12.9338C65.8909 13.1606 65.8924 13.4096 65.8113 13.6374C65.7302 13.8652 65.5717 14.0573 65.3635 14.1802C65.1552 14.303 64.9104 14.3488 64.6718 14.3096C64.4332 14.2705 64.216 14.1487 64.058 13.9657L63.4027 12.8461L58.8468 15.5136C59.1822 16.0811 59.4505 16.5455 59.5073 16.6332C59.5911 16.86 59.5926 17.109 59.5115 17.3368C59.4304 17.5646 59.2719 17.7567 59.0637 17.8795C58.8554 18.0024 58.6106 18.0482 58.372 18.009C58.1334 17.9699 57.9162 17.8481 57.7582 17.6651L57.0978 16.5455L52.5316 19.2284L53.1713 20.3429C53.2701 20.4573 53.3425 20.5919 53.3835 20.7373C53.4244 20.8827 53.433 21.0354 53.4085 21.1845C53.384 21.3336 53.3271 21.4754 53.2417 21.6001C53.1564 21.7248 53.0447 21.8292 52.9146 21.906C52.7844 21.9827 52.639 22.03 52.4886 22.0444C52.3383 22.0588 52.1865 22.04 52.0442 21.9894C51.9019 21.9387 51.7724 21.8574 51.6649 21.7512C51.5575 21.645 51.4746 21.5165 51.4223 21.3748L50.767 20.25L46.2008 22.933L46.856 24.0526C46.9398 24.2794 46.9413 24.5284 46.8603 24.7562C46.7792 24.984 46.6207 25.1761 46.4124 25.299C46.2042 25.4218 45.9594 25.4677 45.7208 25.4285C45.4822 25.3893 45.265 25.2675 45.107 25.0845L44.4517 23.9649L41.5469 25.6675L59.0893 55.5929L91.9144 36.3375L74.3719 6.41211L71.4671 8.11476L72.1275 9.22406Z" fill="white"/>
<path d="M69.3199 15.1297L53.0723 24.6621L55.9155 29.5084L72.1632 19.9759L69.3199 15.1297Z" fill="#263238"/>
<path opacity="0.6" d="M69.3199 15.1297L53.0723 24.6621L55.9155 29.5084L72.1632 19.9759L69.3199 15.1297Z" fill="#789"/>
<path d="M54.2794 32.5389L49.9531 35.1045L52.5187 39.4308L56.845 36.8652L54.2794 32.5389Z" fill="white"/>
<path d="M60.4083 28.909L56.082 31.4746L58.6476 35.8009L62.9739 33.2353L60.4083 28.909Z" fill="white"/>
<path d="M66.6143 25.8069L62.2754 28.3525L64.821 32.6915L69.16 30.1458L66.6143 25.8069Z" fill="#263238"/>
<path d="M72.7686 22.1936L68.4297 24.7393L70.9753 29.0782L75.3143 26.5326L72.7686 22.1936Z" fill="#263238"/>
<path d="M78.7853 18.0291L74.459 20.5947L77.0246 24.921L81.3509 22.3554L78.7853 18.0291Z" fill="#263238"/>
<path d="M57.7267 38.3651L53.4004 40.9307L55.966 45.2569L60.2923 42.6914L57.7267 38.3651Z" fill="#263238"/>
<path d="M63.8936 35.2678L59.5547 37.8135L62.1003 42.1524L66.4393 39.6068L63.8936 35.2678Z" fill="#263238"/>
<path d="M69.9825 31.1131L65.6562 33.6787L68.2218 38.005L72.5481 35.4394L69.9825 31.1131Z" fill="#263238"/>
<path d="M76.2042 28.0491L71.8652 30.5947L74.4109 34.9337L78.7498 32.388L76.2042 28.0491Z" fill="#263238"/>
<path d="M82.3585 24.4348L78.0195 26.9805L80.5652 31.3194L84.9041 28.7738L82.3585 24.4348Z" fill="#263238"/>
<path d="M61.1759 44.1864L56.8496 46.752L59.4152 51.0782L63.7415 48.5127L61.1759 44.1864Z" fill="#263238"/>
<path d="M67.3009 40.5623L62.9746 43.1279L65.5402 47.4542L69.8665 44.8886L67.3009 40.5623Z" fill="#263238"/>
<path d="M73.4318 36.9334L69.1055 39.499L71.6711 43.8253L75.9973 41.2597L73.4318 36.9334Z" fill="#263238"/>
<path d="M79.5548 33.3084L75.2285 35.874L77.7941 40.2003L82.1204 37.6347L79.5548 33.3084Z" fill="white"/>
<path d="M85.796 30.2864L81.457 32.832L84.0027 37.171L88.3416 34.6253L85.796 30.2864Z" fill="white"/>
<path d="M41.5117 25.6777L58.5382 57.1097L91.8741 36.327L59.0542 55.5825L41.5117 25.6777Z" fill="#263238"/>
<path opacity="0.5" d="M41.5117 25.6777L58.5382 57.1097L91.8741 36.327L59.0542 55.5825L41.5117 25.6777Z" fill="#789"/>
<path d="M161.048 93.8075L176.634 96.1618C179.189 96.5479 181.487 97.9335 183.022 100.014C184.556 102.094 185.201 104.699 184.815 107.255L182.462 122.83C182.076 125.385 180.691 127.681 178.612 129.215C176.533 130.748 173.93 131.393 171.375 131.007L155.784 128.652C153.23 128.266 150.933 126.881 149.4 124.802C147.866 122.723 147.222 120.12 147.607 117.565L149.96 101.99C150.151 100.724 150.589 99.5087 151.249 98.4126C151.909 97.3165 152.779 96.3612 153.809 95.6014C154.839 94.8415 156.008 94.292 157.25 93.9842C158.492 93.6764 159.783 93.6164 161.048 93.8075V93.8075Z" fill="white"/>
<path opacity="0.6" d="M150.528 102.075L150.528 102.075C150.707 100.884 151.119 99.7403 151.741 98.7088C152.362 97.6773 153.181 96.7783 154.15 96.0632C155.119 95.3482 156.219 94.831 157.388 94.5414C158.557 94.2517 159.771 94.1952 160.962 94.3751L176.548 96.7294C178.953 97.0927 181.116 98.3967 182.56 100.355C184.004 102.312 184.611 104.764 184.247 107.169L181.895 122.744C181.531 125.148 180.228 127.31 178.271 128.753C176.315 130.196 173.865 130.803 171.461 130.439L155.87 128.084C153.466 127.721 151.305 126.418 149.862 124.461C148.419 122.505 147.812 120.055 148.175 117.651L150.528 102.075Z" stroke="#789" stroke-width="1.148"/>
<path d="M172.584 103.974L170.324 105.552L174.798 106.068C174.998 106.091 175.2 106.069 175.39 106.003C175.581 105.937 175.753 105.828 175.896 105.686C176.038 105.543 176.147 105.371 176.213 105.18C176.279 104.99 176.301 104.788 176.278 104.588L175.762 100.114L174.184 102.374L172.904 102.715L172.584 103.974Z" fill="#263238"/>
<path d="M181.48 112.874L179.906 115.139L179.39 110.66C179.369 110.46 179.393 110.259 179.46 110.069C179.527 109.88 179.635 109.708 179.777 109.566C179.919 109.424 180.091 109.316 180.28 109.249C180.47 109.182 180.671 109.158 180.871 109.179L185.35 109.695L183.09 111.269L182.749 112.554L181.48 112.874Z" fill="#263238"/>
<path d="M177.843 110.367C179.365 110.367 180.598 109.133 180.598 107.612C180.598 106.09 179.365 104.856 177.843 104.856C176.321 104.856 175.088 106.09 175.088 107.612C175.088 109.133 176.321 110.367 177.843 110.367Z" fill="#263238"/>
<g opacity="0.2">
<path opacity="0.2" d="M172.584 103.974L170.324 105.552L174.798 106.068C174.998 106.091 175.2 106.069 175.39 106.003C175.581 105.937 175.753 105.828 175.896 105.686C176.038 105.543 176.147 105.371 176.213 105.18C176.279 104.99 176.301 104.788 176.278 104.588L175.762 100.114L174.184 102.374L172.904 102.715L172.584 103.974Z" fill="white"/>
<path opacity="0.2" d="M181.48 112.874L179.906 115.139L179.39 110.66C179.369 110.46 179.393 110.259 179.46 110.069C179.527 109.88 179.635 109.708 179.777 109.566C179.919 109.424 180.091 109.316 180.28 109.249C180.47 109.182 180.671 109.158 180.871 109.179L185.35 109.695L183.09 111.269L182.749 112.554L181.48 112.874Z" fill="white"/>
<path opacity="0.2" d="M177.841 110.366C179.363 110.366 180.596 109.132 180.596 107.611C180.596 106.089 179.363 104.855 177.841 104.855C176.319 104.855 175.086 106.089 175.086 107.611C175.086 109.132 176.319 110.366 177.841 110.366Z" fill="white"/>
</g>
<g opacity="0.7">
<path opacity="0.7" d="M178.668 104.986C178.292 104.868 177.896 104.833 177.505 104.882C177.114 104.93 176.738 105.062 176.403 105.269C176.068 105.475 175.78 105.751 175.561 106.078C175.341 106.405 175.194 106.775 175.129 107.163L178.668 104.986Z" fill="white"/>
<path opacity="0.7" d="M175.898 109.562C176.14 109.806 176.427 110 176.744 110.135L180.593 107.772C180.617 107.346 180.543 106.921 180.376 106.528L175.732 109.382C175.784 109.464 175.841 109.505 175.898 109.562Z" fill="white"/>
</g>
<path d="M171.414 119.783L171.017 122.027L173.927 119.7C174.057 119.596 174.162 119.465 174.234 119.315C174.306 119.164 174.344 119 174.344 118.834C174.344 118.667 174.306 118.503 174.234 118.353C174.162 118.203 174.057 118.071 173.927 117.967L171.017 115.655L171.414 117.9L170.867 118.849L171.414 119.783Z" fill="#263238"/>
<path d="M181.831 119.783L182.228 122.027L179.318 119.7C179.189 119.596 179.085 119.464 179.013 119.314C178.941 119.164 178.904 119 178.904 118.833C178.904 118.667 178.941 118.503 179.013 118.353C179.085 118.203 179.189 118.071 179.318 117.967L182.228 115.64L181.831 117.884L182.383 118.833L181.831 119.783Z" fill="#263238"/>
<path d="M178.905 118.854C178.905 119.305 178.771 119.746 178.52 120.121C178.27 120.496 177.914 120.788 177.497 120.961C177.08 121.133 176.622 121.178 176.179 121.09C175.737 121.002 175.331 120.785 175.012 120.466C174.693 120.147 174.476 119.741 174.388 119.299C174.3 118.856 174.345 118.398 174.517 117.981C174.69 117.564 174.982 117.208 175.357 116.958C175.732 116.707 176.173 116.573 176.624 116.573C177.229 116.573 177.809 116.814 178.237 117.241C178.665 117.669 178.905 118.249 178.905 118.854Z" fill="#263238"/>
<g opacity="0.9">
<path opacity="0.9" d="M171.414 119.783L171.017 122.027L173.927 119.7C174.057 119.596 174.162 119.465 174.234 119.315C174.306 119.164 174.344 119 174.344 118.834C174.344 118.667 174.306 118.503 174.234 118.353C174.162 118.203 174.057 118.071 173.927 117.967L171.017 115.655L171.414 117.9L170.867 118.849L171.414 119.783Z" fill="white"/>
<path opacity="0.9" d="M181.831 119.783L182.228 122.027L179.318 119.7C179.189 119.596 179.085 119.464 179.013 119.314C178.941 119.164 178.904 119 178.904 118.833C178.904 118.667 178.941 118.503 179.013 118.353C179.085 118.203 179.189 118.071 179.318 117.967L182.228 115.64L181.831 117.884L182.383 118.833L181.831 119.783Z" fill="white"/>
<path opacity="0.9" d="M178.907 118.854C178.907 119.305 178.773 119.746 178.522 120.121C178.272 120.496 177.916 120.788 177.499 120.961C177.082 121.133 176.624 121.178 176.181 121.09C175.739 121.002 175.333 120.785 175.014 120.466C174.695 120.147 174.478 119.741 174.39 119.299C174.302 118.856 174.347 118.398 174.519 117.981C174.692 117.564 174.984 117.208 175.359 116.958C175.734 116.707 176.175 116.573 176.626 116.573C177.231 116.573 177.811 116.814 178.239 117.241C178.666 117.669 178.907 118.249 178.907 118.854Z" fill="white"/>
</g>
<path d="M175.567 116.837C175.198 117.029 174.889 117.319 174.673 117.675C174.458 118.03 174.344 118.438 174.344 118.854C174.345 119.329 174.493 119.792 174.767 120.18L175.567 116.837Z" fill="#263238"/>
<path d="M176.624 121.135C176.909 121.136 177.191 121.081 177.455 120.975L178.322 117.338C178.088 117.074 177.794 116.868 177.466 116.739L176.434 121.125L176.624 121.135Z" fill="#263238"/>
<path d="M142.099 26.9278L166.269 21.9972C171.23 20.9852 176.071 24.1863 177.083 29.1471L182.014 53.3171C183.026 58.2779 179.825 63.1197 174.864 64.1317L150.694 69.0623C145.733 70.0743 140.892 66.8732 139.88 61.9124L134.949 37.7424C133.937 32.7817 137.138 27.9398 142.099 26.9278Z" fill="white" stroke="#789" stroke-width="1.148"/>
<path d="M172.925 31.72L169.829 32.138L171.486 29.9606C171.529 29.9038 171.547 29.8323 171.538 29.7616C171.528 29.691 171.491 29.6271 171.434 29.584C171.377 29.5409 171.306 29.5221 171.235 29.5318C171.164 29.5414 171.1 29.5788 171.057 29.6356C170.397 30.5024 169.731 31.3692 169.071 32.2153L166.099 32.6178L166.243 32.3959L167.373 30.9151L169.066 28.6965C169.109 28.6397 169.128 28.5682 169.118 28.4975C169.108 28.4269 169.071 28.363 169.014 28.3199C168.957 28.2768 168.886 28.258 168.815 28.2677C168.744 28.2774 168.681 28.3147 168.637 28.3715L165.32 32.721L164.092 32.8861L163.927 31.6581L167.239 27.3086C167.283 27.2518 167.302 27.18 167.293 27.1089C167.284 27.0377 167.247 26.9732 167.19 26.9294C167.133 26.8856 167.062 26.8662 166.99 26.8754C166.919 26.8845 166.855 26.9216 166.811 26.9784C166.295 27.6801 165.743 28.3766 165.212 29.0732L163.994 30.6778L163.818 30.879L163.437 27.9432L165.423 25.3635C165.467 25.3067 165.486 25.2348 165.477 25.1637C165.468 25.0926 165.431 25.028 165.374 24.9842C165.317 24.9404 165.245 24.921 165.174 24.9302C165.103 24.9394 165.039 24.9765 164.995 25.0333L163.339 27.2106L162.921 24.1149C162.898 24.0592 162.858 24.0126 162.806 23.9825C162.754 23.9524 162.694 23.9406 162.634 23.9489C162.575 23.9572 162.52 23.9852 162.478 24.0284C162.437 24.0715 162.411 24.1274 162.405 24.1871L162.823 27.2828L160.645 25.6266C160.589 25.5835 160.517 25.5647 160.446 25.5744C160.376 25.5841 160.312 25.6214 160.269 25.6782C160.226 25.735 160.207 25.8066 160.216 25.8772C160.226 25.9478 160.263 26.0117 160.32 26.0548L162.926 28.0413L163.328 31.0132L163.106 30.8635L161.626 29.7388L159.407 28.0464C159.35 28.0033 159.279 27.9845 159.208 27.9942C159.137 28.0039 159.073 28.0412 159.03 28.098C158.987 28.1548 158.968 28.2264 158.978 28.297C158.988 28.3677 159.025 28.4316 159.082 28.4747L163.431 31.7923C163.488 32.1999 163.54 32.6126 163.597 33.0202L162.369 33.1853L158.019 29.8729C157.962 29.8291 157.89 29.8097 157.819 29.8189C157.748 29.8281 157.684 29.8651 157.64 29.9219C157.596 29.9787 157.577 30.0506 157.586 30.1217C157.595 30.1928 157.632 30.2574 157.689 30.3012L159.784 31.8955L161.368 33.1028L161.569 33.2782L158.597 33.6755L155.991 31.6942C155.935 31.6504 155.863 31.631 155.792 31.6402C155.721 31.6494 155.656 31.6865 155.612 31.7432C155.568 31.8 155.549 31.8719 155.558 31.943C155.567 32.0141 155.604 32.0787 155.661 32.1225L157.839 33.7787L154.743 34.1966C154.687 34.2189 154.64 34.2592 154.61 34.3111C154.58 34.363 154.568 34.4235 154.577 34.4829C154.585 34.5423 154.613 34.5972 154.656 34.6388C154.699 34.6805 154.755 34.7064 154.815 34.7126L157.911 34.2998L156.255 36.4771C156.211 36.5339 156.193 36.6055 156.202 36.6761C156.212 36.7468 156.249 36.8107 156.306 36.8538C156.363 36.8969 156.434 36.9157 156.505 36.906C156.576 36.8963 156.64 36.859 156.683 36.8022C157.343 35.9354 158.004 35.0634 158.669 34.2224L161.641 33.82C161.579 33.9128 161.528 33.9954 161.491 34.0418L160.367 35.5175L158.674 37.7412C158.631 37.798 158.612 37.8696 158.622 37.9402C158.632 38.0109 158.669 38.0748 158.726 38.1179C158.783 38.161 158.854 38.1798 158.925 38.1701C158.996 38.1604 159.059 38.1231 159.103 38.0663L162.42 33.7168L163.648 33.5517C163.705 33.9593 163.762 34.372 163.813 34.7796L160.491 39.0982C160.447 39.155 160.427 39.2268 160.436 39.298C160.446 39.3691 160.483 39.4336 160.54 39.4774C160.596 39.5212 160.668 39.5406 160.739 39.5314C160.81 39.5223 160.875 39.4852 160.919 39.4284L162.518 37.3285L163.736 35.729L163.911 35.5278C164.045 36.5184 164.174 37.509 164.309 38.4997L162.327 41.1053C162.284 41.162 162.264 41.2339 162.273 41.305C162.282 41.3761 162.32 41.4407 162.376 41.4845C162.433 41.5283 162.505 41.5477 162.576 41.5385C162.647 41.5293 162.712 41.4923 162.756 41.4355L164.412 39.2581L164.83 42.3539C164.852 42.4095 164.892 42.4562 164.944 42.4862C164.996 42.5163 165.057 42.5282 165.116 42.5198C165.175 42.5115 165.23 42.4835 165.272 42.4404C165.314 42.3972 165.34 42.3413 165.346 42.2816C165.212 41.2497 165.074 40.2178 164.933 39.1859L167.11 40.8421C167.167 40.8852 167.239 40.904 167.309 40.8943C167.38 40.8847 167.444 40.8473 167.487 40.7905C167.53 40.7337 167.549 40.6621 167.539 40.5915C167.529 40.5209 167.492 40.457 167.435 40.4139L164.83 38.4274L164.427 35.4555L164.649 35.6L166.166 36.7145L168.39 38.4068C168.447 38.4499 168.518 38.4687 168.589 38.459C168.659 38.4493 168.723 38.412 168.766 38.3552C168.81 38.2984 168.828 38.2268 168.819 38.1562C168.809 38.0856 168.772 38.0217 168.715 37.9786L164.365 34.661C164.309 34.2534 164.252 33.8406 164.2 33.433L165.428 33.2679L169.778 36.5803C169.834 36.6241 169.906 36.6436 169.977 36.6344C170.049 36.6252 170.113 36.5881 170.157 36.5313C170.201 36.4745 170.22 36.4027 170.211 36.3315C170.202 36.2604 170.165 36.1959 170.108 36.1521L168.008 34.5526L166.409 33.335L166.207 33.1595L169.179 32.7571L171.785 34.7435C171.842 34.7873 171.913 34.8068 171.985 34.7976C172.056 34.7884 172.12 34.7513 172.164 34.6945C172.208 34.6377 172.227 34.5659 172.218 34.4947C172.209 34.4236 172.172 34.3591 172.115 34.3153L169.938 32.6591L173.033 32.2411C173.095 32.2199 173.147 32.1768 173.179 32.1201C173.211 32.0633 173.222 31.9968 173.209 31.9329C173.195 31.869 173.159 31.8121 173.107 31.773C173.055 31.7338 172.99 31.715 172.925 31.72V31.72Z" fill="white"/>
<path d="M179.317 46.636L177.852 45.5163L179.462 45.2996C179.483 45.2969 179.503 45.2901 179.521 45.2796C179.54 45.269 179.556 45.255 179.569 45.2382C179.582 45.2214 179.591 45.2023 179.597 45.1818C179.602 45.1614 179.604 45.14 179.601 45.119C179.598 45.098 179.591 45.0778 179.581 45.0594C179.57 45.041 179.556 45.0249 179.54 45.012C179.523 44.9991 179.504 44.9895 179.483 44.984C179.463 44.9785 179.441 44.977 179.42 44.9797L177.491 45.2429L176.072 44.1594L176.227 44.1284L177.32 43.9839L178.966 43.7621C179.009 43.7559 179.047 43.7332 179.073 43.6988C179.098 43.6645 179.109 43.6213 179.103 43.5789C179.097 43.5365 179.074 43.4983 179.04 43.4726C179.005 43.447 178.962 43.436 178.92 43.4422L175.7 43.8756L175.112 43.4319L175.561 42.8437L178.781 42.4103C178.823 42.4048 178.862 42.3827 178.888 42.3488C178.914 42.315 178.925 42.2721 178.92 42.2297C178.914 42.1873 178.892 42.1488 178.858 42.1226C178.825 42.0965 178.782 42.0849 178.739 42.0904L177.191 42.3019L176.005 42.4619H175.85C176.206 41.9872 176.567 41.5177 176.928 41.043L178.858 40.7799C178.896 40.77 178.929 40.7468 178.95 40.7144C178.972 40.6821 178.981 40.6429 178.976 40.6043C178.971 40.5656 178.952 40.5301 178.923 40.5045C178.893 40.4789 178.856 40.4649 178.817 40.4651L177.202 40.6818L178.321 39.2165C178.445 39.0514 178.192 38.8553 178.069 39.0205L176.949 40.4858L176.732 38.876C176.73 38.855 176.723 38.8347 176.712 38.8163C176.702 38.798 176.688 38.7819 176.671 38.7689C176.637 38.7428 176.594 38.7312 176.552 38.7367C176.509 38.7422 176.471 38.7643 176.445 38.7981C176.418 38.832 176.407 38.8748 176.412 38.9173L176.675 40.8469L175.592 42.2658C175.592 42.2039 175.566 42.1471 175.561 42.111C175.515 41.7499 175.463 41.3835 175.411 41.0172C175.339 40.4703 175.267 39.9234 175.19 39.3713C175.18 39.333 175.156 39.2997 175.123 39.2778C175.09 39.256 175.05 39.2471 175.011 39.2528C174.972 39.2586 174.937 39.2786 174.911 39.3091C174.886 39.3395 174.873 39.3782 174.875 39.4177L175.308 42.6373L174.864 43.2255L174.276 42.7766C174.132 41.7034 173.986 40.6302 173.838 39.557C173.828 39.5193 173.805 39.4865 173.772 39.4647C173.74 39.4429 173.701 39.4337 173.662 39.4387C173.623 39.4438 173.588 39.4628 173.562 39.4922C173.537 39.5216 173.523 39.5593 173.523 39.5983C173.59 40.1143 173.662 40.6302 173.729 41.1462C173.786 41.5435 173.838 41.9356 173.894 42.3329C173.894 42.369 173.894 42.4258 173.894 42.4877L172.476 41.4093L172.212 39.4797C172.203 39.4419 172.179 39.4091 172.147 39.3873C172.115 39.3655 172.076 39.3563 172.037 39.3614C171.998 39.3664 171.963 39.3854 171.937 39.4148C171.912 39.4442 171.897 39.4819 171.898 39.5209L172.114 41.1359L170.644 40.0162C170.61 39.9975 170.571 39.9916 170.533 39.9995C170.495 40.0075 170.462 40.0289 170.439 40.0596C170.415 40.0904 170.404 40.1286 170.407 40.1671C170.409 40.2055 170.426 40.2418 170.453 40.2691C170.938 40.6457 171.428 41.0172 171.918 41.3887L170.309 41.6054C170.266 41.6109 170.228 41.633 170.202 41.6668C170.175 41.7007 170.164 41.7436 170.169 41.786C170.175 41.8284 170.197 41.8669 170.231 41.893C170.265 41.9192 170.307 41.9308 170.35 41.9253L172.28 41.6621L173.698 42.7457L173.544 42.7766L172.45 42.9211L170.804 43.1481C170.766 43.1579 170.733 43.1812 170.712 43.2135C170.69 43.2458 170.681 43.285 170.686 43.3237C170.691 43.3623 170.71 43.3978 170.739 43.4234C170.768 43.4491 170.806 43.4631 170.845 43.4628L174.07 43.0294L174.658 43.4731L174.209 44.0613L170.99 44.4999C170.952 44.5097 170.919 44.533 170.897 44.5653C170.876 44.5976 170.866 44.6368 170.871 44.6755C170.876 44.7141 170.895 44.7496 170.925 44.7752C170.954 44.8009 170.992 44.8149 171.031 44.8146L172.579 44.6082L173.766 44.4431H173.92C173.559 44.9178 173.203 45.3925 172.842 45.862L170.912 46.1252C170.875 46.135 170.842 46.1582 170.82 46.1906C170.798 46.2229 170.789 46.2621 170.794 46.3007C170.799 46.3394 170.818 46.3749 170.847 46.4005C170.877 46.4261 170.915 46.4401 170.954 46.4399L172.563 46.2232L171.449 47.6937C171.32 47.8536 171.578 48.0497 171.702 47.8846L172.821 46.4192L173.038 48.029C173.043 48.0714 173.066 48.11 173.099 48.1361C173.133 48.1622 173.176 48.1738 173.219 48.1683C173.261 48.1629 173.3 48.1408 173.326 48.1069C173.352 48.073 173.363 48.0302 173.358 47.9878L173.095 46.0581L174.178 44.6392C174.178 44.7011 174.204 44.7579 174.209 44.794C174.256 45.1603 174.307 45.5215 174.354 45.8878C174.431 46.4347 174.503 46.9868 174.576 47.5337C174.581 47.5761 174.603 47.6146 174.637 47.6408C174.671 47.6669 174.714 47.6785 174.756 47.673C174.799 47.6675 174.837 47.6454 174.863 47.6116C174.889 47.5777 174.901 47.5349 174.895 47.4924L174.462 44.2677L174.906 43.6795L175.494 44.1284L175.927 47.348C175.933 47.3904 175.955 47.4289 175.989 47.455C176.023 47.4811 176.066 47.4927 176.108 47.4873C176.15 47.4818 176.189 47.4597 176.215 47.4258C176.241 47.392 176.253 47.3491 176.247 47.3067C176.175 46.7907 176.108 46.2748 176.036 45.7588C175.984 45.3615 175.933 44.9694 175.876 44.5721C175.876 44.536 175.876 44.4793 175.876 44.4173L177.295 45.4957C177.382 46.1406 177.47 46.7856 177.553 47.4254C177.558 47.4678 177.58 47.5063 177.614 47.5324C177.648 47.5585 177.691 47.5701 177.733 47.5647C177.776 47.5592 177.814 47.5371 177.84 47.5032C177.866 47.4694 177.878 47.4265 177.873 47.3841L177.656 45.7743L179.121 46.8888C179.155 46.9148 179.197 46.9264 179.239 46.9211C179.281 46.9157 179.32 46.8939 179.346 46.8604C179.372 46.8269 179.383 46.7844 179.378 46.7423C179.373 46.7002 179.351 46.662 179.317 46.636V46.636Z" fill="white"/>
<path d="M165.651 53.6069C165.697 53.2457 165.749 52.8846 165.795 52.5183L165.026 53.1064C165.016 53.1139 165.005 53.1193 164.993 53.1225C164.981 53.1256 164.969 53.1263 164.957 53.1247C164.945 53.123 164.933 53.1189 164.922 53.1127C164.911 53.1065 164.902 53.0982 164.895 53.0884C164.887 53.0786 164.882 53.0674 164.879 53.0554C164.876 53.0435 164.875 53.0311 164.876 53.0189C164.878 53.0066 164.882 52.9949 164.888 52.9842C164.895 52.9736 164.903 52.9643 164.913 52.9568L165.831 52.2551L165.976 51.2232L165.898 51.2748L165.382 51.6721L164.598 52.2706C164.588 52.278 164.577 52.2835 164.565 52.2866C164.553 52.2897 164.541 52.2905 164.528 52.2888C164.516 52.2871 164.504 52.2831 164.494 52.2768C164.483 52.2706 164.474 52.2624 164.466 52.2525C164.459 52.2427 164.454 52.2315 164.45 52.2196C164.447 52.2077 164.447 52.1952 164.448 52.183C164.45 52.1708 164.454 52.159 164.46 52.1484C164.466 52.1377 164.475 52.1284 164.484 52.121L166.032 50.9497L166.089 50.5112L165.656 50.4544L164.108 51.6256C164.098 51.6331 164.087 51.6385 164.075 51.6417C164.063 51.6448 164.051 51.6455 164.038 51.6439C164.026 51.6422 164.014 51.6381 164.004 51.6319C163.993 51.6257 163.984 51.6174 163.976 51.6076C163.969 51.5978 163.963 51.5866 163.96 51.5746C163.957 51.5627 163.956 51.5503 163.958 51.5381C163.96 51.5258 163.964 51.5141 163.97 51.5034C163.976 51.4928 163.985 51.4835 163.994 51.476L164.732 50.9085L165.3 50.4751L165.372 50.4183L164.34 50.2738L163.422 50.9755C163.324 51.0529 163.205 50.8982 163.303 50.8259L164.072 50.2377L162.983 50.0933C162.961 50.086 162.943 50.0715 162.931 50.0521C162.919 50.0327 162.914 50.0098 162.917 49.9871C162.92 49.9645 162.931 49.9436 162.948 49.9282C162.964 49.9127 162.986 49.9036 163.009 49.9024L164.098 50.052L163.514 49.2781C163.499 49.2582 163.493 49.2332 163.496 49.2085C163.5 49.1839 163.513 49.1615 163.533 49.1465C163.552 49.1314 163.577 49.1249 163.602 49.1283C163.627 49.1317 163.649 49.1447 163.664 49.1645L164.366 50.0881L165.398 50.2274L165.346 50.15L164.944 49.6341L164.35 48.8498C164.341 48.8298 164.338 48.8072 164.343 48.7856C164.349 48.764 164.361 48.7448 164.378 48.7311C164.395 48.7173 164.417 48.7098 164.439 48.7098C164.461 48.7098 164.483 48.7174 164.5 48.7311L165.671 50.279L166.105 50.3409L166.167 49.9024C165.774 49.3864 165.382 48.8704 164.995 48.3545C164.98 48.3346 164.974 48.3096 164.977 48.285C164.98 48.2603 164.994 48.238 165.013 48.2229C165.033 48.2079 165.058 48.2013 165.083 48.2047C165.108 48.2081 165.13 48.2211 165.145 48.241L165.707 48.984L166.141 49.5463L166.203 49.6186L166.342 48.5867C166.11 48.2823 165.878 47.9727 165.64 47.6683C165.628 47.6476 165.623 47.623 165.627 47.5991C165.632 47.5752 165.645 47.5538 165.664 47.5391C165.683 47.5243 165.707 47.5172 165.732 47.5192C165.756 47.5211 165.778 47.5319 165.795 47.5496L166.378 48.3235L166.528 47.2349C166.533 47.2133 166.545 47.1941 166.562 47.1804C166.58 47.1667 166.601 47.1592 166.623 47.1592C166.645 47.1592 166.667 47.1667 166.684 47.1804C166.701 47.1941 166.714 47.2133 166.719 47.2349C166.667 47.596 166.621 47.9572 166.569 48.3184L167.338 47.7353C167.436 47.658 167.554 47.8127 167.456 47.885L166.517 48.5815L166.378 49.6134L166.455 49.5618L166.971 49.1645L167.756 48.566C167.765 48.5586 167.777 48.5531 167.789 48.55C167.801 48.5469 167.813 48.5461 167.825 48.5478C167.837 48.5495 167.849 48.5536 167.86 48.5598C167.87 48.566 167.88 48.5743 167.887 48.5841C167.895 48.5939 167.9 48.6051 167.903 48.617C167.906 48.629 167.907 48.6414 167.905 48.6536C167.904 48.6658 167.9 48.6776 167.893 48.6882C167.887 48.6989 167.879 48.7082 167.869 48.7157C167.353 49.1078 166.837 49.4999 166.321 49.8869C166.321 50.0313 166.285 50.1758 166.265 50.3254L166.698 50.3822L168.246 49.211C168.344 49.1336 168.463 49.2884 168.364 49.3606L167.622 49.9282L167.054 50.3564L166.987 50.4183L168.019 50.5628L168.942 49.8611C168.962 49.846 168.987 49.8395 169.012 49.8429C169.037 49.8462 169.059 49.8593 169.074 49.8791C169.089 49.899 169.096 49.924 169.092 49.9487C169.089 49.9733 169.076 49.9957 169.056 50.0107L168.287 50.5989L169.376 50.7434C169.397 50.7506 169.416 50.7651 169.428 50.7845C169.44 50.8039 169.445 50.8269 169.442 50.8495C169.439 50.8721 169.428 50.893 169.411 50.9085C169.394 50.9239 169.373 50.9331 169.35 50.9343L168.261 50.7846L168.849 51.5534C168.862 51.5741 168.867 51.5987 168.862 51.6226C168.858 51.6465 168.845 51.6679 168.826 51.6826C168.806 51.6974 168.782 51.7045 168.758 51.7025C168.734 51.7006 168.711 51.6897 168.695 51.6721L167.993 50.7485L166.961 50.6092C166.976 50.6362 166.994 50.6621 167.013 50.6866C167.142 50.862 167.276 51.0323 167.41 51.2026C167.611 51.4657 167.807 51.7185 168.008 51.9868C168.021 52.0075 168.026 52.0321 168.021 52.056C168.017 52.0799 168.004 52.1013 167.985 52.116C167.965 52.1308 167.941 52.1379 167.917 52.1359C167.893 52.134 167.87 52.1231 167.854 52.1055C167.467 51.5895 167.075 51.0736 166.682 50.5576L166.249 50.4957C166.249 50.6402 166.208 50.7846 166.192 50.9291C166.579 51.4451 166.971 51.961 167.364 52.477C167.436 52.5698 167.286 52.6885 167.209 52.5905L166.646 51.8475L166.213 51.2851C166.196 51.2584 166.175 51.2341 166.151 51.2129L166.012 52.2448L166.713 53.1684C166.721 53.1782 166.726 53.1894 166.729 53.2013C166.733 53.2132 166.733 53.2257 166.732 53.2379C166.73 53.2501 166.726 53.2619 166.72 53.2725C166.713 53.2832 166.705 53.2925 166.695 53.2999C166.686 53.3074 166.674 53.3128 166.662 53.3159C166.65 53.3191 166.638 53.3198 166.626 53.3181C166.614 53.3165 166.602 53.3124 166.591 53.3062C166.581 53.3 166.571 53.2917 166.564 53.2819L165.976 52.5131C165.924 52.8794 165.878 53.2406 165.826 53.6018C165.82 53.6202 165.809 53.6363 165.793 53.648C165.778 53.6596 165.759 53.6662 165.74 53.6668C165.721 53.6673 165.702 53.6619 165.686 53.6511C165.67 53.6404 165.657 53.625 165.651 53.6069Z" fill="white"/>
<path d="M155.176 48.3749C155.177 48.5016 155.14 48.6258 155.071 48.7317C155.001 48.8376 154.901 48.9204 154.785 48.9696C154.668 49.0188 154.539 49.0322 154.415 49.0081C154.29 48.984 154.176 48.9235 154.086 48.8342C153.996 48.745 153.934 48.631 153.909 48.5067C153.884 48.3825 153.896 48.2536 153.945 48.1364C153.993 48.0192 154.075 47.919 154.18 47.8484C154.286 47.7779 154.409 47.7402 154.536 47.7402C154.705 47.7402 154.867 47.8069 154.987 47.9258C155.107 48.0447 155.175 48.2061 155.176 48.3749V48.3749Z" fill="white"/>
<path d="M150.699 67.0264V59.1064H146.674V67.0264L144.59 69.6268L147.469 69.116L148.687 69.8177L149.904 69.116L152.783 69.6268L150.699 67.0264Z" fill="#263238"/>
<path d="M153.191 60.7372L163.851 62.6307L148.687 43.6797L133.518 62.6307L144.182 60.7372L148.687 63.3479L153.191 60.7372Z" fill="#263238"/>
<path opacity="0.3" d="M153.191 60.7372L163.851 62.6307L148.687 43.6797L133.518 62.6307L144.182 60.7372L148.687 63.3479L153.191 60.7372Z" fill="white"/>
<path d="M152.741 52.2083L162.332 53.911L148.685 36.8535L135.033 53.911L144.63 52.2083L148.685 54.5559L152.741 52.2083Z" fill="#263238"/>
<path opacity="0.7" d="M152.741 52.2083L162.332 53.911L148.685 36.8535L135.033 53.911L144.63 52.2083L148.685 54.5559L152.741 52.2083Z" fill="white"/>
<path d="M151.57 43.1119L158.391 44.3244L148.686 32.1943L138.98 44.3244L145.801 43.1119L148.686 44.7836L151.57 43.1119Z" fill="#263238"/>
<path opacity="0.8" d="M151.57 43.1119L158.391 44.3244L148.686 32.1943L138.98 44.3244L145.801 43.1119L148.686 44.7836L151.57 43.1119Z" fill="white"/>
<path d="M148.686 24.9971L149.883 27.4221L152.556 27.809L150.621 29.6974L151.08 32.3597L148.686 31.106L146.292 32.3597L146.751 29.6974L144.816 27.809L147.489 27.4221L148.686 24.9971Z" fill="white"/>
<path d="M142.557 39.8564C142.557 39.8564 145.879 47.6886 156.859 47.0798C156.88 47.0695 145.281 50.0208 142.557 39.8564Z" fill="white"/>
<path d="M143.893 38.185C143.893 38.185 149.001 41.0589 153.237 37.8857C153.237 37.8857 149.331 43.2826 143.893 38.185Z" fill="white"/>
<path d="M157.777 48.2197C157.777 48.2197 151.302 55.9126 141.4 52.7808C141.4 52.7808 150.466 59.6894 157.777 48.2197Z" fill="white"/>
<path d="M146.421 41.1206C146.423 41.268 146.38 41.4124 146.298 41.5353C146.217 41.6583 146.101 41.7543 145.965 41.8112C145.829 41.8681 145.679 41.8832 145.535 41.8547C145.39 41.8262 145.257 41.7554 145.153 41.6512C145.049 41.5469 144.978 41.4141 144.95 41.2695C144.921 41.1249 144.936 40.9751 144.993 40.8391C145.05 40.7031 145.146 40.5871 145.269 40.5059C145.392 40.4246 145.536 40.3818 145.684 40.3828C145.879 40.3828 146.067 40.4606 146.205 40.5989C146.344 40.7373 146.421 40.925 146.421 41.1206Z" fill="white"/>
<path d="M153.298 40.3777C153.298 40.5247 153.255 40.6683 153.173 40.7905C153.092 40.9127 152.976 41.0079 152.84 41.0642C152.704 41.1204 152.555 41.1351 152.411 41.1064C152.266 41.0778 152.134 41.007 152.03 40.9031C151.926 40.7992 151.855 40.6668 151.827 40.5227C151.798 40.3786 151.813 40.2292 151.869 40.0934C151.925 39.9577 152.021 39.8416 152.143 39.76C152.265 39.6783 152.409 39.6348 152.555 39.6348C152.753 39.6348 152.942 39.713 153.081 39.8524C153.22 39.9917 153.298 40.1807 153.298 40.3777V40.3777Z" fill="white"/>
<path d="M144.636 45.2114C144.644 45.3138 144.631 45.4169 144.598 45.5141C144.565 45.6114 144.512 45.7006 144.442 45.7763C144.373 45.8519 144.288 45.9123 144.194 45.9536C144.1 45.9949 143.998 46.0162 143.895 46.0162C143.793 46.0162 143.691 45.9949 143.597 45.9536C143.503 45.9123 143.418 45.8519 143.349 45.7763C143.279 45.7006 143.226 45.6114 143.192 45.5141C143.159 45.4169 143.146 45.3138 143.155 45.2114C143.17 45.0257 143.255 44.8526 143.392 44.7265C143.529 44.6003 143.709 44.5303 143.895 44.5303C144.082 44.5303 144.261 44.6003 144.398 44.7265C144.535 44.8526 144.62 45.0257 144.636 45.2114V45.2114Z" fill="white"/>
<path d="M150.044 48.2205C150.043 48.3662 149.999 48.5084 149.917 48.629C149.835 48.7497 149.72 48.8434 149.585 48.8985C149.45 48.9535 149.302 48.9674 149.159 48.9384C149.016 48.9093 148.885 48.8386 148.783 48.7353C148.68 48.6319 148.61 48.5004 148.582 48.3574C148.554 48.2144 148.569 48.0663 148.625 47.9318C148.681 47.7973 148.776 47.6824 148.897 47.6015C149.018 47.5207 149.16 47.4775 149.306 47.4775C149.403 47.4775 149.5 47.4968 149.59 47.5342C149.68 47.5716 149.761 47.6264 149.83 47.6955C149.898 47.7645 149.953 47.8465 149.989 47.9366C150.026 48.0267 150.045 48.1232 150.044 48.2205Z" fill="white"/>
<path d="M142.14 54.8445C142.139 54.9902 142.095 55.1324 142.013 55.253C141.931 55.3737 141.816 55.4674 141.681 55.5225C141.546 55.5776 141.398 55.5914 141.255 55.5624C141.112 55.5333 140.981 55.4627 140.878 55.3593C140.776 55.2559 140.706 55.1244 140.678 54.9814C140.65 54.8385 140.665 54.6904 140.721 54.5558C140.777 54.4213 140.871 54.3064 140.992 54.2256C141.114 54.1447 141.256 54.1016 141.402 54.1016C141.499 54.1016 141.596 54.1208 141.685 54.1582C141.775 54.1956 141.857 54.2504 141.925 54.3195C141.994 54.3885 142.048 54.4705 142.085 54.5606C142.122 54.6507 142.14 54.7472 142.14 54.8445V54.8445Z" fill="white"/>
<path d="M148.521 56.3201C148.52 56.4658 148.475 56.608 148.394 56.7286C148.312 56.8493 148.196 56.943 148.062 56.9981C147.927 57.0531 147.778 57.067 147.636 57.038C147.493 57.0089 147.362 56.9382 147.259 56.8349C147.157 56.7315 147.087 56.6 147.059 56.457C147.031 56.314 147.046 56.166 147.102 56.0314C147.158 55.8969 147.252 55.782 147.373 55.7011C147.495 55.6203 147.637 55.5772 147.783 55.5771C147.88 55.5771 147.976 55.5964 148.066 55.6338C148.156 55.6712 148.238 55.726 148.306 55.7951C148.375 55.8641 148.429 55.9461 148.466 56.0362C148.503 56.1263 148.521 56.2228 148.521 56.3201V56.3201Z" fill="white"/>
<path d="M154.537 53.1727C154.538 53.2997 154.502 53.4241 154.432 53.5301C154.362 53.6361 154.262 53.7189 154.145 53.768C154.028 53.817 153.899 53.8301 153.774 53.8056C153.649 53.7811 153.535 53.7201 153.445 53.6303C153.355 53.5405 153.294 53.426 153.27 53.3014C153.245 53.1768 153.258 53.0478 153.308 52.9307C153.357 52.8135 153.439 52.7137 153.545 52.6438C153.651 52.5739 153.776 52.5371 153.903 52.5381C153.986 52.5381 154.069 52.5545 154.146 52.5864C154.223 52.6183 154.293 52.6651 154.351 52.724C154.41 52.7829 154.457 52.8529 154.489 52.9299C154.521 53.0069 154.537 53.0894 154.537 53.1727V53.1727Z" fill="white"/>
<path d="M29.0588 114.091L29.0589 114.09C29.157 112.889 29.491 111.719 30.0416 110.647C30.5923 109.574 31.3489 108.621 32.2682 107.842C33.1875 107.062 34.2514 106.471 35.3991 106.103C36.5468 105.735 37.7557 105.596 38.9569 105.696C38.957 105.696 38.9571 105.696 38.9572 105.696L57.9197 107.275C60.3426 107.477 62.5861 108.633 64.1567 110.488C65.7273 112.344 66.4963 114.748 66.2946 117.171L64.7156 136.134C64.5138 138.557 63.3578 140.8 61.5019 142.371C59.646 143.942 57.2421 144.711 54.8192 144.509L35.8564 142.93C33.4335 142.728 31.19 141.572 29.6194 139.716C28.0488 137.86 27.2798 135.456 27.4815 133.033L29.0588 114.091ZM39.0045 105.124L57.9673 106.703C60.5419 106.917 62.926 108.146 64.5949 110.118C66.2638 112.09 67.081 114.644 66.8666 117.219L65.2876 136.182C65.0732 138.756 63.8448 141.14 61.8727 142.809C59.9006 144.478 57.3462 145.295 54.7716 145.081L35.8088 143.502C33.2342 143.287 30.8502 142.059 29.1812 140.087C27.5123 138.115 26.6951 135.56 26.9095 132.986L28.4868 114.044L39.0045 105.124Z" fill="white" stroke="#789" stroke-width="1.148"/>
<path d="M58.3327 140.989H56.1657C55.299 140.989 54.4678 140.645 53.8545 140.033C53.2411 139.42 52.8959 138.59 52.8945 137.723L53.4466 122.879H61.0621L61.609 137.749C61.6008 138.612 61.2519 139.437 60.6382 140.044C60.0245 140.651 59.1958 140.99 58.3327 140.989Z" fill="white"/>
<path d="M64.5231 121.496C64.5242 122.126 64.3383 122.741 63.9891 123.266C63.64 123.79 63.1431 124.199 62.5615 124.44C61.9799 124.682 61.3397 124.746 60.7218 124.624C60.1039 124.501 59.5362 124.199 59.0905 123.754C58.6448 123.309 58.3411 122.741 58.2178 122.124C58.0945 121.506 58.1573 120.866 58.3981 120.284C58.6389 119.702 59.0469 119.204 59.5705 118.854C60.0942 118.504 60.7098 118.317 61.3397 118.317C62.1831 118.317 62.992 118.652 63.5889 119.248C64.1858 119.844 64.5218 120.652 64.5231 121.496V121.496Z" fill="#263238"/>
<path opacity="0.8" d="M64.5231 121.496C64.5242 122.126 64.3383 122.741 63.9891 123.266C63.64 123.79 63.1431 124.199 62.5615 124.44C61.9799 124.682 61.3397 124.746 60.7218 124.624C60.1039 124.501 59.5362 124.199 59.0905 123.754C58.6448 123.309 58.3411 122.741 58.2178 122.124C58.0945 121.506 58.1573 120.866 58.3981 120.284C58.6389 119.702 59.0469 119.204 59.5705 118.854C60.0942 118.504 60.7098 118.317 61.3397 118.317C62.1831 118.317 62.992 118.652 63.5889 119.248C64.1858 119.844 64.5218 120.652 64.5231 121.496V121.496Z" fill="white"/>
<path d="M61.9746 122.027L63.2903 123.343C63.6349 122.976 63.8707 122.521 63.9714 122.027H61.9746Z" fill="#263238"/>
<g opacity="0.4">
<path d="M61.8398 118.751V121.031L63.4135 119.458C62.9804 119.056 62.4276 118.808 61.8398 118.751V118.751Z" fill="#242B2D"/>
<path d="M60.9115 121.413L59.3636 119.865C59.0369 120.316 58.8568 120.856 58.8477 121.413H60.9115Z" fill="#242B2D"/>
<path d="M61.2979 118.751C60.7192 118.813 60.1762 119.061 59.75 119.458L61.2979 121.031V118.751Z" fill="#242B2D"/>
<path d="M60.9108 121.96H58.9141C59.0205 122.455 59.2636 122.911 59.6158 123.276L60.9108 121.96Z" fill="#242B2D"/>
<path d="M61.9746 122.027L63.2903 123.343C63.6349 122.976 63.8707 122.521 63.9714 122.027H61.9746Z" fill="white"/>
<path d="M62.2266 121.413H64.2904C64.2812 120.856 64.1011 120.316 63.7744 119.865L62.2266 121.413Z" fill="#242B2D"/>
<path d="M61.299 122.342L60.0039 123.632C60.3863 123.902 60.8328 124.067 61.299 124.112V122.342Z" fill="#242B2D"/>
<path d="M61.8398 122.342V124.112C62.306 124.067 62.7525 123.902 63.1349 123.632L61.8398 122.342Z" fill="#242B2D"/>
</g>
<path d="M60.6022 125.211H53.8947L53.4355 137.738C53.4396 138.458 53.7285 139.147 54.2389 139.655C54.7494 140.162 55.4399 140.447 56.1598 140.447H58.332C59.0541 140.446 59.7462 140.158 60.2568 139.648C60.7674 139.137 61.0548 138.445 61.0562 137.723L60.6022 125.211Z" fill="#263238"/>
<path opacity="0.3" d="M60.6022 125.211H53.8947L53.4355 137.738C53.4396 138.458 53.7285 139.147 54.2389 139.655C54.7494 140.162 55.4399 140.447 56.1598 140.447H58.332C59.0541 140.446 59.7462 140.158 60.2568 139.648C60.7674 139.137 61.0548 138.445 61.0562 137.723L60.6022 125.211Z" fill="#789"/>
<path d="M50.5424 119.267H53.086C54.1541 119.267 55.253 119.122 55.6968 120.371C56.2127 121.883 56.2695 123.74 56.5429 125.324C56.6306 125.84 57.42 125.623 57.3323 125.107L56.8525 122.321C56.708 121.47 56.6977 120.397 56.3004 119.618C55.3665 117.796 52.1728 118.452 50.5424 118.452C50.4343 118.452 50.3306 118.495 50.2541 118.571C50.1777 118.647 50.1348 118.751 50.1348 118.859C50.1348 118.967 50.1777 119.071 50.2541 119.147C50.3306 119.224 50.4343 119.267 50.5424 119.267V119.267Z" fill="#242B2D"/>
<path d="M56.9864 125.577L56.0816 124.672C55.8801 124.471 55.5535 124.471 55.352 124.672L54.4472 125.577C54.2457 125.779 54.2457 126.105 54.4472 126.307L55.352 127.212C55.5535 127.413 55.8801 127.413 56.0816 127.212L56.9864 126.307C57.1879 126.105 57.1879 125.779 56.9864 125.577Z" fill="#263238"/>
<path d="M59.9579 126.049L58.7101 125.766C58.4323 125.703 58.1558 125.877 58.0926 126.154L57.8089 127.402C57.7458 127.68 57.9198 127.957 58.1976 128.02L59.4454 128.303C59.7232 128.367 59.9997 128.193 60.0629 127.915L60.3466 126.667C60.4098 126.389 60.2357 126.113 59.9579 126.049Z" fill="#263238"/>
<path d="M56.1026 128.153L54.8339 128.319C54.5513 128.356 54.3522 128.615 54.3892 128.897L54.5551 130.166C54.592 130.449 54.851 130.648 55.1336 130.611L56.4023 130.445C56.6849 130.408 56.884 130.149 56.847 129.866L56.6811 128.598C56.6442 128.315 56.3852 128.116 56.1026 128.153Z" fill="#263238"/>
<path d="M59.7913 130.007L58.6832 129.367C58.4364 129.225 58.1208 129.309 57.9784 129.556L57.3386 130.664C57.1961 130.911 57.2806 131.227 57.5274 131.369L58.6356 132.009C58.8823 132.151 59.1979 132.067 59.3404 131.82L59.9802 130.712C60.1226 130.465 60.0381 130.15 59.7913 130.007Z" fill="#263238"/>
<path d="M56.9864 125.577L56.0816 124.672C55.8801 124.471 55.5535 124.471 55.352 124.672L54.4472 125.577C54.2457 125.779 54.2457 126.105 54.4472 126.307L55.352 127.212C55.5535 127.413 55.8801 127.413 56.0816 127.212L56.9864 126.307C57.1879 126.105 57.1879 125.779 56.9864 125.577Z" fill="white"/>
<path d="M59.9579 126.049L58.7101 125.766C58.4323 125.703 58.1558 125.877 58.0926 126.154L57.8089 127.402C57.7458 127.68 57.9198 127.957 58.1976 128.02L59.4454 128.303C59.7232 128.367 59.9997 128.193 60.0629 127.915L60.3466 126.667C60.4098 126.389 60.2357 126.113 59.9579 126.049Z" fill="white"/>
<path d="M56.1026 128.153L54.8339 128.319C54.5513 128.356 54.3522 128.615 54.3892 128.897L54.5551 130.166C54.592 130.449 54.851 130.648 55.1336 130.611L56.4023 130.445C56.6849 130.408 56.884 130.149 56.847 129.866L56.6811 128.598C56.6442 128.315 56.3852 128.116 56.1026 128.153Z" fill="white"/>
<path d="M59.7913 130.007L58.6832 129.367C58.4364 129.225 58.1208 129.309 57.9784 129.556L57.3386 130.664C57.1961 130.911 57.2806 131.227 57.5274 131.369L58.6356 132.009C58.8823 132.151 59.1979 132.067 59.3404 131.82L59.9802 130.712C60.1226 130.465 60.0381 130.15 59.7913 130.007Z" fill="white"/>
<path d="M41.9768 118.788C43.6381 118.788 44.9848 117.441 44.9848 115.779C44.9848 114.118 43.6381 112.771 41.9768 112.771C40.3155 112.771 38.9688 114.118 38.9688 115.779C38.9688 117.441 40.3155 118.788 41.9768 118.788Z" fill="#789"/>
<path d="M39.2413 113.411C39.3546 113.277 39.4789 113.152 39.6128 113.039L37.6935 111.135C37.6418 111.095 37.5772 111.075 37.5118 111.079C37.4464 111.083 37.3847 111.11 37.3383 111.157C37.292 111.203 37.2642 111.265 37.2603 111.33C37.2563 111.396 37.2764 111.46 37.3168 111.512L39.2413 113.411Z" fill="#789"/>
<path d="M38.3545 115.779C38.3545 115.686 38.3545 115.603 38.3545 115.516H35.6664C35.6068 115.528 35.5532 115.56 35.5146 115.607C35.4761 115.654 35.4551 115.713 35.4551 115.774C35.4551 115.834 35.4761 115.893 35.5146 115.94C35.5532 115.987 35.6068 116.02 35.6664 116.032H38.3545C38.3597 115.954 38.3545 115.866 38.3545 115.779Z" fill="#789"/>
<path d="M44.7165 113.411L46.6152 111.512C46.6399 111.488 46.6596 111.459 46.6731 111.427C46.6866 111.395 46.6937 111.361 46.694 111.326C46.6942 111.291 46.6876 111.257 46.6745 111.225C46.6615 111.192 46.6422 111.163 46.6178 111.138C46.5934 111.114 46.5644 111.094 46.5324 111.08C46.5004 111.067 46.466 111.06 46.4313 111.06C46.3965 111.059 46.3621 111.066 46.3299 111.079C46.2977 111.092 46.2685 111.111 46.2437 111.136L44.3398 113.04C44.4742 113.154 44.6001 113.278 44.7165 113.411V113.411Z" fill="#789"/>
<path d="M41.9755 112.157H42.2386V109.464C42.2266 109.405 42.1944 109.351 42.1474 109.312C42.1003 109.274 42.0414 109.253 41.9806 109.253C41.9198 109.253 41.8609 109.274 41.8139 109.312C41.7669 109.351 41.7346 109.405 41.7227 109.464V112.152L41.9755 112.157Z" fill="#789"/>
<path d="M48.2773 115.516H45.584C45.584 115.603 45.584 115.686 45.584 115.779C45.584 115.872 45.584 115.954 45.584 116.042H48.2773C48.3471 116.042 48.414 116.014 48.4633 115.965C48.5127 115.915 48.5404 115.849 48.5404 115.779C48.5404 115.709 48.5127 115.642 48.4633 115.593C48.414 115.543 48.3471 115.516 48.2773 115.516V115.516Z" fill="#789"/>
<path d="M44.7165 118.142C44.5988 118.275 44.473 118.401 44.3398 118.518L46.2437 120.417C46.2939 120.462 46.3592 120.485 46.4263 120.483C46.4933 120.481 46.5571 120.454 46.6046 120.406C46.652 120.359 46.6796 120.295 46.6815 120.228C46.6835 120.161 46.6598 120.096 46.6152 120.045L44.7165 118.142Z" fill="#789"/>
<path d="M39.2418 118.142L37.3379 120.045C37.3135 120.07 37.2942 120.1 37.2812 120.132C37.2681 120.164 37.2615 120.198 37.2617 120.233C37.2622 120.303 37.2905 120.37 37.3405 120.42C37.3904 120.469 37.4579 120.496 37.5281 120.496C37.5982 120.495 37.6653 120.467 37.7145 120.417C38.3492 119.782 38.9786 119.148 39.6133 118.518C39.4805 118.402 39.3563 118.276 39.2418 118.142V118.142Z" fill="#789"/>
<path d="M41.976 119.401H41.7129V122.095C41.7249 122.154 41.7571 122.208 41.8041 122.246C41.8512 122.285 41.9101 122.306 41.9709 122.306C42.0317 122.306 42.0906 122.285 42.1376 122.246C42.1846 122.208 42.2169 122.154 42.2288 122.095V119.401H41.976Z" fill="#789"/>
<path d="M40.9176 129.617C40.9151 129.588 40.9151 129.559 40.9176 129.53C40.9176 129.06 41.5987 128.653 42.6048 128.446C42.5831 128.401 42.5709 128.352 42.5687 128.302C42.5687 127.879 43.4613 127.538 44.5654 127.538C45.6696 127.538 46.5622 127.879 46.5622 128.302C46.5552 128.37 46.533 128.435 46.4972 128.493C46.4615 128.551 46.4132 128.6 46.3558 128.637C46.5573 128.686 46.7469 128.774 46.9135 128.897C47.0802 129.02 47.2204 129.176 47.3258 129.354C48.6931 129.499 49.7044 129.973 49.7044 130.541C49.7044 131.217 48.2597 131.769 46.4796 131.769H46.1288C45.4838 132.331 44.0134 132.723 42.3004 132.723C39.9941 132.723 38.1212 132.011 38.1212 131.129C38.1108 130.427 39.2821 129.834 40.9176 129.617Z" fill="#263238"/>
<path d="M40.993 130.186L41.5361 130.114L41.49 129.574L41.4916 129.554V129.548C41.5013 129.53 41.5421 129.468 41.6898 129.375C41.9073 129.238 42.2566 129.104 42.7202 129.008L43.4399 128.861L43.2035 128.367C43.2425 128.346 43.2933 128.322 43.3579 128.297C43.6382 128.19 44.0647 128.112 44.5654 128.112C45.0662 128.112 45.4927 128.19 45.773 128.297C45.7835 128.301 45.7937 128.305 45.8036 128.309L44.9142 128.88L46.2214 129.195C46.3481 129.226 46.4675 129.281 46.5723 129.359C46.6771 129.436 46.7653 129.534 46.8317 129.646L46.9785 129.895L47.2655 129.925C47.9067 129.993 48.4305 130.135 48.7752 130.304C48.9481 130.389 49.0502 130.468 49.1021 130.525C49.1076 130.531 49.1123 130.536 49.1162 130.541C49.1059 130.553 49.0903 130.57 49.067 130.591C48.9746 130.674 48.8087 130.775 48.555 130.872C48.0517 131.064 47.3179 131.195 46.4796 131.195H46.1288H45.9137L45.7515 131.336C45.5267 131.532 45.0975 131.742 44.4737 131.901C43.8632 132.056 43.1154 132.149 42.3004 132.149C41.1987 132.149 40.2263 131.978 39.5503 131.721C39.2103 131.591 38.9747 131.451 38.8342 131.324C38.6948 131.198 38.6951 131.132 38.6952 131.129L38.6952 131.129H38.6952L38.6951 131.121C38.695 131.116 38.713 130.942 39.1712 130.698C39.5871 130.478 40.2166 130.289 40.993 130.186ZM49.1346 130.568C49.1346 130.568 49.1342 130.568 49.1337 130.566C49.1345 130.568 49.1347 130.568 49.1346 130.568ZM49.1335 130.516C49.1341 130.513 49.1347 130.512 49.1348 130.512C49.1349 130.512 49.1345 130.513 49.1335 130.516Z" fill="white" stroke="#789" stroke-width="1.148"/>
<path d="M40.7893 126.49C40.7943 126.449 40.7943 126.407 40.7893 126.366C40.7893 125.706 39.8245 125.138 38.4056 124.844C38.4417 124.781 38.4612 124.71 38.4624 124.638C38.4624 124.044 37.2034 123.564 35.6504 123.564C34.0974 123.564 32.8436 124.044 32.8436 124.638C32.852 124.734 32.883 124.828 32.9341 124.91C32.9852 124.992 33.0549 125.062 33.1377 125.112C32.8512 125.181 32.5819 125.308 32.3467 125.486C32.1114 125.663 31.9153 125.888 31.7704 126.144C29.8408 126.345 28.4219 127.011 28.4219 127.811C28.4219 128.765 30.4547 129.539 32.9571 129.539H33.4731C34.3863 130.329 36.4501 130.881 38.8596 130.881C42.105 130.881 44.7415 129.875 44.7415 128.636C44.757 127.62 43.106 126.789 40.7893 126.49Z" fill="#263238"/>
<path d="M40.2186 126.428L40.1511 126.986L40.7158 127.059C41.8332 127.204 42.7517 127.472 43.3707 127.801C44.027 128.15 44.1701 128.461 44.1676 128.628L44.1675 128.628V128.636C44.1675 128.726 44.1217 128.878 43.8946 129.083C43.6677 129.288 43.3071 129.498 42.813 129.687C41.8286 130.062 40.4306 130.307 38.8596 130.307C37.6964 130.307 36.6261 130.173 35.7467 129.95C34.8543 129.723 34.2084 129.416 33.8484 129.105L33.6868 128.965H33.4731H32.9571C31.7575 128.965 30.6961 128.779 29.9555 128.497C29.5832 128.355 29.3213 128.2 29.1627 128.057C29.0038 127.914 28.9959 127.83 28.9959 127.811C28.9959 127.771 29.0555 127.547 29.6248 127.269C30.1413 127.016 30.9073 126.811 31.83 126.715L32.1247 126.684L32.2703 126.426C32.3764 126.238 32.5201 126.074 32.6924 125.944C32.8648 125.814 33.062 125.721 33.2719 125.67L34.6213 125.346L33.4593 124.636C33.5324 124.573 33.6643 124.493 33.8697 124.415C34.2964 124.251 34.9254 124.138 35.6504 124.138C36.3754 124.138 37.0059 124.251 37.4342 124.415C37.6503 124.497 37.7856 124.581 37.8568 124.646C37.857 124.646 37.8572 124.646 37.8573 124.646L37.5135 125.245L38.2891 125.406C38.9606 125.545 39.485 125.742 39.8257 125.955C40.1887 126.181 40.2153 126.338 40.2153 126.366V126.401L40.2186 126.428ZM37.8994 124.692C37.8993 124.692 37.8987 124.691 37.8978 124.69C37.899 124.691 37.8994 124.692 37.8994 124.692ZM33.4068 124.692C33.4068 124.692 33.4072 124.691 33.4083 124.689C33.4075 124.691 33.4069 124.692 33.4068 124.692Z" fill="white" stroke="#789" stroke-width="1.148"/>
<path fill-rule="evenodd" clip-rule="evenodd" d="M161.972 112.426C160.689 113.127 159.217 113.525 157.652 113.525C152.666 113.525 148.623 109.482 148.623 104.496C148.623 102.931 149.021 101.46 149.721 100.177C146.915 101.708 145.012 104.686 145.012 108.107C145.012 113.094 149.054 117.137 154.041 117.137C157.463 117.137 160.441 115.233 161.972 112.426Z" fill="#789"/>
<path d="M96.8761 174.195L96.5555 180.087L96.4486 182.131H91.9199V174.195H96.8761Z" fill="white"/>
<path d="M96.6365 182.331H91.707V173.995H97.0774L96.6365 182.331ZM92.1212 181.93H96.2625L96.6633 174.396H92.1212V181.93Z" fill="#789"/>
<path d="M91.8677 180.795L86.2702 184.602C85.816 184.91 86.0298 185.618 86.5775 185.618H96.0891C96.6235 185.618 97.0243 185.163 96.9708 184.629L96.5434 180.795C96.5434 180.795 93.8448 182.772 91.8677 180.795Z" fill="#789"/>
<path d="M104.492 73.9629L104.131 76.3809C104.131 76.3809 103.757 77.0221 103.316 77.1824L103.357 74.6041L104.492 73.9629Z" fill="#789"/>
<path d="M98.0524 79.3197L97.8788 81.043L97.5848 84.0888L104.692 83.648L103.717 76.9017L103.556 75.2585C103.904 74.9913 104.184 74.7509 104.411 74.5104C105.186 73.7089 105.346 73.081 105.24 72.6268V72.6134C105.079 71.9054 104.318 71.5848 104.318 71.5848L103.503 67.3232L95.0066 68.7927C94.9799 68.9664 94.9531 69.1401 94.9264 69.3137V69.3405C94.8062 70.2355 94.726 71.0504 94.6859 71.7985V71.8252C94.2584 80.188 98.0524 79.3197 98.0524 79.3197Z" fill="white"/>
<path d="M97.3715 84.3028L97.8391 79.547C97.4918 79.5604 96.8372 79.4936 96.1959 78.9592C94.8868 77.8638 94.3123 75.4591 94.4993 71.8121V71.7854C94.5394 71.0373 94.6196 70.1957 94.7398 69.314V69.2873C94.7665 69.1136 94.7932 68.9266 94.8199 68.7529L94.8467 68.6059L103.677 67.083L104.519 71.4381C104.746 71.5583 105.307 71.919 105.454 72.5602V72.5869C105.601 73.2148 105.293 73.9095 104.572 74.6576C104.345 74.8847 104.078 75.1252 103.784 75.3523L103.931 76.8885L104.933 83.8486L97.3715 84.3028ZM98.2933 79.0527L98.2532 79.3466L97.8124 83.862L104.465 83.4478L103.517 76.9019L103.343 75.1519L103.437 75.0851C103.757 74.8446 104.038 74.5908 104.265 74.3503C104.893 73.7091 105.147 73.1347 105.04 72.6537V72.6404C104.906 72.0526 104.238 71.7587 104.238 71.7453L104.145 71.7052L104.118 71.5984L103.343 67.5239L95.1806 68.9266C95.1673 69.0601 95.1406 69.1804 95.1272 69.3006V69.3273C95.007 70.209 94.9268 71.0239 94.8867 71.772V71.7987C94.6596 76.1538 95.6081 77.9038 96.423 78.6119C97.1979 79.2665 97.9727 79.1061 97.9994 79.0928L98.2933 79.0527Z" fill="#789"/>
<path d="M102.247 68.5254L102.18 73.2144L103.062 72.9072C103.062 72.9072 103.436 71.7182 104.318 71.7316C104.692 71.7316 105.293 72.3461 105.28 72.8938C105.28 72.8938 108.085 66.8422 105.093 66.8021C105.093 66.8021 99.7225 59.655 97.8789 64.7581C97.8789 64.7581 94.1918 63.2886 95.2071 66.3078C95.2071 66.3078 92.3883 65.5597 93.751 69.4605L94.6594 71.972L94.9266 69.2869C94.9266 69.2869 97.1041 70.035 100.297 68.6723C100.297 68.6723 99.5755 69.7143 98.1594 70.2353C98.1594 70.2353 100.992 69.7544 102.247 68.5254Z" fill="#789"/>
<path d="M97.8789 81.0432C101.018 80.3352 101.593 77.1157 101.606 77.0088C101.032 77.984 99.2682 78.8123 97.919 79.1863L97.8789 81.0432Z" fill="#789"/>
<path d="M112.468 174.195L112.281 179.379L112.187 182.131H107.365L107.271 179.606L107.084 174.195H112.468Z" fill="white"/>
<path d="M112.375 182.331H107.165L106.871 173.995H112.669L112.375 182.331ZM107.552 181.93H111.988L112.255 174.396H107.285L107.552 181.93Z" fill="#789"/>
<path d="M96.8781 174.195L96.5575 180.087L91.9219 179.392V174.195H96.8781Z" fill="#789"/>
<path d="M107.218 180.714C107.218 180.714 110.197 182.411 112.468 180.567L120.764 184.602C121.245 184.816 121.085 185.537 120.564 185.537H107.592C106.978 185.537 106.51 184.989 106.604 184.375L107.218 180.714Z" fill="#789"/>
<path d="M112.468 174.195L112.281 179.379L107.271 179.606L107.084 174.195H112.468Z" fill="#789"/>
<path d="M90.3301 114.907L91.3721 178.069H98.9066L101.525 141.799L102.206 127.839L103.222 142.039L104.905 178.069H113.227V140.129L112.252 115.041L90.3301 114.907Z" fill="white"/>
<path d="M113.429 178.269H104.705L104.692 178.082L103.009 142.053L102.234 131.192L101.713 141.813L99.0811 178.269H91.1592L90.1172 114.707L112.44 114.841L113.429 140.116V178.269ZM105.093 177.869H113.028V140.129L112.066 115.241L90.5447 115.108L91.5733 177.869H98.7338L101.339 141.786L102.02 127.826H102.421L103.436 142.026L105.093 177.869Z" fill="#789"/>
<path d="M80.8057 87.5083C80.8057 87.5083 78.174 89.8996 78.0538 90.0198C77.987 90.0866 77.506 88.6973 77.1453 87.6019C76.9182 86.9072 76.7312 86.3194 76.7312 86.3194C75.5423 85.4778 74.5804 83.8079 74.5804 83.8079C72.7903 80.3479 73.004 79.6532 73.004 79.6532C73.004 79.0521 73.7254 78.9318 73.7254 78.9318C73.8858 78.1303 74.714 78.0635 74.714 78.0635C74.8342 77.3421 75.9163 77.4623 75.9163 77.4623C73.6186 72.7733 75.5423 72.5596 75.5423 72.5596L79.55 80.5216C79.6702 80.7754 79.737 81.0559 79.7236 81.3365C79.6836 82.2449 79.6034 84.2888 79.6034 84.3823C79.6034 84.4491 79.9107 85.2507 80.2179 86.0388C80.5118 86.8003 80.8057 87.5083 80.8057 87.5083Z" fill="white"/>
<path d="M78.1211 90.2468L78.0008 90.2201C77.8672 90.18 77.7737 90.1667 76.9588 87.6552C76.7718 87.0941 76.6249 86.6132 76.5714 86.4395C75.3825 85.5712 74.4607 83.9814 74.4206 83.9013C72.8042 80.7619 72.7774 79.8401 72.8175 79.6264C72.8309 79.1187 73.2584 78.8516 73.5656 78.758C73.7393 78.197 74.2202 77.9565 74.5542 77.8763C74.7145 77.4355 75.1821 77.2752 75.5962 77.2485C74.621 75.1778 74.3538 73.7217 74.7947 72.9068C75.0618 72.4125 75.5027 72.3591 75.5294 72.3591L75.663 72.3457L79.7241 80.4279C79.8711 80.7085 79.9379 81.0291 79.9245 81.3363L79.9112 81.5768C79.8711 82.4318 79.8043 84.1551 79.8043 84.3688C79.831 84.4757 80.0047 84.9299 80.4055 85.9586C80.6994 86.7067 80.9799 87.4147 80.9799 87.4147L81.0333 87.5483L80.9265 87.6418C80.1917 88.3098 78.2814 90.0464 78.1878 90.14L78.1211 90.2468ZM73.2049 79.7065C73.1916 79.7733 73.1381 80.5615 74.768 83.7143C74.768 83.7276 75.7164 85.3441 76.8519 86.1456L76.9054 86.1857L76.9321 86.2525C76.9321 86.2525 77.1058 86.8269 77.3462 87.5349C77.7871 88.8842 78.0008 89.4586 78.1077 89.7125C78.6421 89.2182 80.1516 87.8422 80.5791 87.4681C80.4856 87.2277 80.2719 86.6933 80.0581 86.1456C79.4302 84.5425 79.4302 84.4757 79.4302 84.4223C79.4302 84.3421 79.4837 82.9795 79.5371 81.6035L79.5505 81.3764C79.5638 81.1226 79.5104 80.8821 79.3902 80.655L75.4626 72.84C75.3691 72.8801 75.2489 72.9736 75.1554 73.1472C74.9416 73.5614 74.7679 74.6702 76.1172 77.3954L76.2775 77.716L75.9168 77.676C75.9035 77.676 75.0084 77.5825 74.9283 78.1035L74.9015 78.2638L74.7412 78.2771C74.7145 78.2771 74.0599 78.3439 73.9397 78.9851L73.913 79.1187L73.7794 79.1455C73.7526 79.1455 73.2317 79.2523 73.2317 79.6665L73.2049 79.7065Z" fill="#789"/>
<path d="M130.848 82.1383C130.848 82.1383 129.418 84.2891 127.735 85.4781C126.065 86.6671 125.103 86.6671 125.103 86.6671L124.649 87.8159L123.794 90.0068L120.682 87.9762L121.483 86.0926L122.953 82.6059L126.052 79.2661C126.052 79.2661 126.894 80.1078 125.812 81.5372L129.793 79.0791C130.247 78.7986 130.701 79.6936 130.474 79.9875C130.474 79.9875 131.075 80.5887 130.714 81.0563C130.728 81.0696 131.088 81.5372 130.848 82.1383Z" fill="white"/>
<path d="M123.902 90.3273L120.455 88.0697L122.806 82.5123L126.079 78.9855L126.226 79.1325C126.24 79.1458 126.894 79.8138 126.427 80.9493L129.726 78.9187C129.98 78.7718 130.274 78.8252 130.488 79.079C130.701 79.3195 130.822 79.6802 130.742 79.9474C130.969 80.2145 131.182 80.6554 130.982 81.0562C131.089 81.2565 131.263 81.6974 131.049 82.205L131.035 82.2451C130.982 82.3386 129.566 84.436 127.883 85.6383C126.52 86.6135 125.612 86.8139 125.278 86.854L123.902 90.3273ZM120.949 87.9227L123.715 89.7262L124.984 86.4799H125.117C125.131 86.4799 126.039 86.4532 127.629 85.3177C129.178 84.2223 130.528 82.2451 130.675 82.0447C130.848 81.5638 130.581 81.1898 130.568 81.1764L130.474 81.0562L130.568 80.9359C130.808 80.602 130.354 80.1344 130.341 80.121L130.207 80.0008L130.314 79.8672C130.367 79.8138 130.314 79.5332 130.154 79.3462C130.007 79.1859 129.927 79.2393 129.9 79.2527L125.024 82.2585L125.665 81.4169C126.346 80.5084 126.186 79.8672 126.039 79.5867L123.127 82.726L120.949 87.9227Z" fill="#789"/>
<path d="M124.665 87.8288L123.797 90.0197L120.697 87.9891L121.499 86.1055L124.665 87.8288Z" fill="#789"/>
<path d="M80.8069 87.5082C80.8069 87.5082 78.1751 89.8995 78.0549 90.0197C77.9881 90.0865 77.5072 88.6972 77.1465 87.6017L80.2191 86.0654C80.513 86.8002 80.8069 87.5082 80.8069 87.5082Z" fill="#789"/>
<path d="M125.585 90.1408C125.585 90.1408 119.494 107.695 115.433 108.296C115.433 108.296 111.933 109.111 111.158 102.912L113.015 118.596V118.622C113.015 118.622 100.991 123.832 89.3691 118.489L90.5046 99.3185C90.5046 99.3185 89.0352 107.227 85.9225 107.708C85.9225 107.708 82.8232 108.483 80.7125 103.299L75.6895 90.6485L80.7793 86.0797L84.4797 94.5627L86.7374 87.2286C87.1248 85.9862 88.0599 84.9842 89.289 84.53L97.6651 81.4174C97.6651 81.4174 100.257 85.9194 104.438 81.0166L112.133 84.4766C113.215 84.9709 114.003 85.9461 114.23 87.1217L115.887 95.5245L120.429 86.093L125.585 90.1408Z" fill="#789"/>
<path d="M74.8092 78.0793L74.5801 78.2168L75.7829 80.2215L76.012 80.084L74.8092 78.0793Z" fill="#789"/>
<path d="M73.8831 78.8693L73.6523 79.0039L74.588 80.6079L74.8188 80.4733L73.8831 78.8693Z" fill="#789"/>
<path d="M76.8376 79.533C76.1697 78.0769 75.141 75.8727 75.0742 75.7658L75.1678 75.7123L75.288 75.6055C75.3013 75.6322 75.3414 75.6589 77.0914 79.4262L76.8376 79.533Z" fill="#789"/>
<path d="M130.458 79.9203L127.113 81.9277L127.251 82.1568L130.595 80.1494L130.458 79.9203Z" fill="#789"/>
<path d="M130.616 80.9754L127.814 82.8428L127.963 83.0651L130.764 81.1977L130.616 80.9754Z" fill="#789"/>
<path d="M83.9819 92.7709L83.6152 92.9326L84.9578 95.9763L85.3245 95.8145L83.9819 92.7709Z" fill="#789"/>
<path d="M116.775 93.2637L115.176 96.7041L115.539 96.873L117.138 93.4326L116.775 93.2637Z" fill="#789"/>
<path d="M98.3343 76.4072H95.9297C95.9297 76.4072 96.464 78.4111 98.3343 76.4072Z" fill="#789"/>
</g>
<defs>
<clipPath id="clip0_20_7844">
<rect width="197.303" height="200" fill="white"/>
</clipPath>
</defs>
</svg>
