<svg width="298" height="200" viewBox="0 0 298 200" fill="none" xmlns="http://www.w3.org/2000/svg">
<g clip-path="url(#clip0_20_7726)">
<path d="M212.92 162.353C214.665 166.623 223.167 170.855 237.349 170.855C251.531 170.855 263.041 165.769 263.041 159.495C263.041 157.341 261.704 155.485 259.402 153.889L259.848 156.265L258.994 158.864L256.469 161.611L252.571 163.913L247.41 165.732L239.762 167.106L232.931 167.366L226.211 166.846L220.234 165.583L215.704 163.95L212.92 162.353Z" fill="#789"/>
<path d="M206.944 109.82C206.944 109.82 207.612 114.684 205.83 119.808C202.934 128.198 196.734 134.844 196.734 134.844L202.972 132.059L209.246 127.084L212.253 123.297L215.001 118.434L216.597 114.387L217.971 109.264L218.453 105.143L215.706 107.296L209.58 109.226L206.944 109.82Z" fill="#789"/>
<path d="M115.539 175.46L118.657 179.989H87.9536L84.538 179.173L82.9415 177.242L82.6816 176.425L83.4613 175.46H115.539Z" fill="#789"/>
<path d="M245.22 139.744C245.443 141.341 245.22 145.536 243.549 149.583C242.324 152.59 239.205 157.416 234.156 157.899L239.131 157.973L242.695 156.711L245.74 154.669L248.71 150.993L250.566 147.021L252.385 140.449L252.979 135.623L250.046 137.814L246.594 139.447L245.22 139.744Z" fill="#789"/>
<path d="M65.083 95.2666C63.7093 96.0463 62.7069 97.4199 62.3356 98.9792C62.1129 99.9817 62.1871 101.058 62.2242 102.098C62.2614 102.952 62.3356 103.843 62.7069 104.66C63.2267 105.773 64.2291 106.553 65.0459 107.444C65.8626 108.372 66.4938 109.672 65.974 110.785C65.5285 111.751 64.3776 112.233 63.3009 112.159C62.2614 112.085 61.259 111.602 60.3308 111.082C59.4026 110.6 58.4373 110.08 57.3607 109.969C56.3211 109.857 55.2445 110.154 54.2049 110.117C53.1654 110.08 51.9774 109.486 51.7917 108.446C51.6432 107.481 52.4229 106.627 53.2768 106.182C54.1307 105.736 55.096 105.551 55.9128 105.068C56.7295 104.548 57.3978 103.546 57.0265 102.655C56.7667 101.986 56.0241 101.652 55.5415 101.095C55.0588 100.576 54.5391 99.2763 55.2074 99.0164L58.4745 97.1601L61.7416 95.7492L65.083 95.2666Z" fill="#789"/>
<path d="M42.7335 127.047C43.2532 127.53 43.5131 128.272 44.0329 128.755C44.961 129.646 46.409 129.572 47.7084 129.683C49.0078 129.794 50.53 130.537 50.4929 131.836C50.4929 132.987 49.1935 133.73 48.0797 133.953C46.9287 134.175 45.6664 134.213 44.7754 134.955C43.9958 135.623 43.6616 136.774 42.7706 137.294C41.9167 137.777 40.8029 137.517 39.9119 137.108C39.0208 136.7 38.1298 136.106 37.1645 135.995C36.1992 135.883 35.4938 136.923 35.6794 138.556C35.0854 137.071 34.5657 133.878 34.6399 132.171C34.7142 130.463 36.3106 122.369 36.422 124.077C36.5334 126.453 36.9789 125.97 38.3897 126.193C39.8005 126.379 41.5454 125.933 42.7335 127.047Z" fill="#789"/>
<path d="M16.9304 116.8C16.7077 116.206 16.3364 115.649 16.1137 115.018C15.8909 114.387 15.7795 113.533 16.2993 113.162C17.673 112.271 16.8933 111.379 17.0418 110.897C17.1903 110.414 17.5245 110.006 18.564 110.488C17.8586 108.855 12.9579 107.333 10.0249 107.518C7.09193 107.704 4.2332 109.041 2.15412 111.157C1.48585 111.825 0.891823 112.642 0.669065 113.533C0.446306 114.424 0.631938 115.538 1.33734 116.169C2.2655 116.986 3.6763 116.837 4.7901 116.317C5.90389 115.798 6.83205 114.944 7.98297 114.461C9.91354 113.644 12.401 113.867 13.8861 115.315C16.522 117.914 14.8142 124.337 15.4825 122.666C16.2993 120.55 16.6705 120.178 16.9304 119.436C17.2274 118.582 17.2274 117.654 16.9304 116.8Z" fill="#789"/>
<path d="M104.92 139.41L82.5703 175.46H201.041L186.747 139.41" stroke="#789" stroke-width="1.90459" stroke-miterlimit="10" stroke-linecap="round" stroke-linejoin="round"/>
<path d="M82.5703 175.46C82.5703 177.947 84.6123 179.989 87.0997 179.989H196.4C198.887 179.989 201.041 177.947 201.041 175.46" stroke="#789" stroke-width="1.90459" stroke-miterlimit="10" stroke-linecap="round" stroke-linejoin="round"/>
<path d="M100.279 158.01L108.076 143.939L132.988 143.977" stroke="#789" stroke-width="1.90459" stroke-miterlimit="10" stroke-linecap="round" stroke-linejoin="round"/>
<path d="M130.352 165.955L131.911 160.683C132.208 159.755 133.062 159.087 134.064 159.087H151.736C152.813 159.087 153.741 159.867 153.927 160.906L154.855 166.067C155.115 167.44 154.075 168.703 152.665 168.703L132.468 168.814C130.983 168.851 129.906 167.403 130.352 165.955Z" stroke="#789" stroke-width="1.90459" stroke-miterlimit="10" stroke-linecap="round" stroke-linejoin="round"/>
<path d="M90.8118 146.241H57.6579L32.8203 175.46H70.1695L85.9482 151.773" stroke="#789" stroke-width="1.90459" stroke-miterlimit="10" stroke-linecap="round" stroke-linejoin="round"/>
<path d="M28.625 179.729H64.2292" stroke="#789" stroke-width="1.90459" stroke-miterlimit="10" stroke-linecap="round" stroke-linejoin="round"/>
<path d="M31.1504 187.525H66.7546" stroke="#789" stroke-width="1.90459" stroke-miterlimit="10" stroke-linecap="round" stroke-linejoin="round"/>
<path d="M33.1172 183.368H69.5753L81.3444 165.436" stroke="#789" stroke-width="1.90459" stroke-miterlimit="10" stroke-linecap="round" stroke-linejoin="round"/>
<path d="M234.417 140.375C244.73 140.375 253.091 137.899 253.091 134.843C253.091 131.788 244.73 129.312 234.417 129.312C224.103 129.312 215.742 131.788 215.742 134.843C215.742 137.899 224.103 140.375 234.417 140.375Z" stroke="#789" stroke-width="1.90459" stroke-miterlimit="10" stroke-linecap="round" stroke-linejoin="round"/>
<path d="M215.742 134.844C215.742 134.844 215.779 148.729 222.796 154.15C230.184 159.867 240.543 159.793 246.334 154.001C252.312 148.024 253.128 134.807 253.128 134.807" stroke="#789" stroke-width="1.90459" stroke-miterlimit="10" stroke-linecap="round" stroke-linejoin="round"/>
<path d="M250.418 147.54C256.135 149.619 259.811 152.404 259.811 155.968C259.811 162.242 248.301 167.328 234.119 167.328C219.937 167.328 208.428 162.242 208.428 155.968C208.428 152.441 212.029 149.693 217.709 147.614" stroke="#789" stroke-width="1.90459" stroke-miterlimit="10" stroke-linecap="round" stroke-linejoin="round"/>
<path d="M252.608 138.852C261.63 138.555 260.999 146.909 251.123 146.612" stroke="#789" stroke-width="1.90459" stroke-miterlimit="10" stroke-linecap="round" stroke-linejoin="round"/>
<path d="M221.459 134.843C226.582 132.949 239.948 132.281 245.183 133.878" stroke="#789" stroke-width="1.90459" stroke-miterlimit="10" stroke-linecap="round" stroke-linejoin="round"/>
<path d="M187.748 97.5684C204.789 97.5684 218.637 100.65 218.637 104.474C218.637 108.298 204.455 111.379 187.377 111.379" stroke="#789" stroke-width="1.90459" stroke-miterlimit="10" stroke-linecap="round" stroke-linejoin="round"/>
<path d="M218.638 104.474C218.303 112.493 212.809 135.994 187.006 135.994" stroke="#789" stroke-width="1.90459" stroke-miterlimit="10" stroke-linecap="round" stroke-linejoin="round"/>
<path d="M194.988 101.949C197.179 87.433 199.666 55.4671 235.27 60.5535C255.059 63.3751 271.877 52.5713 271.877 52.5713" stroke="#789" stroke-width="1.90459" stroke-miterlimit="10" stroke-linecap="round" stroke-linejoin="round"/>
<path d="M227.846 79.525C230.705 84.9083 236.459 88.324 242.436 89.6605C254.651 92.4079 267.757 87.2844 276.704 78.4855C285.652 69.6865 290.849 57.7318 293.745 45.5543C294.154 43.8094 297.384 38.7231 296.79 37.0524C295.898 34.5278 271.915 30.5924 254.057 34.1194C244.59 36.0128 239.132 40.171 235.308 43.8094C230.296 48.5616 233.378 60.2193 231.855 60.2193C231.002 60.1821 224.17 72.5452 227.846 79.525Z" stroke="#789" stroke-width="1.90459" stroke-miterlimit="10" stroke-linecap="round" stroke-linejoin="round"/>
<path d="M239.168 61.2588C237.349 64.3403 235.864 67.6074 234.713 70.9859C234.193 72.5081 233.859 74.4387 235.084 75.4782C236.384 76.5549 238.463 75.6638 239.428 74.2902C240.393 72.9165 240.765 71.1715 241.656 69.7236C242.547 68.2757 244.477 67.199 245.925 68.0529C246.853 68.6098 247.225 69.7607 247.262 70.8374C247.299 71.9141 247.039 72.9536 247.039 74.0303C246.965 76.889 248.672 79.6735 251.197 80.9729C253.722 82.2352 256.989 81.9382 259.253 80.1933" stroke="#789" stroke-width="1.90459" stroke-miterlimit="10" stroke-linecap="round" stroke-linejoin="round"/>
<path d="M244.59 60.1818C246.892 58.771 247.894 55.9866 248.562 53.3506C249.194 50.7146 249.713 47.9301 251.495 45.8882C252.127 45.1456 253.018 44.5145 253.983 44.4031C254.948 44.2917 256.062 44.9229 256.248 45.8882C256.396 46.6678 255.988 47.4475 255.654 48.1529C255.356 48.8954 255.171 49.8236 255.728 50.4176C256.21 50.9002 256.99 50.8631 257.584 50.5661C258.178 50.232 258.587 49.6751 258.958 49.1182C261.111 45.8882 262.67 42.2498 263.524 38.4629" stroke="#789" stroke-width="1.90459" stroke-miterlimit="10" stroke-linecap="round" stroke-linejoin="round"/>
<path d="M251.902 60.1816C252.014 63.2631 253.61 66.2332 256.061 68.0896C258.511 69.9459 261.815 70.6142 264.822 69.8716" stroke="#789" stroke-width="1.90459" stroke-miterlimit="10" stroke-linecap="round" stroke-linejoin="round"/>
<path d="M260.367 58.2515C263.337 59.5881 266.382 60.9246 269.649 60.9989C272.879 61.0731 276.406 59.5138 277.631 56.5066C278.076 55.4299 278.188 54.2419 278.708 53.2023C279.413 51.7544 280.787 50.752 282.123 49.8609C283.46 48.9699 284.833 48.0417 285.725 46.6681C286.616 45.2944 286.727 43.3267 285.576 42.2129" stroke="#789" stroke-width="1.90459" stroke-miterlimit="10" stroke-linecap="round" stroke-linejoin="round"/>
<path d="M160.72 81.4182C155.114 77.26 151.81 68.4982 150.919 62.1867C150.511 59.3651 150.733 56.0608 152.924 54.2045C155.151 52.3111 158.53 52.6823 161.203 53.8704C163.876 55.0213 166.252 56.8776 169.037 57.7315C173.566 59.1052 178.43 57.6944 183.108 57.1004C187.823 56.5063 193.392 57.1746 195.916 61.1843C197.216 63.2262 197.438 65.8622 196.51 68.0898C195.582 70.3174 193.503 71.9881 191.164 72.5078C192.426 75.6636 188.825 80.8613 185.669 82.1978" fill="#789"/>
<path d="M192.538 74.3643C195.136 78.3368 194.988 84.3884 193.651 88.9549C192.315 93.4844 190.384 98.0509 190.756 102.766" stroke="#789" stroke-width="1.90459" stroke-miterlimit="10" stroke-linecap="round" stroke-linejoin="round"/>
<path d="M160.721 63.4863C163.097 66.6792 167.181 68.1271 171.116 68.6469C175.051 69.1667 179.061 68.9439 182.997 69.5751C185.93 70.0206 189.457 71.0972 191.721 72.9907" stroke="white" stroke-width="1.90459" stroke-miterlimit="10" stroke-linecap="round" stroke-linejoin="round"/>
<path d="M199.147 103.249C198.405 99.0533 200.335 94.858 202.823 91.4053C205.31 87.9525 208.429 84.9824 210.619 81.344C214.146 75.5152 215.037 68.1641 213.032 61.667C211.882 57.9172 209.802 54.5016 207.946 51.0489C206.09 47.5961 204.085 43.9948 203.899 40.0594C203.157 21.7561 210.174 22.2388 212.735 12.6973" stroke="#789" stroke-width="1.90459" stroke-miterlimit="10" stroke-linecap="round" stroke-linejoin="round"/>
<path d="M198.182 51.4575C192.353 48.2646 189.086 36.1243 189.977 29.9984C190.868 23.724 194.395 18.0808 198.813 13.5885C203.231 9.09623 208.578 5.56922 213.85 2.07934C215.409 1.0398 217.414 0.000258733 219.047 0.891293C219.975 1.41106 220.495 2.4506 220.904 3.41589C223.28 9.0591 223.911 15.3706 222.76 21.3851C221.906 25.7289 220.124 29.887 219.53 34.2679C219.01 38.0177 221.46 42.1759 218.602 48.4874C216.783 52.497 207.946 51.0491 207.946 51.0491C207.946 51.0491 202.823 53.9821 198.182 51.4575Z" stroke="#789" stroke-width="1.90459" stroke-miterlimit="10" stroke-linecap="round" stroke-linejoin="round"/>
<path d="M195.211 25.8027C196.659 27.2135 196.733 29.5525 196.325 31.5573C195.953 33.5622 195.248 35.567 195.545 37.6089C195.879 39.8365 197.439 41.73 199.295 42.9551C201.151 44.2174 203.305 44.9228 205.458 45.6282" stroke="#789" stroke-width="1.90459" stroke-miterlimit="10" stroke-linecap="round" stroke-linejoin="round"/>
<path d="M203.936 39.3168C204.01 36.1981 206.237 33.228 209.245 32.2999C210.47 31.9286 211.881 31.8172 212.809 30.9262C213.44 30.295 213.737 29.4411 214.145 28.6244C215.445 25.9884 218.118 24.0578 221.014 23.6494" stroke="#789" stroke-width="1.90459" stroke-miterlimit="10" stroke-linecap="round" stroke-linejoin="round"/>
<path d="M114.98 194.283H292.333L268.201 162.8" stroke="#789" stroke-width="1.90459" stroke-miterlimit="10" stroke-linecap="round" stroke-linejoin="round"/>
<path d="M87.3594 199.443H292.334V194.282" stroke="#789" stroke-width="1.90459" stroke-miterlimit="10" stroke-linecap="round" stroke-linejoin="round"/>
<path d="M184.185 81.7529H107.482C106.071 81.7529 104.92 82.9039 104.92 84.3147V139.41H186.747V84.3147C186.747 82.9039 185.596 81.7529 184.185 81.7529Z" stroke="#789" stroke-width="1.90459" stroke-miterlimit="10" stroke-linecap="round" stroke-linejoin="round"/>
<path d="M168.889 85.5762H108.967V107.332" stroke="#789" stroke-width="1.90459" stroke-miterlimit="10" stroke-linecap="round" stroke-linejoin="round"/>
<path d="M108.967 134.435H182.551V108.001" stroke="#789" stroke-width="1.90459" stroke-miterlimit="10" stroke-linecap="round" stroke-linejoin="round"/>
<path d="M52.2754 122.666C55.4311 121.664 59.0324 122.146 61.8169 123.929C64.4529 125.636 66.272 128.384 67.2745 131.354C68.2769 134.324 68.4625 137.517 68.314 140.635" stroke="#789" stroke-width="1.90459" stroke-miterlimit="10" stroke-linecap="round" stroke-linejoin="round"/>
<path d="M58.5859 140.709C63.004 140.412 69.9466 140.709 71.9514 141.415C73.9934 142.12 75.7755 143.902 75.8497 146.055" stroke="#789" stroke-width="1.90459" stroke-miterlimit="10" stroke-linecap="round" stroke-linejoin="round"/>
<path d="M28.4393 152.479C22.8703 152.553 15.4079 150.437 12.2522 145.276C9.35629 140.524 9.20778 135.623 11.4354 130.5C12.3635 128.31 13.5516 125.451 14.5911 123.297C15.6307 121.144 16.1133 118.471 14.8881 116.392C13.3288 113.719 9.35629 113.162 6.68319 114.684C5.49514 115.39 4.4556 116.392 3.00767 116.615C2.37652 116.689 1.70825 116.578 1.22561 116.169C-0.0738186 115.093 0.705836 113.125 1.74538 111.9C5.5694 107.407 12.7348 106.256 17.8211 109.264C22.8703 112.271 25.2464 119.139 23.1302 124.634C21.9793 127.641 19.6403 130.203 18.8235 133.322C17.6355 137.74 19.8631 143.086 24.0955 144.794C27.6225 146.242 30.5183 145.239 32.5603 143.94C34.4537 142.715 35.419 140.524 35.122 138.297C33.7855 128.421 36.3843 118.026 42.3245 110.006C48.8217 101.207 59.3656 94.376 72.2484 94.376" stroke="#789" stroke-width="1.90459" stroke-miterlimit="10" stroke-linecap="round" stroke-linejoin="round"/>
<path d="M39.168 147.466C43.7345 149.99 47.113 150.213 52.2736 149.619" stroke="#789" stroke-width="1.90459" stroke-miterlimit="10" stroke-linecap="round" stroke-linejoin="round"/>
<path d="M94.9707 45.2197C99.3516 51.9025 103.733 58.5852 108.076 65.3051" stroke="#789" stroke-width="1.90459" stroke-miterlimit="10" stroke-linecap="round" stroke-linejoin="round"/>
<path d="M117.172 32.6338C118.137 39.0195 119.14 45.4053 120.105 51.7539" stroke="#789" stroke-width="1.90459" stroke-miterlimit="10" stroke-linecap="round" stroke-linejoin="round"/>
<path d="M146.723 30.8525C143.456 40.2455 140.152 49.6014 136.885 58.9944" stroke="#789" stroke-width="1.90459" stroke-miterlimit="10" stroke-linecap="round" stroke-linejoin="round"/>
<path d="M77.6694 75.033C80.2312 73.9935 82.9043 73.7336 84.9462 73.7336C93.114 73.7336 99.7597 79.8966 99.7597 87.4704C99.7597 95.0441 93.114 101.207 84.9462 101.207C76.7784 101.207 70.1328 95.0441 70.1328 87.4704C70.1328 85.0943 70.1328 83.832 71.5436 81.0104L69.5016 70.8377C69.3902 70.3551 69.91 69.9838 70.3184 70.2437C72.2119 71.2832 76.073 73.5108 77.6694 75.033ZM77.6694 75.033C78.0036 75.33 79.1174 75.5899 79.1174 75.5899" stroke="#789" stroke-width="1.90459" stroke-miterlimit="10" stroke-linecap="round" stroke-linejoin="round"/>
<path d="M89.5488 74.0305C91.7764 71.3574 94.0411 69.5011 97.0112 67.7191C97.3082 67.5334 97.7166 67.3478 98.0137 67.5706C98.2364 67.7562 98.2364 68.1274 98.2364 68.4245C97.9023 72.1 97.5681 75.7755 97.234 79.451" stroke="#789" stroke-width="1.90459" stroke-miterlimit="10" stroke-linecap="round" stroke-linejoin="round"/>
<path d="M86.9141 90.254C87.6937 90.1427 88.4362 90.0313 89.2159 89.957C89.3273 90.4768 88.9931 91.0708 88.4734 91.2565C87.9536 91.4421 87.3224 91.1451 87.1368 90.6253" stroke="#789" stroke-width="1.90459" stroke-miterlimit="10" stroke-linecap="round" stroke-linejoin="round"/>
<path d="M88.2875 91.0342C88.8815 92.4079 88.4731 94.1528 87.3593 95.1181C86.2084 96.0834 84.4264 96.1948 83.1641 95.4151" stroke="#789" stroke-width="1.90459" stroke-miterlimit="10" stroke-linecap="round" stroke-linejoin="round"/>
<path d="M88.5098 91.3311C88.584 92.1107 88.8439 92.8904 89.3637 93.4844C89.8834 94.0784 90.6631 94.4868 91.4428 94.4497C92.2224 94.4125 92.9649 93.8185 93.1134 93.0389" stroke="#789" stroke-width="1.90459" stroke-miterlimit="10" stroke-linecap="round" stroke-linejoin="round"/>
<path d="M80.5645 83.2002C80.416 83.8313 80.6016 84.5367 81.01 85.0565C81.2327 84.4625 81.1585 83.7942 80.8615 83.2373C80.6016 83.5715 80.7501 84.1284 81.1585 84.314" stroke="#789" stroke-width="1.90459" stroke-miterlimit="10" stroke-linecap="round" stroke-linejoin="round"/>
<path d="M89.1406 82.0869C89.2891 82.7923 89.4376 83.4606 89.6233 84.166C90.143 83.6462 90.143 82.7181 89.6233 82.1983C89.5861 82.8666 89.5861 83.4977 89.549 84.166C89.6233 84.0917 89.6975 83.9804 89.7718 83.9061" stroke="#789" stroke-width="1.90459" stroke-miterlimit="10" stroke-linecap="round" stroke-linejoin="round"/>
<path d="M81.3827 108.001L96.5674 139.818C96.8644 140.449 97.0129 141.155 96.8644 141.823C96.6045 143.197 95.6763 143.531 94.6739 143.531C93.3002 143.494 92.0751 142.751 91.4439 141.638L73.2148 110.191" stroke="#789" stroke-width="1.90459" stroke-miterlimit="10" stroke-linecap="round" stroke-linejoin="round"/>
<path d="M93.2995 102.766C93.448 110.822 93.0025 120.215 91.8145 129.794" stroke="#789" stroke-width="1.90459" stroke-miterlimit="10" stroke-linecap="round" stroke-linejoin="round"/>
<path d="M84.6495 135.029C84.501 138.519 84.501 138.853 84.3525 142.38C84.3153 143.346 84.204 144.422 84.7237 145.276C85.2064 146.13 87.3597 146.241 88.028 145.573C89.1789 144.385 89.8843 138.89 89.8843 138.89" stroke="#789" stroke-width="1.90459" stroke-miterlimit="10" stroke-linecap="round" stroke-linejoin="round"/>
<path d="M75.8863 89.9205L59.7734 88.584" stroke="#789" stroke-width="1.90459" stroke-miterlimit="10" stroke-linecap="round" stroke-linejoin="round"/>
<path d="M75.219 95.2666L66.1973 99.9816" stroke="#789" stroke-width="1.90459" stroke-miterlimit="10" stroke-linecap="round" stroke-linejoin="round"/>
<path d="M77.8168 95.9346L68.3496 104.251" stroke="#789" stroke-width="1.90459" stroke-miterlimit="10" stroke-linecap="round" stroke-linejoin="round"/>
<path d="M99.127 82.1977L111.453 74.8096" stroke="#789" stroke-width="1.90459" stroke-miterlimit="10" stroke-linecap="round" stroke-linejoin="round"/>
<path d="M99.7598 85.651L104.92 84.3145" stroke="#789" stroke-width="1.90459" stroke-miterlimit="10" stroke-linecap="round" stroke-linejoin="round"/>
<path d="M99.7598 89.9199L114.388 92.0361" stroke="#789" stroke-width="1.90459" stroke-miterlimit="10" stroke-linecap="round" stroke-linejoin="round"/>
</g>
<defs>
<clipPath id="clip0_20_7726">
<rect width="297.42" height="200" fill="white"/>
</clipPath>
</defs>
</svg>
