<svg width="244" height="200" viewBox="0 0 244 200" fill="none" xmlns="http://www.w3.org/2000/svg">
<path d="M49.3535 50.3955H220.345L243.237 144.237L240.145 145.912H72.2454L49.3535 50.3955Z" fill="white"/>
<path d="M240.171 146.018H72.1596L72.1405 145.935L49.2168 50.2871H220.429L220.448 50.3698L243.359 144.29L240.171 146.018ZM72.327 145.806H240.118L243.115 144.182L220.262 50.4948H49.486L72.327 145.806Z" fill="#789"/>
<path d="M50.0762 50.3955H217.253L240.145 145.912H72.9681L50.0762 50.3955Z" fill="#789"/>
<path d="M240.281 146.018H72.8822L72.8632 145.935L49.9395 50.2871H217.337L217.356 50.3698L240.281 146.018ZM73.0433 145.806H240.004L217.178 50.4991H50.2086L73.0433 145.806Z" fill="#789"/>
<path d="M241.807 145.013L218.652 50.3955H220.346L243.238 144.237L241.807 145.013Z" fill="white"/>
<path d="M241.736 145.171L241.702 145.037L218.516 50.29H220.423L220.442 50.3727L243.353 144.293L241.736 145.171ZM218.785 50.4999L241.876 144.855L243.116 144.183L220.262 50.4956L218.785 50.4999Z" fill="#789"/>
<path d="M49.3539 50.3955L30.2773 166.962H201.269L220.346 50.3955" fill="white"/>
<path d="M201.36 167.068H30.1523L30.1714 166.945L49.248 50.377L49.4579 50.413L30.4025 166.856H201.18L220.242 50.377L220.452 50.413L201.36 167.068Z" fill="#789"/>
<path d="M220.345 50.3955H49.3534L28.3691 163.147H199.361L220.345 50.3955Z" fill="white"/>
<path d="M199.45 163.252H28.2422L28.2655 163.127L49.2646 50.2871H220.473L220.452 50.4143L199.45 163.252ZM28.4965 163.04H199.274L220.218 50.4991H49.4405L28.4965 163.04Z" fill="#789"/>
<path d="M220.347 50.3955H49.3548L26.4629 159.331H197.455L220.347 50.3955Z" fill="white"/>
<path d="M197.54 159.437H26.3301L26.3576 159.31L49.2665 50.2871H220.477L220.449 50.4164L197.54 159.437ZM26.5908 159.225H197.369L220.216 50.4991H49.4382L26.5908 159.225Z" fill="#789"/>
<path d="M64.2548 73.1943L61.6858 85.4246H49.9961L52.5651 73.1943H64.2548Z" fill="white"/>
<path d="M61.7692 85.531H49.8633L52.4831 73.0889H64.389L61.7692 85.531ZM50.1261 85.3191H61.5975L64.122 73.3008H52.6485L50.1261 85.3191Z" fill="#789"/>
<path d="M208.871 56.1992L206.302 68.4294H53.4473L56.0162 56.1992H208.871Z" fill="#789"/>
<path d="M206.387 68.5359H53.3145L55.9279 56.0938H209.001L206.387 68.5359ZM53.5752 68.324H206.215L208.74 56.3057H56.0996L53.5752 68.324Z" fill="#789"/>
<path d="M78.5126 73.1943L75.9436 85.4246H64.2539L66.8229 73.1943H78.5126Z" fill="white"/>
<path d="M76.029 85.531H64.123L66.7365 73.0889H78.6424L76.029 85.531ZM64.3838 85.3191H75.8573L78.3817 73.3008H66.9082L64.3838 85.3191Z" fill="#789"/>
<path d="M92.7702 73.1943L90.2013 85.4246H78.5137L81.0827 73.1943H92.7702Z" fill="white"/>
<path d="M90.2868 85.531H78.3809L80.9944 73.0889H92.9003L90.2868 85.531ZM78.6416 85.3191H90.1151L92.6396 73.3008H81.166L78.6416 85.3191Z" fill="#789"/>
<path d="M107.028 73.1943L104.459 85.4246H92.7695L95.3385 73.1943H107.028Z" fill="white"/>
<path d="M104.547 85.531H92.6406L95.2541 73.0889H107.171L104.547 85.531ZM92.9013 85.3191H104.375L106.899 73.3008H95.4258L92.9013 85.3191Z" fill="#789"/>
<path d="M121.286 73.1943L118.717 85.4246H107.027L109.596 73.1943H121.286Z" fill="white"/>
<path d="M118.804 85.531H106.898L109.501 73.0889H121.409L118.804 85.531ZM107.159 85.3191H118.631L121.159 73.3008H109.684L107.159 85.3191Z" fill="#789"/>
<path d="M135.546 73.1943L132.977 85.4246H121.287L123.856 73.1943H135.546Z" fill="white"/>
<path d="M133.062 85.531H121.16L123.774 73.0889H135.68L133.062 85.531ZM121.419 85.3191H132.89L135.415 73.3008H123.941L121.419 85.3191Z" fill="#789"/>
<path d="M149.804 73.1943L147.235 85.4246H135.545L138.114 73.1943H149.804Z" fill="#789"/>
<path d="M147.32 85.531H135.414L138.028 73.0889H149.933L147.32 85.531ZM135.675 85.3191H147.148L149.673 73.3008H138.199L135.675 85.3191Z" fill="#789"/>
<path d="M164.061 73.1943L161.492 85.4246H149.805L152.372 73.1943H164.061Z" fill="white"/>
<path d="M161.58 85.531H149.674L152.287 73.0889H164.189L161.58 85.531ZM149.935 85.3191H161.408L163.933 73.3008H152.459L149.935 85.3191Z" fill="#789"/>
<path d="M204.97 73.1943L195.165 119.415H158.676L168.481 73.1943H204.97Z" fill="white"/>
<path d="M195.248 119.521H158.543L168.395 73.0889H205.096L195.248 119.521ZM158.806 119.309H195.077L204.827 73.3008H168.567L158.806 119.309Z" fill="#789"/>
<path d="M60.5751 90.1875L58.0061 102.42H46.3164L48.8854 90.1875H60.5751Z" fill="white"/>
<path d="M58.0934 102.525H46.1875L48.801 90.0811H60.7069L58.0934 102.525ZM46.4482 102.313H57.9196L60.4441 90.293H48.9727L46.4482 102.313Z" fill="#789"/>
<path d="M74.8349 90.1875L72.2659 102.42H60.5762L63.1452 90.1875H74.8349Z" fill="white"/>
<path d="M72.3493 102.525H60.4434L63.0569 90.0811H74.9628L72.3493 102.525ZM60.7062 102.313H72.1776L74.7021 90.293H63.2285L60.7062 102.313Z" fill="#789"/>
<path d="M89.0907 90.1875L86.5217 102.42H74.832L77.401 90.1875H89.0907Z" fill="#789"/>
<path d="M86.6112 102.525H74.7031L77.3166 90.0811H89.2225L86.6112 102.525ZM74.966 102.313H86.4395L88.9639 90.293H77.4968L74.966 102.313Z" fill="#789"/>
<path d="M103.348 90.1875L100.782 102.42H89.0918L91.6587 90.1875H103.348Z" fill="white"/>
<path d="M100.867 102.525H88.9609L91.5744 90.0811H103.48L100.867 102.525ZM89.2217 102.313H100.695L103.22 90.293H91.7461L89.2217 102.313Z" fill="#789"/>
<path d="M117.606 90.1875L115.037 102.42H103.348L105.917 90.1875H117.606Z" fill="white"/>
<path d="M115.125 102.525H103.219L105.832 90.0811H117.738L115.125 102.525ZM103.479 102.313H114.953L117.477 90.293H106.004L103.479 102.313Z" fill="#789"/>
<path d="M131.866 90.1875L129.297 102.42H117.607L120.176 90.1875H131.866Z" fill="white"/>
<path d="M129.384 102.525H117.479L120.1 90.0811H132.006L129.384 102.525ZM117.739 102.313H129.215L131.739 90.293H120.264L117.739 102.313Z" fill="#789"/>
<path d="M146.124 90.1875L143.555 102.42H131.865L134.434 90.1875H146.124Z" fill="white"/>
<path d="M143.64 102.525H131.734L134.348 90.0811H146.254L143.64 102.525ZM131.997 102.313H143.469L145.993 90.293H134.513L131.997 102.313Z" fill="#789"/>
<path d="M160.384 90.1875L157.815 102.42H146.125L148.694 90.1875H160.384Z" fill="white"/>
<path d="M157.9 102.525H145.994L148.608 90.0811H160.514L157.9 102.525ZM146.255 102.313H157.728L160.253 90.293H148.779L146.255 102.313Z" fill="#789"/>
<path d="M56.8954 107.183L54.3264 119.415H42.6367L45.2057 107.183H56.8954Z" fill="white"/>
<path d="M54.4137 119.521H42.5078L45.1213 107.077H57.0272L54.4137 119.521ZM42.7685 119.309H54.242L56.7665 107.289H45.293L42.7685 119.309Z" fill="#789"/>
<path d="M71.1532 107.183L68.5842 119.415H56.8945L59.4635 107.183H71.1532Z" fill="white"/>
<path d="M68.6715 119.521H56.7656L59.3791 107.077H71.285L68.6715 119.521ZM57.0263 119.309H68.4998L71.0222 107.289H59.5508L57.0263 119.309Z" fill="#789"/>
<path d="M85.413 107.183L82.844 119.415H71.1543L73.7233 107.183H85.413Z" fill="white"/>
<path d="M82.9293 119.521H71.0234L73.6369 107.077H85.5513L82.9293 119.521ZM71.2863 119.309H82.7577L85.2821 107.289H73.8107L71.2863 119.309Z" fill="#789"/>
<path d="M99.6708 107.183L97.1018 119.415H85.4121L87.9811 107.183H99.6708Z" fill="white"/>
<path d="M97.1872 119.521H85.2812L87.8947 107.077H99.8007L97.1872 119.521ZM85.542 119.309H97.0155L99.5399 107.289H88.0664L85.542 119.309Z" fill="#789"/>
<path d="M113.928 107.183L111.359 119.415H99.6719L102.241 107.183H113.928Z" fill="white"/>
<path d="M111.445 119.521H99.5391L102.153 107.077H114.058L111.445 119.521ZM99.7998 119.309H111.273L113.798 107.289H102.324L99.7998 119.309Z" fill="#789"/>
<path d="M128.186 107.183L125.617 119.415H113.928L116.497 107.183H128.186Z" fill="#789"/>
<path d="M125.705 119.521H113.799L116.412 107.077H128.318L125.705 119.521ZM114.06 119.309H125.533L128.058 107.289H116.584L114.06 119.309Z" fill="#789"/>
<path d="M142.444 107.183L139.875 119.415H128.186L130.755 107.183H142.444Z" fill="white"/>
<path d="M139.965 119.521H128.059L130.672 107.077H142.57L139.965 119.521ZM128.319 119.309H139.793L142.317 107.289H130.844L128.319 119.309Z" fill="#789"/>
<path d="M156.704 107.183L154.135 119.415H142.445L145.014 107.183H156.704Z" fill="white"/>
<path d="M154.227 119.521H142.316L144.928 107.077H156.834L154.227 119.521ZM142.581 119.309H154.053L156.577 107.289H145.112L142.581 119.309Z" fill="#789"/>
<path d="M53.2177 124.178L50.6487 136.41H38.959L41.528 124.178H53.2177Z" fill="white"/>
<path d="M50.7321 136.516H38.8262L41.4397 124.071H53.3456L50.7321 136.516ZM39.0869 136.304H50.5604L53.0849 124.283H41.6114L39.0869 136.304Z" fill="#789"/>
<path d="M67.4753 124.178L64.9063 136.41H53.2188L55.7856 124.178H67.4753Z" fill="white"/>
<path d="M64.9897 136.516H53.0859L55.6994 124.071H67.6053L64.9897 136.516ZM53.3445 136.304H64.8202L67.3446 124.283H55.8754L53.3445 136.304Z" fill="#789"/>
<path d="M81.7333 124.178L79.1643 136.41H67.4746L70.0436 124.178H81.7333Z" fill="white"/>
<path d="M79.2497 136.516H67.3438L69.9572 124.071H81.8631L79.2497 136.516ZM67.6045 136.304H79.078L81.6024 124.283H70.1289L67.6045 136.304Z" fill="#789"/>
<path d="M95.9911 124.178L93.4221 136.41H81.7324L84.3014 124.178H95.9911Z" fill="white"/>
<path d="M93.5094 136.516H81.6035L84.2149 124.071H96.1208L93.5094 136.516ZM81.8642 136.304H93.3356L95.8601 124.283H84.3887L81.8642 136.304Z" fill="#789"/>
<path d="M110.249 124.178L107.68 136.41H95.9902L98.5592 124.178H110.249Z" fill="white"/>
<path d="M107.765 136.516H95.8594L98.4792 124.071H110.385L107.765 136.516ZM96.1201 136.304H107.594L110.118 124.283H98.6446L96.1201 136.304Z" fill="#789"/>
<path d="M124.509 124.178L121.94 136.41H110.25L112.819 124.178H124.509Z" fill="white"/>
<path d="M122.025 136.516H110.119L112.733 124.071H124.639L122.025 136.516ZM110.38 136.304H121.853L124.378 124.283H112.904L110.38 136.304Z" fill="#789"/>
<path d="M138.766 124.178L136.197 136.41H124.51L127.079 124.178H138.766Z" fill="white"/>
<path d="M136.285 136.516H124.379L126.992 124.071H138.898L136.285 136.516ZM124.64 136.304H136.113L138.638 124.283H127.164L124.64 136.304Z" fill="#789"/>
<path d="M153.024 124.178L150.455 136.41H138.766L141.335 124.178H153.024Z" fill="white"/>
<path d="M150.541 136.516H138.635L141.248 124.071H153.165L150.541 136.516ZM138.895 136.304H150.369L152.893 124.283H141.42L138.895 136.304Z" fill="#789"/>
<path d="M194.35 124.178L193.708 127.236H157.221L157.861 124.178H194.35Z" fill="white"/>
<path d="M193.795 127.342H157.09L157.777 124.071H194.482L193.795 127.342ZM157.351 127.13H193.624L194.221 124.283H157.948L157.351 127.13Z" fill="#789"/>
<path d="M192.778 130.295L192.136 133.351H155.646L156.289 130.295H192.778Z" fill="white"/>
<path d="M192.221 133.458H155.516L156.202 130.189H192.908L192.221 133.458ZM155.776 133.246H192.049L192.647 130.401H156.376L155.776 133.246Z" fill="#789"/>
<path d="M191.204 136.41L190.562 139.467H154.072L154.715 136.41H191.204Z" fill="white"/>
<path d="M190.647 139.568H153.941L154.628 136.3H191.334L190.647 139.568ZM154.202 139.356H190.471L191.069 136.512H154.8L154.202 139.356Z" fill="#789"/>
<path d="M189.63 142.525L188.987 145.584H152.498L153.14 142.525H189.63Z" fill="white"/>
<path d="M189.073 145.69H152.367L153.054 142.419H189.759L189.073 145.69ZM152.628 145.478H188.901L189.499 142.631H153.226L152.628 145.478Z" fill="#789"/>
<path d="M188.055 148.64L187.413 151.698H150.924L151.566 148.64H188.055Z" fill="white"/>
<path d="M187.505 151.805H150.795L151.482 148.534H188.187L187.505 151.805ZM151.06 151.593H187.327L187.929 148.746H151.653L151.06 151.593Z" fill="#789"/>
<path d="M49.538 141.173L46.969 153.405H35.2793L37.8483 141.173H49.538Z" fill="white"/>
<path d="M47.0543 153.511H35.1484L37.7619 141.066H49.6678L47.0543 153.511ZM35.4092 153.299H46.8827L49.4071 141.278H37.9336L35.4092 153.299Z" fill="#789"/>
<path d="M63.7958 141.173L61.2268 153.405H49.5371L52.1061 141.173H63.7958Z" fill="white"/>
<path d="M61.3122 153.511H49.4062L52.0197 141.066H63.9299L61.3122 153.511ZM49.667 153.299H61.1405L63.6649 141.278H52.1914L49.667 153.299Z" fill="#789"/>
<path d="M78.0534 141.173L75.4845 153.405H63.7969L66.3659 141.173H78.0534Z" fill="white"/>
<path d="M75.57 153.511H63.6641L66.2776 141.066H78.1835L75.57 153.511ZM63.9248 153.299H75.3983L77.9185 141.278H66.4492L63.9248 153.299Z" fill="#789"/>
<path d="M92.3114 141.173L89.7424 153.405H78.0527L80.6217 141.173H92.3114Z" fill="#789"/>
<path d="M89.8301 153.511H77.9199L80.5334 141.066H92.4393L89.8301 153.511ZM78.1849 153.299H89.6584L92.1829 141.278H80.7093L78.1849 153.299Z" fill="#789"/>
<path d="M106.571 141.173L104.002 153.405H92.3125L94.8815 141.173H106.571Z" fill="white"/>
<path d="M104.088 153.511H92.1816L94.7951 141.066H106.701L104.088 153.511ZM92.4423 153.299H103.914L106.438 141.278H94.9668L92.4423 153.299Z" fill="#789"/>
<path d="M54.9324 44.8213H214.767C216.246 44.8213 217.665 45.4091 218.711 46.4553C219.758 47.5015 220.345 48.9205 220.345 50.4001V50.4001H49.3535C49.3535 48.9205 49.9413 47.5015 50.9875 46.4553C52.0338 45.4091 53.4528 44.8213 54.9324 44.8213Z" fill="#789"/>
<path d="M220.452 50.4996H49.248V50.3936C49.2503 48.8868 49.85 47.4424 50.9157 46.3771C51.9814 45.3118 53.426 44.7126 54.9329 44.7109H214.767C216.274 44.7126 217.719 45.3118 218.784 46.3771C219.85 47.4424 220.45 48.8868 220.452 50.3936V50.4996ZM49.46 50.2877H220.24C220.21 48.8555 219.62 47.492 218.598 46.4893C217.575 45.4865 216.2 44.9242 214.767 44.9229H54.9329C53.5004 44.9242 52.1254 45.4865 51.1025 46.4893C50.0795 47.492 49.4899 48.8555 49.46 50.2877V50.2877Z" fill="#789"/>
<path d="M64.2539 59.1582L62.927 65.4704H56.8945L58.2214 59.1582H64.2539Z" fill="white"/>
<path d="M63.0143 65.5769H56.7656L58.1349 59.0527H64.3835L63.0143 65.5769ZM57.0263 65.365H62.8426L64.1144 59.2647H58.3066L57.0263 65.365Z" fill="#789"/>
<path d="M158.676 119.415L204.97 73.1943L195.165 119.415H158.676Z" fill="white"/>
<path d="M195.248 119.52H158.418L205.147 72.8652L195.248 119.52ZM158.931 119.308H195.077L204.791 73.5244L158.931 119.308Z" fill="#789"/>
<path d="M99.8827 59.8176C99.8827 59.8176 96.1267 72.4188 79.8268 66.9459C63.527 61.4731 93.1677 53.5372 99.8827 59.8176Z" fill="#789"/>
<path d="M87.4098 68.4313C85.0895 68.4313 82.5502 67.9692 79.7919 67.045C76.6124 65.9852 74.9697 64.7558 74.8934 63.4099C74.8256 62.225 75.9956 61.0338 78.2742 59.9676C84.0226 57.2757 95.9222 55.9679 99.9558 59.7408C99.9702 59.7539 99.9806 59.7708 99.9858 59.7896C99.9911 59.8083 99.991 59.8281 99.9855 59.8468C99.9707 59.8934 98.5441 64.5248 93.8704 66.9518C91.8682 67.9601 89.6513 68.4678 87.4098 68.4313V68.4313ZM91.2081 57.6212C90.7567 57.6212 90.2903 57.6212 89.8155 57.653C85.6844 57.831 81.2968 58.7955 78.3696 60.1669C76.2055 61.18 75.0481 62.331 75.1096 63.4078C75.1796 64.6414 76.8244 65.8326 79.8639 66.8521C85.4046 68.7132 90.0826 68.6856 93.7729 66.7737C98.0757 64.5418 99.5806 60.4149 99.765 59.8574C98.1605 58.3864 95.157 57.6127 91.2081 57.6127V57.6212Z" fill="#789"/>
<path d="M181.824 107.072C188.892 107.072 194.622 101.342 194.622 94.2739C194.622 87.2056 188.892 81.4756 181.824 81.4756C174.755 81.4756 169.025 87.2056 169.025 94.2739C169.025 101.342 174.755 107.072 181.824 107.072Z" fill="white"/>
<path d="M181.823 107.178C179.27 107.178 176.774 106.422 174.651 105.004C172.529 103.586 170.874 101.57 169.897 99.2116C168.92 96.8532 168.664 94.258 169.162 91.7542C169.66 89.2504 170.889 86.9505 172.694 85.1454C174.499 83.3403 176.799 82.1111 179.303 81.6131C181.807 81.1152 184.402 81.371 186.76 82.3481C189.119 83.3252 191.135 84.9798 192.553 87.1025C193.971 89.2253 194.727 91.7209 194.727 94.2737C194.72 97.6941 193.358 100.972 190.94 103.391C188.521 105.81 185.243 107.171 181.823 107.178ZM181.823 81.5793C179.312 81.5789 176.857 82.3231 174.769 83.7177C172.681 85.1123 171.054 87.0948 170.093 89.4143C169.132 91.7339 168.88 94.2864 169.37 96.749C169.859 99.2116 171.068 101.474 172.843 103.249C174.619 105.025 176.881 106.234 179.343 106.724C181.806 107.214 184.358 106.963 186.678 106.002C188.998 105.041 190.98 103.414 192.375 101.327C193.77 99.239 194.515 96.7845 194.515 94.2737C194.509 90.9092 193.17 87.6843 190.791 85.305C188.412 82.9257 185.187 81.586 181.823 81.5793V81.5793Z" fill="#789"/>
<path d="M178.861 100.616C178.639 100.616 178.418 100.572 178.212 100.486C178.006 100.401 177.819 100.276 177.662 100.118L173.016 95.4802C172.696 95.1609 172.517 94.728 172.518 94.2766C172.518 93.8252 172.697 93.3924 173.017 93.0734C173.336 92.7544 173.769 92.5752 174.22 92.5754C174.672 92.5756 175.104 92.7552 175.423 93.0745L178.87 96.5209L193.432 81.9592C193.75 81.641 194.181 81.4621 194.631 81.4619C195.08 81.4617 195.512 81.6402 195.83 81.9581C196.148 82.276 196.327 82.7073 196.327 83.1571C196.327 83.6068 196.149 84.0383 195.831 84.3565L180.07 100.118C179.911 100.277 179.723 100.403 179.515 100.488C179.308 100.574 179.086 100.617 178.861 100.616Z" fill="#789"/>
<path d="M18.5227 104.817C13.231 104.817 8.94727 100.533 8.94727 95.2414C8.94727 89.9498 13.231 85.666 18.5227 85.666C23.8144 85.666 28.0981 89.9498 28.0981 95.2414C28.0981 100.533 23.8144 104.817 18.5227 104.817ZM18.5227 87.1779C14.0878 87.1779 10.4592 90.8065 10.4592 95.2414C10.4592 99.6764 14.0878 103.305 18.5227 103.305C22.9576 103.305 26.5862 99.6764 26.5862 95.2414C26.5862 90.8065 22.9576 87.1779 18.5227 87.1779Z" fill="#789"/>
<path d="M12.2213 93.8556C5.49327 93.8556 0 88.3624 0 81.6344C0 74.9064 5.49327 69.4131 12.2213 69.4131C18.9493 69.4131 24.4426 74.9064 24.4426 81.6344C24.4426 88.3624 18.9493 93.8556 12.2213 93.8556ZM12.2213 70.925C6.32483 70.925 1.51191 75.7379 1.51191 81.6344C1.51191 87.5308 6.32483 92.3437 12.2213 92.3437C18.1177 92.3437 22.9306 87.5308 22.9306 81.6344C22.9306 75.7379 18.1177 70.925 12.2213 70.925Z" fill="#789"/>
<path d="M114.29 26.4584H112.778V18.3949H102.699V9.57543H92.8711V0H94.383V8.06352H104.21V16.883H114.29V26.4584Z" fill="#789"/>
<path d="M240.566 188.135H220.811L230.688 171.075L240.566 188.135ZM223.431 186.623H237.946L230.688 174.099L223.431 186.623Z" fill="#789"/>
<path d="M243.086 180.828H218.291L230.689 159.409L243.086 180.828ZM220.912 179.316H240.466L230.689 162.433L220.912 179.316Z" fill="#789"/>
<path d="M106.731 200H83.2969V192.44H106.731V200ZM84.8088 198.488H105.22V193.952H84.8088V198.488Z" fill="#789"/>
</svg>
