<svg id="Layer_1" data-name="Layer 1" xmlns="http://www.w3.org/2000/svg" viewBox="0 0 595.28 842.26"><defs><style>.cls-1{fill:#fff;}.cls-2{fill:#1c2d56;}.cls-2,.cls-3,.cls-4{fill-rule:evenodd;}.cls-3{fill:#f15b5b;}.cls-4{fill:#e2e2e2;}.cls-5{opacity:0.9;}</style></defs><title>Artboard 18 copy 2</title><rect class="cls-1" width="595.28" height="842.26"/><path class="cls-2" d="M13.3,35.76a6.6,6.6,0,0,1,3.83-1.23,7.08,7.08,0,0,1,0,14.15,7,7,0,0,1-6.79-7.08V31.25h3Zm0,5.85a3.83,3.83,0,1,0,3.83-4A3.91,3.91,0,0,0,13.3,41.61Zm28.84,5.81a6.51,6.51,0,0,1-3.82,1.24,7.12,7.12,0,1,1,6.77-7.11v7.13h-3Zm0-5.88a3.83,3.83,0,1,0-3.82,4A3.93,3.93,0,0,0,42.14,41.54Zm14.21,2a3.79,3.79,0,0,1-3.31,2,4,4,0,0,1,0-8,3.8,3.8,0,0,1,3.33,2L58.93,38A6.74,6.74,0,0,0,53,34.43a7.12,7.12,0,0,0,0,14.23,6.77,6.77,0,0,0,5.89-3.55Zm-26.1-9.18h1.31V37.2H30.31A2.29,2.29,0,0,0,28,39.49v9.19H25v-9A5.31,5.31,0,0,1,30.25,34.38Z"/><path class="cls-3" d="M65.5,31.25h2.94V48.61H65.5Zm-4.45,0H64V48.61H61.05Zm22.49,3V31.26H70V34.2ZM73.05,38.65H70V35.71h6v12.9H73.05Zm10.49,0V35.71h-6v12.9h2.94v-10Z"/><path class="cls-4" d="M99.22,752.14V732H0v20.16ZM0,762.22H58.1v80h-20V782.38H0Zm88,0h-20v20.16h0v59.88H88V782.38H99.21V762.22Zm-59.71,29.4H8.63v50.63h19.7Z"/><path class="cls-5" d="M60.62,537.79h1.19v-4.28H60.62Zm.59-4.83a.61.61,0,1,0-.64-.61A.63.63,0,0,0,61.21,533Zm-32.77-1a2.32,2.32,0,0,1,2.48,2.08H29.7a1.16,1.16,0,0,0-1.23-1c-.89,0-1.47.68-1.47,1.87s.59,1.86,1.46,1.86a1.17,1.17,0,0,0,1.24-1h1.22a2.36,2.36,0,0,1-2.48,2,2.95,2.95,0,0,1,0-5.87Zm-16.07,5.79H9.93v-5.71h2.29c1.26,0,1.89.61,1.89,1.46a1.21,1.21,0,0,1-1,1.23v.06a1.32,1.32,0,0,1,1.26,1.38C14.34,537.12,13.65,537.79,12.37,537.79Zm-1.23-2.5v1.51h1c.68,0,1-.28,1-.71s-.36-.8-.94-.8Zm0-2.23v1.41H12c.5,0,.87-.27.87-.72s-.31-.69-.84-.69Zm5.19,4.73H15.12v-5.71h2.26a1.81,1.81,0,0,1,2,1.87,1.64,1.64,0,0,1-1,1.62l1.22,2.22H18.29l-1.08-2h-.88Zm0-4.72v1.73h.82c.69,0,1-.29,1-.85s-.34-.88-1-.88Zm4.93,4.72.42-1.3h2.06l.43,1.3h1.29l-2-5.71H21.94l-2,5.71Zm.73-2.24.7-2.16h0l.7,2.16Zm12.82-3.47H33.6v5.71h1.21Zm2.52,1H35.58v-1h4.69v1H38.52v4.71H37.33Zm8.63.64h1.16c0-1-.86-1.72-2.13-1.72s-2.17.69-2.16,1.73c0,.84.59,1.33,1.55,1.56l.63.15c.62.15,1,.33,1,.72s-.4.7-1,.7-1.08-.29-1.11-.86H42.68c0,1.23.91,1.87,2.3,1.87s2.21-.67,2.21-1.71-.72-1.46-1.71-1.68l-.51-.12c-.5-.12-.91-.3-.9-.71s.32-.64.91-.64S45.91,533.27,46,533.72Zm5.92,2.84a1.79,1.79,0,0,1-2,1.31,2,2,0,0,1-2.12-2.2,2,2,0,0,1,2.08-2.22,1.94,1.94,0,0,1,2,2.18V536H49a.94.94,0,0,0,1,1,.81.81,0,0,0,.83-.5Zm-2-2.22a.91.91,0,0,0-.93.88h1.8A.84.84,0,0,0,49.91,534.34Zm2.77,3.45h1.18v-2.42a.87.87,0,0,1,.91-.89,2.28,2.28,0,0,1,.5.06v-1a1.45,1.45,0,0,0-.37,0,1,1,0,0,0-1,.81h0v-.75H52.68Zm6.07-4.28H60l-1.5,4.28H57.18l-1.5-4.28h1.25l.89,3.06h0Zm7.85,2.71a1.73,1.73,0,0,1-1.91,1.65,2.21,2.21,0,0,1,0-4.42,1.73,1.73,0,0,1,1.91,1.64H65.48a.75.75,0,0,0-.77-.71c-.56,0-.92.46-.92,1.27s.36,1.28.92,1.28a.75.75,0,0,0,.77-.71Zm2.72,1.65a1.78,1.78,0,0,0,1.94-1.31l-1.1-.07a.81.81,0,0,1-.82.5.93.93,0,0,1-1-1h2.91v-.32a1.94,1.94,0,0,0-2-2.18,2,2,0,0,0-2.08,2.22A2,2,0,0,0,69.32,537.87Zm-.95-2.65a.9.9,0,0,1,.92-.88.84.84,0,0,1,.87.88Zm5.43-1.77c1.08,0,1.71.49,1.82,1.28l-1.09.07a.67.67,0,0,0-.71-.51c-.37,0-.66.17-.66.43s.15.34.54.43l.78.15c.83.17,1.23.54,1.24,1.16,0,.85-.8,1.41-1.91,1.41s-1.83-.5-1.94-1.32l1.17-.06a.69.69,0,0,0,.77.53c.42,0,.69-.18.7-.44s-.18-.35-.55-.42l-.74-.15c-.84-.17-1.24-.58-1.24-1.23C72,534,72.7,533.45,73.8,533.45Zm4.5,4.34H82v-1H79.51v-4.71H78.3ZM84,533.51h.81v.89H84v2.07c0,.33.17.42.4.42a1.7,1.7,0,0,0,.27,0h0l.19.89a2.27,2.27,0,0,1-.65.11c-.86,0-1.43-.38-1.43-1.22V534.4h-.58v-.89h.58v-1H84Zm3.11,4.35a1.27,1.27,0,0,0,1.22-.76h0v.69h1.17v-5.71H88.4v2.15h0a1.26,1.26,0,0,0-1.22-.78c-.94,0-1.73.73-1.73,2.2S86.17,537.86,87.14,537.86Zm.38-1c-.58,0-.9-.51-.9-1.26s.31-1.25.9-1.25.9.49.9,1.25S88.09,536.91,87.52,536.91Zm4.4.28a.67.67,0,0,1-1.34,0,.67.67,0,0,1,1.34,0ZM28.59,561.34h.56v-3.67h-.56Zm.28-4.28a.38.38,0,1,0,0-.76.38.38,0,1,0,0,.76Zm-18.25,4.28H10v-4.89h.59v2.18h2.61v-2.18h.59v4.89h-.59v-2.19H10.62Zm7.47-1.81a1.68,1.68,0,1,1-1.67-1.91A1.69,1.69,0,0,1,18.09,559.53Zm-2.77,0c0,.73.35,1.38,1.1,1.38s1.1-.65,1.1-1.38-.34-1.4-1.1-1.4S15.32,558.79,15.32,559.53ZM19,561.34h.56v-2.29a.87.87,0,0,1,.83-.92.68.68,0,0,1,.73.7v2.51h.57V559a.77.77,0,0,1,.82-.82.68.68,0,0,1,.74.76v2.45h.56v-2.45c0-.87-.46-1.27-1.11-1.27a1.16,1.16,0,0,0-1.1.63h0a1,1,0,0,0-1-.63,1,1,0,0,0-1,.63h-.05v-.58H19Zm8-.49a1.18,1.18,0,0,1-1.09.58,1.14,1.14,0,0,1-1.26-1.13c0-.84.75-1,1.43-1.08l.3,0c.45,0,.64-.07.64-.29v0a.68.68,0,0,0-.77-.75,1,1,0,0,0-1,.56l-.53-.2a1.51,1.51,0,0,1,1.47-.86,1.21,1.21,0,0,1,1.36,1.3v2.42H27v-.49Zm-1.78-.52c0,.39.32.59.77.59a.94.94,0,0,0,1-.91v-.51a2.62,2.62,0,0,1-.91.2H26C25.58,559.77,25.19,559.9,25.19,560.33Zm5.56,1h-.57v-3.67h.55v.56h0a1,1,0,0,1,.95-.62H32v.58a1.62,1.62,0,0,0-.34,0,.87.87,0,0,0-.93.86Zm3,.09a1.18,1.18,0,0,0,1.09-.58h0v.49h.56v-2.42a1.21,1.21,0,0,0-1.36-1.3,1.51,1.51,0,0,0-1.47.86l.54.2a1,1,0,0,1,1-.56.69.69,0,0,1,.78.75v0c0,.22-.2.24-.65.29l-.3,0c-.68.09-1.42.24-1.42,1.08A1.13,1.13,0,0,0,33.77,561.43Zm.08-.51c-.44,0-.77-.2-.77-.59s.39-.56.83-.62H34a2.75,2.75,0,0,0,.92-.2V560A1,1,0,0,1,33.85,560.92Zm6.37.42H38.45v-4.89h1.71c1,0,1.5.58,1.5,1.3a1,1,0,0,1-.79,1v.05a1.14,1.14,0,0,1,1,1.22C41.85,560.78,41.37,561.34,40.22,561.34ZM39,559.12v1.7h1.18c.77,0,1.07-.35,1.07-.78a1,1,0,0,0-1-.92ZM39,557v1.63h1.1a.88.88,0,0,0,1-.85c0-.43-.29-.78-.94-.78Zm4.27,2.16a.92.92,0,0,1,1-1,.81.81,0,0,1,.85.92v2.29h.56V559c0-.94-.5-1.39-1.25-1.39a1.07,1.07,0,0,0-1.08.63h0v-1.8h-.56v4.89h.56Zm5.58,1.72a1.28,1.28,0,0,1-2.34-.55c0-.84.75-1,1.43-1.08l.3,0c.45,0,.64-.07.64-.29v0a.68.68,0,0,0-.77-.75,1,1,0,0,0-1,.56l-.53-.2a1.5,1.5,0,0,1,1.47-.86,1.21,1.21,0,0,1,1.36,1.3v2.42h-.57v-.49Zm-1.77-.52c0,.39.32.59.77.59a.94.94,0,0,0,1-.91v-.51a2.68,2.68,0,0,1-.91.2H48C47.51,559.77,47.12,559.9,47.12,560.33Zm3.47,1h.55v-.56h.06l0,0a1.13,1.13,0,0,0,1.06.62c.91,0,1.55-.74,1.55-1.9s-.64-1.9-1.56-1.9a1.1,1.1,0,0,0-1,.59l0,0h0v-1.81h-.57Zm.56-1.83c0-.82.36-1.38,1.05-1.38s1.07.6,1.07,1.38-.36,1.4-1.07,1.4S51.15,560.34,51.15,559.51Zm5.72,1.34a1.18,1.18,0,0,1-1.09.58,1.14,1.14,0,0,1-1.26-1.13c0-.84.75-1,1.43-1.08l.3,0c.45,0,.64-.07.64-.29v0a.68.68,0,0,0-.77-.75,1,1,0,0,0-1,.56l-.53-.2a1.51,1.51,0,0,1,1.47-.86,1.21,1.21,0,0,1,1.36,1.3v2.42h-.57v-.49Zm-1.78-.52c0,.39.32.59.77.59a.94.94,0,0,0,1-.91v-.51a2.62,2.62,0,0,1-.91.2h-.06C55.48,559.77,55.09,559.9,55.09,560.33Zm4-1.2a.91.91,0,0,1,.94-1,.81.81,0,0,1,.84.92v2.29h.56V559c0-.94-.5-1.39-1.24-1.39a1.08,1.08,0,0,0-1.07.63h0v-.58h-.54v3.67h.56ZM10.62,571.44H10v-4.9h.59v2.18h2.61v-2.18h.59v4.9h-.59v-2.19H10.62Zm5.8.07a1.91,1.91,0,1,0-1.66-1.89A1.69,1.69,0,0,0,16.42,571.51Zm0-.5c-.75,0-1.1-.65-1.1-1.39s.35-1.4,1.1-1.4,1.1.66,1.1,1.4S17.18,571,16.42,571Zm3.89-.07a1,1,0,0,0,1-1v-2.17h.56v3.67h-.56v-.63h0a1.13,1.13,0,0,1-1.09.67c-.69,0-1.18-.45-1.18-1.38v-2.33h.56v2.29A.8.8,0,0,0,20.31,570.94Zm5.15-2.35a1.25,1.25,0,0,0-1.3-.87c-.78,0-1.35.44-1.35,1.06s.3.84,1,1l.62.15c.37.08.54.26.54.51s-.33.58-.86.58a.77.77,0,0,1-.85-.6l-.54.14a1.27,1.27,0,0,0,1.4,1c.85,0,1.43-.46,1.43-1.1s-.32-.83-1-1l-.55-.13c-.43-.11-.63-.26-.63-.54s.34-.54.79-.54a.77.77,0,0,1,.79.52Zm3.37,1.84.54.16a1.42,1.42,0,0,1-1.46.92,1.68,1.68,0,0,1-1.71-1.88,1.7,1.7,0,0,1,1.65-1.91c.77,0,1.58.47,1.58,1.83v.24H26.77A1.11,1.11,0,0,0,27.91,571,.91.91,0,0,0,28.83,570.43Zm-1-2.21a1.09,1.09,0,0,0-1.08,1.08h2.09A1,1,0,0,0,27.85,568.22Zm6-1.68H33.3l-1.22.81V568l1.19-.8h0v4.28h.59Zm2.54,0H37v4.9h-.59v-4.28h0l-1.19.8v-.61Zm3.53,5a1.64,1.64,0,0,0,.06-3.27,1.47,1.47,0,0,0-.86.28h0l.17-1.44h2v-.53H38.81l-.3,2.41.56.07a1.55,1.55,0,0,1,.85-.25A1.07,1.07,0,0,1,41,569.89,1,1,0,0,1,40,571a.91.91,0,0,1-1-.77h-.57A1.41,1.41,0,0,0,40,571.5Zm2.62-.73h.61l0,.26a9.41,9.41,0,0,1-.44,1.6h-.43v0c.07-.32.19-.93.26-1.55Zm3.62.67h.6v-1.92H48l1,1.92h.69l-1.1-2a1.33,1.33,0,0,0,.91-1.37,1.45,1.45,0,0,0-1.66-1.5H46.2Zm.6-2.45v-1.92h1c.79,0,1.1.39,1.1,1s-.31,1-1.09,1Zm6.75.63a1.68,1.68,0,1,1-1.67-1.9A1.69,1.69,0,0,1,53.55,569.62Zm-2.77,0c0,.74.35,1.39,1.1,1.39s1.1-.65,1.1-1.39-.34-1.4-1.1-1.4S50.78,568.88,50.78,569.62Zm4.71,1.9a1.16,1.16,0,0,0,1.09-.58h0v.5h.56V569a1.21,1.21,0,0,0-1.36-1.3,1.49,1.49,0,0,0-1.47.86l.54.19a1,1,0,0,1,.95-.56.69.69,0,0,1,.78.75v0c0,.23-.2.25-.65.3l-.3,0c-.68.09-1.42.24-1.42,1.08A1.13,1.13,0,0,0,55.49,571.52Zm.08-.5c-.45,0-.77-.21-.77-.6s.39-.56.83-.62h.06a2.52,2.52,0,0,0,.92-.2v.52A1,1,0,0,1,55.57,571Zm5.07-.12a1.13,1.13,0,0,1-1.06.61c-.91,0-1.55-.73-1.55-1.9s.64-1.89,1.56-1.89a1.11,1.11,0,0,1,1,.58l0,.05h0v-1.81h.57v4.9h-.55v-.57h-.06Zm-2-1.3c0,.78.36,1.41,1.07,1.41s1.05-.58,1.05-1.41-.36-1.38-1.05-1.38S58.59,568.83,58.59,569.6Zm7.2,1.9a1.58,1.58,0,0,0,1.62-1.62,1.56,1.56,0,0,0-1.56-1.65,1.42,1.42,0,0,0-.85.28h0l.17-1.44h2v-.53H64.64L64.35,569l.55.07a1.55,1.55,0,0,1,.85-.25,1.07,1.07,0,0,1,1.08,1.12,1,1,0,0,1-1,1.09.91.91,0,0,1-1-.77h-.57A1.42,1.42,0,0,0,65.79,571.5Zm-54,10H10v-4.89h1.71c1,0,1.5.58,1.5,1.3a1,1,0,0,1-.79,1v0a1.15,1.15,0,0,1,1,1.22C13.43,581,13,581.53,11.8,581.53Zm-1.18-2.23V581H11.8c.77,0,1.07-.34,1.07-.77a1,1,0,0,0-1-.93Zm0-2.14v1.63h1.1a.88.88,0,0,0,1-.85c0-.43-.29-.78-.94-.78Zm4.27-.52h-.56v4.89h.56Zm4.19,3.07a1.68,1.68,0,1,1-1.66-1.9A1.7,1.7,0,0,1,19.08,579.71Zm-2.76,0c0,.74.34,1.39,1.1,1.39s1.09-.65,1.09-1.39-.34-1.39-1.09-1.39S16.32,579,16.32,579.71Zm5.11,1.9a1.36,1.36,0,0,0,1.44-1.15h-.56a.85.85,0,0,1-.88.64c-.67,0-1.1-.55-1.1-1.41s.44-1.37,1.1-1.37a.86.86,0,0,1,.88.64h.56a1.36,1.36,0,0,0-1.45-1.15,1.92,1.92,0,0,0,0,3.8Zm2.83-.08H23.7v-4.89h.56v2.85h.07l1.61-1.63h.69l-1.55,1.57,1.67,2.1H26l-1.37-1.74-.4.37Zm5.07,0H31.1c1.15,0,1.63-.56,1.63-1.3a1.14,1.14,0,0,0-1-1.22v0a1,1,0,0,0,.79-1c0-.72-.48-1.3-1.5-1.3H29.33Zm.59-.53v-1.7h1.2a1,1,0,0,1,1.05.93c0,.43-.3.77-1.07.77Zm0-2.21v-1.63H31c.65,0,.94.35.94.78a.88.88,0,0,1-1,.85Zm3.94,2.07h.61l0,.26a9.41,9.41,0,0,1-.44,1.6h-.43v-.05c.07-.32.19-.93.26-1.54Zm7.5-4.22h-.58v3.85h-.05l-2.67-3.85h-.58v4.89h.6v-3.84h0l2.67,3.84h.57ZM43,581.53h-.57v-3.67H43Zm.12-4.66a.4.4,0,0,1-.8,0,.4.4,0,0,1,.8,0Zm.91,4.66h.56v-1.37l.4-.37,1.37,1.74h.72l-1.67-2.1L47,577.86h-.69l-1.61,1.63h-.07v-2.85h-.56Zm6-1,.54.15a1.43,1.43,0,0,1-1.46.93,1.69,1.69,0,0,1-1.71-1.89,1.71,1.71,0,0,1,1.65-1.91c.77,0,1.58.47,1.58,1.84v.24H48a1.12,1.12,0,0,0,1.15,1.21A.91.91,0,0,0,50,580.53Zm-1-2.21A1.1,1.1,0,0,0,48,579.4h2.09A1,1,0,0,0,49.06,578.32Zm4-.46h-.78V577h-.57v.88h-.55v.48h.55v2.29a1,1,0,0,0,1,1,1.14,1.14,0,0,0,.42-.07L53,581h0l-.23,0c-.25,0-.49-.07-.49-.55v-2.14h.78Zm3,3.17a1.15,1.15,0,0,1-1.09.59,1.14,1.14,0,0,1-1.25-1.13c0-.84.74-1,1.42-1.08l.31,0c.45,0,.64-.07.64-.3v0a.68.68,0,0,0-.78-.74,1,1,0,0,0-1,.55l-.54-.19a1.5,1.5,0,0,1,1.48-.86,1.21,1.21,0,0,1,1.35,1.3v2.42h-.56V581Zm-1.78-.51c0,.39.33.59.78.59a.94.94,0,0,0,1-.91v-.51a2.75,2.75,0,0,1-.92.2h-.06C54.72,580,54.33,580.09,54.33,580.52Zm4-1.2a.9.9,0,0,1,.93-1,.81.81,0,0,1,.84.92v2.29h.57V579.2c0-.94-.5-1.39-1.24-1.39a1.1,1.1,0,0,0-1.08.62h0v-.57h-.55v3.67h.57ZM14,588.26h-.61a1.39,1.39,0,0,0-1.39-1c-.87,0-1.57.69-1.57,2s.7,2,1.61,2a1.37,1.37,0,0,0,1.42-1.44H12.15v-.52H14v.52a1.89,1.89,0,0,1-2,2,2.21,2.21,0,0,1-2.18-2.51c0-1.55.88-2.52,2.14-2.52A2,2,0,0,1,14,588.26Zm3.28,1.86a1,1,0,0,1-.94,1,.8.8,0,0,1-.8-.88V588H15v2.34c0,.93.5,1.38,1.19,1.38a1.15,1.15,0,0,0,1.09-.67h0v.62h.57V588h-.57Zm1.6-3.39h.57v4.89h-.57Zm4.2,2a1.23,1.23,0,0,0-1.3-.87c-.78,0-1.35.44-1.35,1.06s.3.84,1,1l.61.14c.37.09.54.27.54.52s-.33.57-.86.57a.78.78,0,0,1-.85-.59l-.53.13a1.25,1.25,0,0,0,1.39,1c.85,0,1.44-.47,1.44-1.1s-.32-.83-1-1l-.54-.14c-.44-.1-.64-.25-.64-.53s.34-.55.79-.55a.78.78,0,0,1,.79.53Zm2.44-.37a.93.93,0,0,0-1,1v2.2H24v-4.89h.57v1.8h.05a1.06,1.06,0,0,1,1.08-.62c.75,0,1.25.44,1.25,1.38v2.33h-.57v-2.29A.81.81,0,0,0,25.5,588.41Zm3.53,3.3a1.15,1.15,0,0,0,1.09-.58h0v.49h.56v-2.41a1.2,1.2,0,0,0-1.35-1.3,1.5,1.5,0,0,0-1.48.86l.54.19a1,1,0,0,1,.95-.56.69.69,0,0,1,.78.75v0c0,.22-.19.25-.64.3l-.31,0c-.68.09-1.42.24-1.42,1.08A1.13,1.13,0,0,0,29,591.71Zm.09-.51c-.45,0-.78-.2-.78-.59s.39-.56.83-.62h.06a2.52,2.52,0,0,0,.92-.2v.52A.94.94,0,0,1,29.12,591.2Zm4.12-2.79a.91.91,0,0,0-.93,1v2.2h-.57V588h.55v.58h0a1.09,1.09,0,0,1,1.08-.62c.74,0,1.24.44,1.24,1.38v2.33h-.57v-2.29A.81.81,0,0,0,33.24,588.41Zm6-1.68h-.59l-1.22.81v.6l1.19-.79h0v4.27h.59ZM40.64,591h.61l0,.26a9.55,9.55,0,0,1-.44,1.61h-.43v-.05c.07-.33.19-.94.26-1.55Zm5.14.67a2.45,2.45,0,0,0,.06-4.89H44.26v4.89Zm-.92-.52v-3.84h.94c1.15,0,1.73.72,1.73,1.91s-.58,1.93-1.79,1.93Zm5.69-2.69a.93.93,0,0,0-1,1v2.2H49v-4.89h.56v1.8h0a1.06,1.06,0,0,1,1.08-.62c.75,0,1.25.44,1.25,1.38v2.33h-.56v-2.29A.82.82,0,0,0,50.55,588.41Zm3.53,3.3a1.15,1.15,0,0,0,1.09-.58h0v.49h.56v-2.41a1.2,1.2,0,0,0-1.35-1.3,1.5,1.5,0,0,0-1.48.86l.54.19a1,1,0,0,1,1-.56.69.69,0,0,1,.78.75v0c0,.22-.19.25-.64.3l-.31,0c-.68.09-1.42.24-1.42,1.08A1.13,1.13,0,0,0,54.08,591.71Zm.09-.51c-.45,0-.78-.2-.78-.59s.39-.56.83-.62h.06a2.52,2.52,0,0,0,.92-.2v.52A.94.94,0,0,1,54.17,591.2Zm3.19.42h-.57v-4.89h.57v2.86h.06L59,588h.7l-1.55,1.57,1.66,2.1h-.72l-1.37-1.74-.39.37Zm4.17.09a1.15,1.15,0,0,0,1.09-.58h0v.49h.57v-2.41a1.21,1.21,0,0,0-1.36-1.3,1.48,1.48,0,0,0-1.47.86l.53.19a1,1,0,0,1,1-.56.68.68,0,0,1,.77.75v0c0,.22-.19.25-.64.3l-.3,0c-.69.09-1.43.24-1.43,1.08A1.14,1.14,0,0,0,61.53,591.71Zm.09-.51c-.45,0-.78-.2-.78-.59s.4-.56.84-.62h.06a2.46,2.46,0,0,0,.91-.2v.52A.94.94,0,0,1,61.62,591.2Zm5.64-4.47h.59v4.89h-.59v-4.27h0l-1.2.79v-.6Zm2,4.89h3.08v-.52H70.07v0l1.1-1.18c.84-.9,1.09-1.32,1.09-1.86a1.39,1.39,0,0,0-1.48-1.36,1.43,1.43,0,0,0-1.51,1.45h.57a.87.87,0,0,1,.93-.93.84.84,0,0,1,.93.84c0,.45-.26.79-.83,1.41l-1.61,1.76Zm5.2-4.89h.59v4.89h-.59v-4.27h0l-1.2.79v-.6Zm2,4.89h3.09v-.52H77.27v0l1.1-1.18c.84-.9,1.09-1.32,1.09-1.86A1.39,1.39,0,0,0,78,586.66a1.43,1.43,0,0,0-1.51,1.45H77a.87.87,0,0,1,.93-.93.84.84,0,0,1,.93.84c0,.45-.26.79-.83,1.41l-1.61,1.76ZM11.8,601.72H10v-4.9h1.71c1,0,1.5.59,1.5,1.3a1,1,0,0,1-.79,1v0a1.15,1.15,0,0,1,1,1.23C13.43,601.15,13,601.72,11.8,601.72Zm-1.18-2.23v1.7H11.8c.77,0,1.07-.34,1.07-.77a1,1,0,0,0-1-.93Zm0-2.14V599h1.1a.88.88,0,0,0,1-.85c0-.43-.29-.77-.94-.77Zm4.79,4.45a1.16,1.16,0,0,0,1.09-.58h0v.5h.56V599.3a1.21,1.21,0,0,0-1.36-1.3,1.49,1.49,0,0,0-1.47.86l.54.19a1,1,0,0,1,.95-.55.68.68,0,0,1,.78.74v0c0,.23-.2.25-.65.3l-.3,0c-.68.08-1.42.23-1.42,1.08A1.13,1.13,0,0,0,15.41,601.8Zm.08-.5c-.45,0-.77-.2-.77-.6s.39-.56.83-.62h.06a2.72,2.72,0,0,0,.92-.21v.52A1,1,0,0,1,15.49,601.3Zm4.13-2.79a.91.91,0,0,0-.94,1v2.21h-.56v-3.67h.54v.57h.05a1.09,1.09,0,0,1,1.07-.62c.75,0,1.25.45,1.25,1.39v2.33h-.57v-2.3A.81.81,0,0,0,19.62,598.51Zm3.92,4.66c.88,0,1.58-.4,1.58-1.35v-3.77h-.54v.58h-.06l0,0a1.12,1.12,0,0,0-1.05-.59c-.93,0-1.57.74-1.57,1.86a1.59,1.59,0,0,0,1.56,1.8,1.11,1.11,0,0,0,1.06-.6v0h0v.74c0,.62-.43.89-1,.89a1.13,1.13,0,0,1-1-.53v0l-.45.31A1.61,1.61,0,0,0,23.54,603.17Zm0-2c-.71,0-1.07-.53-1.07-1.3s.35-1.34,1.07-1.34,1.05.55,1.05,1.34S24.2,601.15,23.52,601.15Zm2.64-4.33h.56v4.9h-.56Zm2.67,5a1.15,1.15,0,0,0,1.09-.58h0v.5h.57V599.3a1.21,1.21,0,0,0-1.36-1.3,1.48,1.48,0,0,0-1.47.86l.53.19a1,1,0,0,1,1-.55.67.67,0,0,1,.77.74v0c0,.23-.19.25-.64.3l-.3,0c-.69.08-1.43.23-1.43,1.08A1.13,1.13,0,0,0,28.83,601.8Zm.09-.5c-.45,0-.77-.2-.77-.6s.39-.56.83-.62H29a2.65,2.65,0,0,0,.91-.21v.52A.94.94,0,0,1,28.92,601.3Zm5.07-.12a1.13,1.13,0,0,1-1.06.61c-.92,0-1.56-.73-1.56-1.9S32,598,32.94,598a1.08,1.08,0,0,1,1,.59h0l0,0h0v-1.81h.56v4.9h-.54v-.57H34Zm-2.05-1.3c0,.79.36,1.41,1.07,1.41s1.05-.58,1.05-1.41-.36-1.37-1.05-1.37S31.94,599.11,31.94,599.88Zm6.79,1-.55-.16a.89.89,0,0,1-.92.58,1.11,1.11,0,0,1-1.14-1.22h2.66v-.24c0-1.36-.81-1.83-1.57-1.83a1.7,1.7,0,0,0-1.66,1.91,1.68,1.68,0,0,0,1.71,1.88A1.44,1.44,0,0,0,38.73,600.87Zm-2.61-1.28a1.09,1.09,0,0,1,1.09-1.08,1,1,0,0,1,1,1.08ZM40.94,598a1.24,1.24,0,0,1,1.3.87l-.51.14a.76.76,0,0,0-.79-.52c-.45,0-.78.23-.78.54s.19.43.63.54l.54.13c.66.16,1,.48,1,1s-.58,1.1-1.44,1.1a1.25,1.25,0,0,1-1.39-.95l.53-.14a.77.77,0,0,0,.85.6c.53,0,.86-.26.86-.58s-.17-.43-.54-.51l-.61-.15c-.68-.15-1-.49-1-1S40.17,598,40.94,598Zm2.78,1.51a.92.92,0,0,1,1-1,.81.81,0,0,1,.85.91v2.3h.56v-2.33c0-.95-.5-1.39-1.25-1.39a1.06,1.06,0,0,0-1.08.62h-.05v-1.8h-.56v4.9h.56Zm-27.42,21h.82V621H16.3v3.19h-.57V621h-.59v-.48h.59V620a1,1,0,0,1,1-1,1.24,1.24,0,0,1,.53.1l-.16.49h0a.86.86,0,0,0-.3-.05c-.37,0-.52.19-.52.55ZM10,624.15h.57v-3.67H10Zm.29-4.28a.4.4,0,0,0,.4-.39.4.4,0,0,0-.8,0A.4.4,0,0,0,10.24,619.87Zm1.87,2.07a.91.91,0,0,1,.94-1,.81.81,0,0,1,.84.91v2.3h.56v-2.33c0-.94-.49-1.39-1.24-1.39a1.09,1.09,0,0,0-1.07.62h-.05v-.57h-.54v3.67h.56Zm7.14,2.28a1.91,1.91,0,1,0-1.66-1.89A1.69,1.69,0,0,0,19.25,624.22Zm0-.5c-.75,0-1.1-.65-1.1-1.39s.35-1.39,1.1-1.39,1.1.66,1.1,1.39S20,623.72,19.25,623.72ZM26,625.17a4.2,4.2,0,0,1-1.41.27,3,3,0,0,1-.06-6,2.55,2.55,0,0,1,2.7,2.6c0,.92-.09,2-1.11,2-.33,0-.85-.14-.9-.55h0a.9.9,0,0,1-1,.52c-.83,0-1.26-.72-1.26-1.63a1.44,1.44,0,0,1,1.26-1.53c.48-.05.85.13.92.34h0v-.26h.5v2.16a.46.46,0,0,0,.44.5c.49,0,.61-.48.61-1.57a2.09,2.09,0,0,0-2.24-2.14,2.55,2.55,0,0,0,.11,5.09,4.32,4.32,0,0,0,1.24-.24h0Zm-2.52-2.81c0,.61.22,1.18.84,1.18s.9-.39.9-1.18-.31-1-.88-1A.92.92,0,0,0,23.48,622.36Zm4.67,1.79h.55v-.57h.06l0,0a1.13,1.13,0,0,0,1.06.61c.91,0,1.55-.73,1.55-1.9s-.64-1.89-1.56-1.89a1.1,1.1,0,0,0-1,.59l0,0h0v-1.81h-.57Zm.56-1.84c0-.82.36-1.37,1.05-1.37s1.07.6,1.07,1.37-.36,1.41-1.07,1.41S28.71,623.14,28.71,622.31Zm4.11,1.84h-.56v-3.67h.54V621h0a1,1,0,0,1,.95-.61h.3V621a1.87,1.87,0,0,0-.34,0,.87.87,0,0,0-.93.86Zm3,.08a1.16,1.16,0,0,0,1.09-.58h0v.5h.56v-2.42a1.21,1.21,0,0,0-1.36-1.3,1.49,1.49,0,0,0-1.47.86l.54.19a1,1,0,0,1,1-.55.68.68,0,0,1,.78.74v0c0,.23-.19.25-.64.3L36,622c-.68.08-1.42.24-1.42,1.08A1.13,1.13,0,0,0,35.84,624.23Zm.09-.5c-.45,0-.78-.2-.78-.6s.39-.56.83-.62H36a2.72,2.72,0,0,0,.92-.21v.52A1,1,0,0,1,35.93,623.73Zm5.56-.65A1.37,1.37,0,0,1,40,624.22a1.91,1.91,0,0,1,0-3.79,1.37,1.37,0,0,1,1.46,1.15h-.57a.85.85,0,0,0-.88-.64c-.66,0-1.1.54-1.1,1.37s.43,1.41,1.1,1.41a.85.85,0,0,0,.88-.64Zm.82,1.07h.56v-3.67h-.56Zm.29-4.28a.4.4,0,0,0,.4-.39.4.4,0,0,0-.8,0A.4.4,0,0,0,42.6,619.87Zm2.12.61h.78V621h-.78v2.14c0,.47.24.55.49.55l.23,0h0l.11.51a1.14,1.14,0,0,1-.42.07.94.94,0,0,1-1-1V621H43.6v-.48h.56v-.88h.56Zm4.17.82a1.25,1.25,0,0,0-1.3-.87c-.78,0-1.35.44-1.35,1.06s.3.85,1,1l.61.15c.38.08.55.26.55.51s-.33.58-.86.58a.77.77,0,0,1-.85-.6l-.54.14a1.27,1.27,0,0,0,1.4,1c.85,0,1.43-.46,1.43-1.09s-.32-.84-1-1l-.55-.13c-.43-.11-.63-.26-.63-.54s.34-.54.79-.54a.77.77,0,0,1,.79.52Zm1.75,2.46a.43.43,0,0,1-.43.43.44.44,0,0,1-.43-.43.43.43,0,0,1,.43-.43A.43.43,0,0,1,50.64,623.76Zm2.51.46a1.36,1.36,0,0,0,1.44-1.14H54a.86.86,0,0,1-.88.64c-.67,0-1.1-.56-1.1-1.41s.44-1.37,1.1-1.37a.86.86,0,0,1,.88.64h.56a1.37,1.37,0,0,0-1.45-1.15,1.91,1.91,0,0,0,0,3.79Zm5.42-1.89a1.68,1.68,0,1,1-1.67-1.9A1.69,1.69,0,0,1,58.57,622.33Zm-2.76,0c0,.74.34,1.39,1.09,1.39s1.1-.65,1.1-1.39-.34-1.39-1.1-1.39S55.81,621.6,55.81,622.33Zm3.62,1.82H60v-2.3a.87.87,0,0,1,.83-.91.68.68,0,0,1,.73.69v2.52h.57v-2.39a.77.77,0,0,1,.82-.82.68.68,0,0,1,.74.75v2.46h.57v-2.46c0-.86-.47-1.26-1.12-1.26a1.16,1.16,0,0,0-1.1.62h0a1,1,0,0,0-1-.62,1,1,0,0,0-1,.62H60v-.57h-.54Zm-46.26,8.79a1.47,1.47,0,0,1-1.66,1.37c-1,0-1.67-.57-1.66-1.37a1.22,1.22,0,0,1,.94-1.24v0a1.06,1.06,0,0,1-.76-1.09,1.35,1.35,0,0,1,1.48-1.3,1.36,1.36,0,0,1,1.48,1.3,1.08,1.08,0,0,1-.76,1.09v0A1.23,1.23,0,0,1,13.17,632.94Zm-2.74,0c0,.53.41.87,1.08.87s1.08-.34,1.08-.87a1,1,0,0,0-1.08-.94A1,1,0,0,0,10.43,632.91Zm.17-2.29a.83.83,0,0,0,.91.84.84.84,0,0,0,.91-.84.82.82,0,0,0-.91-.82A.81.81,0,0,0,10.6,630.62Zm5.06,3.69a1.48,1.48,0,0,0,1.66-1.37,1.24,1.24,0,0,0-.95-1.24v0a1.1,1.1,0,0,0,.77-1.09,1.37,1.37,0,0,0-1.48-1.3,1.35,1.35,0,0,0-1.48,1.3,1.06,1.06,0,0,0,.76,1.09v0a1.23,1.23,0,0,0-.95,1.24C14,633.74,14.67,634.31,15.66,634.31Zm0-.53c-.67,0-1.09-.34-1.08-.87a1,1,0,0,1,1.08-.94,1,1,0,0,1,1.08.94C16.73,633.44,16.32,633.78,15.66,633.78Zm0-2.32a.82.82,0,0,1-.91-.84.81.81,0,0,1,.91-.82.81.81,0,0,1,.9.82A.83.83,0,0,1,15.66,631.46Zm5.87.34c0,1.59-.62,2.51-1.7,2.51s-1.7-.92-1.7-2.51.63-2.52,1.7-2.52S21.53,630.21,21.53,631.8Zm-2.83,0c0,1.27.42,2,1.13,2s1.13-.71,1.13-2-.42-2-1.13-2S18.7,630.52,18.7,631.8Zm3.74,2.44h3.09v-.52H23.25v0l1.1-1.18c.84-.9,1.09-1.32,1.09-1.86A1.38,1.38,0,0,0,24,629.28a1.42,1.42,0,0,0-1.51,1.44H23a.87.87,0,0,1,.93-.92.85.85,0,0,1,.94.84c0,.45-.27.78-.83,1.4l-1.62,1.77Zm4-2.71h2.14v.53H26.49Zm4.69,2.78a1.47,1.47,0,0,0,1.66-1.37,1.24,1.24,0,0,0-.94-1.24v0a1.1,1.1,0,0,0,.76-1.09,1.49,1.49,0,0,0-3,0,1.06,1.06,0,0,0,.76,1.09v0a1.21,1.21,0,0,0-.94,1.24C29.51,633.74,30.19,634.31,31.18,634.31Zm0-.53c-.67,0-1.09-.34-1.08-.87a1,1,0,0,1,1.08-.94,1,1,0,0,1,1.08.94C32.25,633.44,31.84,633.78,31.18,633.78Zm0-2.32a.83.83,0,0,1-.91-.84.81.81,0,0,1,.91-.82.82.82,0,0,1,.91.82A.84.84,0,0,1,31.18,631.46ZM37,632.94a1.48,1.48,0,0,1-1.66,1.37c-1,0-1.67-.57-1.67-1.37a1.23,1.23,0,0,1,1-1.24v0a1.08,1.08,0,0,1-.77-1.09,1.5,1.5,0,0,1,3,0,1.1,1.1,0,0,1-.77,1.09v0A1.25,1.25,0,0,1,37,632.94Zm-2.74,0c0,.53.4.87,1.08.87s1.07-.34,1.08-.87a1,1,0,0,0-1.08-.94A1,1,0,0,0,34.25,632.91Zm.17-2.29a.91.91,0,0,0,1.81,0,.91.91,0,0,0-1.81,0Zm5.14,3.69a1.5,1.5,0,0,0,1.65-1.4,1.12,1.12,0,0,0-1-1.17v0a1.11,1.11,0,0,0,.8-1.11,1.35,1.35,0,0,0-1.45-1.31A1.45,1.45,0,0,0,38,630.57h.57a.9.9,0,0,1,1-.77.8.8,0,0,1,.89.82.88.88,0,0,1-1,.85h-.39V632h.39c.75,0,1.16.37,1.16.91s-.45.87-1.08.87-1-.29-1-.76h-.61A1.48,1.48,0,0,0,39.56,634.31Zm5.89-1.65a1.58,1.58,0,0,1-1.64,1.65c-.8,0-1.7-.51-1.7-2.32s.68-2.71,1.78-2.71a1.48,1.48,0,0,1,1.52,1.29h-.58a.92.92,0,0,0-.94-.76c-.76,0-1.22.69-1.22,1.88h0a1.42,1.42,0,0,1,1.2-.65A1.56,1.56,0,0,1,45.45,632.66Zm-2.7,0a1.06,1.06,0,1,0,2.12,0,1.05,1.05,0,0,0-1-1.09A1.11,1.11,0,0,0,42.75,632.67ZM48,634.31a1.51,1.51,0,0,0,1.66-1.4,1.12,1.12,0,0,0-1-1.17v0a1.1,1.1,0,0,0,.8-1.11,1.34,1.34,0,0,0-1.45-1.31,1.45,1.45,0,0,0-1.58,1.29h.58a.89.89,0,0,1,1-.77.8.8,0,0,1,.89.82.87.87,0,0,1-1,.85h-.4V632H48c.74,0,1.15.37,1.15.91s-.45.87-1.08.87-1-.29-1.05-.76h-.6C46.41,633.79,47.09,634.31,48,634.31Zm5.94-1.4a1.51,1.51,0,0,1-1.65,1.4A1.48,1.48,0,0,1,50.66,633h.61c0,.47.48.76,1,.76s1.08-.35,1.08-.87S53,632,52.24,632h-.39v-.53h.39a.87.87,0,0,0,1-.85.79.79,0,0,0-.88-.82.9.9,0,0,0-1,.77h-.57a1.45,1.45,0,0,1,1.58-1.29,1.35,1.35,0,0,1,1.45,1.31,1.11,1.11,0,0,1-.8,1.11v0A1.12,1.12,0,0,1,54,632.91Zm1,1.33H58v-.52H55.77v0l1.1-1.18c.84-.9,1.09-1.32,1.09-1.86a1.38,1.38,0,0,0-1.47-1.36A1.42,1.42,0,0,0,55,630.72h.56a.87.87,0,0,1,.93-.92.84.84,0,0,1,.93.84c0,.45-.26.78-.83,1.4L55,633.81Zm-43.62,10.1h-.56l-1.11-3.67h.59l.79,2.81h0l.78-2.81h.61l.77,2.8h0l.79-2.8h.59l-1.11,3.67H13l-.8-2.82h-.06Zm4.91,0h.56l.8-2.82h.06l.8,2.82H19l1.12-3.67h-.59l-.79,2.8h0l-.78-2.8h-.6l-.78,2.81h0l-.79-2.81h-.6Zm6,0h-.55l-1.12-3.67h.59l.8,2.81h0l.79-2.81h.6l.77,2.8h0l.8-2.8h.59l-1.12,3.67h-.55l-.81-2.82h-.05Zm4,0a.43.43,0,0,0,.43-.43.44.44,0,0,0-.43-.43.43.43,0,0,0-.43.43A.43.43,0,0,0,26.27,644.37Zm2.06,0h-.55v-4.9h.57v1.81h0v0l0,0a1.09,1.09,0,0,1,1-.58c.92,0,1.57.73,1.57,1.89s-.65,1.9-1.56,1.9a1.13,1.13,0,0,1-1.06-.61v0h-.07Zm1.06-3.22c-.69,0-1.05.56-1.05,1.38s.37,1.41,1.05,1.41,1.07-.63,1.07-1.41S30.11,641.12,29.39,641.12Zm2.5,3.22h.56V642a.87.87,0,0,1,.93-.86,1.62,1.62,0,0,1,.34,0v-.57h-.29a1,1,0,0,0-1,.61h0v-.55h-.54Zm4.67-.5a1.15,1.15,0,0,1-1.09.58,1.13,1.13,0,0,1-1.25-1.13c0-.84.74-1,1.42-1.08l.31,0h0c.45,0,.64-.07.64-.3v0a.69.69,0,0,0-.77-.75,1,1,0,0,0-1,.56l-.54-.19a1.5,1.5,0,0,1,1.48-.86,1.2,1.2,0,0,1,1.35,1.3v2.42h-.56v-.5Zm-1.78-.52c0,.39.33.6.78.6a.94.94,0,0,0,1-.91v-.52a2.47,2.47,0,0,1-.92.2h-.06C35.18,642.76,34.78,642.89,34.78,643.32Zm4.89,1.09a1.36,1.36,0,0,0,1.45-1.14h-.57a.85.85,0,0,1-.88.64c-.66,0-1.09-.56-1.09-1.41s.43-1.38,1.09-1.38a.86.86,0,0,1,.88.64h.57a1.38,1.38,0,0,0-1.46-1.14,1.91,1.91,0,0,0,0,3.79Zm2.84-.07h-.57v-3.67h.57Zm.12-4.67a.4.4,0,1,1-.4-.38A.39.39,0,0,1,42.63,639.67Zm2.51,1h-.79v-.88h-.56v.88h-.56v.47h.56v2.3a.93.93,0,0,0,1,.94,1.15,1.15,0,0,0,.42-.06l-.11-.51h0a1,1,0,0,1-.23,0c-.25,0-.49-.08-.49-.56v-2.14h.79Zm2.08,0a1.25,1.25,0,0,1,1.3.87l-.51.14a.77.77,0,0,0-.79-.52c-.45,0-.79.22-.79.54s.2.43.63.54l.55.13c.65.16,1,.48,1,1s-.58,1.1-1.43,1.1a1.25,1.25,0,0,1-1.39-.95l.53-.14a.77.77,0,0,0,.85.6c.53,0,.86-.26.86-.58s-.17-.43-.54-.51l-.62-.15c-.67-.16-1-.49-1-1S46.44,640.62,47.22,640.62Zm2.62,3.75a.43.43,0,0,0,.43-.43.43.43,0,0,0-.43-.43.44.44,0,0,0-.43.43A.43.43,0,0,0,49.84,644.37Zm2.94,0a1.91,1.91,0,0,1,0-3.79,1.36,1.36,0,0,1,1.45,1.14h-.56a.88.88,0,0,0-.88-.64c-.66,0-1.1.55-1.1,1.38s.43,1.41,1.1,1.41a.86.86,0,0,0,.88-.64h.56A1.35,1.35,0,0,1,52.78,644.41Zm3.76,0a1.91,1.91,0,1,0-1.67-1.89A1.69,1.69,0,0,0,56.54,644.41Zm0-.5c-.76,0-1.1-.65-1.1-1.39s.34-1.4,1.1-1.4,1.1.66,1.1,1.4S57.29,643.91,56.54,643.91Zm3.08.43h-.56v-3.67h.55v.57h0a1.09,1.09,0,0,1,2,0h0a1.16,1.16,0,0,1,1.1-.62c.65,0,1.12.4,1.12,1.26v2.46h-.57v-2.46a.69.69,0,0,0-.74-.76.77.77,0,0,0-.81.83v2.39h-.58v-2.52a.68.68,0,0,0-.72-.7.88.88,0,0,0-.84.92ZM44.71,684.07h.51l-1.57,5.86h-.52Zm-32.66.17A2,2,0,0,1,14.18,686h-1a1,1,0,0,0-1.05-.87c-.76,0-1.26.58-1.26,1.6s.51,1.6,1.25,1.6a1,1,0,0,0,1.06-.83h1a2,2,0,0,1-2.13,1.73,2.52,2.52,0,0,1,0-5Zm2.87,5v-4.9H16.2l1.34,3.29h.06L19,684.3h1.28v4.9h-1V686h0l-1.26,3.16h-.69L16,686h-.05v3.2Zm6.16-4.9v4.9h1V686h0l1.27,3.17h.68L25.34,686h0v3.19h1v-4.9H25.11l-1.35,3.29H23.7l-1.35-3.29Zm6.16,0h1v4.9h-1Zm3.56,4.9a2.19,2.19,0,0,0,2.33-2.46,2.16,2.16,0,0,0-2.26-2.44H29.29v4.9Zm-.92-.53v-3.84h.95c1.15,0,1.73.73,1.73,1.91s-.58,1.93-1.8,1.93Zm6.63-.48.54.16a1.43,1.43,0,0,1-1.46.92,1.68,1.68,0,0,1-1.71-1.88,1.7,1.7,0,0,1,1.65-1.91c.77,0,1.58.47,1.58,1.83v.24H34.44a1.12,1.12,0,0,0,1.15,1.22A.9.9,0,0,0,36.51,688.19Zm-1-2.2a1.1,1.1,0,0,0-1.09,1.08h2.09A1,1,0,0,0,35.53,686Zm5.33-.46h-.62l-1,2.92h0l-1-2.92h-.61l1.35,3.67h.58Zm8.61,3.73c1.1,0,1.89-.6,1.89-1.44a1.11,1.11,0,0,0-1.11-1.13v0a1,1,0,0,0,.92-1c0-.78-.67-1.38-1.68-1.38a1.59,1.59,0,0,0-1.78,1.43h1a.69.69,0,0,1,.77-.61.63.63,0,0,1,.7.62c0,.38-.33.64-.8.64h-.45v.76h.45c.56,0,.9.28.9.67s-.33.66-.8.66-.8-.24-.82-.6h-1C47.63,688.67,48.4,689.26,49.47,689.26Zm-34.41,6.36h-.57c-.06-.48-.51-.76-1.1-.76s-1.08.34-1.08.81.58.72.94.81l.5.13c.51.14,1.38.43,1.38,1.35s-.64,1.42-1.77,1.42-1.7-.55-1.76-1.35h.61c0,.55.57.81,1.15.81s1.19-.35,1.19-.89-.46-.67-1-.81L13,697c-.77-.22-1.25-.61-1.25-1.27,0-.83.74-1.37,1.68-1.37A1.49,1.49,0,0,1,15.06,695.62Zm-5-1.22h.59v4.89H10Zm10.2,2.44a2.19,2.19,0,1,0-2.16,2.52A2.23,2.23,0,0,0,20.23,696.84Zm-.57,0c0,1.27-.7,2-1.59,2s-1.59-.69-1.59-2,.7-2,1.59-2S19.66,695.57,19.66,696.84Zm6.75,2.45H22.92v-.74l1.75-1.62c.44-.43.68-.69.68-1.08a.75.75,0,0,0-1.49,0h-1a1.55,1.55,0,0,1,1.73-1.57c1,0,1.74.6,1.74,1.45,0,.55-.27,1-1.28,1.93l-.71.7v0h2.05Zm.95,0h1.06l2-4v-.85H27v.84h2.36v0ZM35,696.85c0,1.61-.74,2.55-2,2.55s-2-.94-2-2.55.75-2.52,2-2.52S35,695.25,35,696.85Zm-2.89,0c0,1.13.36,1.69.92,1.69s.92-.56.92-1.69-.37-1.67-.92-1.67S32.06,695.74,32.06,696.85Zm5.55,2.55c1.23,0,2-.94,2-2.55s-.75-2.52-2-2.52-2,.91-2,2.52S36.38,699.4,37.61,699.4Zm0-.86c-.56,0-.92-.56-.92-1.69s.36-1.67.92-1.67.92.56.92,1.67S38.17,698.54,37.61,698.54Zm3.87-4.14h1v4.89h-1v-3.91h0l-1.12.7v-.92Zm-16.79,10a1.68,1.68,0,0,0-1.82,1.7,1.49,1.49,0,0,0,1.5,1.58A1.36,1.36,0,0,0,25.6,707h0c0,1-.34,1.56-1,1.56a.7.7,0,0,1-.73-.57h-1a1.66,1.66,0,0,0,1.75,1.45c1.21,0,2-1,2-2.64S25.7,704.43,24.69,704.42Zm0,.82a.85.85,0,0,1,0,1.7.85.85,0,0,1,0-1.7Zm-10.21.47h.57a1.49,1.49,0,0,0-1.65-1.29,1.5,1.5,0,0,0-1.68,1.37c0,.66.48,1.05,1.25,1.27l.6.17c.51.15,1,.33,1,.82s-.51.89-1.19.89-1.1-.26-1.15-.82H11.6c.06.81.71,1.35,1.76,1.35s1.77-.62,1.77-1.41-.87-1.22-1.38-1.35l-.5-.14c-.36-.09-.94-.28-.94-.81s.43-.81,1.08-.81S14.43,705.23,14.49,705.71Zm-3.87-1.22H10v4.9h.59Zm7.45-.07a2.54,2.54,0,1,1-2.16,2.52A2.23,2.23,0,0,1,18.07,704.42Zm0,4.48c.89,0,1.59-.69,1.59-2s-.7-2-1.59-2-1.59.69-1.59,2S17.18,708.9,18.07,708.9Zm13.19-2c0,1.62-.74,2.55-2,2.55s-2-.94-2-2.55.75-2.52,2-2.52S31.26,705.34,31.26,706.94Zm-2.9,0c0,1.13.36,1.69.92,1.69s.93-.56.92-1.69-.36-1.67-.92-1.67S28.36,705.83,28.36,706.94Zm5.56,2.55c1.23,0,2-.93,2-2.55s-.75-2.52-2-2.52-2,.92-2,2.52S32.68,709.49,33.92,709.49Zm0-.86c-.56,0-.93-.56-.92-1.69s.36-1.67.92-1.67.92.56.92,1.67S34.48,708.63,33.92,708.63Zm3.87-4.14h1v4.9h-1v-3.92h0l-1.12.71v-.92Z"/></svg>