<svg width="260" height="200" viewBox="0 0 260 200" fill="none" xmlns="http://www.w3.org/2000/svg">
<path d="M17.6668 133.913C12.6193 133.913 8.5332 129.827 8.5332 124.779C8.5332 119.732 12.6193 115.646 17.6668 115.646C22.7144 115.646 26.8005 119.732 26.8005 124.779C26.8005 129.827 22.7144 133.913 17.6668 133.913ZM17.6668 117.088C13.4365 117.088 9.97536 120.549 9.97536 124.779C9.97536 129.009 13.4365 132.471 17.6668 132.471C21.8972 132.471 25.3583 129.009 25.3583 124.779C25.3583 120.549 21.8972 117.088 17.6668 117.088Z" fill="#789"/>
<path d="M11.6574 123.457C5.23983 123.457 0 118.218 0 111.8C0 105.382 5.23983 100.143 11.6574 100.143C18.075 100.143 23.3148 105.382 23.3148 111.8C23.3148 118.218 18.075 123.457 11.6574 123.457ZM11.6574 101.585C6.03301 101.585 1.44215 106.176 1.44215 111.8C1.44215 117.424 6.03301 122.015 11.6574 122.015C17.2818 122.015 21.8727 117.424 21.8727 111.8C21.8727 106.176 17.2818 101.585 11.6574 101.585Z" fill="#789"/>
<path d="M75.1336 64.9398H73.6915V57.2484H64.0771V48.8358H54.7031V39.7021H56.1453V47.3936H65.5193V55.8062H75.1336V64.9398Z" fill="#789"/>
<path d="M257.153 147.339H238.309L247.731 131.066L257.153 147.339ZM240.808 145.897H254.653L247.731 133.951L240.808 145.897Z" fill="#789"/>
<path d="M259.556 140.368H235.904L247.73 119.938L259.556 140.368ZM238.404 138.926H257.056L247.73 122.822L238.404 138.926Z" fill="#789"/>
<path d="M66.0272 199.998H43.6738V192.787H66.0272V199.998ZM45.116 198.556H64.5851V194.229H45.116V198.556Z" fill="#789"/>
<path d="M209.512 59.9678H247.008V67.7794C247.008 76.2641 240.133 82.8259 231.625 82.8259L209.512 82.5856V59.9678Z" fill="white"/>
<path d="M231.625 83.5474L208.791 83.307V59.2471H247.729V67.7798C247.729 76.625 240.663 83.5474 231.625 83.5474ZM210.233 81.8889L231.649 82.1292C239.869 82.1292 246.311 75.8318 246.311 67.8039V60.7133H210.257V81.8889H210.233Z" fill="#789"/>
<path d="M178.797 16.5822L197.713 16.3418C206.582 16.3418 213.769 24.0092 213.769 32.8785V66.0721C213.769 66.0721 213.481 83.426 232.012 83.1135L178.797 83.3539V16.5822Z" fill="#789"/>
<path d="M197.23 17.1115C197.23 17.1115 180.213 17.4961 180.549 35.475V151.04C180.549 160.293 173.05 167.817 163.772 167.817L90.0059 167.576V35.1865C90.0059 25.1876 98.13 17.0635 108.129 17.0635L197.23 17.1115Z" fill="white"/>
<path d="M163.798 168.537L89.3105 168.297V35.1863C89.3105 30.1628 91.2815 25.4277 94.8388 21.8704C98.3961 18.3131 103.131 16.3662 108.155 16.3662L197.256 16.3902L197.28 17.8324C197.208 17.8324 193.097 17.9766 189.108 20.212C183.796 23.1924 181.176 28.3121 181.32 35.4748V151.063C181.296 160.678 173.436 168.537 163.798 168.537ZM90.7527 166.855L163.798 167.095C172.643 167.095 179.854 159.885 179.854 151.039V35.4748C179.685 25.8364 184.421 21.1494 188.435 18.914C189.204 18.4814 189.997 18.1208 190.742 17.8324L108.155 17.7843C103.516 17.7843 99.1412 19.587 95.8482 22.8799C92.5553 26.1729 90.7527 30.5234 90.7527 35.1863V166.855Z" fill="#789"/>
<path d="M58.6641 144.862V151.496C58.6641 160.774 66.1873 168.297 75.4651 168.297H164.158C164.158 168.297 146.587 166.663 149.255 144.886H58.6641V144.862Z" fill="#789"/>
<path d="M159.468 59.8477H105.146V61.2898H159.468V59.8477Z" fill="#789"/>
<path d="M167.88 69.7031H105.146V71.1453H167.88V69.7031Z" fill="#789"/>
<path d="M133.028 79.3164H105.146V80.7586H133.028V79.3164Z" fill="#789"/>
<path d="M150.815 91.5752H105.146V93.0173H150.815V91.5752Z" fill="#789"/>
<path d="M164.036 102.872H105.148V104.314H164.036V102.872Z" fill="#789"/>
<path d="M133.03 112.727H105.148V114.169H133.03V112.727Z" fill="#789"/>
<path d="M189.519 196.392C206.114 196.392 219.566 182.939 219.566 166.344C219.566 149.749 206.114 136.296 189.519 136.296C172.924 136.296 159.471 149.749 159.471 166.344C159.471 182.939 172.924 196.392 189.519 196.392Z" fill="#789"/>
<path d="M191.651 196.392C208.246 196.392 221.699 182.939 221.699 166.344C221.699 149.749 208.246 136.296 191.651 136.296C175.056 136.296 161.604 149.749 161.604 166.344C161.604 182.939 175.056 196.392 191.651 196.392Z" fill="white"/>
<path d="M191.653 196.854C174.821 196.854 161.127 183.16 161.127 166.328C161.127 149.497 174.821 135.803 191.653 135.803C208.484 135.803 222.178 149.497 222.178 166.328C222.178 183.16 208.484 196.854 191.653 196.854ZM191.653 136.774C175.347 136.774 162.082 150.038 162.082 166.344C162.082 182.65 175.347 195.914 191.653 195.914C207.958 195.914 221.223 182.634 221.223 166.344C221.223 150.038 207.958 136.774 191.653 136.774Z" fill="#789"/>
<path d="M116.686 42.5437V34.5026H119.552C120.177 34.5026 120.696 34.6165 121.107 34.8442C121.518 35.0719 121.825 35.3834 122.029 35.7787C122.233 36.1713 122.336 36.6137 122.336 37.1058C122.336 37.6005 122.232 38.0455 122.025 38.4407C121.821 38.8334 121.512 39.1448 121.099 39.3752C120.688 39.6029 120.171 39.7168 119.548 39.7168H117.577V38.6881H119.438C119.833 38.6881 120.154 38.62 120.4 38.4839C120.646 38.3452 120.827 38.1567 120.942 37.9185C121.057 37.6803 121.114 37.4094 121.114 37.1058C121.114 36.8021 121.057 36.5325 120.942 36.2969C120.827 36.0614 120.645 35.8768 120.396 35.7433C120.15 35.6098 119.825 35.5431 119.422 35.5431H117.899V42.5437H116.686Z" fill="#789"/>
<path d="M125.365 42.6772C124.983 42.6772 124.637 42.6065 124.328 42.4652C124.019 42.3212 123.775 42.1131 123.594 41.8409C123.416 41.5687 123.327 41.2349 123.327 40.8397C123.327 40.4994 123.392 40.2193 123.523 39.9995C123.654 39.7796 123.831 39.6055 124.053 39.4773C124.276 39.349 124.524 39.2522 124.799 39.1867C125.074 39.1213 125.354 39.0715 125.64 39.0375C126.001 38.9956 126.294 38.9616 126.519 38.9354C126.744 38.9066 126.908 38.8608 127.01 38.798C127.112 38.7352 127.163 38.6331 127.163 38.4918V38.4643C127.163 38.1214 127.066 37.8557 126.872 37.6672C126.681 37.4788 126.396 37.3845 126.016 37.3845C125.621 37.3845 125.31 37.4722 125.082 37.6476C124.857 37.8204 124.701 38.0128 124.615 38.2248L123.511 37.9735C123.642 37.607 123.833 37.3112 124.085 37.0861C124.339 36.8584 124.63 36.6935 124.96 36.5914C125.29 36.4867 125.637 36.4344 126.001 36.4344C126.242 36.4344 126.497 36.4632 126.766 36.5207C127.039 36.5757 127.292 36.6778 127.528 36.827C127.766 36.9762 127.961 37.1895 128.113 37.467C128.265 37.7418 128.341 38.0991 128.341 38.5389V42.5437H127.194V41.7192H127.147C127.071 41.871 126.957 42.0202 126.806 42.1668C126.654 42.3134 126.459 42.4351 126.221 42.5319C125.982 42.6288 125.697 42.6772 125.365 42.6772ZM125.62 41.7349C125.944 41.7349 126.222 41.6708 126.452 41.5425C126.685 41.4143 126.862 41.2467 126.982 41.0399C127.105 40.8305 127.167 40.6067 127.167 40.3685V39.5911C127.125 39.633 127.044 39.6723 126.923 39.7089C126.806 39.7429 126.671 39.7731 126.519 39.7992C126.367 39.8228 126.219 39.845 126.075 39.866C125.931 39.8843 125.811 39.9 125.714 39.9131C125.486 39.9419 125.278 39.9903 125.09 40.0584C124.904 40.1264 124.755 40.2246 124.642 40.3528C124.532 40.4785 124.477 40.646 124.477 40.8554C124.477 41.146 124.585 41.3658 124.799 41.515C125.014 41.6616 125.287 41.7349 125.62 41.7349Z" fill="#789"/>
<path d="M130.431 44.8053C130.255 44.8053 130.096 44.7909 129.952 44.7621C129.808 44.7359 129.7 44.7071 129.63 44.6757L129.912 43.7138C130.127 43.7714 130.318 43.7962 130.486 43.7884C130.653 43.7805 130.801 43.7177 130.929 43.5999C131.06 43.4821 131.175 43.2897 131.275 43.0227L131.42 42.6222L129.213 36.5129H130.47L131.997 41.1931H132.06L133.587 36.5129H134.848L132.362 43.3486C132.247 43.6627 132.101 43.9284 131.923 44.1457C131.745 44.3655 131.533 44.5304 131.287 44.6404C131.04 44.7503 130.755 44.8053 130.431 44.8053Z" fill="#789"/>
<path d="M140.47 37.9853L139.406 38.1737C139.362 38.0376 139.291 37.908 139.194 37.785C139.1 37.662 138.972 37.5612 138.809 37.4827C138.647 37.4042 138.444 37.3649 138.201 37.3649C137.868 37.3649 137.591 37.4395 137.368 37.5887C137.146 37.7353 137.035 37.9251 137.035 38.158C137.035 38.3596 137.109 38.5219 137.258 38.6449C137.408 38.7679 137.648 38.8687 137.981 38.9472L138.939 39.1671C139.494 39.2953 139.907 39.493 140.18 39.76C140.452 40.027 140.588 40.3738 140.588 40.8004C140.588 41.1617 140.483 41.4836 140.274 41.7663C140.067 42.0464 139.778 42.2663 139.406 42.4259C139.037 42.5856 138.609 42.6654 138.122 42.6654C137.447 42.6654 136.896 42.5215 136.469 42.2335C136.043 41.943 135.781 41.5307 135.684 40.9968L136.819 40.824C136.889 41.1198 137.035 41.3436 137.255 41.4954C137.474 41.6446 137.761 41.7192 138.114 41.7192C138.499 41.7192 138.807 41.6394 139.037 41.4797C139.267 41.3174 139.383 41.1198 139.383 40.8868C139.383 40.6984 139.312 40.54 139.171 40.4117C139.032 40.2835 138.819 40.1866 138.531 40.1212L137.51 39.8974C136.947 39.7691 136.531 39.565 136.261 39.2849C135.994 39.0048 135.861 38.6501 135.861 38.2208C135.861 37.8649 135.96 37.5534 136.159 37.2864C136.358 37.0194 136.633 36.8113 136.984 36.6621C137.334 36.5103 137.736 36.4344 138.189 36.4344C138.841 36.4344 139.354 36.5757 139.728 36.8584C140.102 37.1385 140.35 37.5141 140.47 37.9853Z" fill="#789"/>
<path d="M143.053 34.5026V42.5437H141.879V34.5026H143.053Z" fill="#789"/>
<path d="M144.632 42.5437V36.5129H145.806V42.5437H144.632ZM145.225 35.5824C145.021 35.5824 144.845 35.5143 144.699 35.3782C144.555 35.2395 144.483 35.0746 144.483 34.8835C144.483 34.6898 144.555 34.5249 144.699 34.3888C144.845 34.25 145.021 34.1807 145.225 34.1807C145.429 34.1807 145.603 34.25 145.747 34.3888C145.894 34.5249 145.967 34.6898 145.967 34.8835C145.967 35.0746 145.894 35.2395 145.747 35.3782C145.603 35.5143 145.429 35.5824 145.225 35.5824Z" fill="#789"/>
<path d="M147.385 44.8053V36.5129H148.532V37.4906H148.63C148.698 37.3649 148.796 37.2196 148.925 37.0547C149.053 36.8898 149.231 36.7459 149.459 36.6228C149.686 36.4972 149.987 36.4344 150.362 36.4344C150.848 36.4344 151.283 36.5574 151.665 36.8034C152.047 37.0495 152.347 37.4042 152.564 37.8675C152.784 38.3308 152.894 38.8883 152.894 39.5401C152.894 40.1919 152.785 40.7507 152.568 41.2166C152.351 41.6799 152.053 42.0372 151.673 42.2885C151.293 42.5372 150.86 42.6615 150.373 42.6615C150.007 42.6615 149.707 42.6 149.474 42.477C149.244 42.3539 149.063 42.21 148.932 42.0451C148.802 41.8802 148.701 41.7336 148.63 41.6053H148.559V44.8053H147.385ZM148.536 39.5283C148.536 39.9524 148.597 40.324 148.72 40.6434C148.843 40.9627 149.021 41.2127 149.254 41.3933C149.487 41.5713 149.773 41.6603 150.11 41.6603C150.461 41.6603 150.754 41.5674 150.99 41.3815C151.225 41.1931 151.403 40.9379 151.524 40.6159C151.647 40.2939 151.708 39.9314 151.708 39.5283C151.708 39.1304 151.648 38.7731 151.528 38.4564C151.41 38.1397 151.232 37.8897 150.994 37.7065C150.758 37.5233 150.464 37.4317 150.11 37.4317C149.77 37.4317 149.482 37.5193 149.247 37.6947C149.014 37.8701 148.837 38.1148 148.716 38.4289C148.596 38.743 148.536 39.1095 148.536 39.5283Z" fill="#789"/>
<path fill-rule="evenodd" clip-rule="evenodd" d="M245.007 3.21161L244.107 5.91619C243.793 6.86062 242.91 7.49789 241.915 7.49789H239.093L241.33 9.08599C242.158 9.67429 242.505 10.7348 242.185 11.6991L241.314 14.3187L243.669 12.6465C244.47 12.0777 245.543 12.0777 246.344 12.6465L248.7 14.3187L247.829 11.6991C247.508 10.7348 247.855 9.67428 248.684 9.08599L250.92 7.49789H248.099C247.103 7.49789 246.22 6.86062 245.906 5.91619L245.007 3.21161ZM245.738 0.527233C245.504 -0.175745 244.509 -0.175744 244.276 0.527234L242.646 5.43018C242.541 5.74499 242.247 5.95741 241.915 5.95741H236.678C235.928 5.95741 235.62 6.92123 236.232 7.35568L240.438 10.3421C240.714 10.5382 240.83 10.8917 240.723 11.2131L239.109 16.0666C238.874 16.7732 239.679 17.3687 240.286 16.9377L244.561 13.9026C244.828 13.713 245.186 13.713 245.453 13.9026L249.727 16.9377C250.334 17.3687 251.139 16.7732 250.904 16.0666L249.29 11.2131C249.184 10.8917 249.299 10.5382 249.575 10.3421L253.781 7.35568C254.393 6.92123 254.086 5.95741 253.335 5.95741H248.099C247.767 5.95741 247.472 5.74499 247.368 5.43018L245.738 0.527233Z" fill="#789"/>
<path d="M205.023 160.816V164.114H189.17V176.76C189.17 178.196 189.353 179.173 189.72 179.692C190.117 180.212 190.88 180.471 192.011 180.471C192.927 180.471 193.843 180.273 194.76 179.876C195.706 179.479 196.546 178.944 197.28 178.272C198.043 177.6 198.654 176.836 199.112 175.981C199.57 175.095 199.799 174.194 199.799 173.278C199.799 172.545 199.586 171.98 199.158 171.583C198.761 171.186 198.104 170.987 197.188 170.987C196.363 170.987 195.6 171.079 194.897 171.262L194.439 168.146C194.958 167.994 195.508 167.887 196.088 167.826C196.699 167.734 197.31 167.688 197.921 167.688C199.54 167.688 200.853 168.101 201.861 168.925C202.9 169.719 203.419 171.018 203.419 172.82C203.419 174.225 203.083 175.584 202.411 176.898C201.77 178.18 200.899 179.341 199.799 180.38C198.7 181.388 197.463 182.182 196.088 182.762C194.714 183.342 193.309 183.633 191.873 183.633C190.743 183.633 189.811 183.51 189.078 183.266C188.345 182.991 187.734 182.625 187.246 182.167C186.94 181.861 186.665 181.525 186.421 181.159C186.176 180.761 185.978 180.242 185.825 179.601C185.703 178.929 185.642 178.043 185.642 176.943V164.114H181.198V160.816H205.023ZM183.488 149.315C184.374 149.315 185.138 149.438 185.779 149.682C186.451 149.926 187.016 150.293 187.475 150.782C188.024 151.362 188.437 152.156 188.712 153.164C189.017 154.142 189.17 155.531 189.17 157.333V161.182H185.642V157.517C185.642 156.448 185.566 155.562 185.413 154.859C185.291 154.126 185 153.576 184.542 153.21C184.084 152.813 183.397 152.614 182.481 152.614C181.9 152.614 181.32 152.706 180.739 152.889C180.19 153.042 179.716 153.195 179.319 153.347L178.082 150.507C178.998 150.11 179.884 149.819 180.739 149.636C181.625 149.422 182.542 149.315 183.488 149.315Z" fill="#789"/>
</svg>
