<svg width="304" height="200" viewBox="0 0 304 200" fill="none" xmlns="http://www.w3.org/2000/svg">
<path d="M230.129 47.7344H271.156V56.2817C271.156 65.5654 263.634 72.7452 254.324 72.7452L230.129 72.4822V47.7344Z" fill="white"/>
<path d="M254.322 73.5341L229.338 73.2711V46.9453H271.943V56.2816C271.943 65.9599 264.211 73.5341 254.322 73.5341ZM230.916 71.7195L254.349 71.9824C263.343 71.9824 270.391 65.092 270.391 56.3079V48.5496H230.942V71.7195H230.916Z" fill="#789"/>
<path d="M196.518 0.262995L217.215 0C226.92 0 234.783 8.38954 234.783 18.0941V54.4137C234.783 54.4137 234.468 73.4019 254.745 73.06L196.518 73.323V0.262995Z" fill="#789"/>
<path d="M216.689 0.841661C216.689 0.841661 198.069 1.26245 198.437 20.9345V147.383C198.437 157.508 190.232 165.74 180.08 165.74L99.3672 165.477V20.6189C99.3672 9.67829 108.256 0.789062 119.197 0.789062L216.689 0.841661Z" fill="white"/>
<path d="M180.106 166.529L98.6035 166.266V20.6189C98.6035 15.1223 100.76 9.94128 104.652 6.04895C108.545 2.15663 113.726 0.0263672 119.222 0.0263672L216.715 0.0526663L216.741 1.63064C216.662 1.63064 212.165 1.78844 207.799 4.23429C201.987 7.49543 199.12 13.0972 199.278 20.9345V147.409C199.252 157.929 190.652 166.529 180.106 166.529ZM100.181 164.688L180.106 164.951C189.784 164.951 197.674 157.061 197.674 147.382V20.9345C197.49 10.3884 202.671 5.25997 207.063 2.81411C207.904 2.34072 208.772 1.94623 209.587 1.63064L119.222 1.57804C114.146 1.57804 109.36 3.5505 105.757 7.15353C102.154 10.7566 100.181 15.5168 100.181 20.6189V164.688Z" fill="#789"/>
<path d="M65.0723 140.624V147.883C65.0723 158.034 73.304 166.266 83.4556 166.266H180.501C180.501 166.266 161.276 164.478 164.195 140.65H65.0723V140.624Z" fill="#789"/>
<path d="M123.43 36.2934H109.229V23.9326H123.43V36.2934ZM110.806 34.7154H121.852V25.5106H110.806V34.7154Z" fill="#789"/>
<path d="M116.514 33.9783L111.938 28.7973L113.121 27.7453L116.408 31.5061L123.72 21.749L124.982 22.6958L116.514 33.9783Z" fill="#789"/>
<path d="M166.165 23.9326H133.686V25.5106H166.165V23.9326Z" fill="#789"/>
<path d="M184.444 34.8467H133.686V36.4246H184.444V34.8467Z" fill="#789"/>
<path d="M123.43 70.4828H109.229V58.1221H123.43V70.4828ZM110.806 68.9049H121.852V59.7H110.806V68.9049Z" fill="#789"/>
<path d="M116.514 68.1677L111.938 62.9867L113.121 61.9348L116.408 65.6956L123.72 55.9385L124.982 56.8853L116.514 68.1677Z" fill="#789"/>
<path d="M166.165 58.1221H133.686V59.7H166.165V58.1221Z" fill="#789"/>
<path d="M184.444 69.0361H133.686V70.6141H184.444V69.0361Z" fill="#789"/>
<path d="M123.43 104.672H109.229V92.3115H123.43V104.672ZM110.806 103.094H121.852V93.8895H110.806V103.094Z" fill="#789"/>
<path d="M166.169 92.3115H133.689V93.8895H166.169V92.3115Z" fill="#789"/>
<path d="M184.448 103.226H133.689V104.804H184.448V103.226Z" fill="#789"/>
<path d="M217.836 195.206C238.166 195.206 254.648 178.724 254.648 158.393C254.648 138.062 238.166 121.581 217.836 121.581C197.505 121.581 181.023 138.062 181.023 158.393C181.023 178.724 197.505 195.206 217.836 195.206Z" fill="#789"/>
<path d="M214.935 175.569V141.691H220.684V175.569H214.935ZM200.871 161.505V155.756H234.749V161.505H200.871Z" fill="white"/>
<path d="M23.7433 126.687C16.96 126.687 11.4688 121.196 11.4688 114.412C11.4688 107.629 16.96 102.138 23.7433 102.138C30.5267 102.138 36.0179 107.629 36.0179 114.412C36.0179 121.196 30.5267 126.687 23.7433 126.687ZM23.7433 104.076C18.0583 104.076 13.4068 108.727 13.4068 114.412C13.4068 120.097 18.0583 124.749 23.7433 124.749C29.4284 124.749 34.0798 120.097 34.0798 114.412C34.0798 108.727 29.4284 104.076 23.7433 104.076Z" fill="#789"/>
<path d="M15.6663 112.635C7.04174 112.635 0 105.594 0 96.969C0 88.3445 7.04174 81.3027 15.6663 81.3027C24.2908 81.3027 31.3325 88.3445 31.3325 96.969C31.3325 105.594 24.2908 112.635 15.6663 112.635ZM15.6663 83.2408C8.10769 83.2408 1.93809 89.4104 1.93809 96.969C1.93809 104.528 8.10769 110.697 15.6663 110.697C23.2248 110.697 29.3944 104.528 29.3944 96.969C29.3944 89.4104 23.2248 83.2408 15.6663 83.2408Z" fill="#789"/>
<path d="M76.427 33.9957H74.4889V23.6592H61.5683V12.3537H48.9707V0.0791016H50.9088V10.4156H63.5064V21.7211H76.427V33.9957Z" fill="#789"/>
<path d="M300.401 130.792H275.076L287.738 108.924L300.401 130.792ZM278.436 128.854H297.041L287.738 112.8L278.436 128.854Z" fill="#789"/>
<path d="M303.631 121.424H271.846L287.738 93.9678L303.631 121.424ZM275.205 119.486H300.271L287.738 97.844L275.205 119.486Z" fill="#789"/>
<path d="M95.0873 200H65.0469V190.31H95.0873V200ZM66.985 198.062H93.1492V192.248H66.985V198.062Z" fill="#789"/>
</svg>
