<?xml version="1.0" standalone="no"?>
<!DOCTYPE svg PUBLIC "-//W3C//DTD SVG 20010904//EN"
 "http://www.w3.org/TR/2001/REC-SVG-20010904/DTD/svg10.dtd">
<svg version="1.0" xmlns="http://www.w3.org/2000/svg"
 width="3712.000000pt" height="3712.000000pt" viewBox="0 0 3712.000000 3712.000000"
 preserveAspectRatio="xMidYMid meet">
<metadata>
Created by potrace 1.14, written by Peter Selinger 2001-2017
</metadata>
<g transform="translate(0.000000,3712.000000) scale(0.100000,-0.100000)"
fill="#000000" stroke="none">
<path d="M3 20263 c3 -1528 7 -2796 10 -2818 13 -80 19 -131 20 -157 0 -16 5
-28 9 -28 5 0 6 -4 3 -10 -5 -8 4 -68 30 -205 22 -119 98 -397 125 -460 5 -11
18 -47 30 -80 11 -33 24 -69 29 -80 5 -11 19 -45 31 -75 35 -84 140 -298 179
-365 20 -33 34 -63 33 -67 -1 -5 2 -8 7 -8 5 0 14 -14 21 -31 7 -17 18 -36 24
-42 7 -7 23 -30 36 -52 50 -82 207 -293 290 -388 162 -187 370 -381 545 -511
22 -17 42 -33 45 -36 8 -9 230 -155 273 -179 20 -11 54 -31 75 -42 79 -45 272
-139 350 -170 109 -44 126 -51 144 -60 10 -5 27 -9 37 -9 11 0 23 -4 26 -10 3
-5 15 -10 26 -10 10 0 27 -4 37 -9 49 -24 301 -87 432 -107 19 -3 46 -7 60
-10 44 -9 91 -15 245 -30 161 -16 532 -8 675 15 30 5 58 7 63 4 4 -2 7 -1 7 4
0 4 17 9 38 10 20 0 47 3 58 6 12 3 37 8 55 11 63 10 127 25 159 36 14 5 39
11 55 14 17 3 53 12 80 21 28 9 57 18 65 20 41 10 229 78 260 95 19 10 38 19
43 19 31 3 398 188 417 210 3 3 25 17 50 30 25 14 51 31 58 38 7 7 17 13 21
13 4 0 17 9 28 20 12 11 27 21 34 22 7 2 20 10 29 18 9 8 27 22 40 30 12 8 34
25 48 38 14 12 28 22 31 22 4 0 21 13 38 28 17 16 52 46 79 68 104 84 231 208
343 333 36 41 71 79 76 85 44 49 185 235 185 245 0 5 3 11 8 13 11 5 72 95 72
107 0 6 5 11 10 11 6 0 10 6 10 14 0 8 4 16 8 18 21 9 198 343 266 503 10 22
21 49 26 60 20 46 86 230 95 265 1 3 4 12 8 20 13 34 71 258 81 311 1 8 5 23
9 34 3 11 8 38 12 59 3 21 8 48 10 60 3 12 7 37 9 56 3 19 7 51 10 70 16 104
25 199 31 330 2 58 5 107 6 110 5 19 3 118 -4 133 -5 10 -4 17 3 17 6 0 9 4 5
10 -3 5 -8 58 -10 117 -4 106 -10 183 -20 253 -3 19 -7 51 -9 70 -9 66 -17
115 -32 190 -9 41 -18 84 -20 95 -2 11 -6 31 -9 45 -4 14 -8 36 -11 50 -3 14
-11 45 -19 70 -13 46 -36 127 -41 145 -6 22 -61 177 -86 240 -73 189 -173 390
-280 566 -24 38 -47 79 -53 89 -5 11 -13 20 -17 20 -5 0 -8 7 -8 15 0 8 -4 15
-10 15 -5 0 -10 5 -10 10 0 6 -9 20 -20 32 -11 12 -20 28 -20 35 0 7 -4 13 -8
13 -5 0 -33 34 -62 75 -29 41 -56 75 -60 75 -4 0 -11 9 -16 19 -22 47 -290
326 -423 441 -132 114 -387 300 -411 300 -5 0 -10 3 -10 8 0 4 -21 19 -47 32
-27 14 -49 28 -51 33 -2 4 -10 7 -18 7 -8 0 -14 5 -14 11 0 5 -4 8 -9 4 -5 -3
-12 -1 -16 5 -11 18 -367 188 -410 196 -5 1 -28 10 -50 20 -22 10 -42 18 -45
19 -43 11 -97 28 -105 33 -5 4 -19 8 -30 9 -11 2 -29 7 -40 12 -11 5 -42 14
-70 21 -27 7 -61 16 -75 20 -14 5 -42 12 -64 15 -21 3 -41 7 -45 9 -3 3 -25 7
-47 10 -22 4 -51 9 -64 12 -14 3 -36 7 -50 8 -14 2 -50 7 -80 11 -30 3 -66 9
-80 11 -96 18 -500 24 -640 10 -132 -13 -151 -15 -186 -21 -19 -3 -51 -8 -71
-11 -21 -3 -48 -7 -60 -10 -13 -2 -35 -6 -50 -9 -16 -3 -49 -10 -74 -16 -26
-6 -55 -12 -65 -14 -11 -2 -19 -4 -19 -5 0 -1 -13 -4 -30 -6 -16 -3 -35 -10
-41 -15 -7 -5 -16 -9 -20 -7 -9 2 -115 -27 -144 -39 -8 -4 -19 -8 -25 -8 -10
-2 -36 -11 -70 -25 -11 -5 -66 -27 -123 -49 -122 -49 -303 -136 -386 -186 -32
-19 -60 -35 -63 -35 -3 0 -30 -17 -61 -37 -31 -21 -64 -42 -74 -48 -10 -5 -37
-24 -61 -42 l-43 -32 0 1127 c1 620 0 1135 -2 1145 -4 16 -48 17 -753 17
l-750 0 4 -2777z m3662 -466 c17 -4 62 -11 100 -18 77 -13 211 -45 225 -54 6
-4 19 -8 31 -10 45 -9 209 -78 209 -88 0 -6 3 -7 6 -4 4 4 41 -12 83 -35 42
-23 88 -48 102 -55 15 -7 32 -20 39 -28 7 -8 19 -15 26 -15 8 0 14 -4 14 -10
0 -5 7 -10 15 -10 8 0 15 -3 15 -7 0 -5 17 -19 38 -33 20 -14 39 -27 42 -30 3
-3 23 -20 45 -39 67 -57 162 -150 217 -213 29 -34 59 -67 66 -74 6 -7 12 -16
12 -20 0 -4 9 -17 19 -28 42 -45 135 -197 191 -311 62 -126 125 -285 112 -285
-4 0 -2 -4 3 -8 14 -10 55 -166 71 -272 3 -19 8 -48 10 -65 22 -141 24 -565 4
-565 -3 0 -5 -12 -4 -27 0 -15 -5 -55 -12 -89 -7 -33 -16 -74 -19 -90 -8 -39
-13 -59 -15 -59 -1 0 -3 -8 -6 -17 -7 -30 -23 -86 -39 -138 -2 -7 -13 -35 -46
-115 -16 -38 -29 -75 -29 -82 0 -7 -4 -13 -8 -13 -5 0 -18 -23 -31 -51 -12
-29 -38 -76 -57 -106 -18 -29 -34 -55 -34 -58 0 -4 -24 -39 -110 -157 -18 -27
-37 -48 -42 -48 -4 0 -8 -5 -8 -12 0 -17 -226 -236 -300 -291 -36 -27 -73 -55
-83 -63 -10 -8 -29 -20 -43 -26 -13 -6 -24 -14 -24 -18 0 -4 -14 -13 -31 -20
-17 -7 -36 -18 -42 -24 -24 -22 -280 -141 -327 -151 -8 -2 -35 -10 -60 -18
-53 -18 -168 -47 -178 -46 -4 1 -9 0 -12 -1 -45 -17 -223 -34 -360 -34 -259 1
-443 36 -690 132 -52 20 -98 41 -102 47 -4 5 -8 7 -8 3 0 -7 -49 18 -135 69
-22 13 -48 26 -57 30 -10 3 -18 9 -18 14 0 5 -5 9 -11 9 -9 0 -73 43 -89 60
-3 3 -16 13 -30 22 -52 33 -254 224 -318 302 -51 61 -145 192 -153 212 -4 12
-12 25 -18 28 -5 4 -16 19 -24 34 -105 203 -176 368 -192 442 -2 8 -4 16 -4
18 -1 1 -1 4 -1 7 -1 3 -7 23 -15 45 -8 22 -12 40 -8 40 3 0 0 7 -7 15 -7 8
-10 15 -7 15 3 0 1 19 -5 43 -5 23 -11 56 -14 72 -2 17 -6 41 -9 54 -24 121
-25 481 -1 606 2 11 7 40 11 65 4 25 14 72 22 105 15 58 18 75 27 114 3 11 10
29 16 40 6 12 8 21 5 21 -2 0 5 24 16 53 12 28 22 59 24 68 2 9 8 25 13 35 6
11 30 60 53 109 51 106 109 209 121 213 4 2 8 10 8 17 0 7 3 15 8 17 4 2 21
24 38 50 51 77 103 136 224 257 63 62 122 119 130 126 8 6 42 31 75 56 57 42
89 64 180 121 47 29 197 101 257 124 24 9 52 20 63 26 12 5 27 10 35 12 8 1
38 10 65 19 28 9 61 19 75 21 14 3 25 5 25 6 0 3 81 18 145 26 25 4 65 10 90
14 51 8 369 6 415 -3z"/>
<path d="M25719 23036 c-1 0 -3 -1978 -4 -4394 -1 -2924 2 -4395 9 -4399 14
-9 1447 -10 1466 -2 14 7 16 448 15 4401 l0 4393 -742 1 c-409 1 -744 1 -744
0z"/>
<path d="M27970 22941 c-4 -1171 1 -8695 5 -8699 9 -9 1476 -8 1482 1 4 7 7
8415 4 8743 l-1 51 -745 1 -745 0 0 -97z"/>
<path d="M30230 22294 c0 -585 3 -743 13 -746 6 -2 1556 -4 3442 -4 l3430 1 0
745 0 745 -3442 1 -3443 0 0 -742z"/>
<path d="M10017 21453 c-1 0 -45 -4 -97 -7 -52 -4 -111 -8 -130 -11 -43 -5
-116 -15 -150 -21 -14 -2 -36 -6 -50 -8 -14 -2 -72 -16 -130 -31 -58 -15 -109
-28 -115 -29 -5 -1 -16 -5 -22 -9 -7 -5 -13 -6 -13 -2 0 3 -9 1 -21 -5 -11 -6
-28 -13 -38 -15 -68 -13 -358 -142 -471 -209 -25 -15 -53 -29 -62 -33 -10 -3
-18 -9 -18 -14 0 -5 -5 -9 -11 -9 -6 0 -54 -30 -106 -67 -52 -38 -105 -75
-118 -83 -98 -66 -325 -284 -435 -420 -25 -30 -47 -57 -50 -60 -3 -3 -25 -32
-49 -65 -25 -33 -48 -62 -53 -63 -4 -2 -6 -8 -2 -13 3 -5 0 -9 -6 -9 -6 0 -8
-4 -5 -10 3 -5 2 -10 -3 -10 -5 0 -15 -13 -22 -30 -7 -16 -16 -30 -20 -30 -4
0 -15 -18 -25 -40 -10 -22 -21 -40 -24 -40 -3 0 -17 -25 -31 -55 -14 -30 -28
-55 -32 -55 -5 0 -8 -9 -8 -19 0 -11 -3 -21 -8 -23 -6 -2 -44 -86 -102 -223
-14 -34 -35 -90 -36 -97 -1 -5 -2 -9 -4 -10 -1 -2 -3 -11 -5 -21 -2 -10 -7
-26 -11 -35 -4 -9 -8 -21 -10 -27 -1 -5 -16 -59 -32 -120 -17 -60 -28 -113
-26 -117 3 -5 2 -14 -3 -20 -4 -7 -9 -24 -11 -38 -1 -14 -5 -32 -8 -40 -3 -8
-7 -38 -9 -65 -2 -28 -6 -64 -9 -80 -3 -17 -9 -73 -12 -125 -8 -111 -11 -4718
-4 -4729 6 -8 1549 -10 1551 -2 1 3 2 1082 4 2396 1 1315 5 2401 9 2415 3 14
9 45 12 70 3 25 10 53 15 63 6 9 7 17 3 17 -3 0 -1 7 6 15 7 8 10 15 7 15 -12
0 63 173 107 247 49 84 71 116 99 141 9 9 17 19 17 23 0 11 162 169 174 169 5
0 34 22 60 46 18 17 167 94 182 94 8 0 14 5 14 10 0 6 8 10 18 10 10 0 22 4
28 8 7 7 71 29 109 38 143 33 178 35 565 38 195 2 358 4 363 5 4 0 5 12 3 26
-3 15 0 25 7 25 8 0 8 3 2 8 -12 9 -14 462 -2 462 5 0 5 6 0 13 -10 16 -10
147 0 147 5 0 5 6 0 13 -10 16 -10 147 0 147 5 0 5 6 0 13 -10 16 -10 147 0
147 5 0 5 6 0 13 -4 6 -7 102 -8 211 l0 200 -368 0 c-203 1 -369 0 -370 -1z"/>
<path d="M13988 21425 c-2 -2 -43 -6 -93 -10 -114 -8 -142 -11 -185 -20 -19
-4 -51 -8 -70 -10 -19 -2 -46 -6 -60 -9 -14 -3 -41 -9 -60 -12 -19 -3 -62 -13
-95 -21 -33 -8 -67 -16 -75 -18 -29 -6 -105 -26 -120 -32 -8 -4 -17 -7 -20 -8
-16 -5 -97 -29 -105 -31 -5 -2 -46 -17 -90 -34 -44 -17 -85 -32 -91 -34 -7 -1
-18 -7 -26 -14 -8 -6 -23 -13 -34 -15 -60 -10 -503 -254 -561 -309 -13 -12
-23 -17 -23 -12 0 5 -4 4 -8 -2 -4 -6 -34 -30 -67 -54 -184 -134 -422 -353
-560 -514 -27 -33 -55 -64 -60 -70 -6 -6 -33 -40 -60 -76 -27 -36 -52 -67 -55
-70 -3 -3 -26 -34 -51 -70 -24 -36 -47 -67 -50 -70 -3 -3 -26 -38 -50 -78 -24
-40 -52 -85 -61 -100 -38 -60 -137 -252 -190 -367 -68 -148 -159 -401 -193
-535 -2 -8 -11 -41 -19 -72 -9 -32 -18 -72 -21 -90 -3 -18 -10 -49 -15 -68 -5
-20 -12 -55 -15 -79 -3 -24 -7 -47 -10 -50 -2 -4 -8 -43 -14 -87 -22 -157 -31
-254 -36 -392 -2 -57 -6 -106 -9 -109 -3 -3 -1 -14 4 -24 7 -12 7 -20 0 -24
-6 -4 -8 -11 -5 -16 3 -5 8 -73 11 -151 2 -79 6 -161 8 -183 12 -115 16 -152
21 -175 2 -14 7 -45 10 -70 3 -25 13 -79 22 -120 8 -41 16 -84 18 -95 1 -11 3
-20 4 -20 1 0 4 -11 6 -25 2 -14 13 -59 25 -100 11 -41 23 -86 26 -100 2 -14
19 -68 36 -120 18 -52 31 -98 30 -102 -1 -5 3 -8 8 -8 6 0 10 -8 10 -17 0 -18
63 -179 74 -190 3 -4 6 -15 6 -25 0 -10 5 -18 10 -18 6 0 10 -6 10 -14 0 -15
107 -230 156 -316 47 -82 136 -221 151 -235 8 -8 12 -15 8 -15 -4 0 37 -59
102 -145 8 -10 71 -89 103 -129 80 -98 318 -340 404 -411 27 -22 56 -47 65
-55 9 -8 33 -27 53 -42 20 -15 42 -33 50 -40 7 -7 27 -22 43 -34 17 -11 59
-41 95 -65 134 -94 460 -278 460 -262 0 5 4 3 8 -3 4 -5 48 -27 97 -48 50 -21
104 -43 120 -51 17 -7 86 -31 155 -54 106 -34 138 -43 190 -56 3 -1 12 -4 20
-7 8 -4 44 -12 80 -19 36 -6 69 -14 75 -17 5 -3 18 -7 30 -8 11 -1 47 -7 80
-13 33 -6 81 -13 106 -16 26 -3 58 -8 70 -10 135 -26 572 -26 789 0 14 2 48 6
75 9 28 4 61 9 75 12 14 4 42 8 64 10 21 2 42 7 47 10 5 3 21 8 36 10 14 3 53
12 87 20 34 9 70 17 82 19 30 4 305 97 334 112 14 7 30 13 37 13 7 0 28 9 48
20 19 11 35 17 35 15 0 -3 10 1 23 10 13 8 27 12 30 8 4 -3 7 -1 7 5 0 6 14
13 30 17 17 4 30 11 30 16 0 6 5 7 10 4 6 -3 10 -1 10 4 0 6 3 10 8 9 9 -2 65
24 73 35 3 5 12 9 20 10 8 2 21 7 29 12 25 16 73 43 118 66 23 13 42 26 42 31
0 4 7 8 15 8 8 0 15 5 15 10 0 6 5 10 11 10 7 0 34 16 60 35 27 19 54 35 59
35 6 0 10 5 10 10 0 6 6 10 13 10 10 0 12 -65 12 -310 0 -268 2 -311 15 -314
8 -2 345 -3 749 -2 l734 1 -1 1850 c-1 1673 -3 1991 -17 2120 -12 113 -30 242
-41 300 -3 11 -7 35 -10 54 -3 18 -8 43 -10 55 -3 11 -9 39 -13 61 -5 22 -21
83 -35 135 -15 52 -29 105 -31 116 -3 12 -25 80 -50 150 -25 71 -47 134 -49
139 -2 6 -11 28 -20 50 -10 22 -25 58 -34 80 -29 69 -182 367 -202 393 -11 13
-20 29 -20 34 0 5 -4 14 -10 21 -5 7 -44 64 -86 127 -42 63 -91 133 -108 155
-17 22 -34 45 -38 50 -11 14 -75 92 -133 161 -54 64 -292 304 -323 326 -11 7
-41 32 -68 55 -41 35 -93 77 -149 121 -5 4 -26 18 -45 32 -19 13 -37 27 -40
30 -3 3 -14 11 -25 17 -11 7 -69 43 -130 81 -144 90 -222 136 -227 132 -1 -1
-27 12 -56 29 -29 17 -55 31 -58 31 -3 0 -31 12 -62 26 -54 25 -101 44 -112
46 -3 1 -28 11 -56 24 -28 12 -60 24 -70 26 -10 2 -21 6 -24 10 -3 4 -15 9
-25 11 -11 1 -26 6 -32 10 -7 5 -13 6 -13 2 0 -3 -13 1 -30 10 -16 8 -31 15
-32 14 -2 -1 -23 4 -48 11 -25 7 -52 14 -60 15 -8 2 -15 4 -15 5 0 2 -16 5
-58 13 -15 3 -35 8 -45 11 -9 3 -28 7 -42 10 -54 11 -81 16 -107 22 -27 5 -72
12 -123 19 -14 2 -25 4 -25 5 0 1 -20 3 -45 5 -25 2 -45 4 -45 5 0 1 -27 3
-60 5 -33 2 -60 4 -60 5 0 3 -414 7 -417 5z m412 -1578 c37 -5 101 -16 135
-22 20 -4 44 -9 97 -21 15 -3 29 -4 30 -3 2 1 14 -3 26 -10 13 -7 35 -15 49
-17 14 -3 39 -12 54 -20 16 -8 29 -12 29 -10 0 16 324 -142 389 -191 152 -112
229 -174 291 -235 84 -83 150 -154 150 -163 0 -3 11 -16 25 -29 14 -13 25 -28
25 -34 0 -6 6 -15 13 -19 24 -16 143 -209 199 -323 62 -128 110 -257 144 -385
11 -43 11 -45 14 -47 1 -2 3 -14 5 -28 5 -36 15 -91 22 -120 6 -27 6 -29 17
-140 4 -41 9 -78 12 -81 2 -4 0 -10 -6 -14 -6 -4 -7 -13 -2 -23 13 -27 4 -278
-13 -372 -7 -42 -18 -114 -20 -136 -1 -11 -4 -24 -7 -30 -3 -5 -9 -27 -13 -49
-9 -51 -71 -246 -97 -305 -45 -101 -121 -250 -153 -299 -19 -29 -35 -55 -35
-57 0 -3 -4 -10 -10 -17 -5 -7 -35 -45 -66 -86 -31 -41 -62 -81 -68 -89 -14
-17 -220 -223 -238 -237 -7 -6 -38 -30 -68 -53 -30 -23 -59 -46 -65 -50 -59
-47 -320 -189 -337 -184 -5 1 -8 -3 -8 -10 0 -6 -3 -8 -7 -5 -3 4 -17 0 -30
-8 -13 -9 -23 -13 -23 -10 0 3 -13 -1 -30 -10 -16 -9 -30 -13 -30 -9 0 4 -6 2
-13 -4 -15 -13 -230 -69 -294 -77 -27 -4 -59 -9 -73 -11 -86 -17 -386 -17
-470 -1 -14 3 -47 9 -75 13 -27 4 -54 8 -60 10 -5 1 -21 4 -35 7 -14 3 -32 8
-40 11 -8 3 -26 7 -40 10 -166 30 -489 191 -668 333 -104 83 -251 225 -303
293 -15 19 -37 45 -48 58 -12 12 -18 22 -14 22 4 0 3 4 -2 8 -6 4 -22 23 -35
42 -13 19 -27 37 -30 40 -30 28 -159 272 -201 383 -17 45 -35 91 -39 102 -10
24 -29 84 -35 111 -2 10 -8 34 -14 52 -5 17 -7 32 -5 32 3 0 2 6 -3 13 -4 6
-8 17 -9 22 -1 6 -5 24 -8 40 -3 17 -9 53 -12 80 -3 28 -8 53 -10 56 -7 13
-18 189 -17 300 1 133 13 284 29 349 3 14 8 35 10 48 5 29 12 62 17 87 7 31
38 138 44 155 3 8 7 20 9 25 1 6 8 24 15 40 6 17 14 39 16 50 5 27 134 289
145 293 4 2 8 7 8 12 0 10 104 165 160 237 107 139 362 365 495 439 11 6 47
27 80 45 56 32 159 81 230 110 36 15 33 14 70 24 17 4 35 10 40 14 6 3 13 6
18 7 4 1 8 2 10 4 2 2 28 8 62 15 11 3 47 11 80 20 62 15 126 25 183 29 17 2
34 5 37 8 6 5 347 1 395 -5z"/>
<path d="M21446 21423 c-2 -2 -37 -6 -77 -9 -41 -2 -92 -7 -114 -10 -22 -3
-53 -7 -70 -8 -16 -2 -32 -5 -35 -6 -3 -1 -8 -2 -12 -1 -6 1 -157 -30 -318
-64 -8 -2 -26 -8 -40 -13 -14 -5 -28 -10 -33 -10 -12 -1 -180 -52 -202 -62
-11 -5 -47 -19 -80 -31 -33 -12 -79 -30 -102 -41 -41 -18 -92 -39 -103 -43
-23 -8 -49 -21 -71 -36 -14 -10 -29 -16 -33 -12 -3 3 -6 0 -6 -7 0 -7 -3 -11
-6 -8 -3 4 -33 -10 -67 -29 -34 -19 -87 -49 -117 -65 -30 -17 -57 -34 -60 -37
-3 -3 -21 -15 -40 -25 -19 -10 -45 -28 -57 -39 -13 -11 -23 -17 -23 -14 0 6
-26 -13 -55 -40 -8 -7 -16 -13 -20 -13 -3 0 -11 -5 -18 -10 -7 -6 -30 -24 -52
-41 -57 -43 -97 -74 -121 -96 -12 -10 -39 -31 -60 -48 -37 -30 -282 -271 -340
-336 -76 -85 -205 -251 -282 -365 -39 -58 -99 -153 -105 -165 -4 -8 -21 -36
-37 -64 -17 -27 -38 -66 -48 -85 -10 -19 -24 -46 -32 -60 -8 -14 -15 -27 -15
-30 -1 -3 -21 -45 -44 -95 -60 -126 -68 -146 -97 -222 -13 -38 -29 -77 -34
-88 -8 -18 -29 -83 -37 -110 -1 -5 -14 -48 -28 -95 -15 -47 -28 -94 -30 -105
-2 -11 -13 -56 -25 -100 -11 -44 -23 -98 -26 -119 -2 -21 -6 -42 -9 -46 -2 -3
-7 -29 -11 -56 -3 -27 -8 -58 -10 -69 -3 -11 -7 -38 -10 -60 -2 -22 -7 -53 -9
-70 -27 -189 -27 -750 0 -880 3 -11 7 -42 10 -70 12 -114 33 -230 66 -364 12
-47 23 -95 25 -105 2 -11 11 -42 20 -70 10 -28 17 -52 16 -53 -2 -4 67 -204
78 -228 6 -11 16 -38 24 -60 8 -22 22 -58 32 -80 10 -22 17 -43 16 -47 -1 -5
3 -8 8 -8 6 0 10 -6 10 -14 0 -37 271 -526 292 -526 4 0 8 -5 8 -11 0 -21 211
-299 278 -366 13 -13 21 -23 18 -23 -6 0 240 -246 304 -302 29 -27 54 -48 56
-48 3 0 17 -11 32 -24 24 -22 181 -142 247 -189 13 -10 28 -17 31 -16 4 0 10
-3 13 -8 3 -5 42 -31 86 -58 44 -27 82 -53 83 -57 2 -5 12 -8 23 -8 10 0 19
-3 19 -8 0 -4 15 -13 33 -21 17 -8 40 -21 51 -30 10 -9 20 -15 22 -14 2 2 57
-22 121 -53 65 -31 122 -57 128 -59 5 -1 21 -7 35 -12 14 -6 43 -18 65 -26 22
-8 49 -18 60 -23 11 -4 22 -8 25 -9 17 -4 88 -28 105 -35 18 -7 143 -41 170
-46 6 -1 28 -6 50 -12 80 -22 259 -54 370 -67 227 -27 641 -26 792 1 16 3 46
7 68 9 22 2 40 4 40 5 0 1 14 3 30 5 17 2 41 6 55 9 14 3 39 8 55 11 56 8 270
63 350 90 44 14 87 28 95 30 8 2 16 4 18 5 1 2 5 3 10 5 4 1 21 7 37 14 17 6
66 26 110 43 44 18 152 68 239 113 204 103 196 98 196 107 0 5 5 8 10 8 14 0
204 123 257 166 23 19 44 34 48 34 3 0 20 13 38 30 18 16 35 30 39 30 4 0 18
10 31 23 12 12 50 45 82 72 87 74 261 247 350 350 123 142 125 144 125 154 0
5 3 11 8 13 12 5 102 127 102 138 0 6 5 10 10 10 6 0 10 7 10 15 0 8 4 15 9
15 5 0 16 12 24 28 21 41 80 135 95 150 6 7 12 20 12 28 0 8 3 14 8 14 4 0 12
11 18 25 10 21 9 26 -15 42 -45 29 -334 203 -338 203 -3 0 -19 10 -36 23 -33
23 -62 41 -86 53 -8 4 -95 57 -195 117 -100 60 -190 115 -201 121 -11 6 -83
49 -160 96 -77 47 -149 90 -160 97 -11 7 -31 18 -45 25 -14 7 -27 15 -30 19
-11 13 -40 18 -40 6 0 -14 -100 -170 -112 -175 -4 -2 -8 -10 -8 -17 0 -7 -3
-15 -7 -17 -5 -1 -23 -23 -42 -48 -49 -64 -50 -65 -158 -175 -55 -55 -116
-113 -137 -130 -21 -16 -53 -42 -71 -57 -18 -16 -37 -28 -43 -28 -6 0 -12 -4
-14 -9 -4 -10 -164 -111 -177 -111 -5 0 -11 -3 -13 -7 -4 -10 -110 -59 -116
-55 -3 2 -8 -1 -11 -6 -3 -6 -33 -20 -66 -32 -33 -12 -83 -30 -111 -40 -28
-11 -62 -21 -75 -24 -43 -9 -63 -14 -106 -25 -23 -6 -61 -14 -85 -17 -24 -3
-54 -8 -68 -10 -67 -13 -360 -24 -360 -14 0 3 -21 6 -48 6 -57 2 -160 16 -182
24 -3 1 -8 2 -13 1 -8 -1 -133 28 -157 36 -8 3 -21 8 -27 10 -7 1 -19 5 -25 6
-55 16 -215 83 -291 122 -125 65 -149 79 -171 98 -11 9 -23 17 -26 17 -6 0
-22 12 -67 50 -7 5 -16 10 -22 10 -5 0 -11 3 -13 8 -1 4 -30 30 -63 57 -95 80
-238 227 -290 299 -11 16 -24 33 -30 40 -24 28 -55 76 -55 86 0 5 -4 10 -8 10
-18 0 -128 207 -187 350 -66 161 -127 388 -141 520 -2 19 -5 58 -8 85 -8 80
-5 420 3 420 1 0 4 21 6 46 4 43 9 77 19 124 25 116 42 185 69 265 17 52 30
98 29 103 -1 4 2 7 7 7 5 0 12 11 15 25 8 33 86 198 96 205 4 3 10 15 14 26 8
25 126 204 176 265 95 118 196 221 288 296 31 25 62 51 69 57 51 45 197 134
313 192 133 65 313 131 411 149 13 3 35 7 49 10 68 14 108 20 210 31 80 8 348
4 370 -6 3 -1 8 -2 12 -2 13 2 175 -26 218 -38 25 -7 50 -13 55 -14 6 -1 37
-11 70 -21 33 -10 62 -19 65 -19 3 -1 12 -6 20 -11 8 -5 23 -11 33 -12 29 -5
205 -92 287 -141 175 -107 411 -311 505 -437 17 -22 40 -51 53 -65 12 -14 25
-33 28 -42 3 -10 10 -18 15 -18 5 0 9 -6 9 -14 0 -8 4 -16 8 -18 4 -1 30 -38
56 -80 l48 -77 36 24 c42 27 337 206 572 346 85 51 157 96 158 101 2 4 7 8 12
8 5 0 71 38 147 85 76 46 158 96 183 110 25 14 59 34 75 45 17 11 38 23 48 26
9 4 17 10 17 14 0 4 9 10 20 13 28 7 25 28 -10 85 -16 27 -30 54 -30 60 0 5
-7 12 -15 16 -8 3 -14 9 -13 13 2 11 -35 73 -44 73 -5 0 -8 5 -8 11 0 7 -27
50 -61 96 -67 94 -66 93 -109 144 -16 20 -30 41 -30 47 0 6 -4 12 -8 14 -5 2
-39 39 -77 83 -98 114 -385 396 -385 378 0 -4 -6 0 -12 9 -7 9 -51 46 -98 82
-118 93 -120 95 -162 118 -21 12 -38 25 -38 30 0 4 -6 8 -14 8 -8 0 -16 3 -18
8 -12 28 -448 259 -578 307 -118 44 -365 126 -393 130 -17 3 -35 9 -40 12 -5
3 -21 7 -36 9 -14 2 -69 13 -121 24 -52 11 -111 22 -130 25 -19 2 -44 7 -55 9
-19 4 -71 10 -195 22 -63 7 -478 12 -484 7z"/>
<path d="M30958 20784 c-3 -3 -168 -5 -367 -4 -339 0 -361 -1 -361 -17 -1 -10
-1 -344 -2 -742 0 -476 3 -726 10 -730 6 -3 359 -6 785 -5 l774 0 0 -2516 c0
-1385 2 -2521 6 -2526 4 -7 1393 -11 1475 -5 9 1 12 662 12 3272 0 1798 -4
3268 -8 3265 -4 -2 -14 -1 -22 4 -7 4 -24 4 -37 -1 -14 -5 -23 -5 -23 1 0 6
-9 6 -23 1 -13 -5 -30 -6 -37 -1 -7 5 -23 4 -36 0 -12 -5 -24 -7 -26 -5 -2 2
-35 4 -73 4 -91 1 -103 1 -117 2 -7 0 -143 0 -302 -1 -159 0 -291 1 -293 4 -3
3 -16 1 -29 -4 -15 -6 -24 -6 -24 0 0 6 -9 6 -23 1 -13 -5 -30 -6 -37 -1 -7 5
-23 4 -36 0 -12 -5 -24 -7 -26 -5 -2 2 -35 4 -73 4 -91 1 -103 1 -117 2 -7 0
-143 0 -302 -1 -159 0 -291 1 -293 4 -3 3 -16 1 -29 -4 -15 -6 -24 -6 -24 0 0
6 -9 6 -23 1 -13 -5 -30 -6 -37 -1 -7 4 -21 5 -31 1 -10 -3 -50 -4 -89 -1 -38
3 -78 2 -88 -1 -9 -4 -24 -3 -33 2 -9 5 -19 6 -21 3z"/>
<path d="M34127 20783 c-4 -3 -20 -6 -37 -5 -16 0 -30 -5 -31 -11 -1 -16 -1
-6509 0 -6522 1 -7 256 -10 743 -10 l743 0 5 2526 5 2525 770 -1 c424 0 776 1
783 3 9 3 12 162 12 749 0 457 -4 742 -9 738 -5 -3 -12 -1 -16 4 -4 7 -15 7
-30 1 -16 -6 -25 -6 -25 1 0 6 -8 6 -21 -2 -14 -7 -24 -8 -31 -1 -7 7 -19 7
-34 2 -14 -6 -26 -6 -29 0 -4 6 -14 6 -27 -1 -14 -7 -23 -8 -30 -1 -7 7 -19 7
-34 2 -14 -6 -26 -6 -29 0 -4 6 -14 6 -27 -1 -14 -7 -23 -8 -30 -1 -7 7 -19 7
-34 2 -14 -6 -26 -6 -29 0 -4 6 -14 6 -26 -1 -14 -7 -24 -7 -33 0 -7 6 -15 8
-18 6 -7 -7 -459 -8 -465 -1 -3 3 -16 1 -29 -4 -14 -6 -26 -6 -29 0 -4 6 -14
6 -27 -1 -14 -7 -23 -8 -30 -1 -7 7 -19 7 -34 2 -14 -6 -26 -6 -29 0 -4 6 -14
6 -27 -1 -14 -7 -23 -8 -30 -1 -7 7 -19 7 -34 2 -14 -6 -26 -6 -29 0 -4 6 -14
6 -27 -1 -14 -7 -23 -8 -30 -1 -7 7 -19 7 -34 2 -14 -6 -26 -6 -29 0 -4 6 -14
6 -26 -1 -14 -7 -24 -7 -33 0 -7 6 -15 8 -18 6 -7 -7 -459 -8 -465 -1 -3 3
-16 1 -29 -4 -14 -6 -26 -6 -29 0 -4 6 -14 6 -27 -1 -14 -7 -23 -8 -30 -1 -7
7 -19 7 -34 2 -14 -6 -26 -6 -29 0 -4 6 -14 6 -27 -1 -14 -7 -23 -8 -30 -1 -7
7 -19 7 -34 2 -14 -6 -26 -6 -29 0 -4 6 -14 6 -27 -1 -14 -7 -23 -8 -30 -1 -7
7 -19 7 -34 2 -14 -6 -26 -6 -29 0 -4 6 -14 6 -26 -1 -14 -7 -24 -7 -33 0 -7
6 -15 8 -18 5 -8 -7 -157 -8 -165 -1 -3 4 -14 2 -25 -4 -13 -7 -23 -7 -32 0
-7 6 -16 8 -19 5 -7 -8 -187 -7 -194 0 -3 3 -14 1 -24 -4 -12 -7 -20 -7 -24 0
-4 7 -13 6 -26 -1 -14 -7 -24 -7 -33 0 -7 6 -16 8 -19 4z"/>
</g>
</svg>
