<?xml version="1.0" encoding="utf-8"?>
<!-- Generator: Adobe Illustrator 22.1.0, SVG Export Plug-In . SVG Version: 6.00 Build 0)  -->
<svg version="1.1" id="Layer_1" xmlns="http://www.w3.org/2000/svg" xmlns:xlink="http://www.w3.org/1999/xlink" x="0px" y="0px"
	 viewBox="0 0 226 226" style="enable-background:new 0 0 226 226;" xml:space="preserve">
<style type="text/css">
	.st0{fill:#092C58;}
</style>
<path class="st0" d="M62.4,106.8c1.6-1.2,3.6-1.8,5.7-1.8c5.6,0,10.1,4.7,10.1,10.5S73.7,126,68.1,126c-5.6,0-10.1-4.7-10.1-10.5
	v-15.4h4.4V106.8z M62.4,115.5c0,3.3,2.6,5.9,5.7,5.9c3.1,0,5.7-2.7,5.7-5.9c0-3.3-2.6-5.9-5.7-5.9C65,109.6,62.4,112.2,62.4,115.5z
	 M105.4,124.2c-1.6,1.2-3.6,1.8-5.7,1.8c-5.6,0-10.1-4.7-10.1-10.6s4.5-10.6,10.1-10.6c5.6,0,10.1,4.7,10.1,10.6V126h-4.4V124.2z
	 M105.4,115.4c0-3.3-2.6-6-5.7-6c-3.2,0-5.7,2.7-5.7,6s2.6,6,5.7,6C102.8,121.4,105.4,118.7,105.4,115.4z M126.5,118.4
	c-1,1.8-2.8,3-4.9,3c-3.1,0-5.7-2.7-5.7-6c0-3.3,2.6-6,5.7-6c2.1,0,4,1.2,5,3l3.8-2.3c-1.7-3.2-5-5.3-8.8-5.3
	c-5.6,0-10.1,4.7-10.1,10.6c0,5.9,4.5,10.6,10.1,10.6c3.7,0,7-2.1,8.8-5.3L126.5,118.4z M87.7,104.8h1.9v4.2h-1.9
	c-1.9,0-3.4,1.5-3.4,3.4V126h-4.6v-13.4C79.8,108.3,83.3,104.8,87.7,104.8z"/>
<path class="st0" d="M133.5,100.1h4.4v25.8h-4.4V100.1z M140.1,100.1h4.4v25.8h-4.4V100.1z M167,104.5v-4.4h-20.2v4.4H167z
	 M151.4,111.1h-4.6v-4.4h4.6h4.4h0v19.2h-4.4V111.1z M167,111.1v-4.4h-9v0h0V126h4.4v-14.8H167z"/>
<g>
	<path class="st0" d="M113,185c-39.1,0-71-31.9-71-71s31.9-71,71-71s71,31.9,71,71S152.1,185,113,185z M113,50
		c-35.3,0-64,28.7-64,64c0,35.3,28.7,64,64,64c35.3,0,64-28.7,64-64C177,78.7,148.3,50,113,50z"/>
</g>
<path class="st0" d="M20.8,146.8l8-7.8l0.8,1.6l-6.2,5.8l0.1,0.1l8.3-1.7l0.8,1.6l-6.2,5.8l0.1,0.1l8.2-1.6l0.8,1.6l-10.9,1.9
	l-0.7-1.5l6.2-5.9l-0.1-0.2l-8.3,1.6L20.8,146.8z"/>
<path class="st0" d="M33.1,167.8l6-9.5l1.1,1.3l-4.7,7.1l0.1,0.1l7.7-3.6l1.1,1.4l-4.7,7.1l0.1,0.1l7.6-3.6l1.1,1.3L38.3,174l-1-1.2
	l4.7-7.2l-0.1-0.1l-7.7,3.6L33.1,167.8z"/>
<path class="st0" d="M50.1,185.2l3.6-10.7l1.4,1l-2.9,8.1l0.1,0.1l6.6-5.3l1.4,1.1l-3,8l0.1,0.1l6.6-5.3l1.4,1l-8.8,6.8l-1.3-1
	l2.9-8.1l-0.1-0.1l-6.7,5.3L50.1,185.2z"/>
<path class="st0" d="M65.3,195.4c-0.3-0.2-0.5-0.4-0.6-0.8c-0.1-0.3-0.1-0.7,0.1-1c0.2-0.3,0.4-0.5,0.7-0.6c0.3-0.1,0.6-0.1,0.9,0.1
	c0.3,0.2,0.5,0.4,0.6,0.8c0.1,0.3,0.1,0.7-0.1,1c-0.1,0.2-0.3,0.4-0.4,0.5c-0.2,0.1-0.4,0.2-0.6,0.2
	C65.7,195.6,65.5,195.6,65.3,195.4z"/>
<path class="st0" d="M73.6,199.5l4.9-13.6l1.5,0.6l-1.8,5l0.1,0.1c0.2-0.1,0.4-0.3,0.7-0.5c0.3-0.2,0.7-0.3,1.1-0.4
	c0.5-0.1,1,0,1.6,0.3c0.8,0.3,1.5,0.8,2,1.5c0.5,0.7,0.8,1.5,0.8,2.4c0.1,0.9-0.1,1.9-0.5,3c-0.4,1.1-0.9,1.9-1.5,2.6
	c-0.6,0.6-1.4,1.1-2.2,1.3c-0.8,0.2-1.6,0.1-2.4-0.2c-0.6-0.2-1.1-0.5-1.4-0.9c-0.3-0.4-0.5-0.7-0.6-1.1c-0.1-0.4-0.2-0.6-0.2-0.9
	l-0.2-0.1l-0.6,1.6L73.6,199.5z M76.9,195c-0.3,0.8-0.4,1.5-0.4,2.2c0,0.7,0.2,1.2,0.5,1.7c0.3,0.5,0.8,0.9,1.4,1.1
	c0.6,0.2,1.2,0.3,1.8,0.1c0.6-0.2,1-0.5,1.5-1c0.4-0.5,0.8-1.1,1-1.8c0.3-0.7,0.4-1.4,0.4-2.1c0-0.7-0.2-1.2-0.5-1.7
	c-0.3-0.5-0.8-0.9-1.4-1.1c-0.6-0.2-1.2-0.3-1.7-0.1c-0.5,0.2-1,0.5-1.4,1C77.6,193.6,77.2,194.2,76.9,195z"/>
<path class="st0" d="M89.9,204.8l2.2-10.6l1.5,0.3l-0.3,1.6l0.1,0c0.3-0.5,0.7-0.8,1.3-1c0.6-0.2,1.2-0.3,1.8-0.1
	c0.1,0,0.3,0.1,0.4,0.1c0.2,0,0.3,0.1,0.4,0.1l-0.3,1.7c-0.1,0-0.2-0.1-0.4-0.1c-0.2-0.1-0.4-0.1-0.6-0.2c-0.5-0.1-1-0.1-1.4,0
	c-0.4,0.1-0.8,0.3-1.1,0.7c-0.3,0.3-0.5,0.7-0.6,1.2l-1.4,6.7L89.9,204.8z"/>
<path class="st0" d="M105,207.5c-0.7-0.1-1.3-0.2-1.8-0.5c-0.5-0.3-0.9-0.7-1.2-1.2c-0.3-0.5-0.4-1.1-0.4-1.8c0-0.6,0.2-1.1,0.5-1.5
	c0.3-0.4,0.6-0.6,1-0.8c0.4-0.2,0.9-0.3,1.4-0.4c0.5-0.1,1-0.1,1.5-0.2c0.6,0,1.2-0.1,1.6-0.1c0.4,0,0.7-0.1,0.9-0.2
	c0.2-0.1,0.3-0.3,0.3-0.5v-0.1c0.1-0.7-0.1-1.2-0.4-1.7c-0.3-0.4-0.9-0.6-1.6-0.7c-0.8-0.1-1.4,0.1-1.9,0.4c-0.5,0.3-0.8,0.7-1,1
	l-1.5-0.7c0.3-0.6,0.7-1.1,1.2-1.5c0.5-0.3,1-0.6,1.6-0.7c0.6-0.1,1.1-0.1,1.6-0.1c0.3,0,0.7,0.1,1.2,0.2c0.4,0.1,0.9,0.3,1.2,0.6
	c0.4,0.3,0.7,0.7,1,1.2c0.2,0.5,0.3,1.2,0.3,2.1l-0.5,7.1l-1.6-0.1l0.1-1.5l-0.1,0c-0.1,0.2-0.3,0.5-0.6,0.7
	c-0.3,0.2-0.6,0.5-1.1,0.6C106.2,207.5,105.6,207.5,105,207.5z M105.4,206c0.6,0,1.2,0,1.7-0.3c0.5-0.2,0.8-0.5,1.1-0.9
	c0.3-0.4,0.4-0.8,0.4-1.3l0.1-1.5c-0.1,0.1-0.2,0.1-0.5,0.2c-0.2,0.1-0.5,0.1-0.8,0.1c-0.3,0-0.6,0.1-0.9,0.1c-0.3,0-0.5,0-0.7,0
	c-0.4,0-0.8,0.1-1.2,0.2c-0.4,0.1-0.7,0.3-0.9,0.5c-0.2,0.2-0.4,0.6-0.4,1c0,0.6,0.1,1,0.5,1.3C104.2,205.8,104.7,206,105.4,206z"/>
<path class="st0" d="M123.1,207.3c-1,0.1-1.9-0.1-2.6-0.5c-0.8-0.4-1.4-1-1.8-1.8c-0.5-0.8-0.7-1.7-0.8-2.8c-0.1-1.1,0-2.1,0.3-3
	c0.3-0.9,0.8-1.6,1.5-2.1c0.7-0.5,1.5-0.9,2.4-1c0.7-0.1,1.4,0,2,0.2c0.6,0.2,1.1,0.6,1.6,1c0.4,0.5,0.7,1,0.9,1.7l-1.6,0.2
	c-0.2-0.5-0.5-0.9-0.9-1.2c-0.5-0.3-1-0.5-1.8-0.4c-0.6,0.1-1.2,0.3-1.6,0.7c-0.4,0.4-0.8,0.9-1,1.5c-0.2,0.6-0.3,1.4-0.2,2.2
	c0.1,0.8,0.3,1.5,0.6,2.1c0.3,0.6,0.7,1,1.2,1.3c0.5,0.3,1.1,0.4,1.7,0.3c0.4,0,0.8-0.2,1.1-0.3c0.3-0.2,0.6-0.4,0.8-0.7
	s0.4-0.7,0.4-1.1l1.6-0.2c0,0.6-0.2,1.2-0.5,1.8c-0.3,0.5-0.7,1-1.3,1.3C124.5,207,123.8,207.2,123.1,207.3z"/>
<path class="st0" d="M132,192.8c-0.3,0.1-0.6,0-0.9-0.1c-0.3-0.2-0.4-0.4-0.5-0.7c-0.1-0.3,0-0.6,0.2-0.9c0.2-0.3,0.4-0.4,0.7-0.5
	c0.3-0.1,0.6,0,0.9,0.1c0.3,0.2,0.4,0.4,0.5,0.7c0.1,0.3,0,0.6-0.2,0.9C132.6,192.6,132.3,192.7,132,192.8z M133.8,205.3l-2.3-10.6
	l1.6-0.4l2.3,10.6L133.8,205.3z"/>
<path class="st0" d="M142.9,191.6l0.4,1.3l-5.2,1.7l-0.4-1.3L142.9,191.6z M138.4,190.3l1.5-0.5l3.1,9.8c0.1,0.5,0.3,0.8,0.5,0.9
	c0.2,0.2,0.4,0.3,0.6,0.3c0.2,0,0.5,0,0.7-0.1c0.2-0.1,0.3-0.1,0.4-0.2c0.1-0.1,0.2-0.1,0.3-0.1l0.8,1.3c-0.1,0.1-0.2,0.2-0.4,0.3
	c-0.2,0.1-0.4,0.2-0.7,0.3c-0.4,0.1-0.9,0.2-1.4,0.1c-0.5-0.1-0.9-0.2-1.3-0.5c-0.4-0.3-0.7-0.8-0.9-1.4L138.4,190.3z"/>
<path class="st0" d="M155.9,188.5l-1.1,1c-0.2-0.2-0.4-0.3-0.7-0.5c-0.3-0.1-0.6-0.2-0.9-0.2c-0.3,0-0.7,0.1-1.1,0.3
	c-0.6,0.3-1,0.6-1.3,1.1c-0.3,0.5-0.3,0.9-0.1,1.3c0.2,0.4,0.4,0.6,0.8,0.7c0.4,0.1,0.9,0.1,1.5-0.1l1.6-0.3c1-0.2,1.7-0.2,2.4,0.1
	c0.6,0.2,1.1,0.7,1.4,1.4c0.3,0.6,0.3,1.1,0.2,1.7c-0.1,0.6-0.4,1.2-0.8,1.7c-0.4,0.5-1,1-1.8,1.3c-1,0.5-1.9,0.6-2.7,0.5
	c-0.8-0.1-1.5-0.6-2.1-1.3l1.2-1c0.4,0.5,0.8,0.7,1.3,0.8c0.5,0.1,1,0,1.6-0.3c0.7-0.3,1.2-0.7,1.4-1.2c0.3-0.5,0.3-1,0.1-1.4
	c-0.2-0.3-0.4-0.6-0.7-0.7c-0.3-0.1-0.8-0.1-1.3,0l-1.8,0.4c-1,0.2-1.8,0.2-2.4-0.1c-0.6-0.3-1.1-0.7-1.4-1.4
	c-0.3-0.6-0.3-1.1-0.2-1.7c0.1-0.6,0.4-1.1,0.8-1.6c0.4-0.5,1-0.9,1.6-1.2c0.9-0.5,1.8-0.6,2.5-0.4
	C154.7,187.5,155.3,187.9,155.9,188.5z"/>
<path class="st0" d="M166.5,192c-0.3,0.2-0.6,0.2-0.9,0.2c-0.3-0.1-0.6-0.3-0.8-0.6c-0.2-0.3-0.2-0.6-0.1-1c0.1-0.3,0.3-0.6,0.6-0.8
	c0.3-0.2,0.6-0.2,0.9-0.2c0.3,0.1,0.6,0.3,0.8,0.6c0.1,0.2,0.2,0.4,0.2,0.6c0,0.2,0,0.4-0.1,0.6C166.8,191.7,166.7,191.9,166.5,192z
	"/>
<path class="st0" d="M177.2,184.3c-0.8,0.6-1.6,1-2.4,1.1s-1.7-0.1-2.5-0.5c-0.8-0.4-1.6-1-2.2-1.9c-0.7-0.9-1.1-1.7-1.3-2.7
	c-0.2-0.9-0.2-1.8,0.1-2.6c0.3-0.8,0.8-1.6,1.5-2.2c0.6-0.5,1.2-0.8,1.8-1c0.6-0.2,1.3-0.2,1.9,0c0.6,0.1,1.2,0.5,1.6,0.9l-1.3,1.1
	c-0.4-0.3-0.9-0.5-1.4-0.5c-0.6,0-1.1,0.2-1.7,0.7c-0.5,0.4-0.8,0.9-1,1.5c-0.2,0.6-0.2,1.2,0,1.8c0.2,0.6,0.5,1.3,1,1.9
	c0.5,0.6,1.1,1.1,1.6,1.5c0.6,0.3,1.2,0.5,1.8,0.4s1.1-0.3,1.6-0.7c0.3-0.3,0.6-0.6,0.8-0.9c0.2-0.3,0.3-0.7,0.3-1.1
	c0-0.4-0.1-0.7-0.2-1.1l1.3-1.1c0.3,0.6,0.5,1.2,0.5,1.8c0,0.6-0.1,1.2-0.4,1.9C178.2,183.3,177.8,183.8,177.2,184.3z"/>
<path class="st0" d="M189.4,172.3c-0.6,0.7-1.3,1.2-2.2,1.5c-0.8,0.2-1.7,0.2-2.5,0c-0.9-0.2-1.7-0.7-2.6-1.5
	c-0.8-0.7-1.4-1.5-1.8-2.4c-0.4-0.9-0.5-1.7-0.3-2.6c0.1-0.9,0.5-1.7,1.1-2.4c0.6-0.7,1.3-1.2,2.2-1.5c0.8-0.2,1.7-0.2,2.6,0
	c0.9,0.2,1.7,0.7,2.6,1.5c0.8,0.7,1.4,1.5,1.8,2.4c0.4,0.9,0.5,1.7,0.3,2.6C190.4,170.7,190,171.5,189.4,172.3z M188.3,171.3
	c0.5-0.6,0.7-1.1,0.8-1.8c0-0.6-0.1-1.2-0.4-1.8c-0.3-0.6-0.7-1.1-1.3-1.6c-0.5-0.5-1.1-0.8-1.7-1.1c-0.6-0.2-1.2-0.3-1.8-0.2
	c-0.6,0.1-1.1,0.4-1.6,1c-0.5,0.6-0.7,1.1-0.8,1.8c0,0.6,0.1,1.2,0.4,1.8c0.3,0.6,0.7,1.1,1.3,1.6c0.5,0.5,1.1,0.8,1.7,1.1
	c0.6,0.2,1.2,0.3,1.8,0.2C187.3,172.2,187.8,171.9,188.3,171.3z"/>
<path class="st0" d="M198.3,160.2l-9.3-5.2l0.8-1.4l1.4,0.8l0.1-0.1c-0.4-0.5-0.6-1-0.6-1.6c0-0.6,0.1-1.2,0.4-1.8
	c0.3-0.6,0.8-1.1,1.3-1.3c0.5-0.3,1.1-0.4,1.7-0.3l0.1-0.1c-0.4-0.5-0.5-1.1-0.6-1.7s0.2-1.3,0.5-2c0.5-0.8,1.1-1.4,1.9-1.6
	s1.8-0.1,2.8,0.5l6.2,3.5l-0.8,1.5l-6.2-3.5c-0.7-0.4-1.3-0.5-1.8-0.3c-0.5,0.2-0.9,0.6-1.2,1.1c-0.4,0.7-0.4,1.3-0.2,1.9
	c0.2,0.6,0.6,1.1,1.2,1.4l6,3.4l-0.8,1.5l-6.4-3.6c-0.5-0.3-1-0.4-1.6-0.2c-0.5,0.2-0.9,0.5-1.2,1.1c-0.2,0.4-0.3,0.8-0.3,1.2
	c0,0.4,0.2,0.9,0.4,1.3c0.2,0.4,0.6,0.7,1,1l5.8,3.3L198.3,160.2z"/>
<path class="st0" d="M28.7,105L17,101.4l1.3-5.1c0.2-0.9,0.6-1.7,1-2.2c0.4-0.5,0.9-0.9,1.4-1.1c0.5-0.2,1.1-0.2,1.7,0
	c0.5,0.1,0.8,0.4,1.1,0.7c0.3,0.3,0.5,0.7,0.6,1.1c0.1,0.4,0.2,0.9,0.2,1.3l0.1,0c0.1-0.5,0.4-0.9,0.7-1.2c0.3-0.3,0.8-0.6,1.2-0.7
	c0.5-0.1,1-0.1,1.6,0.1c0.6,0.2,1.1,0.5,1.5,1c0.4,0.5,0.7,1.1,0.8,1.8c0.1,0.7,0,1.6-0.2,2.5L28.7,105z M22.6,100.2l0.5-2
	c0.1-0.4,0.1-0.7,0.1-1c0-0.3-0.2-0.6-0.3-0.8c-0.2-0.2-0.4-0.4-0.7-0.5c-0.4-0.1-0.8-0.1-1.2,0.2c-0.3,0.2-0.6,0.7-0.8,1.3l-0.5,2
	L22.6,100.2z M27.4,101.7l0.6-2.2c0.2-0.7,0.2-1.3,0-1.8c-0.2-0.4-0.5-0.7-0.9-0.8c-0.3-0.1-0.6-0.1-0.9,0c-0.3,0.1-0.5,0.3-0.8,0.5
	c-0.2,0.3-0.4,0.6-0.5,1l-0.6,2.2L27.4,101.7z"/>
<path class="st0" d="M32.1,92.8L21,87.6l1.9-4.8c0.4-0.9,0.8-1.6,1.4-2.1c0.6-0.5,1.2-0.8,1.9-0.9c0.7-0.1,1.4,0.1,2.1,0.4
	c0.7,0.3,1.3,0.8,1.7,1.4s0.6,1.3,0.6,2.1s-0.2,1.6-0.5,2.6l-1.3,3.2l-1.9-0.9l1.1-2.8c0.2-0.5,0.3-0.9,0.3-1.3s-0.1-0.7-0.3-1
	c-0.2-0.3-0.5-0.5-0.8-0.7c-0.4-0.2-0.7-0.2-1-0.2c-0.3,0-0.6,0.2-0.9,0.5c-0.3,0.3-0.5,0.6-0.7,1.1l-0.7,1.7l9.2,4.4L32.1,92.8z
	 M29.7,83.9l6.3-0.6l-1.1,2.8l-6.3,0.5L29.7,83.9z"/>
<path class="st0" d="M38.1,79.3l-1.5,2.5L28.5,71l1.8-3l12.6,3.1l-1.5,2.5L31.8,71l0,0.1L38.1,79.3z M33.9,76.7l3.4-6l1.7,1.1
	l-3.4,6L33.9,76.7z"/>
<path class="st0" d="M44.8,55.2l-1.7,2.1c-0.3-0.2-0.6-0.3-0.9-0.4c-0.3-0.1-0.6-0.1-0.9,0c-0.3,0.1-0.6,0.2-0.8,0.4
	c-0.3,0.2-0.5,0.4-0.7,0.7c-0.4,0.5-0.6,1.1-0.7,1.7c-0.1,0.6,0,1.2,0.3,1.8c0.3,0.6,0.8,1.2,1.4,1.8c0.7,0.6,1.3,1,1.9,1.2
	c0.6,0.2,1.2,0.2,1.7,0c0.5-0.2,1-0.5,1.4-1c0.2-0.3,0.4-0.6,0.5-0.9c0.1-0.3,0.2-0.6,0.2-0.9c0-0.3,0-0.6-0.1-0.9
	c-0.1-0.3-0.2-0.6-0.5-0.9l1.7-2.1c0.4,0.4,0.7,1,0.9,1.5s0.3,1.2,0.4,1.9c0,0.7-0.1,1.3-0.3,2c-0.2,0.7-0.6,1.3-1.1,2
	c-0.7,0.9-1.5,1.5-2.5,1.9c-0.9,0.4-1.9,0.4-2.9,0.2c-1-0.2-2.1-0.8-3.1-1.8c-1-0.9-1.7-1.9-2.1-3c-0.4-1.1-0.5-2.1-0.3-3.2
	c0.2-1,0.6-2,1.3-2.9c0.5-0.6,1-1.1,1.5-1.4c0.5-0.4,1.1-0.6,1.7-0.7c0.6-0.1,1.2-0.1,1.8,0C43.6,54.5,44.2,54.8,44.8,55.2z"/>
<path class="st0" d="M49.2,44.6l8,9.9l-1.9,1.8l-8-9.9L49.2,44.6z"/>
<path class="st0" d="M52.8,44.2l-1.2-1.9l8.1-6.3l1.2,1.9l-3,2.4l5.9,8.8l-2.1,1.6l-5.9-8.8L52.8,44.2z"/>
<path class="st0" d="M74.4,31.9c-0.3-0.4-0.6-0.7-1-0.8c-0.4-0.1-0.9,0-1.5,0.3c-0.4,0.2-0.7,0.4-0.9,0.7c-0.2,0.3-0.3,0.5-0.4,0.8
	c0,0.3,0,0.5,0.1,0.8c0.1,0.2,0.2,0.4,0.4,0.5c0.2,0.1,0.4,0.2,0.6,0.2c0.2,0,0.4,0,0.7,0c0.2,0,0.5-0.1,0.8-0.1l1.1-0.3
	c0.5-0.1,1-0.2,1.5-0.2c0.5,0,0.9,0,1.4,0.2c0.4,0.1,0.8,0.3,1.1,0.6c0.3,0.3,0.6,0.7,0.8,1.2c0.3,0.7,0.4,1.4,0.3,2.2
	c-0.1,0.7-0.4,1.4-0.9,2c-0.5,0.6-1.2,1.2-2.1,1.6c-0.9,0.5-1.7,0.7-2.5,0.7c-0.8,0-1.5-0.1-2.1-0.5c-0.6-0.4-1.1-1-1.5-1.9l2.3-1.2
	c0.2,0.4,0.4,0.7,0.8,0.8c0.3,0.2,0.6,0.2,1,0.2c0.4,0,0.8-0.1,1.2-0.3c0.4-0.2,0.7-0.4,0.9-0.7c0.2-0.3,0.4-0.6,0.4-0.9
	c0.1-0.3,0-0.6-0.1-0.9c-0.1-0.3-0.3-0.5-0.5-0.6c-0.2-0.1-0.5-0.2-0.8-0.1c-0.3,0-0.7,0.1-1.2,0.2l-1.3,0.3c-1,0.2-1.9,0.2-2.7,0
	c-0.8-0.2-1.3-0.8-1.7-1.7c-0.3-0.7-0.4-1.4-0.3-2.2c0.1-0.7,0.4-1.4,0.9-2c0.5-0.6,1.1-1.1,2-1.6c0.8-0.4,1.6-0.6,2.3-0.6
	c0.7,0,1.4,0.2,2,0.5c0.6,0.4,1,0.9,1.3,1.6L74.4,31.9z"/>
<path class="st0" d="M82.7,38.2l-3.7-12.5l7.8-2.7l0.7,2.2L82.1,27l0.9,3l5-1.7l0.7,2.2l-5,1.7l0.9,3l5.4-1.9l0.7,2.2L82.7,38.2z"/>
<path class="st0" d="M93.1,34.7l-2.2-12.9l4.7-0.9c0.9-0.2,1.7-0.2,2.4,0.1c0.7,0.2,1.3,0.6,1.7,1.2c0.4,0.6,0.7,1.3,0.9,2.1
	c0.1,0.9,0.1,1.6-0.1,2.3c-0.2,0.7-0.7,1.3-1.3,1.7c-0.6,0.5-1.3,0.8-2.3,1l-3.2,0.6l-0.4-2.2l2.8-0.5c0.5-0.1,0.9-0.2,1.2-0.5
	c0.3-0.2,0.5-0.5,0.6-0.8c0.1-0.3,0.1-0.7,0.1-1.1c-0.1-0.4-0.2-0.8-0.4-1c-0.2-0.3-0.5-0.4-0.8-0.5c-0.3-0.1-0.8-0.1-1.2,0
	l-1.7,0.3l1.8,10.7L93.1,34.7z M98.6,27.6l4,5.3l-2.8,0.6l-3.9-5.3L98.6,27.6z"/>
<path class="st0" d="M106,19.4l3.3,9.9h0.1l2.6-10.1l2.9-0.1l-3.7,13.3l-3.3,0.1l-4.7-13L106,19.4z"/>
<path class="st0" d="M120.6,19.4l-0.7,13.1l-2.6-0.2l0.7-13.1L120.6,19.4z"/>
<path class="st0" d="M134.3,26.1l-2.6-0.5c0-0.4,0-0.7-0.1-1c-0.1-0.3-0.3-0.6-0.4-0.8c-0.2-0.2-0.4-0.4-0.7-0.6
	c-0.3-0.2-0.6-0.3-0.9-0.3c-0.6-0.1-1.2,0-1.7,0.2c-0.5,0.3-0.9,0.7-1.3,1.3c-0.4,0.6-0.6,1.3-0.7,2.2c-0.1,0.9-0.1,1.7,0,2.4
	c0.2,0.7,0.4,1.2,0.9,1.6c0.4,0.4,0.9,0.7,1.5,0.8c0.3,0.1,0.7,0.1,1,0c0.3,0,0.6-0.1,0.8-0.3c0.3-0.1,0.5-0.3,0.7-0.6
	c0.2-0.2,0.3-0.5,0.5-0.9l2.6,0.5c-0.2,0.6-0.4,1.1-0.8,1.6c-0.4,0.5-0.8,0.9-1.3,1.3c-0.5,0.4-1.1,0.6-1.7,0.7
	c-0.7,0.1-1.4,0.1-2.1,0c-1.1-0.2-2-0.6-2.8-1.3c-0.8-0.7-1.3-1.6-1.7-2.6c-0.3-1.1-0.4-2.3-0.2-3.7c0.2-1.4,0.7-2.6,1.3-3.5
	c0.6-0.9,1.4-1.5,2.4-1.9c0.9-0.4,1.9-0.5,3-0.3c0.7,0.1,1.3,0.3,1.9,0.7c0.6,0.3,1,0.7,1.4,1.2c0.4,0.5,0.7,1,0.9,1.7
	C134.2,24.7,134.3,25.4,134.3,26.1z"/>
<path class="st0" d="M135.5,35.3l3.7-12.6l7.8,2.7l-0.6,2.2l-5.4-1.8l-0.9,3l5,1.7l-0.6,2.2l-5-1.7l-0.9,3l5.4,1.8l-0.6,2.2
	L135.5,35.3z"/>
<path class="st0" d="M155.5,33.6c0.2-0.5,0.1-0.9-0.1-1.4c-0.2-0.4-0.6-0.8-1.2-1.1c-0.4-0.2-0.7-0.3-1-0.3c-0.3,0-0.6,0-0.8,0.2
	c-0.2,0.1-0.4,0.3-0.5,0.6c-0.1,0.2-0.1,0.4-0.1,0.6c0,0.2,0.1,0.4,0.2,0.6c0.1,0.2,0.3,0.4,0.4,0.6c0.2,0.2,0.4,0.4,0.6,0.6
	l0.9,0.8c0.4,0.4,0.8,0.7,1.1,1.1c0.3,0.4,0.6,0.8,0.7,1.2c0.2,0.4,0.3,0.9,0.3,1.4c0,0.5-0.1,0.9-0.3,1.4c-0.3,0.7-0.8,1.3-1.3,1.6
	c-0.6,0.4-1.2,0.5-2,0.5c-0.8,0-1.6-0.3-2.5-0.7c-0.9-0.5-1.6-1-2.1-1.6c-0.5-0.6-0.9-1.3-1-2.1c-0.1-0.8,0-1.6,0.4-2.4l2.3,1.1
	c-0.1,0.4-0.2,0.8-0.1,1.2c0.1,0.4,0.2,0.7,0.5,1c0.3,0.3,0.6,0.5,1,0.7c0.4,0.2,0.8,0.3,1.1,0.3c0.4,0,0.6,0,0.9-0.2
	c0.3-0.1,0.4-0.3,0.6-0.6c0.1-0.3,0.1-0.5,0.1-0.8c-0.1-0.3-0.2-0.5-0.4-0.8c-0.2-0.3-0.5-0.6-0.9-0.9l-1.1-0.9
	c-0.8-0.7-1.4-1.5-1.7-2.3c-0.3-0.8-0.3-1.6,0.1-2.5c0.3-0.7,0.8-1.3,1.4-1.6c0.6-0.4,1.3-0.5,2-0.5c0.8,0,1.5,0.2,2.4,0.6
	c0.8,0.4,1.5,0.9,2,1.5c0.5,0.6,0.8,1.3,0.9,2c0.1,0.7,0,1.4-0.3,2.1L155.5,33.6z"/>
<path class="st0" d="M159.5,46.6l6.9-10.8l2.1,1.6l-5.7,8.9l4.3,3.2l-1.2,1.9L159.5,46.6z"/>
<path class="st0" d="M177.1,44.4l-7.8,10.1l-2-1.8l7.8-10.1L177.1,44.4z"/>
<path class="st0" d="M180.4,47.3l2.2,2.5l-3.6,8.7l0.1,0.1l8.3-3.5l2.2,2.5l-8.8,9.1l-1.7-2l5.8-5.9l-0.1-0.1l-7.9,3.4l-1.2-1.3
	l3.6-8.3l-0.1-0.1l-5.8,5.9l-1.7-2L180.4,47.3z"/>
<path class="st0" d="M193.5,63.5l-9.8,7.8l-1.5-2.2l9.8-7.8L193.5,63.5z"/>
<path class="st0" d="M193.6,67.5l1.8-1.2l5.2,9.3l-1.8,1.2l-1.9-3.4l-8.6,5.6l-1.3-2.4l8.6-5.6L193.6,67.5z"/>
<path class="st0" d="M191.1,84.6l11.2-5.3l3.3,8.1l-2,0.9l-2.2-5.6l-2.7,1.3l2.1,5.2l-1.9,0.9l-2.1-5.2l-2.7,1.3l2.3,5.6l-1.9,0.9
	L191.1,84.6z"/>
<path class="st0" d="M196.5,100l-1.2-4.5l11.7-3.5l1.2,4.5c0.3,1.3,0.4,2.4,0.1,3.5c-0.2,1.1-0.7,2-1.5,2.7
	c-0.8,0.8-1.7,1.3-2.9,1.7c-1.2,0.4-2.3,0.4-3.4,0.2c-1-0.2-1.9-0.7-2.6-1.5C197.4,102.3,196.8,101.3,196.5,100z M198.2,97.6
	l0.4,1.7c0.2,0.8,0.5,1.4,0.9,1.9c0.4,0.5,0.9,0.7,1.5,0.9c0.6,0.1,1.4,0,2.2-0.2c0.9-0.3,1.5-0.6,2-1.1c0.5-0.4,0.8-1,0.9-1.6
	c0.1-0.6,0.1-1.3-0.1-2.1l-0.4-1.7L198.2,97.6z"/>
<path class="st0" d="M25,125c1.7,0,3-1.3,3-3s-1.3-3-3-3s-3,1.3-3,3S23.3,125,25,125z M202,125c1.7,0,3-1.3,3-3s-1.3-3-3-3
	s-3,1.3-3,3S200.3,125,202,125z"/>
<g>
	<path class="st0" d="M113,226C50.7,226,0,175.3,0,113S50.7,0,113,0s113,50.7,113,113S175.3,226,113,226z M113,7
		C54.6,7,7,54.6,7,113c0,58.4,47.6,106,106,106c58.4,0,106-47.6,106-106C219,54.6,171.4,7,113,7z"/>
</g>
</svg>
