<svg xmlns="http://www.w3.org/2000/svg" viewBox="0 0 20 21"><defs><style>.cls-1{fill:#8499a7;}</style></defs><g id="Layer_2" data-name="Layer 2"><g id="Layer_1-2" data-name="Layer 1"><path class="cls-1" d="M3.5,17a1,1,0,0,1,1-1h11a1,1,0,0,1,0,2H4.5A1,1,0,0,1,3.5,17Z"/><path class="cls-1" d="M19,1a1,1,0,0,0-1,1V19H4a2,2,0,0,1,0-4H16a1,1,0,0,0,1-1V1a1,1,0,0,0-1-1H4A4,4,0,0,0,0,4V17a4,4,0,0,0,4,4H19a1,1,0,0,0,1-1V2A1,1,0,0,0,19,1ZM9.5,3.5A2.29,2.29,0,1,1,7.22,5.79,2.29,2.29,0,0,1,9.5,3.5ZM7.35,9.35a3,3,0,0,1,2.15-.9,3.06,3.06,0,0,1,3.05,3.05H6.45A3,3,0,0,1,7.35,9.35Z"/></g></g></svg>
