<svg width="24" height="24" viewBox="0 0 24 24" fill="none" xmlns="http://www.w3.org/2000/svg">
<path fill-rule="evenodd" clip-rule="evenodd" d="M21 4.6875H17.0625V3.1875C17.0625 3.08437 16.9781 3 16.875 3H15.5625C15.4594 3 15.375 3.08437 15.375 3.1875V4.6875H9.375V3.1875C9.375 3.08437 9.29063 3 9.1875 3H7.875C7.77187 3 7.6875 3.08437 7.6875 3.1875V4.6875H3.75C3.33516 4.6875 3 5.02266 3 5.4375V21C3 21.4148 3.33516 21.75 3.75 21.75H21C21.4148 21.75 21.75 21.4148 21.75 21V5.4375C21.75 5.02266 21.4148 4.6875 21 4.6875ZM8.375 13.375C8.375 15.5842 10.1658 17.375 12.375 17.375C14.5842 17.375 16.375 15.5842 16.375 13.375C16.375 11.1658 14.5842 9.375 12.375 9.375C10.1658 9.375 8.375 11.1658 8.375 13.375ZM14.6377 15.6377C14.0376 16.2379 13.2237 16.575 12.375 16.575C11.5263 16.575 10.7124 16.2379 10.1123 15.6377C9.51214 15.0376 9.175 14.2237 9.175 13.375C9.175 12.5263 9.51214 11.7124 10.1123 11.1123C10.7124 10.5121 11.5263 10.175 12.375 10.175C13.2237 10.175 14.0376 10.5121 14.6377 11.1123C15.2379 11.7124 15.575 12.5263 15.575 13.375C15.575 14.2237 15.2379 15.0376 14.6377 15.6377ZM14.375 13.375H12.775V11.375H11.975V14.175H14.375V13.375Z" fill="#8499A7"/>
</svg>
