<svg xmlns="http://www.w3.org/2000/svg" viewBox="0 0 21 21"><defs><style>.cls-1{fill:#8499a7;fill-rule:evenodd;}</style></defs><g id="Layer_2" data-name="Layer 2"><g id="Layer_1-2" data-name="Layer 1"><path class="cls-1" d="M6.5,0a1,1,0,0,1,1,1v.5h6V1a1,1,0,0,1,2,0v.5H19a2,2,0,0,1,2,2V19a2,2,0,0,1-2,2H2a2,2,0,0,1-2-2V3.5a2,2,0,0,1,2-2H5.5V1A1,1,0,0,1,6.5,0Zm7,3.5V5a1,1,0,0,0,2,0V3.5H19V7H2V3.5H5.5V5a1,1,0,0,0,2,0V3.5Zm2.71,6.79a1,1,0,0,1,0,1.42l-6,6a1,1,0,0,1-1.42,0l-3-3a1,1,0,0,1,1.42-1.42l2.29,2.3,5.29-5.3A1,1,0,0,1,16.21,10.29Z"/></g></g></svg>