<svg xmlns="http://www.w3.org/2000/svg" viewBox="0 0 20 19"><defs><style>.cls-1{fill:#8499a7;}</style></defs><g id="Layer_2" data-name="Layer 2"><g id="Layer_1-2" data-name="Layer 1"><path class="cls-1" d="M19.71,5.3A1,1,0,0,0,19,5H15.66A3.36,3.36,0,0,0,16,3.29a3.5,3.5,0,0,0-.53-1.66A3.54,3.54,0,0,0,12.5,0a3.35,3.35,0,0,0-1.36.28A3.53,3.53,0,0,0,10,1.05,3.51,3.51,0,0,0,5.5.63a3.53,3.53,0,0,0-1.39,2A3.48,3.48,0,0,0,4.34,5H1A1,1,0,0,0,0,6V9a1,1,0,0,0,.29.71A1,1,0,0,0,1,10H2v7.91a1.16,1.16,0,0,0,.29.77A.94.94,0,0,0,3,19H17a.94.94,0,0,0,.71-.32,1.16,1.16,0,0,0,.29-.77V10h1a1,1,0,0,0,.71-.29A1,1,0,0,0,20,9V6A1,1,0,0,0,19.71,5.3ZM11,3.5V3.36a1.47,1.47,0,0,1,.43-.92A1.52,1.52,0,0,1,12.36,2h.28a1.52,1.52,0,0,1,1,.49,1.49,1.49,0,0,1,0,2,1.52,1.52,0,0,1-1,.49H11ZM6.47,2.42A1.45,1.45,0,0,1,7.5,2h.14A1.49,1.49,0,0,1,9,3.5V5H7.36a1.47,1.47,0,0,1-1-.52A1.45,1.45,0,0,1,6,3.43,1.5,1.5,0,0,1,6.47,2.42ZM12.79,10v1.05H9.44v2.18a3.63,3.63,0,0,0,0,.5q0,.2.09.33a.78.78,0,0,0,.12.19.4.4,0,0,0,.12.11l.1,0H10a.84.84,0,0,0,.3-.06,1.63,1.63,0,0,0,.34-.19,2.15,2.15,0,0,0,.32-.29,2,2,0,0,0,.27-.33,2.09,2.09,0,0,0,.19-.36,1.05,1.05,0,0,0,.06-.33,1,1,0,0,0,0-.3s0,0,0,.06a.91.91,0,0,1-.15.23A.61.61,0,0,1,11,13a.92.92,0,0,1-.71,0,.73.73,0,0,1-.29-.19.91.91,0,0,1-.19-.29,1,1,0,0,1-.07-.34,1.18,1.18,0,0,1,.05-.31,1,1,0,0,1,.19-.34,1.21,1.21,0,0,1,.38-.26,1.51,1.51,0,0,1,.6-.1,1.73,1.73,0,0,1,.75.15,1.58,1.58,0,0,1,.52.39,1.72,1.72,0,0,1,.3.55,2.2,2.2,0,0,1,0,1.4,2.69,2.69,0,0,1-.34.65,2.57,2.57,0,0,1-.47.52,3.34,3.34,0,0,1-.55.4,3,3,0,0,1-.56.25,1.78,1.78,0,0,1-.53.09,1.47,1.47,0,0,1-.33,0,1.78,1.78,0,0,1-.39-.13,1.61,1.61,0,0,1-.4-.26,1.43,1.43,0,0,1-.35-.41,2.21,2.21,0,0,1-.25-.58,3.12,3.12,0,0,1-.09-.79v-2.3h-1V10h1V9A.58.58,0,0,1,8,9a.64.64,0,0,1-.19-.13.5.5,0,0,1-.13-.19.69.69,0,0,1,0-.24.74.74,0,0,1,0-.25A.78.78,0,0,1,7.8,7.9a1,1,0,0,1,.26-.18.87.87,0,0,1,.37-.07.86.86,0,0,1,.49.14.93.93,0,0,1,.31.34,1.4,1.4,0,0,1,.16.46,2.94,2.94,0,0,1,0,.51V10Z"/></g></g></svg>