<svg xmlns="http://www.w3.org/2000/svg" viewBox="0 0 20 20"><defs><style>.cls-1{fill:#8499a7;}</style></defs><g id="Layer_2" data-name="Layer 2"><g id="Layer_1-2" data-name="Layer 1"><path class="cls-1" d="M6.5,0a1,1,0,0,0-1,1V5.5a1,1,0,0,0,1,1H9V9H4.5a1,1,0,0,0-1,1v3.5H1a1,1,0,0,0-1,1V19a1,1,0,0,0,1,1H8a1,1,0,0,0,1-1V14.5a1,1,0,0,0-1-1H5.5V11h9v2.5H12a1,1,0,0,0-1,1V19a1,1,0,0,0,1,1h7a1,1,0,0,0,1-1V14.5a1,1,0,0,0-1-1H16.5V10a1,1,0,0,0-1-1H11V6.5h2.5a1,1,0,0,0,1-1V1a1,1,0,0,0-1-1Z"/></g></g></svg>