<svg xmlns="http://www.w3.org/2000/svg" viewBox="0 0 20 22"><defs><style>.cls-1{fill:#8499a7;}</style></defs><g id="Layer_2" data-name="Layer 2"><g id="Layer_1-2" data-name="Layer 1"><path class="cls-1" d="M10,0a1,1,0,0,1,1,.88v.17a10,10,0,0,1,9,9.64V12a1,1,0,0,1-2,.13v-.26a1.47,1.47,0,0,0-1.24-1.37,1.47,1.47,0,0,0-1.24,1.37v.26a1,1,0,0,1-2,0v-.26a1.47,1.47,0,0,0-1.24-1.37A1.47,1.47,0,0,0,11,11.87V18h3.58l2.71-2.71a1,1,0,0,1,1.42,0,1,1,0,0,1,.08,1.32l-.08.1-3,3a1.06,1.06,0,0,1-.58.28H15v1a1,1,0,0,1-2,.12V20H6.5v1a1,1,0,0,1-2,.12V20H2a1,1,0,0,1-.12-2H9V11.87A1.47,1.47,0,0,0,7.75,10.5a1.47,1.47,0,0,0-1.24,1.37v.26a1,1,0,0,1-2,0v-.26A1.47,1.47,0,0,0,3.25,10.5,1.47,1.47,0,0,0,2,11.87v.26a1,1,0,0,1-2,0V11A10,10,0,0,1,9,1.05V1A1,1,0,0,1,10,0Zm0,3a7.9,7.9,0,0,0-3.43.77A10.24,10.24,0,0,0,5.09,6.09a8.79,8.79,0,0,0-.74,2.63,3.32,3.32,0,0,1,.91.57l.16.15.08.08.08-.08.17-.16a4,4,0,0,1,.6-.42,7.07,7.07,0,0,1,.56-1.95A8.84,8.84,0,0,1,8.44,4.67l.27-.3L9,4.09v4.7a3.44,3.44,0,0,1,.76.5l.16.15.08.08.08-.08.16-.15a3.17,3.17,0,0,1,.56-.4l.2-.1V4.2l.36.44a9.61,9.61,0,0,1,1.21,2.22,15.72,15.72,0,0,1,.56,1.78,3.27,3.27,0,0,1,1.13.65l.16.15.08.08.08-.08.15-.14a3.22,3.22,0,0,1,.53-.38,18.16,18.16,0,0,0-.83-2.78,11.06,11.06,0,0,0-1.26-2.39l-.09-.14A8.06,8.06,0,0,0,10,3Z"/></g></g></svg>