<svg xmlns="http://www.w3.org/2000/svg" viewBox="0 0 21 16.5"><defs><style>.cls-1{fill:#8499a7;}</style></defs><g id="Layer_2" data-name="Layer 2"><g id="Layer_1-2" data-name="Layer 1"><path class="cls-1" d="M7.24,5.88A1.22,1.22,0,1,0,8.45,7.1,1.22,1.22,0,0,0,7.24,5.88ZM20.25,0H.75A.76.76,0,0,0,0,.75v15a.76.76,0,0,0,.75.75h19.5a.76.76,0,0,0,.75-.75V.75A.76.76,0,0,0,20.25,0Zm-7.5,6.09c0-.1,0-.18.05-.18h2.9s.05.08.05.18V7.22c0,.1,0,.19-.05.19H12.8s-.05-.09-.05-.19Zm-2,5.93h-1a.19.19,0,0,1-.19-.17,2.29,2.29,0,0,0-4.56,0,.17.17,0,0,1-.18.17H3.68l-.07,0,0-.07s0-.05,0-.07a3.72,3.72,0,0,1,1.75-3A2.62,2.62,0,1,1,9.85,7.1a2.65,2.65,0,0,1-.68,1.77,3.72,3.72,0,0,1,1.75,3A.18.18,0,0,1,10.73,12Zm6.54-1.24H12.92a.17.17,0,0,1-.17-.19V9.47a.18.18,0,0,1,.17-.19h4.35a.19.19,0,0,1,.17.19v1.12h0A.18.18,0,0,1,17.27,10.78Z"/></g></g></svg>