<svg xmlns="http://www.w3.org/2000/svg" viewBox="0 0 21 21"><defs><style>.cls-1{fill:#8499a7;}</style></defs><g id="Layer_2" data-name="Layer 2"><g id="Layer_1-2" data-name="Layer 1"><path class="cls-1" d="M19,1.5H15.5V1a1,1,0,0,0-2,0v.5h-6V1a1,1,0,0,0-2,0v.5H2a2,2,0,0,0-2,2V19a2,2,0,0,0,2,2H19a2,2,0,0,0,2-2V3.5A2,2,0,0,0,19,1.5ZM10.7,17.79H7.12A3.26,3.26,0,0,1,8.2,15.4a3.31,3.31,0,0,1,1.17-.66,3.16,3.16,0,0,1,1.33-.11Zm-2.78-6a2.39,2.39,0,1,1,2.39,2.39A2.39,2.39,0,0,1,7.92,11.82Zm4.69,6.26-1.41-1.4.57-.57.84.85h0L14,15.55l.56.56ZM19,7H2V3.5H5.5V5a1,1,0,0,0,2,0V3.5h6V5a1,1,0,0,0,2,0V3.5H19Z"/></g></g></svg>