<svg xmlns="http://www.w3.org/2000/svg" viewBox="0 0 18.75 18.75"><defs><style>.cls-1{fill:#8499a7;}</style></defs><g id="Layer_2" data-name="Layer 2"><g id="Layer_1-2" data-name="Layer 1"><rect class="cls-1" x="7.71" y="10.37" width="3.33" height="1"/><rect class="cls-1" x="7.71" y="12.37" width="3.33" height="1"/><polygon class="cls-1" points="10.27 8.3 12.14 8.3 10.27 6.2 10.27 8.3"/><path class="cls-1" d="M18,1.69H14.06V.19A.18.18,0,0,0,13.87,0H12.56a.19.19,0,0,0-.19.19v1.5h-6V.19A.18.18,0,0,0,6.19,0H4.87a.18.18,0,0,0-.18.19v1.5H.75A.75.75,0,0,0,0,2.44V18a.76.76,0,0,0,.75.75H18a.76.76,0,0,0,.75-.75V2.44A.75.75,0,0,0,18,1.69ZM12.87,15a.34.34,0,0,1-.31.36H6.19A.35.35,0,0,1,5.87,15V5.73a.34.34,0,0,1,.32-.35h4.23a.28.28,0,0,1,.22.1l2.14,2.4a.39.39,0,0,1,.09.26Z"/></g></g></svg>