<svg xmlns="http://www.w3.org/2000/svg" viewBox="0 0 20 20"><defs><style>.cls-1{fill:#8499a7;}</style></defs><g id="Layer_2" data-name="Layer 2"><g id="Layer_1-2" data-name="Layer 1"><path class="cls-1" d="M15,10a7,7,0,0,0,1.86-6.58L19.3,2.3a.51.51,0,0,1,.24,0,.49.49,0,0,1,.24.08.69.69,0,0,1,.16.18.5.5,0,0,1,.06.24V17l-7,3L7,17,.7,19.7a.51.51,0,0,1-.24,0,.62.62,0,0,1-.24-.08.69.69,0,0,1-.16-.18A.5.5,0,0,1,0,19.24V5L3.13,3.66A7,7,0,0,0,5.05,10l5,5ZM13.54,8.54,10,12.07,6.46,8.54A5,5,0,0,1,5.1,6a4.9,4.9,0,0,1,.28-2.88,5,5,0,0,1,9.24,0A4.9,4.9,0,0,1,14.9,6a5,5,0,0,1-1.36,2.57Z"/></g></g></svg>