<svg xmlns="http://www.w3.org/2000/svg" viewBox="0 0 19.8 17"><defs><style>.cls-1{fill:#8499a7;}</style></defs><g id="Layer_2" data-name="Layer 2"><g id="Layer_1-2" data-name="Layer 1"><path class="cls-1" d="M19.18,10A2.27,2.27,0,0,1,18,9.26a3.26,3.26,0,0,1-.56-1.41,3.92,3.92,0,0,1-.73-.17c-.39,0-1-.11-1.35-.11s-.84.11-1.23.11-.73.17-.79.17a2.56,2.56,0,0,1-.45,1.41,3.17,3.17,0,0,1-1.23.78c0,.06,0,.45.06,1.18A4.91,4.91,0,0,0,12,12.4a6.15,6.15,0,0,0,1.35,2.24,6,6,0,0,0,2,1.63,8.37,8.37,0,0,0,2.35-1.85,9.8,9.8,0,0,0,1.13-2c.16-.45.22-.84.33-1.18Zm-4.32,4V12.45H13.24v-1h1.62V9.82h1v1.62H17.5v1H15.87v1.63ZM13.8,16.83H0c0-5.55,2-4.15,6.17-6.51v-1C5.44,8.92,5.33,8,5,7c0,0-.17-.22-.17-.39V6.56c-.05-.17-.16-.33-.22-.56s-.34-.84-.06-1.12a.2.2,0,0,1,.34,0C4.54,3.36,4.15,1.34,6.34.73c0-1.35,5.1-.79,5.72,1.4A10.49,10.49,0,0,1,12,4.93c.06-.16.17-.16.23,0,.28.17,0,1-.06,1.18v.05H12v.4a1.9,1.9,0,0,1-.06.44c-.06,0-.06,0-.06.06s-.05.34-.16.45A2.43,2.43,0,0,1,10,8.69l-.22.12-.06.33a10,10,0,0,0,.56,3A7.69,7.69,0,0,0,13.8,16.83Zm4.65-8a1.47,1.47,0,0,0,.84.45l.23.11c.17.06.28.17.28.28V10s0,.56-.06,1.24a7.66,7.66,0,0,1-.39,1.34,7.45,7.45,0,0,1-1.18,2.19,8.22,8.22,0,0,1-2.58,2.13l-.17.06h-.33L15,16.94h0a8.43,8.43,0,0,1-2.25-1.79,7.54,7.54,0,0,1-1.46-2.53c-.16-.45-.22-.95-.33-1.34-.06-.73-.06-1.24-.06-1.24V9.7c0-.16.06-.22.23-.28l.33-.11a1.56,1.56,0,0,0,.84-.45,2.06,2.06,0,0,0,.4-1V7.63c0-.17.05-.34.22-.39h.22a5.13,5.13,0,0,0,.79-.17,12.66,12.66,0,0,1,1.4-.17,5.27,5.27,0,0,1,1.4.17,1.55,1.55,0,0,1,.79.17h.34a.37.37,0,0,1,.22.39v.22A1.68,1.68,0,0,0,18.45,8.86Z"/></g></g></svg>