<svg xmlns="http://www.w3.org/2000/svg" viewBox="0 0 16 22"><defs><style>.cls-1{fill:#8499a7;fill-rule:evenodd;}</style></defs><g id="Layer_2" data-name="Layer 2"><g id="Layer_1-2" data-name="Layer 1"><path class="cls-1" d="M0,2A2,2,0,0,1,2,0H14a2,2,0,0,1,2,2V21a1,1,0,0,1-1.58.81L11.5,19.73,8.58,21.81a1,1,0,0,1-1.16,0L4.5,19.73,1.58,21.81a1,1,0,0,1-1,.08A1,1,0,0,1,0,21ZM4,6A1,1,0,0,1,5,5h6a1,1,0,0,1,0,2H5A1,1,0,0,1,4,6ZM5,9a1,1,0,0,0,0,2h6a1,1,0,0,0,0-2Zm0,4a1,1,0,0,0,0,2h6a1,1,0,0,0,0-2Z"/></g></g></svg>