<svg xmlns="http://www.w3.org/2000/svg" viewBox="0 0 20.19 20"><defs><style>.cls-1{fill:#8499a7;}</style></defs><g id="Layer_2" data-name="Layer 2"><g id="Layer_1-2" data-name="Layer 1"><path class="cls-1" d="M18,4.76V1a1,1,0,0,0-1-1H1A1,1,0,0,0,0,1V19a1,1,0,0,0,1,1H17a1,1,0,0,0,1-1V13.24L13.24,18H9V13.76ZM6.93,5.63H4.38V7.29a2,2,0,0,0,0,.38,1.26,1.26,0,0,0,.07.25.42.42,0,0,0,.08.15.32.32,0,0,0,.09.08.13.13,0,0,0,.08,0H4.8a.66.66,0,0,0,.23,0A1,1,0,0,0,5.28,8a1.6,1.6,0,0,0,.26-.21,2.56,2.56,0,0,0,.2-.26,1.3,1.3,0,0,0,.14-.26.85.85,0,0,0,0-.25.59.59,0,0,0,0-.23s0,0,0,0A.52.52,0,0,1,5.76,7a.42.42,0,0,1-.18.13.68.68,0,0,1-.54,0A.83.83,0,0,1,4.82,7a.68.68,0,0,1-.14-.23.71.71,0,0,1,0-.26.75.75,0,0,1,0-.24A.63.63,0,0,1,4.81,6a1.26,1.26,0,0,1,.28-.2,1.29,1.29,0,0,1,.47-.07,1.4,1.4,0,0,1,.56.11,1.24,1.24,0,0,1,.4.3,1.2,1.2,0,0,1,.22.42A1.34,1.34,0,0,1,6.82,7a1.57,1.57,0,0,1-.1.58,2,2,0,0,1-.25.5,2.69,2.69,0,0,1-.36.39,3,3,0,0,1-.42.31A3.15,3.15,0,0,1,5.26,9a1.43,1.43,0,0,1-.39.06L4.62,9a1.39,1.39,0,0,1-.31-.1A1.66,1.66,0,0,1,4,8.74a1.67,1.67,0,0,1-.27-.31A1.85,1.85,0,0,1,3.55,8a2.6,2.6,0,0,1-.07-.6V5.63H2.69V4.84h.79V4.05a.56.56,0,0,1-.23,0l-.14-.1A.49.49,0,0,1,3,3.77a.58.58,0,0,1,0-.18A.65.65,0,0,1,3,3.4a.57.57,0,0,1,.12-.18.52.52,0,0,1,.21-.14A.57.57,0,0,1,3.61,3a.6.6,0,0,1,.37.1.78.78,0,0,1,.25.26,1.8,1.8,0,0,1,.12.35,2.56,2.56,0,0,1,0,.39v.71H6.93Z"/><polygon class="cls-1" points="11 16 12.42 16 20.2 8.22 18.78 6.81 11 14.59 11 16"/></g></g></svg>