<svg width="50" height="50" viewBox="0 0 50 50" fill="none" xmlns="http://www.w3.org/2000/svg">
<path d="M35.5 40H14.5C13.3065 40 12.1619 39.5259 11.318 38.682C10.4741 37.8381 10 36.6935 10 35.5V11.5C10 11.1022 10.158 10.7206 10.4393 10.4393C10.7206 10.158 11.1022 10 11.5 10H32.5C32.8978 10 33.2794 10.158 33.5607 10.4393C33.842 10.7206 34 11.1022 34 11.5V29.5H40V35.5C40 36.6935 39.5259 37.8381 38.682 38.682C37.8381 39.5259 36.6935 40 35.5 40ZM34 32.5V35.5C34 35.8978 34.158 36.2794 34.4393 36.5607C34.7206 36.842 35.1022 37 35.5 37C35.8978 37 36.2794 36.842 36.5607 36.5607C36.842 36.2794 37 35.8978 37 35.5V32.5H34ZM16 15.25V20.5H21.25V15.25H16ZM16 23.5V26.5H28V23.5H16ZM16 29.5V32.5H28V29.5H16Z" fill="#8099AD"/>
</svg>
