<svg xmlns="http://www.w3.org/2000/svg" viewBox="0 0 22 20"><defs><style>.cls-1{fill:#8499a7;}</style></defs><g id="Layer_2" data-name="Layer 2"><g id="Layer_1-2" data-name="Layer 1"><path class="cls-1" d="M13.22,6.56H11.44V4.78a.44.44,0,1,0-.88,0V6.56H8.78a.44.44,0,1,0,0,.88h1.78V9.22a.44.44,0,1,0,.88,0V7.44h1.78a.44.44,0,1,0,0-.88Z"/><path class="cls-1" d="M21.12.88A3,3,0,0,0,19,0H5A3,3,0,0,0,2,3V13H18v4.12A1,1,0,0,1,17,18h-.12A1,1,0,0,1,16,17V15H0v2a3,3,0,0,0,3,3H17a3,3,0,0,0,3-3V5h2V3A3,3,0,0,0,21.12.88ZM11,11a4,4,0,1,1,4-4A4,4,0,0,1,11,11Z"/></g></g></svg>