<svg width="24" height="24" viewBox="0 0 24 24" fill="none" xmlns="http://www.w3.org/2000/svg">
<g clip-path="url(#clip0_3327_2327)">
<path d="M22.1 2.9C21.6 2.3 20.8 2 20 2H6C5.2 2 4.4 2.3 3.9 2.9C3.3 3.4 3 4.2 3 5V15H19V19V19.1C19 19.3 18.9 19.6 18.7 19.7C18.5 19.9 18.2 20 18 20H17.9C17.7 20 17.4 19.9 17.3 19.7C17.1 19.5 17 19.2 17 19V17H1V19C1 19.8 1.3 20.6 1.9 21.1C2.4 21.7 3.2 22 4 22H18C18.8 22 19.6 21.7 20.1 21.1C20.7 20.5 21 19.8 21 19V7H23V5C23 4.2 22.7 3.4 22.1 2.9ZM13.3 7.6C13.6 7.3 14 7.1 14.5 7.1C15 7.1 15.4 7.3 15.7 7.6C16 7.9 16.2 8.3 16.2 8.8C16.2 9.3 16 9.7 15.7 10C15.4 10.3 15 10.5 14.5 10.5C14 10.5 13.7 10.3 13.3 10C13 9.7 12.8 9.3 12.8 8.8C12.8 8.3 13 7.9 13.3 7.6ZM8.4 6.2C8.5 6 8.6 5.8 8.8 5.6C9 5.4 9.2 5.3 9.4 5.2C9.6 5.1 9.9 5 10.1 5C10.6 5 11.1 5.2 11.4 5.6C11.8 5.9 12 6.4 12 6.9C12 7.4 11.8 7.9 11.4 8.2C11 8.6 10.6 8.8 10.1 8.8C9.9 8.8 9.6 8.8 9.4 8.7C9.2 8.6 8.9 8.4 8.8 8.2C8.6 8.1 8.4 7.8 8.4 7.6C8.3 7.4 8.2 7.1 8.2 6.9C8.2 6.6 8.3 6.4 8.4 6.2ZM12.2 13H8V11.3C8 10.7 8.2 10.2 8.6 9.8C9 9.4 9.5 9.2 10.1 9.2C10.4 9.2 10.7 9.3 10.9 9.4C11.2 9.5 11.4 9.7 11.6 9.9C11.8 10.1 12 10.3 12.1 10.6C12.2 10.9 12.3 11.1 12.3 11.4V13H12.2ZM16.4 13H12.6V12.8C12.6 12.3 12.8 11.8 13.2 11.5C13.6 11.2 14 10.9 14.5 10.9C15 10.9 15.5 11.1 15.8 11.5C16.1 11.9 16.4 12.3 16.4 12.8V13V13Z" fill="#8499A7"/>
</g>
<defs>
<clipPath id="clip0_3327_2327">
<rect width="22" height="20" fill="white" transform="translate(1 2)"/>
</clipPath>
</defs>
</svg>
