<svg width="24" height="24" viewBox="0 0 24 24" fill="none" xmlns="http://www.w3.org/2000/svg">
<g clip-path="url(#clip0_3327_2326)">
<path d="M22.1 2.9C21.6 2.3 20.8 2 20 2H6C5.2 2 4.4 2.3 3.9 2.9C3.3 3.4 3 4.2 3 5V15H19V19V19.1C19 19.3 18.9 19.6 18.7 19.7C18.5 19.9 18.2 20 18 20H17.9C17.7 20 17.4 19.9 17.3 19.7C17.1 19.5 17 19.2 17 19V17H1V19C1 19.8 1.3 20.6 1.9 21.1C2.4 21.7 3.2 22 4 22H18C18.8 22 19.6 21.7 20.1 21.1C20.7 20.5 21 19.8 21 19V7H23V5C23 4.2 22.7 3.4 22.1 2.9ZM11.8 5C13 5 14 6 14 7.1C14 8.3 13 9.2 11.9 9.2C10.7 9.2 9.8 8.2 9.8 7.1C9.7 6 10.7 5 11.8 5ZM12.2 12.5H9C9 12.1 9.1 11.7 9.3 11.3C9.5 10.9 9.7 10.6 10 10.3C10.3 10 10.7 9.8 11 9.7C11.3 9.6 11.8 9.5 12.2 9.6V12.5ZM13.9 12.7L12.6 11.4L13.2 11L14 11.8L15.3 10.5L15.7 11L13.9 12.7Z" fill="#8499A7"/>
</g>
<defs>
<clipPath id="clip0_3327_2326">
<rect width="22" height="20" fill="white" transform="translate(1 2)"/>
</clipPath>
</defs>
</svg>
