<svg xmlns="http://www.w3.org/2000/svg" viewBox="0 0 20 18"><defs><style>.cls-1{fill:#8499a7;}</style></defs><g id="Layer_2" data-name="Layer 2"><g id="Layer_1-2" data-name="Layer 1"><path class="cls-1" d="M0,17a1,1,0,0,0,.29.71A1,1,0,0,0,1,18H19a1,1,0,0,0,1-1V6.33H0Zm7.78-6.26h.83V9.92a.61.61,0,0,1-.24,0,.38.38,0,0,1-.14-.11.35.35,0,0,1-.11-.15.38.38,0,0,1,0-.19.51.51,0,0,1,0-.2A.72.72,0,0,1,8.25,9a1.1,1.1,0,0,1,.21-.14.83.83,0,0,1,.29-.06A.69.69,0,0,1,9.14,9a1.07,1.07,0,0,1,.25.27,1.53,1.53,0,0,1,.12.38,1.75,1.75,0,0,1,0,.4v.74h2.67v.84H9.55V13.3a2.25,2.25,0,0,0,0,.4,1.05,1.05,0,0,0,.07.26.4.4,0,0,0,.09.16.35.35,0,0,0,.1.08.13.13,0,0,0,.07,0H10a.79.79,0,0,0,.24-.05A1.43,1.43,0,0,0,10.5,14a2.68,2.68,0,0,0,.26-.23,2.78,2.78,0,0,0,.21-.27,1.22,1.22,0,0,0,.14-.28.66.66,0,0,0,.06-.27.85.85,0,0,0,0-.23l0,.05A.71.71,0,0,1,11,13a.64.64,0,0,1-.19.13.77.77,0,0,1-.56,0A.6.6,0,0,1,10,13a.61.61,0,0,1-.15-.23.76.76,0,0,1,0-.27,1.41,1.41,0,0,1,0-.25.67.67,0,0,1,.45-.46,1.11,1.11,0,0,1,.48-.09,1.4,1.4,0,0,1,.6.12,1.23,1.23,0,0,1,.4.31,1.36,1.36,0,0,1,.25.44,1.75,1.75,0,0,1,.07.51,1.68,1.68,0,0,1-.1.6,2.06,2.06,0,0,1-.27.51,3.09,3.09,0,0,1-.37.43,3.19,3.19,0,0,1-.44.31,2.22,2.22,0,0,1-.45.2,1.6,1.6,0,0,1-.41.07.93.93,0,0,1-.27,0,1.11,1.11,0,0,1-.31-.1,1.49,1.49,0,0,1-.31-.2,1.24,1.24,0,0,1-.28-.32,1.67,1.67,0,0,1-.2-.47,2,2,0,0,1-.08-.63V11.58H7.78Z"/><path class="cls-1" d="M19.71.29A1,1,0,0,0,19,0H1A1,1,0,0,0,.29.29,1,1,0,0,0,0,1V4H20V1A1,1,0,0,0,19.71.29Z"/></g></g></svg>