<svg xmlns="http://www.w3.org/2000/svg" viewBox="0 0 17.25 17.25"><defs><style>.cls-1{fill:#8499a7;}</style></defs><g id="Layer_2" data-name="Layer 2"><g id="Layer_1-2" data-name="Layer 1"><path class="cls-1" d="M16.87,0H9.75a.38.38,0,0,0-.38.38V7.5a.38.38,0,0,0,.38.38h7.12a.38.38,0,0,0,.38-.38V.38A.38.38,0,0,0,16.87,0Zm0,9.38H9.75a.37.37,0,0,0-.38.37v7.13a.38.38,0,0,0,.38.37h7.12a.38.38,0,0,0,.38-.37V9.75A.37.37,0,0,0,16.87,9.38ZM7.5,0H.38A.38.38,0,0,0,0,.38V7.5a.38.38,0,0,0,.38.38H7.5a.37.37,0,0,0,.37-.38V.38A.37.37,0,0,0,7.5,0Zm0,9.38H.38A.37.37,0,0,0,0,9.75v7.13a.38.38,0,0,0,.38.37H7.5a.37.37,0,0,0,.37-.37V9.75A.36.36,0,0,0,7.5,9.38Z"/></g></g></svg>