<svg xmlns="http://www.w3.org/2000/svg" viewBox="0 0 20 20"><defs><style>.cls-1{fill:#8499a7;}</style></defs><g id="Layer_2" data-name="Layer 2"><g id="Layer_1-2" data-name="Layer 1"><path class="cls-1" d="M10,9a5,5,0,0,1,5,5v6H5V14a5,5,0,0,1,5-5ZM3.29,12A6.55,6.55,0,0,0,3,13.66V20H0V15.5a3.55,3.55,0,0,1,.89-2.34A3.5,3.5,0,0,1,3.12,12Zm13.42,0A3.49,3.49,0,0,1,20,15.5V20H17V14A6.89,6.89,0,0,0,16.71,12ZM3.5,6a2.49,2.49,0,1,1-1.77.73A2.51,2.51,0,0,1,3.5,6Zm13,0a2.49,2.49,0,1,1-1.77.73A2.51,2.51,0,0,1,16.5,6ZM10,0A4,4,0,1,1,7.17,1.17,4,4,0,0,1,10,0Z"/></g></g></svg>